<?xml version="1.0" standalone="no"?>
<!DOCTYPE svg PUBLIC "-//W3C//DTD SVG 1.1//EN" "http://www.w3.org/Graphics/SVG/1.1/DTD/svg11.dtd" >
<svg xmlns="http://www.w3.org/2000/svg">
<metadata>
This is a custom SVG webfont generated by Font Squirrel.
Copyright   :  thebend aka Dimitri Castrique 2007 wwwthebendbe
Designer    : Dimitri Castrique
Foundry     : Dimitri Castrique
Foundry URL : FREE  donationware
</metadata>
<defs>
<font id="QlassikMediumRegular" horiz-adv-x="909" >
<font-face units-per-em="2048" ascent="1638" descent="-410" />
<missing-glyph horiz-adv-x="464" />
<glyph horiz-adv-x="0" />
<glyph horiz-adv-x="0" />
<glyph unicode="&#xd;" horiz-adv-x="464" />
<glyph unicode=" "  horiz-adv-x="464" />
<glyph unicode="&#x09;" horiz-adv-x="464" />
<glyph unicode="&#xa0;" horiz-adv-x="464" />
<glyph unicode="!" horiz-adv-x="395" d="M94 100q0 115 109 115q61 0 78.5 -27.5t15.5 -83.5q-2 -53 -22.5 -87.5t-84.5 -34.5q-53 0 -74.5 28.5t-21.5 89.5zM96 1294q2 29 54.5 39t142.5 10q10 -23 15 -51t5 -69q-2 -66 -6 -165.5t-10 -204.5t-12 -201.5t-9 -155.5q-4 -43 -48 -59.5t-97 -16.5q-4 76 -8 189.5 t-9 236.5t-10.5 242.5t-7.5 205.5z" />
<glyph unicode="&#x22;" horiz-adv-x="600" d="M68 1460q18 10 52 18.5t64 8.5q16 0 29 -4q16 -4 21.5 -25.5t5.5 -50.5v-16q-2 -43 -7.5 -94.5t-11.5 -98.5t-14 -83t-14 -50q-4 -4 -16.5 -9t-29 -8.5t-32 -5.5t-23.5 -2q0 27 -4 86.5t-9 126t-8 124.5t-3 83zM362 1460q18 10 52.5 18.5t64.5 8.5q16 0 29 -4 q16 -4 21.5 -25.5t5.5 -50.5v-16q-2 -43 -7.5 -94.5t-11.5 -98.5t-14 -83t-15 -50q-4 -4 -16 -9t-28.5 -8.5t-32 -5.5t-23.5 -2q0 27 -4 86.5t-9 126t-8.5 124.5t-3.5 83z" />
<glyph unicode="#" d="M57 479q0 4 10.5 27.5t16.5 36.5h123q10 61 17 121.5t18 121.5h-138v39q-8 14 -8 23q0 2 3 11t8.5 20.5t9.5 20.5t6 13h135q6 33 5 72t10.5 70.5t41 53t97.5 21.5q8 -8 8 -22q0 -45 -11.5 -96t-19.5 -99h191q4 31 3 69t10 70.5t42 55t98 22.5q6 -6 6 -20q0 -47 -11 -97 t-17 -100h118v-22q0 -10 -2 -17q10 -16 11 -26q0 -4 -9.5 -27.5t-17.5 -34.5h-119q-8 -61 -16 -121.5t-17 -121.5h138v-39q8 -14 8 -25l-3 -9q-3 -9 -7 -20.5t-8.5 -21.5t-6.5 -12h-139q-6 -37 -5 -81t-10.5 -81t-41 -61.5t-97.5 -24.5q-8 6 -8 22q0 53 12.5 112.5 t22.5 113.5h-195q-4 -29 -8 -71t-11 -81t-20.5 -66.5t-33.5 -27.5q-16 0 -40 5t-52 11q10 57 18 113.5t18 116.5h-124q0 31 2 41q-11 14 -11 22zM338 543h192q8 61 15.5 121.5t17.5 121.5h-192q-8 -61 -16.5 -121.5t-16.5 -121.5z" />
<glyph unicode="$" d="M111 86q0 12 3 28.5t8 35t12 35t16 26.5q43 -33 107.5 -52.5t137.5 -19.5q92 0 149.5 36t57.5 122q0 57 -28.5 103t-102.5 106q-23 23 -49.5 46t-54.5 48q-45 37 -84 69.5t-68 65.5q-51 57 -70.5 106.5t-19.5 98.5q0 45 15.5 89t48 81t84 63.5t122.5 38.5l21 177 q0 43 39 54t112 11l-20 -237q98 -6 149.5 -30t63.5 -40q0 -20 -9.5 -50t-25.5 -53q-6 -4 -23 -4q-16 0 -34 9q-31 12 -71 20t-87 8q-90 0 -142.5 -35.5t-52.5 -107.5v-8q6 -33 25.5 -61.5t50.5 -59.5q35 -35 74 -67.5t84 -67.5q35 -29 65.5 -53.5t59.5 -53.5 q63 -55 92 -115.5t29 -138.5q0 -123 -72 -207t-211 -108l-20 -172q0 -43 -37 -54.5t-115 -11.5l20 230q-86 4 -142 21.5t-83 39.5q-24 19 -24 39z" />
<glyph unicode="%" horiz-adv-x="1433" d="M90 987q0 76 17.5 142.5t53.5 113.5t89 75t125 28h2q61 0 110.5 -17.5t85 -58.5t55 -109.5t19.5 -169.5q0 -164 -69.5 -263t-210.5 -99q-63 0 -114.5 17.5t-87.5 58t-55.5 110.5t-19.5 172zM240 985q0 -125 32.5 -182.5t96.5 -57.5q59 0 96 59.5t37 186.5 q0 131 -34 185.5t-93 54.5h-2q-59 0 -96 -60.5t-37 -185.5zM254 4q25 47 81 142.5t128 216t154.5 258t163.5 270.5t152 249.5t120 198.5q20 35 28 35t35 -16q18 -12 30.5 -24.5t16.5 -28.5q-23 -39 -72 -123t-115.5 -196t-144 -244t-158.5 -265t-158 -259t-140 -228 q-29 -49 -43 -49q-2 0 -14.5 6t-27 15t-25.5 20.5t-11 21.5zM786 332q0 78 18.5 144.5t54.5 114.5t89 75.5t125 27.5h2q61 0 110.5 -18.5t85.5 -60.5t54 -110.5t18 -168.5q0 -164 -69.5 -261.5t-208.5 -97.5q-61 0 -112.5 16.5t-88.5 56.5t-57.5 109t-20.5 173zM934 330 q0 -125 32.5 -182.5t98.5 -57.5q59 0 96 58.5t37 185.5q0 133 -32.5 187t-96.5 54q-63 0 -99 -61t-36 -184z" />
<glyph unicode="&#x26;" horiz-adv-x="1187" d="M53 342q0 63 20.5 119.5t54.5 102.5t77 85t86 70q-66 88 -102.5 175t-36.5 177q0 68 24.5 122t67.5 91t103.5 57.5t131.5 20.5q98 0 156.5 -23.5t58.5 -60.5q0 -12 -11 -48t-28 -59q-41 29 -83 41.5t-89 12.5q-72 0 -123 -39t-51 -125q0 -59 46 -139t114 -167 t145.5 -176.5t141.5 -162.5q39 78 64.5 139t39.5 111.5t19.5 91.5t5.5 78v23q0 7 -4 24q12 4 58 9t93 9q16 0 34.5 1t33 -3t24 -17.5t9.5 -41.5q0 -23 -16.5 -35t-59.5 -35h-51q2 -10 2 -33q0 -25 -2 -63.5t-14.5 -93t-40 -124t-79.5 -155.5q104 -98 157.5 -149.5 t80.5 -67.5q-4 -29 -17.5 -48.5t-29.5 -30.5t-34.5 -15t-33.5 -4q-18 0 -30.5 5t-32 23.5t-52 52t-94.5 91.5q-78 -94 -169 -133t-187 -39q-92 0 -162.5 26.5t-119 74.5t-72 112.5t-23.5 142.5zM219 344q0 -86 54.5 -148.5t158.5 -62.5q70 0 130.5 31t119.5 102 q-84 86 -168 179.5t-141 168.5q-74 -55 -114 -119.5t-40 -150.5z" />
<glyph unicode="'" horiz-adv-x="307" d="M68 1460q18 10 52 18.5t64 8.5q16 0 29 -4q16 -4 21.5 -25.5t5.5 -50.5v-16q-2 -43 -7.5 -94.5t-11.5 -98.5t-14 -83t-14 -50q-4 -4 -16.5 -9t-29 -8.5t-32 -5.5t-23.5 -2q0 27 -4 86.5t-9 126t-8 124.5t-3 83z" />
<glyph unicode="(" horiz-adv-x="638" d="M125 575v3q0 207 38 369.5t93 283.5t118.5 198.5t114.5 114.5q33 -6 53.5 -35.5t26.5 -72.5q-123 -141 -201.5 -352.5t-78.5 -485.5q0 -150 21.5 -283t60.5 -243.5t89 -198.5t109 -145q-10 -49 -34.5 -80t-57.5 -31q-37 18 -96 88t-115.5 190.5t-98.5 290.5t-42 389z" />
<glyph unicode=")" horiz-adv-x="638" d="M72 -266q117 135 197.5 350t80.5 506v10q0 274 -75.5 491.5t-202.5 350.5q10 51 34.5 76.5t55.5 25.5q35 -18 94 -85.5t116.5 -184.5t99.5 -281t42 -375v-2q0 -207 -38 -375.5t-93 -294.5t-117.5 -209t-113.5 -120q-35 6 -55.5 41t-24.5 76z" />
<glyph unicode="*" horiz-adv-x="921" d="M104.5 1051.5q-4.5 15.5 2 36t19.5 42t28 37.5l252 -116q16 -10 20 -22.5t-16 -47.5l-283 51q-18 4 -22.5 19.5zM203 731l190 203q16 14 29.5 13t38.5 -29l-135 -252q-10 -16 -26.5 -15.5t-34 13t-35 31t-27.5 36.5zM416 1333q-2 20 13 28.5t38 8.5q43 0 88 -20l-35 -275 q-4 -20 -15 -28.5t-50 2.5zM497 917.5q5 12.5 40 28.5l198 -207q12 -14 6 -29.5t-22.5 -28.5t-40 -23.5t-43.5 -14.5l-135 244q-8 18 -3 30.5zM535 1028l258 123q18 8 30.5 -2t19.5 -30.5t8 -46t-1 -46.5l-272 -51q-18 -4 -28.5 5t-14.5 48z" />
<glyph unicode="+" horiz-adv-x="1021" d="M98 477q0 72 9.5 104.5t39.5 32.5h291v170q0 37 -1 77t-3 71q12 14 41 17t82 5q16 -8 20.5 -23.5t4.5 -49.5v-267h340q0 -70 -8.5 -103.5t-43.5 -33.5h-288v-280q2 -31 -10.5 -47.5t-34 -23.5t-47 -8t-52.5 -1v360h-340z" />
<glyph unicode="," horiz-adv-x="374" d="M18 -209q41 66 71 119t34 119q-16 2 -19 12q-6 23 -17 55.5t-11 50.5q14 31 47 53.5t72 22.5q66 0 87 -26.5t17 -94.5q-4 -43 -17.5 -88t-36 -88t-51 -78.5t-61.5 -60.5q-25 -16 -58.5 -16t-56.5 20z" />
<glyph unicode="-" horiz-adv-x="598" d="M72 444q14 141 53 142q86 8 184.5 19t169.5 22q23 -4 45 -15q-4 -57 -21.5 -98t-51.5 -45q-35 -6 -78 -11t-87 -10.5t-87 -8.5t-80 -3q-12 0 -23.5 2t-23.5 6z" />
<glyph unicode="." horiz-adv-x="374" d="M76 102q0 119 121 119q70 0 89 -28.5t17 -86.5q-2 -55 -25.5 -90.5t-95.5 -35.5q-59 0 -82.5 29.5t-23.5 92.5z" />
<glyph unicode="/" horiz-adv-x="716" d="M49 -117q111 377 221.5 751t221.5 752q6 23 15 33.5t38 14.5q23 4 52.5 5t70.5 -1q-100 -344 -198.5 -684t-199.5 -684q-16 -53 -33.5 -98.5t-39.5 -65.5q-18 -16 -45 -19.5t-103 -3.5z" />
<glyph unicode="0" d="M61 604q0 223 51.5 358.5t137.5 196.5q41 35 95 53.5t116 18.5q117 0 192.5 -51.5t118.5 -135t59.5 -191.5t16.5 -222q0 -330 -97.5 -495t-301.5 -165q-92 0 -164 36t-121 113t-76 196.5t-27 287.5zM248 598q0 -137 15.5 -230.5t42 -149.5t64.5 -80.5t85 -24.5 q43 0 80.5 23.5t66.5 84t45.5 161.5t16.5 257q0 129 -14.5 215t-41 139.5t-63.5 76t-80 22.5h-2q-47 0 -86 -27t-67.5 -86t-45 -153.5t-16.5 -227.5z" />
<glyph unicode="1" horiz-adv-x="784" d="M137 1044q16 31 53 66q53 18 109.5 36.5t108 35t93.5 29t68 20.5l22.5 -9t20.5 -10q-2 -86 -3 -214t-3 -273t-3 -294.5t-1 -274.5q18 -10 42 -17.5t44.5 -13.5t34.5 -12.5t14 -12.5q0 -53 -3 -71.5t-19 -24.5q-16 -4 -32.5 -4t-35.5 -2q-94 -2 -191.5 -3t-185.5 -1 q0 18 -1 45t-1 53q0 12 14.5 20.5t37 16.5t48 14.5t50.5 16.5q4 186 6 415.5t6 471.5q-27 -6 -66.5 -16.5t-80.5 -21t-76 -19.5t-49 -11q-8 14 -13.5 30.5t-7.5 34.5z" />
<glyph unicode="2" d="M72 49q4 31 12 53.5t31 53.5q106 139 194 244.5t150.5 189.5t96.5 156.5t34 146.5q0 90 -46 135t-132 45q-39 0 -78 -8t-74 -19.5t-63.5 -25.5t-46.5 -27q-16 -12 -21 -12q-12 0 -19.5 13.5t-11.5 31.5t-6 35.5t-2 25.5q18 31 54 57.5t85.5 45t107.5 30t120 11.5h2 q90 0 151.5 -24.5t99.5 -66.5t54 -99.5t16 -122.5q0 -12 -1 -25.5t-3 -26.5q-10 -76 -45 -150.5t-88 -148.5q-29 -41 -62.5 -82t-73.5 -90t-89 -108.5t-109 -136.5q68 -2 143 -3h152q72 0 139.5 4.5t96.5 4.5q-4 -66 -21.5 -105t-40.5 -43q-37 -4 -92 -7t-127 -3 q-137 0 -257 1t-218 7q-8 20 -12 43z" />
<glyph unicode="3" d="M90 -2q0 18 2 33.5t6 29.5q0 6 2 5q37 -23 92.5 -37.5t120.5 -14.5q76 0 136.5 24.5t100.5 65.5t60.5 97.5t18.5 122.5q-2 10 -2 19t-2 19q-12 94 -92 136.5t-197 42.5q-16 0 -35.5 -1t-36.5 -3q-2 10 -4 17t-4 17q6 23 12 42.5t17 35.5q51 20 101 48t88 63t61.5 76 t23.5 90q0 29 -8 56.5t-26.5 48t-49.5 32.5t-76 12q-72 0 -133 -20.5t-106 -50.5q-4 -4 -10.5 -7.5t-10.5 -3.5q-6 0 -12 8q-10 20 -15.5 44t-5.5 47v10q12 25 42 48.5t74 40.5t100.5 28.5t121.5 11.5q92 0 151.5 -25.5t94.5 -63.5t48.5 -84t13.5 -87q0 -90 -45 -164 q-51 -88 -164 -162q131 -25 203.5 -104.5t72.5 -212.5q0 -113 -39 -199t-105.5 -144.5t-156.5 -88t-194 -29.5q-82 0 -131.5 15.5t-71.5 33.5q-20 16 -25.5 37.5t-5.5 44.5z" />
<glyph unicode="4" d="M39 428q16 39 47 102.5t72 136t87 149.5t92 146.5t88 125t75 86.5q29 27 65.5 43t65.5 20q20 0 41.5 -4t36.5 -8q0 -98 -1 -198.5t-1 -197.5v-197q0 -103 -2 -200q41 4 78.5 6t62.5 2q4 -16 8 -23t4 -24q-10 -31 -28.5 -54.5t-57.5 -33.5q-12 -4 -21 -4h-20h-26v-242 q0 -29 -9.5 -46t-44.5 -23q-23 -4 -58.5 -5t-70.5 -1v172q0 31 1 67.5t1 75.5q-61 0 -123.5 1t-120 3t-105.5 4t-81 6q-27 25 -39 55.5t-16 59.5zM221 440q66 -4 141.5 -6t161.5 -2q4 70 5 146.5t3 142.5q2 63 2.5 126.5t4.5 129.5q-47 -57 -93.5 -126t-88.5 -140.5 t-76.5 -142.5t-59.5 -128z" />
<glyph unicode="5" d="M98 641q8 66 20.5 145.5t27 158.5t26.5 150.5t21 121.5q55 0 134 2t160.5 4t157.5 5t127 5l-8 -109q-4 -20 -19 -22q-29 -8 -81 -13.5t-112 -8.5t-121.5 -5t-108.5 -2q-14 -72 -26.5 -147.5t-23.5 -157.5q25 -2 60 -3t82 -5q23 -4 46 -7t46 -8q59 -12 111.5 -34.5 t94.5 -60.5t68.5 -92t34.5 -130q0 -18 1 -36.5t1 -37.5v-25q0 -13 -2 -26q-14 -205 -144 -319.5t-339 -116.5q-104 0 -153.5 21.5t-59.5 39.5q-16 49 -17 95q0 23 2 32q0 2 2 2q31 -23 83.5 -34t117.5 -11q70 0 129.5 25.5t102.5 70t67.5 105.5t24.5 135q0 113 -52.5 171.5 t-144.5 82.5q-55 16 -117.5 22.5t-109.5 10.5q-35 4 -64 5t-45 1z" />
<glyph unicode="6" d="M59 477v65q0 34 4 70q10 172 52.5 303.5t111.5 221.5q51 66 107.5 108.5t113 68t109.5 36t100 10.5q55 0 97.5 -11.5t52.5 -50.5q0 -35 -10 -71q-135 8 -247 -27t-185 -135q-47 -59 -79 -142t-48 -194q-6 -53 -12.5 -107.5t-6.5 -113.5q0 -205 65.5 -301t172.5 -96 q45 0 85 20.5t70.5 60t48 98t17.5 134.5q0 115 -41 172t-102 74q-8 2 -16.5 3t-18.5 1q-29 0 -57.5 -6t-51.5 -13v41q0 37 10.5 63.5t32.5 39.5q49 23 111 22q23 0 33 -2q70 -6 120 -41t81.5 -86t46 -115.5t14.5 -132.5q0 -102 -23.5 -189t-73 -149.5t-124 -97.5t-177.5 -35 q-172 0 -275.5 121t-107.5 383z" />
<glyph unicode="7" horiz-adv-x="864" d="M80 1128q0 23 8 54.5t21 60.5q35 -10 79.5 -12t96.5 -2h540q-10 -33 -19 -66t-20 -61q-23 -78 -62.5 -181.5t-86.5 -218t-97.5 -232.5t-95.5 -225.5t-80.5 -196.5t-54.5 -144q-25 0 -55.5 -1t-57 2t-44 10t-15.5 22q47 125 110.5 277.5t130 308t131 302t112.5 260.5 q-57 -2 -140.5 -3t-204.5 -1q-66 0 -111.5 8.5t-80.5 18.5q-4 8 -4 20z" />
<glyph unicode="8" d="M68 334q0 63 17 113.5t48 91.5q63 84 178 155q-47 29 -81.5 59.5t-61.5 61.5q-33 39 -49.5 86t-16.5 96q0 78 26 141.5t72 107.5t111.5 68.5t143.5 24.5q16 0 29.5 -1t27.5 -1q76 -6 131 -31.5t92 -67.5t54.5 -96.5t17.5 -115.5t-18.5 -108.5t-47.5 -83.5 q-27 -35 -63.5 -66t-85.5 -66q66 -43 108 -79q68 -57 105 -124t37 -159q0 -76 -25.5 -141.5t-75 -114.5t-121 -76.5t-163.5 -27.5q-111 0 -184.5 31.5t-120 81.5t-65.5 114t-19 127zM236 344q0 -106 64.5 -164.5t156.5 -58.5q39 0 76.5 13t67.5 39t47.5 64.5t17.5 92.5 q0 66 -19.5 102.5t-60.5 75.5q-49 49 -152 106q-82 -49 -140 -116.5t-58 -153.5zM274 1018q0 -47 17.5 -80t54.5 -68q41 -41 131 -92q74 47 122 106.5t48 133.5q0 92 -54 136t-130 44q-37 0 -71 -11t-59.5 -32.5t-42 -56.5t-16.5 -80z" />
<glyph unicode="9" d="M57 782q0 102 26 187.5t76 146t124.5 94t173.5 33.5q104 0 174.5 -32.5t113.5 -102.5t62.5 -179.5t21.5 -260.5q-2 -215 -53 -380t-174 -276q-45 -41 -93 -68.5t-95 -45t-89 -25.5t-73 -8h-19q-80 2 -102 39q-10 18 -12 41.5t-2 44.5q10 -2 30 -2q49 0 102.5 12 t103.5 36.5t95.5 58.5t79.5 75q47 66 80 145.5t47 176.5q12 94 13 196q0 96 -11.5 174t-37 132.5t-67.5 83t-101 28.5q-111 0 -170.5 -83t-59.5 -220q0 -111 42 -170.5t108 -75.5q12 -2 24.5 -3t24.5 -1q25 0 49.5 4t42.5 8q2 -10 2 -22v-25q0 -29 -7 -56.5t-34 -37.5 q-18 -8 -45 -14.5t-61 -6.5q-8 0 -16.5 1.5t-18.5 1.5q-68 8 -119 40.5t-86 83t-52.5 114.5t-17.5 138z" />
<glyph unicode=":" horiz-adv-x="374" d="M76 102q0 119 121 119q70 0 89 -28.5t17 -86.5q-2 -55 -25.5 -90.5t-93.5 -35.5q-59 0 -83.5 29.5t-24.5 92.5zM76 766q0 119 121 119q70 0 89 -29t17 -86q-2 -55 -25.5 -91t-93.5 -36q-59 0 -83.5 30t-24.5 93z" />
<glyph unicode=";" horiz-adv-x="374" d="M18 -209q41 66 71 119t34 119q-16 2 -19 12q-6 23 -17 55.5t-11 50.5q14 31 47 53.5t72 22.5q66 0 87 -26.5t17 -94.5q-4 -43 -17.5 -88t-36 -88t-51 -78.5t-61.5 -60.5q-25 -16 -58.5 -16t-56.5 20zM76 766q0 119 121 119q70 0 89 -29t17 -86q-2 -55 -25.5 -91 t-93.5 -36q-59 0 -83.5 30t-24.5 93z" />
<glyph unicode="&#x3c;" horiz-adv-x="937" d="M94 635q0 45 19 67q152 115 276 209q51 39 103.5 79t93.5 72t68.5 53.5t33.5 25.5q27 20 43 18q25 -6 39 -35q10 -18 16.5 -45.5t6.5 -42.5q-137 -106 -248 -188q-47 -35 -93 -70t-83 -62.5t-60.5 -46t-27.5 -20.5q4 -4 27.5 -21.5t60.5 -44t82 -59t92 -67.5 q111 -82 248 -181q0 -16 -6.5 -49.5t-16.5 -50.5q-16 -25 -35 -29q-23 -4 -45 15l-561 418q-12 10 -22.5 23.5t-10.5 31.5z" />
<glyph unicode="=" horiz-adv-x="1021" d="M98 279q2 72 11.5 104.5t40.5 32.5h774q-2 -70 -10.5 -103.5t-41.5 -33.5h-774zM98 672q2 72 11.5 104.5t40.5 32.5h774q-2 -70 -10.5 -103.5t-41.5 -33.5h-774z" />
<glyph unicode="&#x3e;" horiz-adv-x="931" d="M135 262l250 189q47 35 92 69.5t82 62t60.5 45t27.5 21.5q-4 2 -27.5 19.5t-60.5 44t-82 59.5t-92 68q-111 80 -248 180q0 16 6.5 50t16.5 50q16 27 37 29q23 4 43 -14l563 -418q12 -10 22.5 -23.5t10.5 -29.5q0 -49 -21 -70q-154 -117 -276 -211q-53 -41 -104.5 -79 t-93.5 -69.5t-68.5 -53t-32.5 -25.5q-25 -23 -43 -19q-25 6 -39 35q-10 20 -15.5 47t-7.5 43z" />
<glyph unicode="?" horiz-adv-x="638" d="M61 1247q14 25 44 44.5t67 31.5t78 18.5t78 6.5q76 0 127 -20.5t83.5 -56.5t47 -86t14.5 -108q0 -51 -11 -94t-30.5 -82t-45.5 -74.5t-54 -72.5q-49 -66 -76 -120t-27 -97q0 -35 7.5 -64t7.5 -45v-4q-6 -10 -27.5 -16.5t-44.5 -6.5q-29 0 -56.5 18.5t-37.5 59.5 q-10 45 -10 82q0 59 24 119q16 35 38 67.5t44 65.5q41 57 78 115.5t37 124.5q0 72 -40 104.5t-100 32.5q-37 0 -76.5 -12.5t-86.5 -40.5q-20 2 -36 28.5t-16 81.5zM199 100q0 115 108 115q61 0 78.5 -27.5t15.5 -83.5q-2 -53 -22.5 -87.5t-83.5 -34.5q-53 0 -74.5 28.5 t-21.5 89.5z" />
<glyph unicode="@" horiz-adv-x="1501" d="M92 449q0 16 1 31.5t3 31.5q10 184 66.5 323.5t151 232.5t223.5 141t284 48q279 0 436.5 -149.5t157.5 -454.5q0 -178 -33.5 -296.5t-86 -189.5t-119 -99.5t-129.5 -28.5q-90 0 -129 55q-25 -20 -79.5 -42.5t-133.5 -22.5q-45 2 -85 12t-71 36.5t-49.5 74t-20.5 122.5 q0 82 26.5 139.5t78.5 98.5q45 35 95 50.5t89 19.5q10 0 17.5 1t17.5 1q35 0 59 -6v19q0 15 2 26q6 78 -19.5 123t-96.5 40q-74 0 -140 -34q-29 -12 -49 -13q-10 12 -15 32t-9 34q0 6 -1.5 10t-1.5 8q0 10 5 19q27 27 94 53.5t151 26.5q72 0 121 -21.5t76 -71.5 q23 -39 29 -112q4 -29 4 -60v-63q-2 -29 -2 -55v-56q-2 -31 -2 -62.5t-2 -62.5q0 -47 -1 -88t-4 -73q10 -8 21.5 -15.5t26.5 -7.5q31 0 67.5 22.5t68.5 76t52 143.5t20 223q0 254 -110.5 369.5t-323.5 115.5q-268 0 -420.5 -169t-152.5 -515q0 -170 31.5 -286.5t94 -190.5 t154 -106.5t209.5 -32.5q82 4 145.5 15t121.5 26q39 10 74.5 18t64.5 4q27 -41 31 -92q-23 -16 -44.5 -30.5t-44.5 -22.5q-203 -66 -376 -66q-137 0 -253 43t-199 136.5t-127 240t-40 353.5zM631 266q0 -8 1 -14t1 -14q4 -41 26.5 -57.5t38.5 -20.5q10 -2 24.5 -1t29.5 3 q41 6 69.5 30.5t36.5 65.5l4 211q-106 0 -168.5 -41t-62.5 -162z" />
<glyph unicode="A" horiz-adv-x="1073" d="M25 6q2 20 6 37.5t10 34.5q43 129 102.5 296t121 338t116.5 328.5t90 268.5q10 43 21 43q10 2 21 5t22 3q16 4 30 4h25q29 -6 39 -21q35 -104 74.5 -225t80.5 -243.5t80 -240.5t72 -216q43 -123 73.5 -218.5t57.5 -172.5v-4q0 -2 2 -3q0 -6 -8 -14q-18 -6 -53 -10t-62 -4 q-18 0 -36.5 6t-43.5 29q-29 84 -51 163.5t-57 184.5h-426q-35 -102 -67 -193.5t-54 -161.5q-4 -14 -16.5 -21t-47.5 -7q-23 0 -58 4t-64 10zM377 520h338q-23 72 -41.5 138.5t-38.5 127.5q-33 102 -52.5 175t-33.5 126q-27 -96 -55.5 -195t-71.5 -228z" />
<glyph unicode="B" d="M121 6v1061v215v18v21q0 10 2 20q12 4 55 9q43 4 103.5 8t121.5 4q100 0 172 -23.5t117 -64.5t66.5 -97.5t21.5 -119.5q0 -109 -31.5 -169.5t-68.5 -90.5q-14 -10 -30.5 -20.5t-41.5 -20.5q49 -12 86 -33q25 -14 52.5 -35.5t51 -55.5t40 -82t16.5 -114q0 -117 -35 -200.5 t-95 -138t-143 -81t-178 -26.5q-78 2 -141 5t-141 11zM301 135q12 -4 49 -7t60 -3q100 0 170.5 73.5t70.5 233.5v23q0 10 -2 20q-14 113 -79.5 153t-166.5 40h-55q-33 0 -47 -4v-529zM301 799q14 4 53 4t68 2q33 0 70 6q39 18 70.5 71.5t31.5 143.5v18q0 8 -2 17 q-10 86 -63.5 125t-133.5 39q-18 0 -51 -2t-43 -4v-420z" />
<glyph unicode="C" horiz-adv-x="952" d="M70 643q0 397 176 588q84 90 182 122.5t203 32.5q63 0 112.5 -11t84 -26.5t56 -33t27.5 -31.5q0 -35 -8 -60.5t-20 -41.5h-9q-10 -2 -24 4t-33 14q-43 20 -96 29q-16 2 -31.5 3t-34.5 1h-21q-11 0 -22 -2q-72 -6 -135 -41t-110.5 -104.5t-76 -176t-28.5 -254.5 q0 -270 98.5 -396t278.5 -126q74 0 142.5 18.5t103.5 41.5q12 -23 16 -64q-6 -59 -47 -94q-29 -25 -94.5 -45.5t-149.5 -20.5q-125 0 -224 33t-170 112t-108.5 207.5t-37.5 321.5z" />
<glyph unicode="D" horiz-adv-x="1079" d="M123 10v1194q0 61 4 89t20 50q18 2 51 5.5t73 6.5t83 5t82 2q170 0 280.5 -47t176 -132t91.5 -201t26 -253q0 -211 -42 -358.5t-145 -245.5q-45 -41 -94 -67.5t-99 -42t-98.5 -20.5t-89.5 -5q-90 0 -164.5 5t-154.5 15zM303 145q31 -4 68 -7t78 -3q66 0 130 23.5 t116.5 88t84 181.5t31.5 301q0 233 -70.5 344t-210.5 133q-55 12 -122 13q-61 0 -105 -7v-1067z" />
<glyph unicode="E" horiz-adv-x="784" d="M119 1325q16 4 42.5 16.5t61.5 14.5h496q-4 -74 -13.5 -100.5t-31.5 -36.5q-37 -6 -83 -7.5t-106 -1.5h-182v-417h381q-6 -49 -12 -78t-15.5 -44.5t-21.5 -20.5t-31 -5h-301v-500q31 -4 77 -5t95 -1h135q72 0 133 4l2 -2q-8 -78 -22 -106.5t-45 -36.5q-41 -2 -98.5 -3 t-143.5 -1q-96 0 -173 3t-126 7q-4 23 -7 42.5t-7 41.5v981v131q0 64 -4 125z" />
<glyph unicode="F" horiz-adv-x="768" d="M119 1325q14 4 42.5 16.5t67.5 14.5h510q-6 -76 -15 -100.5t-32 -32.5q-23 -6 -51.5 -7.5t-75.5 -1.5h-262v-444h391q-4 -47 -9 -75.5t-15.5 -44t-24.5 -20.5t-33 -5h-309q0 -168 1 -316.5t3 -290.5q-10 -4 -36.5 -14t-61.5 -10q-55 0 -86 16v1090q0 68 -1 122t-3 103z " />
<glyph unicode="G" horiz-adv-x="1064" d="M66 657q0 221 55 363.5t129 220.5q70 74 169 108.5t228 34.5q63 0 112.5 -11t84.5 -26.5t56.5 -33t27.5 -31.5q0 -35 -8.5 -56.5t-20.5 -37.5h-8q-10 -2 -24.5 5t-32.5 13q-80 29 -175 29q-188 0 -293.5 -136t-105.5 -429q0 -164 31 -271.5t83 -170t119.5 -87 t141.5 -24.5q55 0 99 12t61 29v458q-18 0 -39 2.5t-38.5 14.5t-30.5 38.5t-15 73.5q0 4 2 9q4 8 18 8q23 2 58.5 3t73.5 2t73 1h57q4 -16 7.5 -42t5.5 -54.5t3 -58t1 -54.5v-485q-18 -14 -47 -32.5t-58 -31.5q-45 -16 -106.5 -28.5t-136.5 -12.5h-34q-17 0 -34 2 q-109 8 -199 45t-154.5 117t-100 208t-35.5 316z" />
<glyph unicode="H" horiz-adv-x="1093" d="M119 -6q2 74 3 163t1 199v674q0 96 -1 171t-3 134q16 16 52 20.5t112 4.5q12 -18 16 -46t4 -81v-440h488v428q0 72 20 118q16 14 49 17.5t115 3.5q-2 -74 -3 -163t-1 -198v-680q0 -98 1 -169.5t3 -131.5q-14 -16 -53 -20t-115 -4q-16 45 -16 104v551q-35 -2 -85.5 -3 t-136.5 -1h-266v-520q0 -37 -5 -62.5t-22 -48.5q-12 -16 -43.5 -18t-113.5 -2z" />
<glyph unicode="I" horiz-adv-x="423" d="M117 1313q12 31 52 39t116 8q12 0 15 -32t3 -103q0 -123 -1 -264.5t-1 -276.5q0 -133 1 -254t1 -219q0 -86 1 -131t1 -62q-12 -16 -51 -20t-115 -4q-18 0 -18 39q0 117 1 288t1 359q0 117 -1 230.5t-1 205.5q0 84 -1 133.5t-3 63.5z" />
<glyph unicode="J" horiz-adv-x="565" d="M-16 -53q2 25 7 38t9 23q27 -6 57 -6q29 0 67 5t70.5 38t53.5 106q16 56 16 148q0 28 -2 59v691q0 86 -1 151.5t-3 112.5q16 31 54 39t116 8q10 -18 13 -44t3 -79v-850q0 -92 -4 -167t-18 -134t-42 -103t-73 -75q-53 -37 -119 -45q-16 -4 -31 -4h-30q-41 0 -76 10 q-29 8 -46 30.5t-21 47.5z" />
<glyph unicode="K" horiz-adv-x="929" d="M117 1335q12 10 52 16.5t118 6.5q10 -20 13 -47t3 -80v-483q104 145 215 303.5t219 306.5q10 2 21 2h22q20 0 40 -1t36 -1q51 -2 51 -29q0 -14 -14 -41q-8 -12 -17.5 -27.5t-19.5 -25.5q-39 -53 -84 -114.5t-92 -126t-94 -127t-90 -119.5q49 -47 97 -115t92 -142.5 t84 -149.5t75 -139.5t62.5 -111.5t45.5 -65q0 -10 -3 -14.5t-19 -10.5q-10 -4 -33 -8t-49 -4h-29q-55 6 -86 54t-51 97q-20 45 -48 98.5t-61.5 108.5t-71.5 108.5t-79 100.5q-39 43 -71 77t-48 44v-402q0 -86 1 -147t1 -111q-10 -16 -49 -19t-117 -3q-10 16 -14 36.5 t-4 49.5v983q0 86 -1 152.5t-3 119.5z" />
<glyph unicode="L" horiz-adv-x="772" d="M117 1327q16 20 51 26.5t119 6.5q10 -23 13 -55.5t3 -92.5v-1062q39 -4 91 -6.5t106 -2.5q57 0 121.5 1t117.5 5q2 -16 2 -31v-32q-4 -27 -19 -52.5t-46 -33.5q-31 -2 -79 -3t-124 -1q-104 0 -190 3t-146 7l-8 53l-8 54v999q0 72 -1 126t-3 91z" />
<glyph unicode="M" horiz-adv-x="1359" d="M74 8q8 125 20 278.5t27.5 322.5t32 346.5t32.5 353.5q0 10 2 22t13 17q6 4 16 4t21 2q51 6 114 6q16 -35 40 -94.5t50.5 -132t55 -153.5t55.5 -159q4 -16 10 -31.5t10 -31.5q12 -37 25.5 -79t26.5 -79q12 -39 22 -69.5t21 -59.5q10 29 22 62.5t27 68.5q16 43 31.5 91 t31.5 87q51 141 99.5 277.5t91.5 253.5l8 20q4 10 12 17q29 4 72 8t80 4q6 -20 10 -40t8 -54q14 -193 29.5 -380.5t32.5 -377.5q16 -141 25 -264t16 -221q-10 -18 -50 -23.5t-120 -5.5q-23 33 -23 84q-2 31 -5 56.5t-3 55.5q-4 53 -9 117t-12 135q-2 31 -4 60l-4 57 q-4 57 -5 132t-3 145q-4 61 -4 105t-2 85q0 -2 -1 -2t-1 -2q-16 -51 -34.5 -109.5t-38 -116t-38 -110.5t-33.5 -92q-35 -94 -70.5 -192.5t-70.5 -196.5q-10 -35 -45 -41q-20 -4 -45 -6t-47 -2q-27 86 -70 212t-88 259q-4 14 -20.5 65t-36.5 117q-23 76 -42.5 135.5 t-29.5 85.5v-172q0 -33 -1 -71.5t-2 -76.5t-2 -74t-3 -63q-14 -131 -25.5 -253.5t-17.5 -219.5q-4 -29 -7 -48t-13 -38q-10 -8 -24.5 -12t-41.5 -4q-18 0 -40.5 1t-51.5 5q-6 0 -6 4z" />
<glyph unicode="N" horiz-adv-x="1140" d="M98 1325v6q0 8 2 12q8 4 25.5 7.5t39 5.5t42 3t33.5 1q31 0 61 -19q35 -66 83 -150.5t105 -182.5q29 -47 55.5 -95.5t55.5 -99.5l70 -125q53 -100 101 -202.5t83 -182.5v16v22q0 11 -2 21q-2 35 -4 80t-3 94.5t-2 97.5t-1 91v502q0 39 4 63.5t14 46.5q12 8 23.5 13.5 t27 7.5t39.5 2h66q-2 -92 -3 -196.5t-1 -227.5v-916q-4 -4 -32 -18t-56 -14q-14 0 -41 2t-43 8q-66 119 -140.5 248t-152.5 268l-84 154q-33 66 -67 140.5t-66 143.5q-16 35 -25.5 55.5t-23.5 51.5q6 -117 9 -237t5 -208v-483q0 -41 -4 -64.5t-15 -46.5q-8 -10 -18 -15 t-27.5 -7t-44 -3t-67.5 -1q2 90 3 194.5t1 227.5v874q-6 8 -15.5 19.5t-9.5 15.5z" />
<glyph unicode="O" horiz-adv-x="1171" d="M68 674q0 354 135 533t391 179q131 0 228.5 -47t161 -136t94 -219t30.5 -294q0 -342 -130 -531.5t-396 -189.5q-139 0 -236.5 49.5t-159 140.5t-90 221t-28.5 294zM266 664q0 -274 91.5 -408.5t234.5 -134.5q150 0 235.5 136t85.5 427q0 145 -24.5 249.5t-68.5 171 t-103.5 98.5t-128.5 32h-2q-143 0 -231.5 -137t-88.5 -434z" />
<glyph unicode="P" horiz-adv-x="866" d="M115 1358q18 12 53 14h6q47 4 101.5 5t109.5 1q102 0 184 -23.5t138.5 -73.5t87 -131t30.5 -194q0 -111 -32.5 -185.5t-83 -122.5t-109.5 -70.5t-111 -28.5q-16 0 -35.5 2t-36 10t-26.5 25.5t-10 48.5q0 8 9 14t22 6q37 0 75.5 15.5t69.5 51.5t51.5 95.5t20.5 147.5 q0 74 -18.5 125t-49.5 82.5t-73 45t-87 13.5h-60q-26 0 -42 -4v-520v-385l2 -228q0 -51 -20 -80q-12 -14 -35 -17t-64 -3h-65q2 90 3 193.5t1 226.5l-4 884q0 12 -1 28t-1 32z" />
<glyph unicode="Q" horiz-adv-x="1179" d="M70 674q0 354 135 533t393 179q131 0 228.5 -47t160 -136t93 -219t30.5 -294q0 -166 -27.5 -288.5t-79 -209t-124 -137.5t-160.5 -71q2 -20 8 -44t18.5 -46.5t33 -41t52.5 -30.5q18 -4 36 -7t38 -3q53 0 110.5 12t121.5 22q55 10 105 16.5t97 6.5q23 0 44.5 -2t39.5 -6 q49 -12 83 -39t57 -51q-8 -18 -13.5 -31.5t-13.5 -28.5q-20 16 -58 29.5t-94 17.5q-22 2 -45 2q-47 0 -102 -8q-82 -12 -172 -33q-90 -23 -173 -37q-54 -10 -101 -10q-25 0 -48 2q-59 8 -104 45t-74.5 84t-44 96.5t-14.5 82.5q-117 12 -200 69.5t-135 149.5t-76.5 213 t-24.5 260zM270 662q0 -137 24.5 -238.5t68 -169.5t102.5 -101.5t129 -33.5q150 0 235.5 136t85.5 427q0 147 -21.5 251.5t-63.5 171t-101 97.5t-133 33q-152 0 -239 -138t-87 -435z" />
<glyph unicode="R" horiz-adv-x="927" d="M117 -6q2 92 3 194.5t1 225.5v692v102q0 47 -2 90v19q0 10 2 20q8 6 43 13q10 2 19.5 3t23.5 3q23 2 44 3t44 1q27 0 51 1h16l33 -1l54 -2q180 -10 270 -100.5t90 -284.5q0 -70 -25.5 -133.5t-59.5 -113.5t-65.5 -82t-46.5 -40q55 -82 107.5 -175t96.5 -176t79 -145.5 t57 -82.5q4 -5 4 -9q0 -6 -9 -11q-15 -7 -38 -11q-25 -6 -61 -6h-27q-29 2 -49 17t-36.5 36.5t-30 47.5t-23.5 50q-41 92 -108.5 207t-147.5 207q-8 2 -16.5 3t-18.5 1h-90v-463q0 -49 -20 -78q-16 -18 -52 -20t-112 -2zM301 698q12 -2 43 -2h59q25 0 48.5 1t37.5 8 q49 18 88 83.5t39 188.5q0 125 -57 187.5t-149 62.5q-37 0 -65 -2t-44 -4v-523z" />
<glyph unicode="S" horiz-adv-x="798" d="M57 86q0 27 11.5 60.5t27.5 58.5q43 -37 107.5 -59.5t138.5 -22.5q92 0 149.5 53t57.5 152q0 66 -28.5 119t-102.5 122q-23 27 -49.5 52.5t-55.5 54.5q-45 43 -84 81t-67 74q-51 66 -70.5 122.5t-19.5 113.5q0 59 20.5 116.5t64.5 102.5t113.5 72.5t167.5 27.5 q123 0 188.5 -29.5t80.5 -51.5q0 -49 -31 -99q-10 -6 -23 -6q-12 0 -37 10q-29 14 -70.5 24.5t-88.5 10.5q-90 0 -142.5 -42t-52.5 -124v-28q6 -37 25.5 -71t50.5 -69q35 -39 74 -76.5t84 -78.5q35 -33 65.5 -61.5t59.5 -59.5q63 -66 91.5 -133.5t28.5 -159.5 q0 -168 -100 -270.5t-293 -102.5q-102 0 -169.5 22.5t-96.5 49.5q-25 22 -25 45z" />
<glyph unicode="T" horiz-adv-x="937" d="M27 1237q0 23 5 47.5t11 40.5q4 12 11 20.5t14 14.5q10 0 21 -1t28 -1q35 -2 78 -2h102h627q0 -29 -4.5 -55.5t-10.5 -51.5q-6 -23 -21.5 -31t-21.5 -10h-309v-927q0 -88 1 -150.5t3 -112.5q-18 -16 -51 -20t-115 -4q-18 33 -18 88v1126h-262q-47 0 -86 6q-2 9 -2 23z " />
<glyph unicode="U" horiz-adv-x="1130" d="M113 1333q12 16 51 21.5t117 5.5q14 -25 17 -58.5t3 -95.5v-567q0 -66 3 -121t11 -106q23 -135 80.5 -215t177.5 -80q100 0 148.5 14t73.5 31q23 104 32 231t9 256l2 561q0 41 5 71t15 56q12 8 22.5 12.5t27 6.5t41 3t65.5 1q-2 -80 -3 -175t-1 -210v-326 q0 -166 -13.5 -301t-42.5 -252q-59 -72 -165.5 -99.5t-227.5 -27.5q-117 0 -195.5 33t-128 91.5t-75 138t-35.5 174.5q-4 51 -7 104t-3 113v389q0 100 -1 179t-3 142z" />
<glyph unicode="V" horiz-adv-x="1005" d="M27 1313q6 18 19 27.5t44 13.5q55 6 109 6q16 -16 26.5 -48t32.5 -100q37 -135 82 -288.5t96 -329.5q27 -106 52.5 -200.5t43.5 -186.5q18 80 45 177t56 214q29 102 56.5 203.5t53.5 195.5q25 90 45.5 158t38.5 131q6 20 11.5 35.5t13.5 32.5q10 4 19 4h18h18 q29 -2 52.5 -3t50.5 -5q8 -2 8 -27q0 -16 -6 -38.5t-13 -51.5q-20 -66 -45.5 -161t-66.5 -228q-35 -127 -73 -255t-72.5 -239.5t-64.5 -199t-48 -130.5q-23 -16 -42.5 -23t-49.5 -11q-5 0 -10 -1q-17 0 -33 6q-20 7 -37 17q-20 10 -37 27q-10 18 -19 41q-18 59 -43 141 l-52 174q-28 92 -56.5 189.5t-54.5 185.5q-63 215 -107.5 360.5t-60.5 186.5z" />
<glyph unicode="W" horiz-adv-x="1579" d="M45 1305q8 18 22.5 30.5t43.5 16.5t51 5t49 1q6 0 12 -17.5t12.5 -39t10.5 -41t4 -25.5q29 -129 66.5 -285.5t84.5 -349.5q23 -104 42.5 -194.5t35.5 -182.5q10 72 25.5 157t38.5 189q39 160 81 334t87 354l8 41q4 4 9 6.5t22 6.5q14 4 26 5t25 3q14 2 27.5 3t27.5 1 q20 -27 33 -86q23 -98 61.5 -256t89.5 -369q23 -109 43.5 -203t38.5 -192q18 98 38 189.5t42 197.5q57 221 98 392t72 313q4 14 7 24t7 19q6 6 39 6q16 -2 35 -2t35 -4q31 0 53 -9v-8q0 -10 -2 -28.5t-10 -49.5q-16 -61 -34.5 -131.5t-41.5 -160.5q-31 -127 -67.5 -275.5 t-70.5 -283t-62.5 -237.5t-45.5 -142q-20 -14 -39.5 -25.5t-50.5 -15.5q-8 -2 -16 -2q-12 0 -24 4q-19 6 -35 16q-20 10 -37 27q-4 10 -5 18t-6 19q-23 98 -49 207.5t-57 228.5q-12 51 -25.5 111.5t-27 125t-26.5 130t-25 126.5q-10 -47 -23 -108l-26 -128 q-13 -67 -28.5 -132.5t-29.5 -122.5q-4 -14 -13 -52t-20.5 -87.5t-25 -103.5t-24.5 -102t-20.5 -84t-11.5 -46q-23 -16 -42 -26.5t-50 -14.5q-23 -4 -42 4t-36 18q-20 10 -37 27q-4 10 -9 26.5t-11 38.5q-18 70 -42 164t-50.5 202t-54 219.5t-54.5 213.5q-16 74 -31.5 139.5 t-27.5 120t-21.5 91.5t-15.5 51z" />
<glyph unicode="X" horiz-adv-x="1017" d="M23 12q78 145 178 322.5t202 357.5q-39 78 -85 163t-91 168t-86 160t-71 138q0 6 3 12t13 10q33 6 75 11.5t93 5.5q12 -10 22.5 -27.5t26.5 -46.5q25 -43 46.5 -84t41.5 -80q35 -76 69 -145.5t66 -128.5q35 59 71 135t77 154q27 47 51.5 95t46.5 93l8 18q10 14 41 15 q23 0 57.5 -4t77.5 -11q-6 -29 -14 -55q-53 -109 -139 -260t-185 -315q135 -236 223.5 -401t149.5 -289q2 -4 2 -11q0 -2 -2 -2q-16 -14 -58 -16t-83 -2q-20 0 -39.5 4t-40.5 14q-29 59 -59.5 118.5t-65.5 125.5q-35 72 -72.5 147.5t-74.5 143.5q-33 -59 -73 -136t-81 -155 q-37 -66 -70.5 -126t-58.5 -110q-10 -14 -20.5 -18t-24.5 -4t-43 1t-57 7q-16 2 -27 4z" />
<glyph unicode="Y" horiz-adv-x="946" d="M23 1331q0 8 17 11.5t79 3.5h102q12 -29 35 -77t48.5 -105.5t53 -118t52 -114.5t44 -98.5t29.5 -64.5l269 578q16 6 30.5 9t32.5 3q16 0 39 -1t57 -5q4 -16 4 -25q0 -18 -6 -34.5t-16 -39.5q-23 -53 -65 -132t-88 -161.5t-87 -157.5t-59 -118q-10 -25 -17.5 -51.5 t-11.5 -50.5v-299q0 -86 1 -150.5t1 -112.5q-6 -8 -16 -14t-28.5 -9t-48.5 -4t-75 -1q-16 39 -16 92v481v27q0 10 -4 20q-16 45 -43 103.5t-66 132.5q-57 117 -124.5 244t-120.5 235z" />
<glyph unicode="Z" horiz-adv-x="956" d="M49 72q0 6 1 12t1 12q82 137 168 288t168 297t154.5 282.5t128.5 248.5h-473q-59 0 -82 6.5t-23 18.5v4q4 25 8 46.5t9 41.5q4 6 10 18.5t22 16.5q25 -4 54.5 -6t70.5 -2h611v-6q0 -8 1 -17.5t1 -21.5q0 -47 -25 -99q-41 -90 -104.5 -214t-140.5 -266t-160.5 -293.5 t-165.5 -295.5q90 -4 217 -5t245 -1q63 0 106.5 4t59.5 6q4 -16 4 -36q0 -14 -2 -29q-10 -29 -29.5 -53.5t-41.5 -28.5q-16 -2 -38 -3t-51.5 -2t-70.5 -1h-98q-188 0 -310 2t-200 6q-4 4 -11.5 15.5t-11.5 27.5q0 8 -1 14.5t-1 12.5z" />
<glyph unicode="[" horiz-adv-x="733" d="M219 -6q0 145 1 307t1 324q0 96 1 210.5t2 236.5t2 242t3 224q0 25 1 42t10 32q4 2 29.5 6t60.5 8t72.5 6t66.5 2q53 -8 105.5 -20t101.5 -25q0 -55 -8.5 -69.5t-40.5 -16.5q-41 -4 -80 -5t-70 -5q-27 -4 -48 -9t-44 -16v-63q0 -137 -3 -340t-3 -483v-227v-165 q0 -70 1 -120t1 -93q2 -66 22 -120q35 -4 74 -5.5t88 -5.5q61 -4 101 -14q0 -35 -2 -56.5t-6.5 -33.5t-11.5 -18.5t-19 -8.5q-125 0 -233.5 7.5t-172.5 11.5q-2 57 -2 123v137z" />
<glyph unicode="\" horiz-adv-x="667" d="M51 1405q0 16 22.5 24.5t90.5 8.5h39q94 -346 186 -688t186 -689q10 -41 16.5 -73.5t6.5 -61.5q0 -20 -2 -30q-8 -16 -33.5 -19.5t-99.5 -3.5q-104 381 -204.5 757t-205.5 756q-2 9 -2 19z" />
<glyph unicode="]" horiz-adv-x="733" d="M57 -240q0 53 7.5 68.5t41.5 17.5q41 4 80 6.5t70 4.5q49 2 90 24q2 135 5 352.5t3 534.5v391v121q0 49 -2 92q-2 66 -22 121q-35 4 -75 5t-87 5q-61 4 -100 15q0 70 8 90t30 26q125 0 235 -7t171 -11q2 -57 2 -123v-137q0 -145 -1 -307t-1 -324v-2q0 -96 -1 -211 t-2 -235.5t-2 -240.5t-3 -224q0 -27 -1 -44.5t-9 -29.5q-4 -4 -30 -7t-60.5 -7.5t-72.5 -6.5t-67 -2q-53 8 -105.5 19.5t-101.5 25.5z" />
<glyph unicode="^" horiz-adv-x="796" d="M92 885q12 25 41 88t62.5 137t67.5 141.5t56 98.5q23 27 41 36q27 12 50 13q12 -14 35.5 -51t51 -86.5t58.5 -104.5t58.5 -106.5t49 -92t33.5 -59.5q-14 -23 -38.5 -46.5t-47.5 -23.5q-16 0 -39 27q-10 12 -26.5 41t-36 66.5t-38.5 78.5t-36.5 78t-31 63.5t-19.5 37.5 q-12 -23 -35.5 -74t-49.5 -108.5t-49.5 -106.5t-37.5 -68q-10 -12 -22.5 -21t-16.5 -9q-25 8 -47.5 21.5t-32.5 29.5z" />
<glyph unicode="_" horiz-adv-x="899" d="M14 -201q0 53 2 82t15 43h854q0 -53 -2 -81.5t-17 -43.5h-852z" />
<glyph unicode="`" horiz-adv-x="657" d="M125 1393q0 20 14 37q16 25 41 43t47 18h2q8 0 39 -32t66 -75t67.5 -88t47.5 -75q2 -4 2 -11q0 -23 -25 -48t-43 -27q-12 14 -45 45.5t-73 68.5t-77.5 73t-60.5 58q-2 5 -2 13z" />
<glyph unicode="a" horiz-adv-x="808" d="M49 248q0 94 37 155.5t90 98.5t112.5 53t106.5 20q16 2 30 3h28q39 0 67 -7v117q0 70 -16.5 106.5t-81.5 36.5q-53 0 -111.5 -17t-103.5 -36q-37 -16 -60 -16q-14 16 -20 39.5t-10 42.5q-2 6 -2 22q0 10 4 23q33 31 116.5 62.5t186.5 35.5h35q10 0 37 -2 q115 -8 157.5 -81t42.5 -204v-92q0 -106 -2 -219t-2 -194q-2 -29 4 -52q4 -18 16.5 -32.5t37.5 -10.5q-2 -23 -3 -44v-31q-12 -16 -39.5 -30.5t-68.5 -17.5q-37 0 -72 26t-51 48q-10 -10 -26.5 -23.5t-32.5 -23.5q-35 -16 -72 -21.5t-78 -5.5q-49 0 -95 15.5t-82 49.5 t-57.5 84t-21.5 122zM229 264q0 -78 31 -109.5t78 -35.5h14q47 0 91 18.5t67 44.5q2 4 3 11.5t3 17.5q4 18 4 42v56v146q-10 2 -20 2h-21q-18 0 -34.5 -1t-32.5 -3q-37 -6 -70 -18.5t-58.5 -34t-40 -54.5t-14.5 -82z" />
<glyph unicode="b" horiz-adv-x="927" d="M115 1393q16 35 58 45t106 10q10 -23 13 -54.5t3 -101.5v-381q43 31 103.5 53.5t133.5 22.5q70 0 131.5 -23.5t106.5 -75.5t70.5 -133t25.5 -194q0 -106 -16 -188t-44 -144.5t-63.5 -106.5t-74.5 -73q-63 -43 -135 -59.5t-134 -16.5q-84 0 -151.5 14.5t-110.5 41.5 q-10 25 -14 53.5t-4 62.5v1049q0 68 -1 115t-3 84zM295 135q20 -10 53 -18t70 -8q43 0 89 19t83 67.5t60.5 130.5t23.5 206q0 172 -57.5 241t-157.5 69q-41 0 -85 -14.5t-79 -43.5v-649z" />
<glyph unicode="c" horiz-adv-x="753" d="M66 463q0 164 45 266t104 158q59 57 133 78.5t148 21.5q45 0 83.5 -9t67.5 -21.5t46.5 -27t21.5 -24.5q0 -20 -7.5 -49t-19.5 -51h-10q-10 0 -24.5 4t-30.5 8q-59 27 -123 27q-18 0 -29 -2q-96 -8 -158.5 -96.5t-62.5 -272.5q0 -111 22.5 -180.5t59.5 -108.5t84 -53 t96 -14q51 0 97 11t79 28q4 -16 8 -31.5t4 -26.5q-2 -23 -14 -45t-31 -37q-29 -20 -77 -32.5t-103 -12.5q-84 0 -157.5 19.5t-130 73t-89 149.5t-32.5 250z" />
<glyph unicode="d" horiz-adv-x="931" d="M66 446q0 141 36.5 245t98.5 173q57 63 127.5 93t144.5 30q53 0 94 -10t66 -27v244q0 68 -1 115t-3 84q16 35 58 45t106 10q10 -23 13 -54.5t3 -101.5v-688q0 -106 -2 -218t-2 -193q-2 -31 4 -54q4 -18 16.5 -32.5t36.5 -8.5q-2 -23 -2 -45v-30q-12 -18 -39.5 -32 t-68.5 -16h-6q-34 0 -67 25q-36 27 -50 47q-10 -10 -26.5 -23.5t-33.5 -21.5q-56 -29 -130 -29h-19q-78 4 -142.5 30t-111.5 81t-73.5 143t-26.5 219zM258 467q0 -98 16.5 -164.5t45 -106.5t68.5 -57.5t87 -17.5t87 15.5t63 41.5q2 4 4 12.5t2 16.5q2 18 2 42v56v506 q-45 39 -131 39q-45 0 -89 -20.5t-78 -65.5t-55.5 -119t-21.5 -178z" />
<glyph unicode="e" horiz-adv-x="815" d="M66 444q0 147 29.5 251t81.5 168.5t125 94t157 29.5q139 0 210.5 -78t86.5 -211q2 -23 3 -47t1 -51q0 -33 -3 -64.5t-9 -56.5q-16 -12 -59.5 -26.5t-84.5 -20.5q-47 -6 -120.5 -9t-145.5 -3h-46q-22 0 -46 2q0 -84 18.5 -141.5t50 -92t75.5 -49t97 -14.5q66 0 122.5 11 t105.5 38q4 -14 7 -38.5t5 -43.5q-2 -31 -39 -59.5t-80 -38.5q-23 -6 -65.5 -13.5t-89.5 -7.5q-72 0 -146 19.5t-133 79.5q-108 112 -108 372zM250 549h78q59 0 116.5 1t85.5 5q14 2 25.5 4t22.5 8q10 27 10 68q0 12 -1 23.5t-1 21.5q-8 86 -43 130t-105 44q-12 0 -18 -2 q-61 -10 -111.5 -81.5t-58.5 -221.5z" />
<glyph unicode="f" horiz-adv-x="538" d="M33 848q6 57 14 72.5t33 21.5t80 19q0 41 2 79.5t6 73.5q8 102 45 168t87 103.5t109.5 52t112.5 14.5q63 0 101.5 -11t52.5 -28q6 -8 6 -16v-17q-2 -12 -4 -23t-6 -22q-12 -29 -25 -41q-4 -2 -16.5 1t-24.5 8q-16 4 -38.5 6t-43.5 2q-35 0 -66.5 -9.5t-57 -34t-42 -66.5 t-18.5 -107q-2 -33 -2 -66v-67h111h65q31 0 51 2q-4 -72 -13 -95.5t-32 -31.5l-9 -4.5t-13 -4.5q-33 -4 -74 -4h-88v-188q0 -102 1 -206.5t2 -205t1 -182.5q0 -8 -2 -21.5t-14 -17.5q-25 -4 -62 -6t-55 -2q-12 0 -23.5 1t-21.5 3q-2 10 -2 21v26q0 61 1 123.5t1 126.5 q0 127 -1 258t-1 270q-98 2 -127 25z" />
<glyph unicode="g" horiz-adv-x="862" d="M25 -440q-3 11 -3 21q0 30 20 66q28 48 75 97t104.5 94t104.5 76q34 -18 34 -60q0 -31 -24 -51q-27 -23 -52.5 -47t-46 -47.5t-30.5 -45t-6 -36.5q4 -18 23.5 -24t47.5 -6q35 0 75 7t69 13q55 14 102 44t82 68t54.5 77.5t19.5 72.5q0 6 -1 17.5t-3 15.5q-14 37 -36 61.5 t-87 32.5q-35 4 -70 6t-71 4l-37 2q-70 6 -113 17q-25 6 -43 12q-68 23 -103.5 58.5t-37.5 80.5q0 16 22 43q29 29 62.5 61t60.5 56q-66 41 -100.5 112.5t-34.5 170.5q0 86 26.5 152.5t72.5 112.5t109.5 69.5t139.5 23.5q53 0 95 -12t69 -27q6 -4 12 -7t19 7q59 2 114.5 5 t96.5 5q4 -10 8 -25t4 -36q0 -35 -13.5 -58.5t-41.5 -23.5q-27 0 -47.5 1t-47.5 5q29 -41 42.5 -85t13.5 -99q0 -162 -89.5 -251t-246.5 -89q-29 0 -51.5 3t-44.5 7q-14 -14 -26.5 -25.5t-23.5 -23.5q-14 -16 -14 -35q0 -18 32 -33.5t93 -21.5q43 -4 88 -7t92 -7 q20 -2 37.5 -3t34.5 -6q96 -16 150.5 -67t58.5 -141q0 -68 -32 -138.5t-88 -131t-136 -105.5t-174 -66q-41 -10 -90.5 -15t-98.5 -5q-72 0 -130 18.5t-70 65.5zM260 639q10 -102 53 -161.5t129 -59.5q84 0 118 65q26 50 26 126q0 23 -2 48q-10 100 -54.5 155.5t-123.5 55.5 q-72 0 -114 -56q-34 -45 -34 -130q0 -20 2 -43z" />
<glyph unicode="h" horiz-adv-x="921" d="M113 -6q2 90 3 194.5t1 231.5v782q0 66 -1 112t-3 81q18 35 58 44t105 9q10 -16 13.5 -43t3.5 -92v-434q31 29 64.5 50t64.5 34q29 10 61.5 17t71.5 7q74 0 124 -21.5t78.5 -68.5t41 -119.5t12.5 -175.5v-301v-156q0 -70 2 -127q-8 -8 -17.5 -12t-27.5 -7t-48 -4t-75 -1 q-14 35 -14 94v496v50q0 22 -4 38q-4 96 -40 130t-93 34q-61 0 -113.5 -29t-87.5 -64v-622q0 -33 -4 -58.5t-17 -48.5q-10 -8 -21 -12t-27.5 -6t-43.5 -2h-67z" />
<glyph unicode="i" horiz-adv-x="413" d="M106 1315q0 115 109 115q61 0 79 -28q16 -25 15 -72v-11q-2 -53 -22.5 -88t-83.5 -35q-53 0 -75 29t-22 90zM113 918q16 33 60 41t108 8q10 -23 13 -51.5t3 -94.5v-696q0 -70 -25 -109q-10 -16 -40.5 -18t-116.5 -4q0 78 1 167t1 183v363q0 72 -1 121t-3 90z" />
<glyph unicode="j" horiz-adv-x="421" d="M-137 -326q0 14 3 32t9 28q4 0 9 -1t12 -1q61 0 133 32q51 23 69.5 72t22.5 144q2 37 3 77.5t1 85.5v523q0 82 -1 141t-3 111q16 33 59 41t107 8q10 -16 13 -44t3 -87v-652q0 -141 -12 -260q-6 -61 -19.5 -113.5t-40.5 -93.5q-63 -100 -180 -116q-12 -2 -24 -2h-23 q-45 0 -70 8q-61 10 -71 67zM113 1315q0 115 108 115q61 0 79 -28q16 -25 16 -72q0 -6 -1 -11q-2 -53 -22.5 -88t-83.5 -35q-53 0 -74.5 29t-21.5 90z" />
<glyph unicode="k" horiz-adv-x="811" d="M111 1389q16 37 55 49t100 12q12 -20 18.5 -52t6.5 -110v-368q57 47 120.5 66.5t133.5 19.5q51 0 84 -18.5t52 -47.5t27.5 -63.5t8.5 -67.5q0 -88 -34 -152.5t-79 -109.5t-91 -70.5t-71 -34.5q31 -20 86.5 -81.5t117 -134t118.5 -144.5t92 -113q9 -7 9 -13q0 -5 -5 -10 q-12 -11 -35 -20q-35 -10 -73 -10q-31 0 -52.5 10.5t-56.5 36.5q-12 12 -32.5 37t-47 57.5t-55.5 66.5t-55 64q-10 10 -27.5 30t-37 40.5t-37 38.5t-25.5 27q-4 4 -15.5 14t-19.5 16v-297q0 -25 -5 -37t-22.5 -18t-53.5 -7t-97 -1q0 27 1 82t2 116.5t1 117.5v85v750 q0 53 -1 99t-3 87zM291 506q47 20 90 50t74.5 64.5t51 74.5t19.5 85q0 35 -16 58.5t-51 23.5t-81 -29.5t-87 -87.5v-239z" />
<glyph unicode="l" horiz-adv-x="411" d="M113 1395q16 35 59 44t107 9q10 -31 12 -72t2 -119v-1064q-2 -29 4 -52q4 -18 16.5 -32.5t36.5 -10.5q-2 -23 -2 -45v-30q-12 -18 -39.5 -32t-68.5 -16q-18 0 -38 8.5t-36 18.5q-25 16 -37 44t-12 58v21v1038q0 76 -1 130.5t-3 101.5z" />
<glyph unicode="m" horiz-adv-x="1390" d="M96 899q12 16 82 47q6 2 15 2q29 0 43 -17.5t20 -43.5q37 31 73 50t68 30q61 20 129 20h18q9 0 19 -2q70 -4 112 -30.5t68 -71.5q37 31 75 51t73 31q61 20 125 20h20q10 0 21 -2q68 -6 110.5 -32.5t68.5 -71.5t35 -108.5t9 -139.5v-344v-146q0 -68 4 -123 q-18 -14 -50 -19t-118 -5q-6 12 -10 27.5t-4 37.5v562q0 121 -30 169t-107 48q-53 0 -97.5 -26t-76.5 -60v-242v-481q0 -27 -27 -33q-10 -2 -28 -2h-44h-84q4 78 4 172v211v246q0 121 -29.5 169t-107.5 48q-57 0 -101 -26t-77 -60v-664q0 -27 -4 -43t-17 -33q-10 -8 -20 -12 t-27.5 -6t-43.5 -2h-66q2 78 2 173v212v366q0 49 -7.5 86t-17.5 68z" />
<glyph unicode="n" horiz-adv-x="925" d="M96 895q12 16 82 47q6 2 15 2q29 0 43 -17.5t20 -43.5q37 31 71.5 50t69.5 30q33 10 62.5 16t64.5 6q92 0 148.5 -23.5t88.5 -69.5t43 -113.5t11 -153.5v-314q0 -86 1 -158.5t3 -134.5q-8 -6 -18 -11t-28.5 -8t-48.5 -4t-73 -1q-16 31 -16 84v543q0 119 -35 167t-127 48 q-55 0 -99 -26t-77 -60v-639q0 -33 -4 -54.5t-19 -42.5q-10 -8 -20 -12t-26.5 -5t-43 -2t-67.5 -1q2 84 3 182t1 217v348q0 49 -7.5 86t-17.5 68z" />
<glyph unicode="o" horiz-adv-x="907" d="M57 475q0 131 30 228.5t83 160t127 93t162 30.5q389 0 389 -500q0 -129 -30 -225t-83 -160.5t-124.5 -97.5t-157.5 -33q-190 0 -293 119t-103 385zM248 483q0 -106 15.5 -179t43 -117t66.5 -63.5t84 -19.5q41 0 77.5 19.5t64.5 63.5t44 116t16 178q0 201 -55 285t-147 84 h-4q-41 0 -78 -19.5t-65.5 -63.5t-45 -114t-16.5 -170z" />
<glyph unicode="p" horiz-adv-x="937" d="M98 899q6 10 27 21l53 26q4 0 6 1t4 1h5q29 0 44 -17.5t21 -43.5q37 31 72 50t69 30q33 10 60.5 16t62.5 6q74 0 137.5 -24.5t111.5 -77.5t75.5 -137t27.5 -203q0 -195 -50 -315.5t-128 -184.5q-55 -45 -111.5 -60.5t-103.5 -15.5q-59 0 -107 16.5t-75 37.5v-340v-46 q0 -22 -4 -42q-10 -8 -40 -13.5t-65 -5.5q-37 0 -63 6q-4 27 -5 77t-1 128v956q0 49 -6.5 86t-16.5 68zM299 174q23 -29 63.5 -47t88.5 -18q35 0 75.5 18t75.5 65.5t57.5 130.5t22.5 209q0 166 -52 237t-151 71q-53 0 -100 -26t-80 -54v-586z" />
<glyph unicode="q" horiz-adv-x="933" d="M66 436q0 150 45 258.5t122 175.5q47 45 106.5 73t131.5 38q18 2 37.5 3t38.5 1q150 0 291 -59q-10 -31 -17.5 -68t-7.5 -86v-348v53v-837q0 -39 -15.5 -50.5t-72.5 -15.5h-92q2 70 3 150.5t1 183.5v137q-37 -35 -93.5 -56.5t-119.5 -21.5q-70 0 -134.5 24.5t-114.5 80 t-79.5 145.5t-29.5 219zM258 444q0 -176 63.5 -250.5t157.5 -74.5q47 0 91 19.5t67 54.5v593q0 27 6 43q-31 10 -65.5 15.5t-67.5 7.5q-47 0 -92 -23.5t-80 -72.5t-57.5 -127.5t-22.5 -184.5z" />
<glyph unicode="r" horiz-adv-x="614" d="M96 895q18 18 84 47q6 2 15 2q29 0 42 -17.5t21 -43.5q35 31 71 50t68 30q29 10 56 15q15 3 30 3q12 0 25 -2q80 -8 88 -51q0 -23 -7 -56.5t-26 -62.5q-8 -2 -18 -2t-23.5 1t-25.5 3q-10 4 -20 4h-17q-100 0 -162 -65v-654q0 -27 -3 -46t-15 -36q-10 -6 -21.5 -10t-29 -6 t-44 -3t-67.5 -1q2 84 3 182t1 219l2 346q0 49 -8.5 86t-18.5 68z" />
<glyph unicode="s" horiz-adv-x="708" d="M57 61q0 25 8.5 53.5t24.5 49.5h8q23 0 56 -17q33 -14 72.5 -23t82.5 -9q10 0 19.5 1t19.5 3q55 6 87 38.5t32 84.5q0 35 -20.5 66.5t-67.5 66.5q-41 29 -86 62.5t-80 62.5l-49 43q-90 88 -90 192q0 119 86 185.5t225 66.5q16 0 31.5 -1t27.5 -3q92 -6 134.5 -34.5 t48.5 -47.5q0 -20 -9.5 -48t-21.5 -44q-23 4 -45.5 7t-48.5 13q-47 18 -101 19q-63 0 -101 -30t-38 -77q0 -27 14.5 -51t51.5 -53q39 -31 99 -73t108 -81q66 -53 93 -105t27 -118q0 -72 -26.5 -125t-73.5 -89t-109.5 -54.5t-132.5 -18.5q-96 0 -168 24.5t-88 63.5z" />
<glyph unicode="t" horiz-adv-x="649" d="M45 842q0 25 1 36t2 17t5 9t10 9q23 18 62 26.5t61 18.5l11 185q10 31 46 54.5t107 27.5q-2 -72 -3 -136.5t-1 -127.5h264q-4 -78 -15 -102.5t-32 -29.5q-12 -2 -24.5 -3t-24.5 -1q-20 0 -36.5 -1t-35.5 -1h-41h-55q-2 -72 -3 -142.5t-1 -135.5q0 -68 1 -127.5t1 -110.5 q6 -86 26.5 -140t82.5 -54q12 0 32.5 4t43 10t41 13t24.5 14q2 -10 3 -21.5t1 -23.5v-29q0 -14 -2 -29q-6 -23 -31 -41q-29 -18 -77 -28.5t-95 -10.5q-72 0 -116 31t-68.5 80t-32.5 110.5t-8 122.5v506q-49 0 -77 5.5t-46 15.5z" />
<glyph unicode="u" horiz-adv-x="931" d="M106 932q18 20 97 57q8 2 16 2q35 0 51.5 -22.5t22.5 -46.5q10 -35 16 -77t6 -120l-20 -375q0 -70 10 -112.5t30.5 -67.5t49.5 -34t66 -9q9 -1 17 -1q44 0 86 18q50 22 77 55v651q0 33 4 54.5t18 41.5q8 8 18.5 12.5t28 5.5t44 2t67.5 1q-2 -84 -3 -182.5t-1 -217.5v-348 q0 -49 7 -86t17 -67q-12 -16 -81 -48q-6 -2 -15 -2q-29 0 -43 17.5t-20 44.5q-37 -31 -72 -50.5t-70 -29.5q-33 -10 -62.5 -16.5t-64.5 -6.5q-90 4 -145 29t-87 69t-43 106.5t-13 144.5l20 428q0 57 -8.5 100t-20.5 80z" />
<glyph unicode="v" horiz-adv-x="802" d="M35 922q10 29 46 40t118 11q12 -12 21 -32.5t16 -45.5q14 -47 31.5 -111.5t39.5 -136.5q16 -63 31.5 -132t30 -129t26 -108.5t19.5 -72.5q8 20 19 69.5t26.5 114t33 136t35.5 139.5q23 80 43.5 153.5t36.5 138.5q14 10 45 11q18 0 43 -2t64 -7q6 -8 6 -24q0 -20 -6 -43 t-17 -53q-57 -186 -116.5 -384t-132.5 -429q-16 -16 -41 -23.5t-45 -11.5q-6 -2 -15 -2q-27 0 -52.5 12t-31.5 31q-35 123 -75.5 259t-100.5 322l-21 65q-15 46 -32 97t-30 93.5t-15 54.5z" />
<glyph unicode="w" horiz-adv-x="1243" d="M33 928q10 23 51 33t121 10q20 -18 31 -64q31 -123 61 -252q31 -147 53.5 -258.5t38.5 -171.5q12 37 32.5 115t45.5 186q4 18 17.5 71.5t27.5 115t26.5 115t16.5 71.5q2 4 2 9v7v21q2 2 18.5 7t39 9t45 5t34.5 -1q12 -10 18.5 -28.5t14.5 -50.5q16 -76 37.5 -164 t44.5 -187q23 -98 42 -178t30 -123q25 76 50 193t54 252q20 76 34.5 143.5t24.5 120.5q4 10 5.5 17t5.5 14q8 6 26 6q10 0 31 -2t40 -4t35.5 -4.5t18.5 -4.5q7 0 7 -23q0 -12 -4 -25q-5 -17 -13 -46q-23 -80 -50.5 -182t-57 -211t-59.5 -215.5t-56 -194.5q-10 -33 -16.5 -49 t-22.5 -22q-12 -2 -41 -4t-70 -4q-16 12 -32.5 39.5t-24.5 54.5l-21 78q-10 39 -20 73q-29 109 -52.5 219.5t-45.5 219.5q-8 -41 -20.5 -96.5t-28 -118t-33 -126t-31.5 -120.5l-37 -144q-10 -33 -16 -49t-23 -22q-12 -2 -40.5 -4t-69.5 -4q-16 12 -32.5 39.5t-25.5 54.5 q-14 51 -31.5 116.5t-37 137t-40 146.5t-40.5 147q-35 129 -56.5 206.5t-31.5 100.5z" />
<glyph unicode="x" horiz-adv-x="862" d="M31 0l18 49q63 102 135 215t148 234q-29 49 -64 106.5t-70.5 115.5t-69.5 112.5t-58 95.5l-7 18q10 6 44 16.5t63 10.5h68q18 -16 37.5 -48t46.5 -75q29 -51 63.5 -112.5t63.5 -108.5q23 39 50 90t56 98q18 31 36.5 59.5t37.5 59.5q14 20 25.5 27.5t43.5 7.5 q23 0 55.5 -4t63.5 -11q-6 -12 -11 -25t-11 -26q-59 -88 -126 -191.5t-130 -201.5q70 -117 144.5 -239.5t145.5 -239.5l11 -25q-16 -6 -48 -9t-67 -5q-39 0 -96 14q-16 27 -35 56.5t-39 64.5q-33 55 -69.5 121.5t-65.5 120.5l-86 -158q-49 -90 -115 -188q-10 -23 -28.5 -27 t-65.5 -4q-23 0 -47 1t-47 5z" />
<glyph unicode="y" horiz-adv-x="800" d="M20 -340q0 16 7 35q2 10 6 20q16 6 34.5 5t39 -1t42 2.5t46.5 12.5q20 10 41.5 44t42 79t37 96t26.5 96q-4 4 -6 5t-4 5q-14 20 -22.5 41t-18.5 54q-4 14 -18.5 61t-35 113.5t-45 145.5t-51 160t-52.5 156.5t-46 135.5q10 27 44 37t114 10q10 0 22.5 -29t18.5 -53 q8 -25 21 -70t29.5 -100t34 -114.5t31.5 -112.5q12 -47 23.5 -93.5t21 -83t15.5 -63.5t8 -33q4 10 11 39t16.5 67t20.5 84t22 93q27 117 54.5 232.5t49.5 211.5q12 10 24.5 14.5t37.5 4.5q16 0 37.5 -1t52.5 -3q10 -20 10 -43q0 -20 -10 -56q-20 -86 -49 -192.5t-64 -224 t-75 -240.5t-81 -238q-43 -109 -83 -181.5t-78.5 -115.5t-75.5 -61.5t-70 -18.5q-72 0 -110 20.5t-46 47.5z" />
<glyph unicode="z" horiz-adv-x="739" d="M39 68q2 20 18 49q43 72 96.5 160t108.5 182t109.5 188t99.5 178h-219q-25 0 -46.5 -1t-43.5 -1q-106 0 -107 21v4q12 115 45 123q37 -8 79 -9t100 -1h397v-7q0 -10 2 -19q2 -10 2 -30q0 -25 -23 -71q-31 -59 -73.5 -139.5t-94 -170.5t-107.5 -188t-112 -195 q45 -2 104.5 -3t119.5 -1q86 0 146 5t73 10q0 -16 -1 -35t-5 -35q-8 -63 -41 -74q-35 -6 -83 -8t-141 -2q-98 0 -198.5 1t-175.5 5l-15 22q-10 15 -14 42z" />
<glyph unicode="{" horiz-adv-x="665" d="M78 629q0 16 4 33q68 2 111 15t65.5 31.5t31.5 41t9 43.5q2 14 0 32.5t-6 34.5q-10 33 -22.5 68t-28.5 71q-27 63 -49.5 125t-22.5 117q0 84 44 145.5t126 96.5q43 18 100.5 30.5t116.5 16.5q4 -10 7 -21.5t7 -17.5q4 -12 8.5 -21.5t4.5 -15.5t-4 -10q-4 -10 -15 -12 q-18 -4 -43 -9l-35 -8q-45 -10 -72.5 -29.5t-44 -41t-22.5 -42t-8 -34.5q-2 -16 0 -38t6 -36q8 -27 20.5 -56.5t26.5 -60.5q25 -59 48.5 -121.5t23.5 -124.5q0 -86 -35 -136t-115 -79q76 -29 114 -76.5t38 -129.5q0 -18 -4 -37l-8 -37q-10 -53 -26.5 -102.5t-37.5 -96.5 q-14 -37 -25.5 -71.5t-21.5 -65.5q-4 -16 -6 -28.5t-2 -28.5q0 -59 39 -102.5t110 -57.5q12 -4 24.5 -5t22.5 -3l33 -6q14 -2 19 -11q0 -4 1 -6t1 -4q0 -10 -5.5 -22.5t-11.5 -24.5q-4 -6 -8 -16.5t-6 -14.5q-195 4 -287 72q-100 72 -100 209q0 63 22.5 129.5t51.5 132.5 q16 39 28.5 75t22.5 70q4 16 7 36t-1 42q-2 18 -8 37t-22.5 34t-45 27.5t-78.5 16.5q-33 2 -53 31q-14 20 -14 47z" />
<glyph unicode="|" horiz-adv-x="626" d="M231 -461v2040q10 8 21.5 13t29 7.5t45.5 2.5h68v-2042q-10 -8 -21.5 -12.5t-29.5 -6.5t-45 -2h-68z" />
<glyph unicode="}" horiz-adv-x="665" d="M78 -252q0 2 1 4t1 6q4 8 18 11l33 6q10 2 22.5 3t24.5 5q72 14 111 57t39 103q0 16 -2 28.5t-7 28.5q-10 31 -21 65.5t-26 71.5q-20 47 -36.5 96.5t-26.5 102.5l-8 37q-4 18 -4 37q0 82 37.5 130t113.5 76q-80 29 -114.5 79t-34.5 136q0 61 23.5 124t47.5 122 q14 31 26.5 60.5t20.5 56.5q4 14 6.5 35.5t0.5 38.5q-2 14 -8.5 34.5t-23 42t-44 41t-72.5 29.5l-35 8q-25 4 -43 9q-10 2 -14 12q-4 4 -4 10t4 15.5t8 21.5q4 6 7 17.5t7 21.5q59 -4 117 -16.5t101 -30.5q82 -35 126 -96.5t44 -145.5q0 -55 -22.5 -116.5t-49.5 -125.5 q-16 -37 -28.5 -71.5t-22.5 -67.5q-4 -16 -6.5 -34.5t0.5 -32.5q0 -20 9 -43t31.5 -41.5t65.5 -31.5t111 -15q4 -16 4 -33q0 -27 -15 -47q-20 -29 -53 -31q-96 -10 -123.5 -44t-29.5 -71q-4 -23 -1 -42t7 -36q10 -35 22.5 -70.5t28.5 -74.5q29 -66 51.5 -132.5t22.5 -129.5 q0 -137 -101 -209q-92 -68 -286 -72q-2 4 -6.5 14.5t-8.5 16.5q-6 12 -11 24.5t-5 22.5z" />
<glyph unicode="~" horiz-adv-x="1024" d="M51 397q14 113 43 180.5t62.5 104.5t70.5 49t72 12q72 -4 131 -35.5t113 -80.5q49 -43 95 -80t93 -37q53 0 80 45t37 123q4 20 9 34.5t11 26.5q23 0 56.5 -9t50.5 -21q-10 -96 -31.5 -161t-52.5 -102.5t-70 -53t-82 -15.5q-37 0 -74.5 14.5t-74.5 38t-73 52t-73 59.5 q-43 37 -74.5 54t-60.5 17q-20 0 -39.5 -8t-37 -30.5t-31 -64.5t-23.5 -110q-16 -16 -51 -16q-29 2 -45.5 5t-30.5 9z" />
<glyph unicode="&#xa1;" horiz-adv-x="395" d="M88 -256q2 66 6 165t10.5 204.5t11.5 202t9 155.5q4 43 48 59.5t97 16.5q2 -76 7.5 -189.5t10.5 -236.5t10 -243t7 -206q-2 -29 -54 -39t-142 -10q-10 23 -15.5 51.5t-5.5 69.5zM104 862q2 53 22.5 88t84.5 35q53 0 74.5 -28.5t21.5 -90.5q0 -115 -108 -114 q-61 0 -79 27.5t-16 82.5z" />
<glyph unicode="&#xa2;" d="M150 532q0 133 31.5 223.5t78.5 149t103.5 88t103.5 41.5q2 35 3 69t3 68q2 29 17.5 41.5t56.5 16.5q16 2 34.5 2t39.5 2q-2 -49 -3.5 -96t-5.5 -97q59 -8 101.5 -27.5t54.5 -41.5q0 -10 -5 -40t-18 -52q-12 -6 -32 -7q-14 0 -33 7q-35 14 -68 16q-10 2 -18 3t-16 1 q-127 0 -186.5 -91t-59.5 -259q0 -98 19.5 -160.5t51 -97.5t74.5 -48.5t92 -13.5t96.5 11.5t86.5 31.5q0 -90 -23 -125q0 -10 -12 -18q-23 -16 -63 -28.5t-93 -16.5q-2 -37 -3 -74t-3 -76q-2 -29 -16.5 -41t-46.5 -16q-41 -6 -89 -6l13 221q-43 8 -90 31.5t-86 73t-64.5 130 t-25.5 205.5z" />
<glyph unicode="&#xa3;" horiz-adv-x="987" d="M111 37l2 117q70 37 109.5 106.5t49.5 163.5q2 10 2 19v20q0 45 -8 92t-18 92l-123 -12q-4 39 -2 77t12 48q16 10 47 14l35 4q-6 31 -10 77t-4 87q12 205 108 324q100 123 275 135q63 0 112.5 -11.5t84 -26.5t56 -32.5t27.5 -32.5q0 -35 -8 -60.5t-20 -41.5 q-12 -4 -29.5 2t-36.5 16q-16 8 -40.5 16.5t-55.5 12.5q-23 4 -48.5 5t-47.5 -3q-82 -14 -126 -88t-53 -190q-2 -10 -2 -21v-20q0 -31 4.5 -64t10.5 -63l348 35q4 -55 -3 -94.5t-44 -43.5l-271 -28q8 -39 15.5 -94.5t7.5 -100.5q0 -16 -2 -35.5t-4 -42.5q-12 -121 -94 -213 q66 -14 146.5 -22t145.5 -8q23 0 59 1t76 2t82 5t76 10q2 -14 1 -35.5t-5 -42.5q-4 -43 -39 -65q-18 -16 -51 -27q-45 -10 -96 -14t-117 -4q-111 0 -245.5 13t-288.5 42z" />
<glyph unicode="&#xa5;" d="M23 1331q0 8 17 11.5t79 3.5h102q12 -29 35 -77t48.5 -105.5t53 -118t52 -114.5t44 -98.5t29.5 -64.5l269 578q16 6 30.5 9t32.5 3q16 0 39 -1t57 -5q4 -16 4 -25q0 -18 -6 -34.5t-16 -39.5q-23 -53 -65 -132t-88 -161.5t-87 -157.5t-59 -118q-6 -12 -12.5 -32.5 t-8.5 -35.5l222 23q4 -55 -3.5 -94t-43.5 -43l-183 -19v-200q0 -86 1 -150.5t1 -112.5q-6 -8 -16 -14t-28.5 -9t-48.5 -4t-75 -1q-16 39 -16 92v381l-225 -23q-4 39 -2 76t12 49q10 6 21.5 8.5t25.5 4.5l168 18q-2 4 -2 7t-2 7q-16 45 -43 103.5t-66 132.5 q-57 117 -124.5 244t-120.5 235z" />
<glyph unicode="&#xa7;" horiz-adv-x="968" d="M68 922q0 76 21.5 135t49.5 96q23 27 45.5 39t36.5 14q23 0 17 -16q-29 -41 -50.5 -96.5t-21.5 -126.5q0 -72 32.5 -138.5t84 -129t115 -119t124 -105.5t111.5 -91t78 -73q63 -80 63 -164q0 -10 -1 -18t-3 -18q-8 -86 -57 -136.5t-99 -72.5q-41 -23 -93 -33t-107 -10h-27 q-45 2 -90 10t-74 18q-18 10 -14 50t12 79q41 -16 101.5 -25t117.5 -9q80 0 135.5 35.5t55.5 107.5v11q0 7 -4 16q-8 53 -64 108q-68 68 -153.5 135.5t-161.5 145t-128 170t-52 211.5zM258 1210q0 10 1 19.5t3 19.5q8 86 57.5 135.5t98.5 71.5q82 43 207 39q61 0 103 -14.5 t65 -30.5q20 -20 5.5 -53t-28.5 -54q-45 16 -86 25.5t-92 9.5q-80 0 -135.5 -35.5t-55.5 -107.5q-4 -49 18.5 -79t49.5 -56q63 -63 140 -122.5t144.5 -128.5t113.5 -152t46 -193q0 -35 -6 -72q-8 -53 -36.5 -99t-94.5 -69q-6 -2 -11 2t-1 10q10 25 18.5 50.5t14.5 54.5 q10 55 -0.5 113.5t-36 113t-60 101.5t-73.5 77q-37 31 -80 64t-85 66.5t-79 66.5t-61 64q-64 81 -64 163z" />
<glyph unicode="&#xa8;" horiz-adv-x="745" d="M113 1272q0 106 102 106q57 0 73.5 -25.5t14.5 -76.5t-21.5 -83t-78.5 -32q-49 0 -69.5 27t-20.5 84zM434 1272q0 106 103 106q57 0 73.5 -25.5t14.5 -76.5t-21.5 -83t-79.5 -32q-49 0 -69.5 27t-20.5 84z" />
<glyph unicode="&#xa9;" horiz-adv-x="1183" d="M74 877q0 129 39 231t107.5 172t165.5 106.5t214 36.5q115 0 209 -34.5t160.5 -103t102.5 -171t36 -235.5q0 -127 -38 -228.5t-105.5 -173t-162.5 -109.5t-210 -38q-117 0 -212 34.5t-164 104.5t-105.5 171.5t-36.5 236.5zM195 877q0 -211 106.5 -327t290.5 -116 q86 0 158.5 31t125 88t82 140t29.5 188q0 100 -26.5 182t-76.5 140.5t-122 89t-162 30.5t-164 -29.5t-128 -86t-83.5 -138.5t-29.5 -186v-6zM358 866q0 86 22.5 144.5t60.5 95.5t87.5 53.5t104.5 16.5q53 0 92 -13.5t47 -27.5q0 -12 -5 -33t-9 -31q-8 -4 -15 -4q-12 0 -24 6 q-10 4 -20.5 6t-24.5 4q-12 2 -26 2h-30q-55 -4 -102 -52t-47 -163q0 -23 6 -41q10 -90 53 -122.5t115 -32.5q31 0 61.5 8t49.5 14q4 -10 8 -22l6 -19q-4 -27 -27 -47q-14 -8 -42.5 -17t-77.5 -9q-127 0 -195 65t-68 219z" />
<glyph unicode="&#xaa;" horiz-adv-x="600" d="M106 856q0 59 23 97t56.5 61.5t71.5 33t67 13.5h34h23q10 0 20 -2v71q0 43 -10 67t-51 24q-35 0 -71 -11.5t-64 -21.5q-25 -10 -37 -10q-10 10 -13 24.5t-5 26.5q-2 4 -3 14q0 4 1.5 7t1.5 7q20 18 72 38t118 22h45q72 -4 98.5 -50t26.5 -128v-58q0 -66 -1 -136.5 t-1 -121.5q-2 -18 2 -32q4 -12 10 -21.5t23 -5.5q-2 -14 -2 -29v-18q-6 -10 -23.5 -19.5t-44.5 -11.5q-23 0 -44 16.5t-32 30.5q-6 -6 -16 -15t-21 -16q-39 -16 -94 -16q-61 0 -110.5 40t-49.5 130zM219 866q0 -49 19.5 -68.5t48.5 -23.5h10q29 0 56.5 12.5t41.5 28.5 q0 2 1 7t1 12q4 10 4 24v37v90q-8 2 -26 2q-10 0 -20.5 -1t-20.5 -3q-47 -8 -81 -33t-34 -84z" />
<glyph unicode="&#xab;" horiz-adv-x="925" d="M68 498q20 33 65 96t93 132t91 129t60 89q16 -2 31.5 -12t26.5 -24.5t18.5 -27t7.5 -18.5q0 -16 -15.5 -48t-38 -72t-50 -82t-52 -78.5t-42 -62t-21.5 -32.5q8 -10 41.5 -60t72.5 -111.5t70 -119t31 -83.5q0 -6 -7.5 -20.5t-18.5 -30t-26.5 -26.5t-33.5 -11 q-14 25 -48 75t-76 109t-86 121.5t-77 109.5q-16 33 -16 58zM438 496q23 33 68 95t94 128.5t93 126t65 88.5q14 -2 29.5 -12.5t26.5 -23.5t18.5 -26.5t7.5 -21.5q0 -16 -15.5 -48t-39 -70t-51 -80t-53.5 -76.5t-44.5 -59t-22.5 -31.5q6 -10 42 -58t76 -107.5t72 -114.5 t32 -80q0 -6 -7.5 -20.5t-19.5 -29t-27.5 -25.5t-31.5 -13q-16 29 -51 78t-77 105t-86 113.5t-77 104.5q-10 16 -15.5 32t-5.5 26z" />
<glyph unicode="&#xac;" horiz-adv-x="1019" d="M74 641q0 47 9 83t34 60h747l66 -12v-446q0 -20 -2 -39t-6 -35q-2 -6 -16.5 -10t-35 -7.5t-44 -4.5t-44.5 -3v414h-708z" />
<glyph unicode="&#xad;" horiz-adv-x="598" d="M72 444q14 141 53 142q86 8 184.5 19t169.5 22q23 -4 45 -15q-4 -57 -21.5 -98t-51.5 -45q-35 -6 -78 -11t-87 -10.5t-87 -8.5t-80 -3q-12 0 -23.5 2t-23.5 6z" />
<glyph unicode="&#xae;" horiz-adv-x="811" d="M68 1073q0 174 91 267.5t253 93.5t246.5 -89.5t84.5 -269.5q0 -166 -89 -264t-251 -98q-164 0 -249.5 89t-85.5 271zM166 1073q0 -141 62.5 -206.5t172.5 -65.5q104 0 174 68.5t70 207.5q0 131 -61.5 201t-171.5 70h-2q-109 0 -176.5 -67t-67.5 -208zM293 881v385 q4 2 6 4t12 2q4 0 6 1t7 1q8 2 24 2h30q13 0 28 -2q125 -2 124 -115q0 -39 -17 -64.5t-42 -39.5q16 -18 41 -60.5t37 -97.5v-4q0 -8 -2 -10q-10 -4 -37 -4q-8 0 -10 2q-6 0 -15.5 1t-17.5 5q-8 53 -24.5 86t-32.5 53h-13q-8 8 -26 8h-9v-145q-8 -6 -21 -7t-48 -1zM362 1090 h25q20 0 37 6q33 16 33 65q0 27 -15.5 43.5t-44.5 16.5q-10 0 -18 -1t-17 -1v-129z" />
<glyph unicode="&#xaf;" horiz-adv-x="901" d="M217 1231q8 70 18.5 93.5t32.5 21.5h105h130q65 0 113 2q10 -4 22.5 -9.5t23.5 -9.5q-4 -55 -20.5 -85t-51.5 -30q-33 -2 -71 -3t-79 -1q-47 0 -93 2t-85 7q-12 2 -22.5 5t-22.5 7z" />
<glyph unicode="&#xb0;" horiz-adv-x="727" d="M190 1321q0 86 57.5 146.5t147.5 60.5h2q45 0 83 -17.5t64.5 -46t41 -65.5t14.5 -76q0 -88 -59.5 -146.5t-147.5 -58.5q-84 0 -143.5 55.5t-59.5 147.5zM293 1323q0 -47 29.5 -79t74.5 -32q47 0 75 33t28 76t-28 78t-77 35q-47 0 -74.5 -34t-27.5 -77z" />
<glyph unicode="&#xb1;" horiz-adv-x="598" d="M61 625q0 72 9.5 104.5t40.5 32.5h120q0 37 -1 77t-3 70q12 14 41 17.5t82 5.5q16 -8 20.5 -23.5t4.5 -50.5v-96h170q0 -70 -8.5 -103.5t-42.5 -33.5h-119v-111q2 -31 -10.5 -47t-34 -23.5t-47 -8.5t-52.5 -1v191h-170zM72 176q14 141 53 141q86 8 184.5 19.5t169.5 21.5 q23 -4 45 -14q-4 -57 -21.5 -98t-51.5 -45q-35 -6 -78 -11.5t-87 -10.5t-87 -8t-80 -3q-12 0 -23.5 2t-23.5 6z" />
<glyph unicode="&#xb4;" horiz-adv-x="686" d="M217 1204q0 10 2 17q25 35 58.5 81t66.5 87t59.5 68.5t36.5 27.5q16 0 35 -9.5t34 -23.5t25.5 -31.5t10.5 -31.5q-4 -6 -23 -25q-29 -29 -61.5 -60.5t-65.5 -64.5t-63.5 -61.5t-50.5 -49.5q-23 4 -43.5 27.5t-20.5 48.5z" />
<glyph unicode="&#xb5;" horiz-adv-x="931" d="M92 -344q10 33 17.5 68.5t7.5 85.5v544l-2 310q0 88 -1 152.5t-3 121.5q16 16 53 22.5t115 6.5q10 -35 13 -79t3 -122l-2 -416q0 -70 11 -112.5t30.5 -67.5t49.5 -34t67 -9q53 -4 103 17.5t77 54.5v651q0 33 4 54.5t18 41.5q8 8 18.5 12.5t28 5.5t44 2t67.5 1 q-2 -84 -3 -182.5t-1 -217.5v-348q0 -49 7 -86t17 -67q-12 -16 -81 -48q-6 -2 -15 -2q-29 0 -43 17.5t-20 44.5q-39 -31 -73 -50.5t-69 -29.5q-33 -10 -62.5 -16.5t-64.5 -6.5q-86 4 -139 27v-338q-8 -27 -21.5 -44t-41.5 -17q-8 0 -15 2q-35 16 -60.5 28.5t-33.5 22.5z" />
<glyph unicode="&#xb6;" horiz-adv-x="1024" d="M82 852q0 115 38 202t101.5 144t148.5 86t177 29h268h78q16 0 16 -15q0 -14 -10 -24l-39 -33q-14 -10 -37 -14v-768q0 -53 -1 -102.5t-1 -94.5q-4 -141 -35.5 -232t-101.5 -159q-47 -35 -92 -48t-90 -13q-35 0 -67 5t-64 11q-29 6 -39 35q-4 14 -7 26.5t-6 22.5 q49 -12 87 -12q33 0 61.5 6t58.5 16q92 35 138.5 132.5t46.5 271.5v161q-66 -12 -129.5 -24t-135.5 -19q-78 0 -144 27t-115.5 79t-77 128t-27.5 176z" />
<glyph unicode="&#xb7;" horiz-adv-x="413" d="M92 522q0 119 121 119q70 0 89.5 -28.5t16.5 -86.5q-2 -55 -25.5 -91t-94.5 -36q-59 0 -83 30t-24 93z" />
<glyph unicode="&#xb8;" horiz-adv-x="563" d="M156 -371q0 20 26 27q86 29 123 53.5t37 65.5q0 20 -16.5 35.5t-42 24.5t-56 13.5t-59.5 4.5q4 18 9 44.5t16 43.5q31 2 64.5 1t64.5 -10q66 -16 109.5 -57t43.5 -100q0 -53 -27.5 -90t-69.5 -61.5t-89 -38t-86 -19.5q-23 4 -35 26.5t-12 36.5z" />
<glyph unicode="&#xba;" horiz-adv-x="657" d="M106 999q0 166 70 243t180 77q244 0 244 -311q0 -162 -69.5 -243t-178.5 -81q-119 0 -182.5 74.5t-63.5 240.5zM225 1006q0 -133 37 -185.5t94 -52.5q25 0 48.5 12.5t41 40t27.5 72.5t10 111q0 127 -34.5 179t-92.5 52h-4q-51 0 -89 -52t-38 -177z" />
<glyph unicode="&#xbb;" horiz-adv-x="923" d="M82 127q0 16 15.5 48t39 69t52 76.5t54 73.5t44 58.5t24.5 30.5q-6 10 -40.5 59.5t-74.5 110t-72 117.5t-32 82q0 18 11.5 32.5t24.5 26t27.5 18.5t20.5 9q16 -29 50 -79t76 -107.5t85 -117t78 -104.5q20 -35 20 -57q-23 -35 -68.5 -96.5t-96 -128t-95.5 -126t-63 -89.5 q-4 2 -17.5 9t-27 19.5t-24.5 29t-11 36.5zM459 113q0 16 15 48t39 71.5t51.5 81.5t52 78t43 61.5t22.5 31.5q-4 6 -21.5 33t-42 62.5t-50 77.5t-48 82t-37 73t-14.5 51q0 16 11.5 30.5t25.5 26t28.5 17.5t20.5 6q14 -25 48 -75t75 -109.5t83 -119.5t77 -105q18 -35 18 -60 q-23 -33 -67 -97.5t-93 -133t-92 -131t-61 -88.5l-19 9q-14 7 -28.5 18t-25.5 27t-11 34z" />
<glyph unicode="&#xbf;" horiz-adv-x="651" d="M49 -102q0 100 42 176t99 147q49 66 76 120t27 97q0 35 -7 63.5t-7 45.5v4q6 10 27.5 16t43.5 6q29 0 56.5 -18t37.5 -59q10 -45 11 -82q0 -61 -25 -119q-16 -35 -37.5 -67.5t-44.5 -65.5q-41 -57 -78 -115.5t-37 -124.5q0 -72 40 -104.5t100 -32.5q37 0 76.5 12.5 t87.5 40.5q20 -2 35.5 -28.5t15.5 -81.5q-14 -25 -44 -44.5t-67 -31.5t-78 -18.5t-77 -6.5q-76 0 -128.5 20.5t-84 56.5t-46 85.5t-14.5 108.5zM248 870q2 53 22.5 88t83.5 35q53 0 75 -28.5t22 -90.5q0 -115 -109 -114q-61 0 -78.5 27.5t-15.5 82.5z" />
<glyph unicode="&#xc0;" horiz-adv-x="1089" d="M20 6q2 20 6.5 37.5t10.5 34.5q43 129 102.5 296t121 338t116.5 328.5t90 268.5q10 43 20 43q10 2 21.5 5t21.5 3q16 4 31 4h25q29 -6 39 -21q35 -104 74.5 -225t80.5 -243.5t80 -240.5t72 -216q43 -123 73.5 -218.5t57.5 -172.5v-4q0 -2 2 -3q0 -6 -8 -14 q-18 -6 -53 -10t-62 -4q-18 0 -36.5 6t-43.5 29q-29 84 -51.5 163.5t-56.5 184.5h-426q-35 -102 -67 -193.5t-54 -161.5q-4 -14 -16.5 -21t-47.5 -7q-23 0 -58.5 4t-64.5 10zM281 1698q0 20 8 37q6 16 20.5 32.5t28.5 16.5q4 14 13 24.5t20 10.5q10 0 41.5 -19.5t71.5 -49.5 t81 -63.5t70 -60.5q10 -10 16 -17t11 -16v-2q0 -6 -6.5 -19t-14.5 -25.5t-18.5 -23t-16.5 -12.5q-18 8 -54 28t-79 44.5t-88 51t-82 44.5q-16 11 -22 19zM373 520h338q-23 72 -41.5 138.5t-38.5 127.5q-33 102 -52.5 175t-33.5 126q-27 -96 -55.5 -195t-71.5 -228z" />
<glyph unicode="&#xc1;" horiz-adv-x="1089" d="M20 6q2 20 6.5 37.5t10.5 34.5q43 129 102.5 296t121 338t116.5 328.5t90 268.5q10 43 20 43q10 2 21.5 5t21.5 3q16 4 31 4h25q29 -6 39 -21q35 -104 74.5 -225t80.5 -243.5t80 -240.5t72 -216q43 -123 73.5 -218.5t57.5 -172.5v-4q0 -2 2 -3q0 -6 -8 -14 q-18 -6 -53 -10t-62 -4q-18 0 -36.5 6t-43.5 29q-29 84 -51.5 163.5t-56.5 184.5h-426q-35 -102 -67 -193.5t-54 -161.5q-4 -14 -16.5 -21t-47.5 -7q-23 0 -58.5 4t-64.5 10zM373 520h338q-23 72 -41.5 138.5t-38.5 127.5q-33 102 -52.5 175t-33.5 126q-27 -96 -55.5 -195 t-71.5 -228zM424 1548l16 21q8 10 21 20q33 29 75 60.5t81.5 57.5t72.5 43t45 17q14 -2 27.5 -14t24 -29.5t17.5 -37t11 -33.5q0 -18 -29 -33q-37 -16 -79.5 -38.5t-85.5 -44t-81 -40t-65 -31.5q-10 2 -19.5 14.5t-16.5 26t-11 25.5t-4 16z" />
<glyph unicode="&#xc2;" horiz-adv-x="1089" d="M20 6q2 20 6.5 37.5t10.5 34.5q43 129 102.5 296t121 338t116.5 328.5t90 268.5q10 43 20 43q10 2 21.5 5t21.5 3q16 4 31 4h25q29 -6 39 -21q35 -104 74.5 -225t80.5 -243.5t80 -240.5t72 -216q43 -123 73.5 -218.5t57.5 -172.5v-4q0 -2 2 -3q0 -6 -8 -14 q-18 -6 -53 -10t-62 -4q-18 0 -36.5 6t-43.5 29q-29 84 -51.5 163.5t-56.5 184.5h-426q-35 -102 -67 -193.5t-54 -161.5q-4 -14 -16.5 -21t-47.5 -7q-23 0 -58.5 4t-64.5 10zM303 1538q14 16 39 44t54.5 58.5t58 60.5t53.5 54q8 12 28.5 17.5t30.5 5.5q20 -14 53 -43t68 -63 t66.5 -65.5t54.5 -52.5q-10 -27 -33.5 -53t-46.5 -26q-25 0 -45 18q-33 27 -74 70t-63 63q-39 -47 -76 -82t-63 -55q-2 -2 -7.5 -5t-9.5 -5t-8 -2h-2q-29 8 -50.5 26.5t-27.5 34.5zM373 520h338q-23 72 -41.5 138.5t-38.5 127.5q-33 102 -52.5 175t-33.5 126 q-27 -96 -55.5 -195t-71.5 -228z" />
<glyph unicode="&#xc3;" horiz-adv-x="1089" d="M20 6q2 20 6.5 37.5t10.5 34.5q43 129 102.5 296t121 338t116.5 328.5t90 268.5q10 43 20 43q10 2 21.5 5t21.5 3q16 4 31 4h25q29 -6 39 -21q35 -104 74.5 -225t80.5 -243.5t80 -240.5t72 -216q43 -123 73.5 -218.5t57.5 -172.5v-4q0 -2 2 -3q0 -6 -8 -14 q-18 -6 -53 -10t-62 -4q-18 0 -36.5 6t-43.5 29q-29 84 -51.5 163.5t-56.5 184.5h-426q-35 -102 -67 -193.5t-54 -161.5q-4 -14 -16.5 -21t-47.5 -7q-23 0 -58.5 4t-64.5 10zM266 1548q31 92 78 142.5t123 50.5q43 0 69.5 -24.5t55.5 -53.5q14 -14 26.5 -23.5t26.5 -9.5 q33 0 50.5 21.5t27.5 58.5q8 20 25 21q10 0 21 -8.5t21.5 -18.5t17.5 -20.5t9 -14.5q-4 -31 -19.5 -63.5t-39 -59t-56 -44t-71.5 -17.5q-51 0 -76 27.5t-53 56.5q-16 16 -26.5 22t-26.5 6q-47 -10 -76 -77q-12 -23 -23 -23q-12 0 -26.5 7t-26.5 16.5t-21 17.5zM373 520h338 q-23 72 -41.5 138.5t-38.5 127.5q-33 102 -52.5 175t-33.5 126q-27 -96 -55.5 -195t-71.5 -228z" />
<glyph unicode="&#xc4;" horiz-adv-x="1089" d="M20 6q2 20 6.5 37.5t10.5 34.5q43 129 102.5 296t121 338t116.5 328.5t90 268.5q10 43 20 43q10 2 21.5 5t21.5 3q16 4 31 4h25q29 -6 39 -21q35 -104 74.5 -225t80.5 -243.5t80 -240.5t72 -216q43 -123 73.5 -218.5t57.5 -172.5v-4q0 -2 2 -3q0 -6 -8 -14 q-18 -6 -53 -10t-62 -4q-18 0 -36.5 6t-43.5 29q-29 84 -51.5 163.5t-56.5 184.5h-426q-35 -102 -67 -193.5t-54 -161.5q-4 -14 -16.5 -21t-47.5 -7q-23 0 -58.5 4t-64.5 10zM279 1612q0 106 102 106q57 0 73.5 -25.5t14.5 -76.5t-21.5 -83t-78.5 -32q-49 0 -69.5 27 t-20.5 84zM373 520h338q-23 72 -41.5 138.5t-38.5 127.5q-33 102 -52.5 175t-33.5 126q-27 -96 -55.5 -195t-71.5 -228zM621 1612q0 106 102 106q57 0 73.5 -25.5t14.5 -76.5t-21.5 -83t-78.5 -32q-49 0 -69.5 27t-20.5 84z" />
<glyph unicode="&#xc5;" horiz-adv-x="1089" d="M20 6q2 20 6.5 37.5t10.5 34.5q43 129 102.5 296t121 338t116.5 328.5t90 268.5q10 43 20 43q10 2 21.5 5t21.5 3q16 4 31 4h25q29 -6 39 -21q35 -104 74.5 -225t80.5 -243.5t80 -240.5t72 -216q43 -123 73.5 -218.5t57.5 -172.5v-4q0 -2 2 -3q0 -6 -8 -14 q-18 -6 -53 -10t-62 -4q-18 0 -36.5 6t-43.5 29q-29 84 -51.5 163.5t-56.5 184.5h-426q-35 -102 -67 -193.5t-54 -161.5q-4 -14 -16.5 -21t-47.5 -7q-23 0 -58.5 4t-64.5 10zM344 1669q0 84 56.5 144.5t148.5 60.5q45 0 81 -17.5t62.5 -45t41 -63.5t14.5 -75 q0 -86 -58.5 -143t-148.5 -57q-80 0 -138.5 54t-58.5 142zM373 520h338q-23 72 -41.5 138.5t-38.5 127.5q-33 102 -52.5 175t-33.5 126q-27 -96 -55.5 -195t-71.5 -228zM444 1671q0 -47 30 -77.5t73 -30.5q47 0 74.5 32.5t27.5 75.5t-27.5 77t-76.5 34q-45 0 -73 -34 t-28 -77z" />
<glyph unicode="&#xc6;" horiz-adv-x="1439" d="M31 16q37 80 82 178.5t94 208t101 223t102.5 223t95.5 211t84 183.5q10 25 19 45.5t18 42.5q18 10 54 16.5t69 8.5h596q-2 -70 -10.5 -97.5t-26.5 -37.5q-33 -4 -76 -7.5t-96 -3.5h-226q4 -109 10.5 -214t10.5 -214h385q-8 -86 -23.5 -115.5t-50.5 -29.5h-305l12 -246 q6 -123 11 -246q35 -4 82 -5t102 -1h136q71 0 122 4l2 -2q-4 -78 -19.5 -106.5t-48.5 -36.5q-41 -2 -96 -3t-133 -1q-104 0 -181 3t-128 7q-4 20 -7.5 39.5t-7.5 40.5q-6 98 -12 193.5t-10 193.5h-346q-43 -96 -76 -167t-56.5 -124t-40 -92t-30.5 -70q-6 -14 -16.5 -23 t-42.5 -9q-23 0 -37.5 3t-30.5 7q-10 4 -24.5 9t-30.5 11zM473 612h281l-19 584q-23 -47 -50.5 -109.5t-57.5 -136.5q-47 -98 -83 -179t-71 -159z" />
<glyph unicode="&#xc7;" horiz-adv-x="952" d="M70 643q0 397 176 588q84 90 182 122.5t203 32.5q63 0 112.5 -11t84 -26.5t56 -33t27.5 -31.5q0 -35 -8 -60.5t-20 -41.5h-9q-10 -2 -24 4t-33 14q-43 20 -96 29q-16 2 -31.5 3t-34.5 1h-21q-11 0 -22 -2q-72 -6 -135 -41t-110.5 -104.5t-76 -176t-28.5 -254.5 q0 -270 98.5 -396t278.5 -126q74 0 142.5 18.5t103.5 41.5q12 -23 16 -64q-6 -59 -47 -94q-29 -25 -94.5 -45.5t-149.5 -20.5q-125 0 -224 33t-170 112t-108.5 207.5t-37.5 321.5zM428 -371q0 20 27 27q86 29 122.5 53.5t36.5 65.5q0 20 -16 35.5t-42 24.5t-56.5 13.5 t-59.5 4.5q4 18 9.5 44.5t15.5 43.5q31 2 64.5 1t64.5 -10q66 -16 110 -57t44 -100q0 -53 -28 -90t-70 -61.5t-89 -38t-86 -19.5q-23 4 -35 26.5t-12 36.5z" />
<glyph unicode="&#xc8;" horiz-adv-x="788" d="M119 1325q16 4 42.5 16.5t61.5 14.5h496q-4 -74 -13.5 -100.5t-31.5 -36.5q-37 -6 -83 -7.5t-106 -1.5h-182v-417h381q-6 -49 -12 -78t-15.5 -44.5t-21.5 -20.5t-31 -5h-301v-500q31 -4 77 -5t95 -1h135q72 0 133 4l2 -2q-8 -78 -22 -106.5t-45 -36.5q-41 -2 -98.5 -3 t-143.5 -1q-96 0 -173 3t-126 7q-4 23 -7 42.5t-7 41.5v981v131q0 64 -4 125zM180 1694q0 18 8 35q6 16 20.5 32.5t29.5 16.5q4 14 13 24t19 10t42 -19t72 -49t81 -63.5t70 -60.5q10 -8 16 -16.5t10 -16.5q0 -6 -6 -18.5t-14.5 -25.5t-17.5 -24.5t-17 -13.5q-18 8 -54 27.5 t-79 44.5t-88 51.5t-82 44.5q-19 15 -23 21z" />
<glyph unicode="&#xc9;" horiz-adv-x="788" d="M119 1325q16 4 42.5 16.5t61.5 14.5h496q-4 -74 -13.5 -100.5t-31.5 -36.5q-37 -6 -83 -7.5t-106 -1.5h-182v-417h381q-6 -49 -12 -78t-15.5 -44.5t-21.5 -20.5t-31 -5h-301v-500q31 -4 77 -5t95 -1h135q72 0 133 4l2 -2q-8 -78 -22 -106.5t-45 -36.5q-41 -2 -98.5 -3 t-143.5 -1q-96 0 -173 3t-126 7q-4 23 -7 42.5t-7 41.5v981v131q0 64 -4 125zM322 1548l16 21q8 10 20 20q33 29 75 60.5t82 57.5t73 43t45 17q14 -2 27.5 -14t23.5 -29.5t17.5 -37t11.5 -33.5q0 -18 -29 -33q-37 -16 -80 -38.5t-86 -44t-81 -40t-64 -31.5q-10 2 -19.5 14.5 t-16.5 26t-11 25.5t-4 16z" />
<glyph unicode="&#xca;" horiz-adv-x="788" d="M119 1325q16 4 42.5 16.5t61.5 14.5h496q-4 -74 -13.5 -100.5t-31.5 -36.5q-37 -6 -83 -7.5t-106 -1.5h-182v-417h381q-6 -49 -12 -78t-15.5 -44.5t-21.5 -20.5t-31 -5h-301v-500q31 -4 77 -5t95 -1h135q72 0 133 4l2 -2q-8 -78 -22 -106.5t-45 -36.5q-41 -2 -98.5 -3 t-143.5 -1q-96 0 -173 3t-126 7q-4 23 -7 42.5t-7 41.5v981v131q0 64 -4 125zM172 1538q14 16 39 44t54.5 58.5t58 60.5t53.5 54q8 12 28.5 17.5t30.5 5.5q20 -14 53 -43t68 -63t66.5 -65.5t54.5 -52.5q-10 -27 -33.5 -53t-46.5 -26q-25 0 -45 18q-33 27 -74 70t-63 63 q-39 -47 -76 -82t-64 -55q-2 -2 -7 -5t-9 -5t-8 -2h-2q-29 8 -50.5 26.5t-27.5 34.5z" />
<glyph unicode="&#xcb;" horiz-adv-x="788" d="M119 1325q16 4 42.5 16.5t61.5 14.5h496q-4 -74 -13.5 -100.5t-31.5 -36.5q-37 -6 -83 -7.5t-106 -1.5h-182v-417h381q-6 -49 -12 -78t-15.5 -44.5t-21.5 -20.5t-31 -5h-301v-500q31 -4 77 -5t95 -1h135q72 0 133 4l2 -2q-8 -78 -22 -106.5t-45 -36.5q-41 -2 -98.5 -3 t-143.5 -1q-96 0 -173 3t-126 7q-4 23 -7 42.5t-7 41.5v981v131q0 64 -4 125zM154 1612q0 106 102 106q57 0 73.5 -25.5t14.5 -76.5t-21.5 -83t-78.5 -32q-49 0 -69.5 27t-20.5 84zM496 1612q0 106 102 106q57 0 73.5 -25.5t14.5 -76.5t-21.5 -83t-78.5 -32q-49 0 -69.5 27 t-20.5 84z" />
<glyph unicode="&#xcc;" horiz-adv-x="423" d="M-29 1694q0 18 9 35q6 16 19 32.5t28 16.5q4 14 13 24t19 10t42 -19t72 -49t81 -63.5t70 -60.5q20 -16 26 -33v-2q0 -6 -6 -19.5t-14 -25.5t-18.5 -22.5t-16.5 -12.5q-18 8 -54 27.5t-79 44.5t-87 51.5t-81 44.5q-17 11 -23 21zM117 1313q12 31 52 39t116 8q12 0 15 -32 t3 -103q0 -123 -1 -264.5t-1 -276.5q0 -133 1 -254t1 -219q0 -86 1 -131t1 -62q-12 -16 -51 -20t-115 -4q-18 0 -18 39q0 117 1 288t1 359q0 117 -1 230.5t-1 205.5q0 84 -1 133.5t-3 63.5z" />
<glyph unicode="&#xcd;" horiz-adv-x="423" d="M76 1548l16 21q8 10 21 20q33 29 74.5 60.5t81.5 57.5t73 43t45 17q14 -2 27.5 -14t24 -29.5t17.5 -37t11 -33.5q0 -18 -29 -33q-37 -16 -80 -38.5t-86 -44t-80.5 -40t-64.5 -31.5q-10 2 -19.5 14.5t-16.5 26t-11 25.5t-4 16zM117 1313q12 31 52 39t116 8q12 0 15 -32 t3 -103q0 -123 -1 -264.5t-1 -276.5q0 -133 1 -254t1 -219q0 -86 1 -131t1 -62q-12 -16 -51 -20t-115 -4q-18 0 -18 39q0 117 1 288t1 359q0 117 -1 230.5t-1 205.5q0 84 -1 133.5t-3 63.5z" />
<glyph unicode="&#xce;" horiz-adv-x="423" d="M-33 1538q14 16 39 44t54.5 58.5t58 60.5t53.5 54q8 12 28.5 17.5t30.5 5.5q20 -14 53 -43t68 -63t67 -65.5t54 -52.5q-10 -27 -33.5 -53t-46.5 -26q-25 0 -45 18q-33 27 -74 70t-63 63q-39 -47 -76 -82t-63 -55q-2 -2 -7.5 -5t-9.5 -5t-8 -2h-2q-29 8 -50.5 26.5 t-27.5 34.5zM117 1313q12 31 52 39t116 8q12 0 15 -32t3 -103q0 -123 -1 -264.5t-1 -276.5q0 -133 1 -254t1 -219q0 -86 1 -131t1 -62q-12 -16 -51 -20t-115 -4q-18 0 -18 39q0 117 1 288t1 359q0 117 -1 230.5t-1 205.5q0 84 -1 133.5t-3 63.5z" />
<glyph unicode="&#xcf;" horiz-adv-x="423" d="M-57 1608q0 45 26.5 75.5t73.5 30.5h2q49 0 72.5 -30.5t23.5 -71.5q0 -47 -26.5 -77t-73.5 -30t-72.5 26t-25.5 77zM117 1313q12 31 52 39t116 8q12 0 15 -32t3 -103q0 -123 -1 -264.5t-1 -276.5q0 -133 1 -254t1 -219q0 -86 1 -131t1 -62q-12 -16 -51 -20t-115 -4 q-18 0 -18 39q0 117 1 288t1 359q0 117 -1 230.5t-1 205.5q0 84 -1 133.5t-3 63.5zM285 1608q0 45 26.5 75.5t75.5 30.5q51 0 73.5 -30.5t22.5 -71.5q0 -47 -26.5 -77t-73.5 -30t-72.5 26t-25.5 77z" />
<glyph unicode="&#xd0;" horiz-adv-x="1079" d="M0 657q2 72 11 106t38 34h74v407q0 61 4 89t20 50q18 2 51 5.5t73 6.5t83 5t82 2q170 0 280.5 -47t176 -132t91.5 -201t26 -253q0 -211 -42 -358.5t-145 -245.5q-45 -41 -94 -67.5t-99 -42t-98.5 -20.5t-89.5 -5q-90 0 -164.5 5t-154.5 15v647h-123zM303 145q31 -4 68 -7 t78 -3q66 0 130 23.5t116.5 88t84 181.5t31.5 301q0 233 -70.5 344t-210.5 133q-55 12 -122 13q-61 0 -105 -7v-415h256q-2 -70 -10 -105t-41 -35h-205v-512z" />
<glyph unicode="&#xd1;" horiz-adv-x="1140" d="M98 1325v6q0 8 2 12q8 4 25.5 7.5t39 5.5t42 3t33.5 1q31 0 61 -19q35 -66 83 -150.5t105 -182.5q29 -47 55.5 -95.5t55.5 -99.5l70 -125q53 -100 101 -202.5t83 -182.5v16v22q0 11 -2 21q-2 35 -4 80t-3 94.5t-2 97.5t-1 91v502q0 39 4 63.5t14 46.5q12 8 23.5 13.5 t27 7.5t39.5 2h66q-2 -92 -3 -196.5t-1 -227.5v-916q-4 -4 -32 -18t-56 -14q-14 0 -41 2t-43 8q-66 119 -140.5 248t-152.5 268l-84 154q-33 66 -67 140.5t-66 143.5q-16 35 -25.5 55.5t-23.5 51.5q6 -117 9 -237t5 -208v-483q0 -41 -4 -64.5t-15 -46.5q-8 -10 -18 -15 t-27.5 -7t-44 -3t-67.5 -1q2 90 3 194.5t1 227.5v874q-6 8 -15.5 19.5t-9.5 15.5zM293 1548q31 92 78 142.5t123 50.5q43 0 69.5 -24.5t54.5 -53.5q14 -14 26.5 -23.5t27.5 -9.5q33 0 50 21.5t28 58.5q8 20 24 21q10 0 21.5 -8.5t21.5 -18.5t17.5 -20.5t9.5 -14.5 q-4 -31 -19.5 -63.5t-39 -59t-56.5 -44t-72 -17.5q-51 0 -75.5 27.5t-53.5 56.5q-16 16 -26 22t-27 6q-47 -10 -76 -77q-12 -23 -22 -23q-12 0 -26.5 7t-27 16.5t-20.5 17.5z" />
<glyph unicode="&#xd2;" horiz-adv-x="1171" d="M66 674q0 354 135 533t391 179q131 0 228.5 -47t160.5 -136t94 -219t31 -294q0 -342 -130 -531.5t-396 -189.5q-139 0 -236.5 49.5t-159 140.5t-90 221t-28.5 294zM264 664q0 -274 91 -408.5t235 -134.5q150 0 235.5 136t85.5 427q0 145 -24.5 249.5t-68.5 171 t-103.5 98.5t-128.5 32h-2q-143 0 -231.5 -137t-88.5 -434zM350 1700q0 20 8 37q6 16 20.5 31.5t29.5 15.5q4 14 13 25.5t19 11.5t42 -19.5t72 -49.5t81 -63.5t70 -60.5q16 -18 26 -33q0 -6 -6 -18t-14.5 -25.5t-17.5 -24.5t-17 -14q-18 8 -54 28t-79 44.5t-88 50t-82 45.5 q-17 11 -23 19z" />
<glyph unicode="&#xd3;" horiz-adv-x="1171" d="M66 674q0 354 135 533t391 179q131 0 228.5 -47t160.5 -136t94 -219t31 -294q0 -342 -130 -531.5t-396 -189.5q-139 0 -236.5 49.5t-159 140.5t-90 221t-28.5 294zM264 664q0 -274 91 -408.5t235 -134.5q150 0 235.5 136t85.5 427q0 145 -24.5 249.5t-68.5 171 t-103.5 98.5t-128.5 32h-2q-143 0 -231.5 -137t-88.5 -434zM457 1554l16 21q8 10 21 20q33 29 74.5 61t81.5 57.5t73 43t45 17.5q14 -2 27.5 -14.5t23.5 -30t17.5 -37t11.5 -33.5q0 -18 -29 -33q-37 -16 -80 -38.5t-86 -44t-80.5 -40t-64.5 -30.5q-10 2 -19.5 14t-16.5 25.5 t-11 25.5t-4 16z" />
<glyph unicode="&#xd4;" horiz-adv-x="1171" d="M66 674q0 354 135 533t391 179q131 0 228.5 -47t160.5 -136t94 -219t31 -294q0 -342 -130 -531.5t-396 -189.5q-139 0 -236.5 49.5t-159 140.5t-90 221t-28.5 294zM264 664q0 -274 91 -408.5t235 -134.5q150 0 235.5 136t85.5 427q0 145 -24.5 249.5t-68.5 171 t-103.5 98.5t-128.5 32h-2q-143 0 -231.5 -137t-88.5 -434zM342 1544q14 16 39 44t54.5 58.5t58 60.5t53.5 54q8 12 28.5 17.5t30.5 5.5q20 -14 53 -43t68 -62.5t66.5 -65.5t54.5 -52q-10 -27 -33.5 -53.5t-46.5 -26.5q-25 0 -45 18q-33 27 -74 70t-63 63q-39 -47 -76 -81.5 t-64 -55.5q-2 -2 -7 -5t-9 -5t-8 -2h-2q-29 8 -50.5 26.5t-27.5 34.5z" />
<glyph unicode="&#xd5;" horiz-adv-x="1171" d="M66 674q0 354 135 533t391 179q131 0 228.5 -47t160.5 -136t94 -219t31 -294q0 -342 -130 -531.5t-396 -189.5q-139 0 -236.5 49.5t-159 140.5t-90 221t-28.5 294zM264 664q0 -274 91 -408.5t235 -134.5q150 0 235.5 136t85.5 427q0 145 -24.5 249.5t-68.5 171 t-103.5 98.5t-128.5 32h-2q-143 0 -231.5 -137t-88.5 -434zM305 1548q31 92 78 142.5t123 50.5q43 0 69.5 -24.5t55.5 -53.5q14 -14 26.5 -23.5t26.5 -9.5q33 0 50.5 21.5t27.5 58.5q8 20 24 21q10 0 21.5 -8.5t22 -18.5t17.5 -20.5t9 -14.5q-4 -31 -19.5 -63.5t-39 -59 t-56 -44t-71.5 -17.5q-51 0 -76 27.5t-53 56.5q-16 16 -26.5 22t-27.5 6q-47 -10 -75 -77q-12 -23 -23 -23q-12 0 -26.5 7t-26.5 16.5t-21 17.5z" />
<glyph unicode="&#xd6;" horiz-adv-x="1171" d="M68 674q0 354 135 533t391 179q131 0 228.5 -47t161 -136t94 -219t30.5 -294q0 -342 -130 -531.5t-396 -189.5q-139 0 -236.5 49.5t-159 140.5t-90 221t-28.5 294zM266 664q0 -274 91.5 -408.5t234.5 -134.5q150 0 235.5 136t85.5 427q0 145 -24.5 249.5t-68.5 171 t-103.5 98.5t-128.5 32h-2q-143 0 -231.5 -137t-88.5 -434zM322 1612q0 106 102 106q57 0 73.5 -25.5t14.5 -76.5t-21.5 -83t-78.5 -32q-49 0 -69.5 27t-20.5 84zM664 1612q0 106 102 106q57 0 73.5 -25.5t14.5 -76.5t-21.5 -83t-78.5 -32q-49 0 -69.5 27t-20.5 84z" />
<glyph unicode="&#xd7;" horiz-adv-x="1021" d="M158 803q8 33 28 59q33 43 72 43q61 -66 123.5 -131t124.5 -131q53 55 104.5 109.5t104.5 109.5q12 12 28.5 27.5t26.5 15.5q14 0 37 -18q16 -14 33.5 -33.5t27.5 -34.5q-66 -72 -132 -140.5t-132 -139.5q57 -59 113.5 -119t113.5 -119q10 -10 17.5 -21.5t13.5 -21.5 q-16 -29 -35 -47q-37 -43 -73 -43q-61 68 -124 134.5t-126 131.5q-61 -66 -123 -132t-123 -134q-16 0 -32.5 10t-39.5 35q-12 16 -17 31.5t-7 31.5l123 132l123 131q-63 66 -125 132t-125 132z" />
<glyph unicode="&#xd8;" horiz-adv-x="1214" d="M86 672q0 209 48 354t140 231q129 129 338 129q92 0 168 -23.5t135 -76.5q16 27 31 50.5t29 45.5q20 31 26 35h7q27 0 53 -22.5t29 -40.5q-4 -14 -14.5 -37t-23 -48.5t-26.5 -52t-27 -49.5q66 -92 96.5 -214t30.5 -263q0 -170 -30.5 -304t-95 -226t-164 -141.5 t-234.5 -49.5q-96 0 -174 24.5t-135 78.5q-23 -39 -44.5 -73t-37.5 -56q-10 -8 -25 -9q-20 0 -34 13q-14 10 -25.5 23.5t-15.5 29.5q14 27 43.5 80t58.5 100q-70 94 -98.5 222.5t-28.5 269.5zM281 657q0 -102 16 -185t45 -144l461 829q-72 78 -199 78q-70 0 -129 -34 t-102 -104.5t-67.5 -180t-24.5 -259.5zM408 201q80 -80 194 -80q74 0 135.5 27.5t105.5 94t68.5 175t24.5 270.5q0 104 -17.5 190.5t-48.5 149.5q-55 -98 -116.5 -210.5t-122 -223.5t-117.5 -213t-106 -180z" />
<glyph unicode="&#xd9;" horiz-adv-x="1130" d="M113 1333q12 16 51 21.5t117 5.5q14 -25 17 -58.5t3 -95.5v-567q0 -66 3 -121t11 -106q23 -135 80.5 -215t177.5 -80q100 0 148.5 14t73.5 31q23 104 32 231t9 256l2 561q0 41 5 71t15 56q12 8 22.5 12.5t27 6.5t41 3t65.5 1q-2 -80 -3 -175t-1 -210v-326 q0 -166 -13.5 -301t-42.5 -252q-59 -72 -165.5 -99.5t-227.5 -27.5q-117 0 -195.5 33t-128 91.5t-75 138t-35.5 174.5q-4 51 -7 104t-3 113v389q0 100 -1 179t-3 142zM313 1686q0 8 5.5 21t12.5 27.5t17 24.5t23 10q6 14 14 24.5t18 10.5t42 -19.5t72 -49t81 -63.5t70 -60 q20 -16 26 -33v-2q0 -10 -14 -35q-10 -16 -19.5 -28.5t-19.5 -16.5q-18 8 -54 27.5t-79 44t-88 51.5t-82 45q-21 13 -25 21z" />
<glyph unicode="&#xda;" horiz-adv-x="1130" d="M113 1333q12 16 51 21.5t117 5.5q14 -25 17 -58.5t3 -95.5v-567q0 -66 3 -121t11 -106q23 -135 80.5 -215t177.5 -80q100 0 148.5 14t73.5 31q23 104 32 231t9 256l2 561q0 41 5 71t15 56q12 8 22.5 12.5t27 6.5t41 3t65.5 1q-2 -80 -3 -175t-1 -210v-326 q0 -166 -13.5 -301t-42.5 -252q-59 -72 -165.5 -99.5t-227.5 -27.5q-117 0 -195.5 33t-128 91.5t-75 138t-35.5 174.5q-4 51 -7 104t-3 113v389q0 100 -1 179t-3 142zM422 1548l16 21q8 10 21 20q33 29 74.5 60.5t81.5 57.5t73 43t45 17q14 -2 27.5 -14t24 -29.5t17.5 -37 t11 -33.5q0 -18 -29 -33q-37 -16 -79.5 -38.5t-86 -44t-81 -40t-64.5 -31.5q-10 2 -19.5 14.5t-16.5 26t-11 25.5t-4 16z" />
<glyph unicode="&#xdb;" horiz-adv-x="1130" d="M113 1333q12 16 51 21.5t117 5.5q14 -25 17 -58.5t3 -95.5v-567q0 -66 3 -121t11 -106q23 -135 80.5 -215t177.5 -80q100 0 148.5 14t73.5 31q23 104 32 231t9 256l2 561q0 41 5 71t15 56q12 8 22.5 12.5t27 6.5t41 3t65.5 1q-2 -80 -3 -175t-1 -210v-326 q0 -166 -13.5 -301t-42.5 -252q-59 -72 -165.5 -99.5t-227.5 -27.5q-117 0 -195.5 33t-128 91.5t-75 138t-35.5 174.5q-4 51 -7 104t-3 113v389q0 100 -1 179t-3 142zM319 1536q14 16 39 44t54.5 58.5t58.5 60.5t53 54q8 12 28.5 17.5t31.5 5.5q20 -14 53 -43t67.5 -63 t66.5 -65.5t54 -52.5q-10 -27 -33.5 -53t-46.5 -26q-25 0 -45 18q-33 27 -73.5 70t-63.5 63q-39 -47 -75.5 -82t-63.5 -55q-2 -2 -7 -5t-9 -5t-9 -2h-2q-29 8 -50.5 26.5t-27.5 34.5z" />
<glyph unicode="&#xdc;" horiz-adv-x="1130" d="M113 1333q12 16 51 21.5t117 5.5q14 -25 17 -58.5t3 -95.5v-567q0 -66 3 -121t11 -106q23 -135 80.5 -215t177.5 -80q100 0 148.5 14t73.5 31q23 104 32 231t9 256l2 561q0 41 5 71t15 56q12 8 22.5 12.5t27 6.5t41 3t65.5 1q-2 -80 -3 -175t-1 -210v-326 q0 -166 -13.5 -301t-42.5 -252q-59 -72 -165.5 -99.5t-227.5 -27.5q-117 0 -195.5 33t-128 91.5t-75 138t-35.5 174.5q-4 51 -7 104t-3 113v389q0 100 -1 179t-3 142zM303 1612q0 106 103 106q57 0 73.5 -25.5t14.5 -76.5t-21.5 -83t-79.5 -32q-49 0 -69.5 27t-20.5 84z M645 1612q0 106 103 106q57 0 73.5 -25.5t14.5 -76.5t-21.5 -83t-79.5 -32q-49 0 -69.5 27t-20.5 84z" />
<glyph unicode="&#xdd;" horiz-adv-x="946" d="M23 1331q0 8 17 11.5t79 3.5h102q12 -29 35 -77t48.5 -105.5t53 -118t52 -114.5t44 -98.5t29.5 -64.5l269 578q16 6 30.5 9t32.5 3q16 0 39 -1t57 -5q4 -16 4 -25q0 -18 -6 -34.5t-16 -39.5q-23 -53 -65 -132t-88 -161.5t-87 -157.5t-59 -118q-10 -25 -17.5 -51.5 t-11.5 -50.5v-299q0 -86 1 -150.5t1 -112.5q-6 -8 -16 -14t-28.5 -9t-48.5 -4t-75 -1q-16 39 -16 92v481v27q0 10 -4 20q-16 45 -43 103.5t-66 132.5q-57 117 -124.5 244t-120.5 235zM375 1538v2q12 18 35 41q33 29 74.5 60.5t81.5 57t73 43t45 17.5q14 -2 28.5 -14 t25 -29.5t17.5 -37t11 -33.5q0 -18 -29 -33q-37 -16 -80 -39t-86 -44.5t-80.5 -40t-64.5 -30.5q-12 4 -21.5 16.5t-17.5 28.5q-12 21 -12 35z" />
<glyph unicode="&#xdf;" horiz-adv-x="1017" d="M72 969q10 10 24.5 18t34.5 19v27q0 13 2 28q10 104 55 177t119 116q51 31 109.5 44t118.5 13q16 0 33.5 -1t33.5 -3q76 -6 131 -32.5t92 -66.5t55.5 -89.5t18.5 -104.5q0 -59 -20.5 -96t-44.5 -60q-31 -23 -62 -43t-55.5 -42.5t-39.5 -48t-15 -56.5q0 -35 23.5 -67.5 t57.5 -65.5q29 -23 62 -50.5t61 -56.5q51 -49 82 -108.5t31 -136.5q0 -74 -25.5 -131.5t-70.5 -96.5t-106.5 -59.5t-135.5 -20.5q-92 0 -152.5 22.5t-76.5 49.5q2 49 24 84q16 25 45 25q23 -12 60 -26.5t86 -14.5q35 0 66.5 10t55 29.5t35 47t7.5 62.5t-19.5 65.5 t-38.5 57.5q-35 41 -75 80t-76 74q-43 41 -73 91t-30 113q0 78 53.5 138.5t137.5 113.5q18 20 32.5 48t14.5 61q0 68 -36 109.5t-101 52.5q-29 6 -58 6q-10 0 -21.5 -1t-23.5 -3q-78 -12 -116.5 -74.5t-49.5 -185.5q-6 -104 -6 -222q2 -184 2 -351t2 -333q0 -31 -1 -56 t-5 -48q-16 -12 -46 -16t-64 -4q-37 0 -54.5 6t-17.5 8q0 6 4 26.5t4 57.5q0 59 1 117.5t1 117.5q0 123 -1 247t-1 253q-33 33 -45 73t-12 83z" />
<glyph unicode="&#xe0;" horiz-adv-x="808" d="M49 248q0 -72 21.5 -122t57.5 -84t82 -49.5t95 -15.5q41 0 78 5.5t72 21.5q16 10 32.5 23.5t26.5 23.5q16 -23 51 -48.5t72 -25.5q41 2 68.5 16.5t39.5 31.5v31q0 22 3 44q-25 -4 -37.5 10.5t-16.5 32.5q-6 23 -4 52q0 82 2 194.5t2 218.5v92q0 131 -43 204t-157 81 q-27 2 -37 2h-35q-102 -4 -186 -35.5t-117 -62.5q-4 -12 -4 -23q0 -16 2 -22q4 -18 10 -42t20 -40q23 0 60 16q45 18 103.5 35.5t111.5 17.5q66 0 82 -36.5t16 -106.5v-117q-29 6 -67 7h-28q-13 0 -30 -3q-47 -4 -106.5 -20t-112.5 -53t-90 -98.5t-37 -155.5zM229 264 q0 49 14.5 82t40 54.5t58.5 33.5t70 19q16 2 32.5 3t34.5 1h21q10 0 20 -2v-146v-56q0 -24 -4 -42q-2 -10 -3 -17.5t-3 -11.5q-23 -27 -67 -45t-91 -18h-14q-47 4 -78 35.5t-31 109.5zM238 1397q0 14 10 31.5t25.5 32t34 23.5t34.5 9q10 0 37 -27.5t59.5 -68.5t66.5 -87 t58 -81q2 -6 2 -17q0 -25 -20.5 -48t-42.5 -27q-23 20 -52.5 48.5t-62.5 61.5t-66.5 64.5t-60.5 60.5q-18 19 -22 25z" />
<glyph unicode="&#xe1;" horiz-adv-x="808" d="M49 248q0 94 37 155.5t90 98.5t112.5 53t106.5 20q16 2 30 3h28q39 0 67 -7v117q0 70 -16.5 106.5t-81.5 36.5q-53 0 -111.5 -17t-103.5 -36q-37 -16 -60 -16q-14 16 -20 39.5t-10 42.5q-2 6 -2 22q0 10 4 23q33 31 116.5 62.5t186.5 35.5h35q10 0 37 -2 q115 -8 157.5 -81t42.5 -204v-92q0 -106 -2 -219t-2 -194q-2 -29 4 -52q4 -18 16.5 -32.5t37.5 -10.5q-2 -23 -3 -44v-31q-12 -16 -39.5 -30.5t-68.5 -17.5q-37 0 -72 26t-51 48q-10 -10 -26.5 -23.5t-32.5 -23.5q-35 -16 -72 -21.5t-78 -5.5q-49 0 -95 15.5t-82 49.5 t-57.5 84t-21.5 122zM229 264q0 -78 31 -109.5t78 -35.5h14q47 0 91 18.5t67 44.5q2 4 3 11.5t3 17.5q4 18 4 42v56v146q-10 2 -20 2h-21q-18 0 -34.5 -1t-32.5 -3q-37 -6 -70 -18.5t-58.5 -34t-40 -54.5t-14.5 -82zM287 1214q0 10 2 17q25 35 58.5 81t66 87t59.5 68.5 t37 27.5q16 0 34.5 -9t34 -23.5t25.5 -32t10 -31.5q-4 -6 -22 -25q-29 -29 -61.5 -60.5t-65.5 -64t-63.5 -61.5t-51.5 -49q-23 4 -43 27t-20 48z" />
<glyph unicode="&#xe2;" horiz-adv-x="808" d="M49 248q0 94 37 155.5t90 98.5t112.5 53t106.5 20q16 2 30 3h28q39 0 67 -7v117q0 70 -16.5 106.5t-81.5 36.5q-53 0 -111.5 -17t-103.5 -36q-37 -16 -60 -16q-14 16 -20 39.5t-10 42.5q-2 6 -2 22q0 10 4 23q33 31 116.5 62.5t186.5 35.5h35q10 0 37 -2 q115 -8 157.5 -81t42.5 -204v-92q0 -106 -2 -219t-2 -194q-2 -29 4 -52q4 -18 16.5 -32.5t37.5 -10.5q-2 -23 -3 -44v-31q-12 -16 -39.5 -30.5t-68.5 -17.5q-37 0 -72 26t-51 48q-10 -10 -26.5 -23.5t-32.5 -23.5q-35 -16 -72 -21.5t-78 -5.5q-49 0 -95 15.5t-82 49.5 t-57.5 84t-21.5 122zM170 1198q23 49 70 115.5t92 130.5q23 27 41 37q27 12 49 12q18 -20 49 -55t62.5 -75t61.5 -80t48 -69q-14 -23 -38.5 -46t-47.5 -23q-18 0 -39 24q-16 18 -34.5 42t-35 46.5t-31 43t-22.5 34.5q-27 -45 -52.5 -81.5t-53.5 -73.5q-10 -14 -22.5 -23.5 t-16.5 -9.5q-25 10 -47.5 22.5t-32.5 28.5zM229 264q0 -78 31 -109.5t78 -35.5h14q47 0 91 18.5t67 44.5q2 4 3 11.5t3 17.5q4 18 4 42v56v146q-10 2 -20 2h-21q-18 0 -34.5 -1t-32.5 -3q-37 -6 -70 -18.5t-58.5 -34t-40 -54.5t-14.5 -82z" />
<glyph unicode="&#xe3;" horiz-adv-x="813" d="M49 248q0 94 37 155.5t90 98.5t112.5 53t106.5 20q16 2 30 3h28q39 0 67 -7v117q0 70 -16.5 106.5t-81.5 36.5q-53 0 -111.5 -17t-103.5 -36q-37 -16 -60 -16q-14 16 -20 39.5t-10 42.5q-2 6 -2 22q0 10 4 23q33 31 116.5 62.5t186.5 35.5h35q10 0 37 -2 q115 -8 157.5 -81t42.5 -204v-92q0 -106 -2 -219t-2 -194q-2 -29 4 -52q4 -18 16.5 -32.5t37.5 -10.5q-2 -23 -3 -44v-31q-12 -16 -39.5 -30.5t-68.5 -17.5q-37 0 -72 26t-51 48q-10 -10 -26.5 -23.5t-32.5 -23.5q-35 -16 -72 -21.5t-78 -5.5q-49 0 -95 15.5t-82 49.5 t-57.5 84t-21.5 122zM119 1217q31 92 78 142t122 50q43 0 70 -24.5t55 -53.5q14 -14 26.5 -23.5t27.5 -9.5q33 0 50 21.5t27 58.5q8 20 25 21q10 0 21.5 -8.5t21.5 -18.5t17.5 -20.5t9.5 -14.5q-4 -31 -19.5 -63.5t-39 -59t-56.5 -44t-72 -17.5q-51 0 -75.5 27.5t-53.5 56.5 q-16 16 -26.5 22.5t-26.5 6.5q-47 -10 -76 -78q-12 -23 -22 -23q-12 0 -26.5 7.5t-27 16.5t-20.5 17zM229 264q0 -78 31 -109.5t78 -35.5h14q47 0 91 18.5t67 44.5q2 4 3 11.5t3 17.5q4 18 4 42v56v146q-10 2 -20 2h-21q-18 0 -34.5 -1t-32.5 -3q-37 -6 -70 -18.5t-58.5 -34 t-40 -54.5t-14.5 -82z" />
<glyph unicode="&#xe4;" horiz-adv-x="808" d="M49 248q0 94 37 155.5t90 98.5t112.5 53t106.5 20q16 2 30 3h28q39 0 67 -7v117q0 70 -16.5 106.5t-81.5 36.5q-53 0 -111.5 -17t-103.5 -36q-37 -16 -60 -16q-14 16 -20 39.5t-10 42.5q-2 6 -2 22q0 10 4 23q33 31 116.5 62.5t186.5 35.5h35q10 0 37 -2 q115 -8 157.5 -81t42.5 -204v-92q0 -106 -2 -219t-2 -194q-2 -29 4 -52q4 -18 16.5 -32.5t37.5 -10.5q-2 -23 -3 -44v-31q-12 -16 -39.5 -30.5t-68.5 -17.5q-37 0 -72 26t-51 48q-10 -10 -26.5 -23.5t-32.5 -23.5q-35 -16 -72 -21.5t-78 -5.5q-49 0 -95 15.5t-82 49.5 t-57.5 84t-21.5 122zM133 1270q0 106 103 106q57 0 73.5 -25.5t14.5 -76.5t-21.5 -83t-79.5 -32q-49 0 -69.5 27t-20.5 84zM229 264q0 -78 31 -109.5t78 -35.5h14q47 0 91 18.5t67 44.5q2 4 3 11.5t3 17.5q4 18 4 42v56v146q-10 2 -20 2h-21q-18 0 -34.5 -1t-32.5 -3 q-37 -6 -70 -18.5t-58.5 -34t-40 -54.5t-14.5 -82zM455 1270q0 106 102 106q57 0 73.5 -25.5t14.5 -76.5t-21.5 -83t-78.5 -32q-49 0 -69.5 27t-20.5 84z" />
<glyph unicode="&#xe5;" horiz-adv-x="808" d="M49 248q0 94 37 155.5t90 98.5t112.5 53t106.5 20q16 2 30 3h28q39 0 67 -7v117q0 70 -16.5 106.5t-81.5 36.5q-53 0 -111.5 -17t-103.5 -36q-37 -16 -60 -16q-14 16 -20 39.5t-10 42.5q-2 6 -2 22q0 10 4 23q33 31 116.5 62.5t186.5 35.5h35q10 0 37 -2 q115 -8 157.5 -81t42.5 -204v-92q0 -106 -2 -219t-2 -194q-2 -29 4 -52q4 -18 16.5 -32.5t37.5 -10.5q-2 -23 -3 -44v-31q-12 -16 -39.5 -30.5t-68.5 -17.5q-37 0 -72 26t-51 48q-10 -10 -26.5 -23.5t-32.5 -23.5q-35 -16 -72 -21.5t-78 -5.5q-49 0 -95 15.5t-82 49.5 t-57.5 84t-21.5 122zM190 1321q0 86 57.5 146.5t147.5 60.5h2q45 0 83 -17.5t64.5 -46t41 -65.5t14.5 -76q0 -88 -59.5 -146.5t-147.5 -58.5q-84 0 -143.5 55.5t-59.5 147.5zM229 264q0 -78 31 -109.5t78 -35.5h14q47 0 91 18.5t67 44.5q2 4 3 11.5t3 17.5q4 18 4 42v56v146 q-10 2 -20 2h-21q-18 0 -34.5 -1t-32.5 -3q-37 -6 -70 -18.5t-58.5 -34t-40 -54.5t-14.5 -82zM293 1323q0 -47 29.5 -79t74.5 -32q47 0 75 33t28 76t-28 78t-77 35q-47 0 -74.5 -34t-27.5 -77z" />
<glyph unicode="&#xe6;" horiz-adv-x="1280" d="M59 256q0 70 27 131.5t74 106.5t110.5 71.5t135.5 26.5q31 0 58.5 -1t55.5 -5v63q0 20 -1 39t-3 35q-14 115 -147 115q-53 0 -101.5 -16.5t-87.5 -35.5q-39 -20 -67 -22q-14 20 -22.5 42.5t-8.5 47.5q0 20 6 33q35 33 125 66.5t209 33.5q170 0 221 -133 q47 72 115.5 102.5t154.5 30.5q76 0 132.5 -25.5t93.5 -70.5t55 -106.5t20 -133.5q0 -45 -3 -90t-11 -80q-16 -12 -58 -26.5t-83 -18.5q-25 -2 -53.5 -3t-59.5 -1q-63 0 -129.5 3t-120.5 7q0 -90 17.5 -150.5t49.5 -97t77 -53t102 -16.5q72 0 130 15.5t95 33.5 q4 -14 7.5 -38.5t5.5 -43.5q-2 -29 -31 -55.5t-57 -36.5q-29 -10 -79 -18.5t-110 -8.5q-82 0 -155.5 29t-118.5 88q-53 -49 -136 -83t-204 -34q-98 4 -164 70t-66 213zM240 268q0 -152 118 -151q106 0 174 80q-6 59 -10 132.5t-4 139.5q-10 2 -23 2h-26h-19q-9 0 -20 -2 q-78 -10 -134 -54.5t-56 -146.5zM700 569q55 -4 117 -8t115 -4q27 0 47 1t37 3q18 16 22 53q0 119 -31.5 178.5t-113.5 59.5h-2q-35 0 -65.5 -14.5t-57.5 -48t-44.5 -88t-23.5 -132.5z" />
<glyph unicode="&#xe7;" horiz-adv-x="763" d="M66 463q0 164 45 266t104 158q59 57 133 78.5t148 21.5q45 0 83.5 -9t67.5 -21.5t46.5 -27t21.5 -24.5q0 -20 -7.5 -49t-19.5 -51h-10q-10 0 -24.5 4t-30.5 8q-59 27 -123 27q-18 0 -29 -2q-96 -8 -158.5 -96.5t-62.5 -272.5q0 -111 22.5 -180.5t59.5 -108.5t84 -53 t96 -14q51 0 97 11t79 28q4 -16 8 -31.5t4 -26.5q-2 -23 -14 -45t-31 -37q-29 -20 -77 -32.5t-103 -12.5q-84 0 -157.5 19.5t-130 73t-89 149.5t-32.5 250zM297 -371q0 20 27 27q86 29 122.5 53.5t36.5 65.5q0 20 -16 35.5t-42 24.5t-56.5 13.5t-59.5 4.5q4 18 9.5 44.5 t15.5 43.5q31 2 64.5 1t64.5 -10q66 -16 109.5 -57t43.5 -100q0 -53 -27.5 -90t-69.5 -61.5t-89 -38t-86 -19.5q-23 4 -35 26.5t-12 36.5z" />
<glyph unicode="&#xe8;" horiz-adv-x="811" d="M66 444q0 -260 108 -372q59 -59 133 -79t146 -20q47 0 90 7.5t65 13.5q43 10 80 38.5t39 59.5q-2 18 -5 43t-7 39q-49 -27 -105.5 -38t-122.5 -11q-53 0 -97 14.5t-75.5 49t-50 92t-18.5 141.5q25 -2 46 -2h46q72 0 145.5 3t120.5 9q41 6 84 20.5t60 26.5q6 25 9 56.5 t3 64.5q0 27 -1 51.5t-3 46.5q-14 133 -86 211t-211 78q-84 0 -157 -29.5t-125 -94t-81.5 -168.5t-29.5 -251zM250 549q8 150 58 221.5t112 81.5q6 2 18 2q70 0 105 -44t43 -130q0 -10 1 -21.5t1 -23.5q0 -41 -10 -68q-10 -6 -21.5 -8t-26.5 -4q-29 -4 -86 -5t-116 -1h-78z M252 1397q0 14 10 31.5t25.5 32t34 23.5t34.5 9q10 0 37 -27.5t59.5 -68.5t66.5 -87t59 -81q2 -6 2 -17q0 -25 -20.5 -48t-43.5 -27q-23 20 -52.5 48.5t-62 61.5t-66.5 64.5t-61 60.5q-18 19 -22 25z" />
<glyph unicode="&#xe9;" horiz-adv-x="811" d="M66 444q0 147 29.5 251t81.5 168.5t125 94t157 29.5q139 0 210.5 -78t86.5 -211q2 -23 3 -47t1 -51q0 -33 -3 -64.5t-9 -56.5q-16 -12 -59.5 -26.5t-84.5 -20.5q-47 -6 -120.5 -9t-145.5 -3h-46q-22 0 -46 2q0 -84 18.5 -141.5t50 -92t75.5 -49t97 -14.5q66 0 122.5 11 t105.5 38q4 -14 7 -38.5t5 -43.5q-2 -31 -39 -59.5t-80 -38.5q-23 -6 -65.5 -13.5t-89.5 -7.5q-72 0 -146 19.5t-133 79.5q-108 112 -108 372zM250 549h78q59 0 116.5 1t85.5 5q14 2 25.5 4t22.5 8q10 27 10 68q0 12 -1 23.5t-1 21.5q-8 86 -43 130t-105 44q-12 0 -18 -2 q-61 -10 -111.5 -81.5t-58.5 -221.5zM315 1212q0 10 2 17q25 35 59 81t66.5 87t59 68.5t37.5 27.5q16 0 34.5 -9t34 -23.5t25.5 -32t10 -31.5q-4 -6 -22 -25q-29 -29 -62 -60.5t-65.5 -64.5t-63.5 -61.5t-51 -48.5q-23 4 -43.5 27t-20.5 48z" />
<glyph unicode="&#xea;" horiz-adv-x="811" d="M66 444q0 147 29.5 251t81.5 168.5t125 94t157 29.5q139 0 210.5 -78t86.5 -211q2 -23 3 -47t1 -51q0 -33 -3 -64.5t-9 -56.5q-16 -12 -59.5 -26.5t-84.5 -20.5q-47 -6 -120.5 -9t-145.5 -3h-46q-22 0 -46 2q0 -84 18.5 -141.5t50 -92t75.5 -49t97 -14.5q66 0 122.5 11 t105.5 38q4 -14 7 -38.5t5 -43.5q-2 -31 -39 -59.5t-80 -38.5q-23 -6 -65.5 -13.5t-89.5 -7.5q-72 0 -146 19.5t-133 79.5q-108 112 -108 372zM199 1198q23 49 69.5 115.5t91.5 130.5q23 27 41 37q27 12 50 12q18 -20 48.5 -55t62.5 -75t61.5 -80t48.5 -69q-14 -23 -39 -46 t-47 -23q-18 0 -39 24q-16 18 -34.5 42t-35 46.5t-31 43t-22.5 34.5q-27 -45 -52.5 -81.5t-54.5 -73.5q-10 -14 -22 -23.5t-16 -9.5q-25 10 -47.5 22.5t-32.5 28.5zM250 549h78q59 0 116.5 1t85.5 5q14 2 25.5 4t22.5 8q10 27 10 68q0 12 -1 23.5t-1 21.5q-8 86 -43 130 t-105 44q-12 0 -18 -2q-61 -10 -111.5 -81.5t-58.5 -221.5z" />
<glyph unicode="&#xeb;" horiz-adv-x="811" d="M66 444q0 147 29.5 251t81.5 168.5t125 94t157 29.5q139 0 210.5 -78t86.5 -211q2 -23 3 -47t1 -51q0 -33 -3 -64.5t-9 -56.5q-16 -12 -59.5 -26.5t-84.5 -20.5q-47 -6 -120.5 -9t-145.5 -3h-46q-22 0 -46 2q0 -84 18.5 -141.5t50 -92t75.5 -49t97 -14.5q66 0 122.5 11 t105.5 38q4 -14 7 -38.5t5 -43.5q-2 -31 -39 -59.5t-80 -38.5q-23 -6 -65.5 -13.5t-89.5 -7.5q-72 0 -146 19.5t-133 79.5q-108 112 -108 372zM176 1270q0 106 103 106q57 0 73.5 -25.5t14.5 -76.5t-21.5 -83t-79.5 -32q-49 0 -69.5 27t-20.5 84zM250 549h78q59 0 116.5 1 t85.5 5q14 2 25.5 4t22.5 8q10 27 10 68q0 12 -1 23.5t-1 21.5q-8 86 -43 130t-105 44q-12 0 -18 -2q-61 -10 -111.5 -81.5t-58.5 -221.5zM498 1270q0 106 102 106q57 0 73.5 -25.5t14.5 -76.5t-21.5 -83t-78.5 -32q-49 0 -69.5 27t-20.5 84z" />
<glyph unicode="&#xec;" horiz-adv-x="413" d="M-31 1397q0 14 10.5 31.5t25.5 32t33.5 23.5t35.5 9q10 0 36.5 -27.5t59.5 -68.5t66.5 -87t58.5 -81q2 -6 2 -17q0 -25 -20.5 -48t-43.5 -27q-23 20 -52 48.5t-62 61.5t-67 64.5t-60 60.5q-19 19 -23 25zM113 918q2 -41 3 -90.5t1 -120.5v-363q0 -94 -1 -183t-1 -167 q86 2 116.5 4t40.5 18q25 39 25 109v696q0 66 -3 94.5t-13 51.5q-63 0 -107.5 -8t-60.5 -41z" />
<glyph unicode="&#xed;" horiz-adv-x="413" d="M94 1212q0 10 2 17q25 35 58.5 81t66.5 87t59.5 68.5t36.5 27.5q16 0 35 -9t34 -23.5t25.5 -32t10.5 -31.5q-4 -6 -23 -25q-29 -29 -61.5 -60.5t-65 -64.5t-63.5 -61.5t-51 -48.5q-23 4 -43.5 27t-20.5 48zM113 918q16 33 60 41t108 8q10 -23 13 -51.5t3 -94.5v-696 q0 -70 -25 -109q-10 -16 -40.5 -18t-116.5 -4q0 78 1 167t1 183v363q0 72 -1 121t-3 90z" />
<glyph unicode="&#xee;" horiz-adv-x="413" d="M-23 1198q23 49 70 115.5t92 130.5q23 27 41 37q27 12 49 12q18 -20 49 -55t63 -75t61.5 -80t48.5 -69q-14 -23 -39 -46t-47 -23q-18 0 -39 24q-16 18 -35 42t-35 46.5t-30.5 43t-22.5 34.5q-27 -45 -52.5 -81.5t-54.5 -73.5q-10 -14 -22.5 -23.5t-16.5 -9.5 q-25 10 -47.5 22.5t-32.5 28.5zM113 918q16 33 60 41t108 8q10 -23 13 -51.5t3 -94.5v-696q0 -70 -25 -109q-10 -16 -40.5 -18t-116.5 -4q0 78 1 167t1 183v363q0 72 -1 121t-3 90z" />
<glyph unicode="&#xef;" horiz-adv-x="413" d="M-45 1270q0 106 102 106q57 0 73.5 -25.5t14.5 -76.5t-21.5 -83t-78.5 -32q-49 0 -69.5 27t-20.5 84zM113 918q16 33 60 41t108 8q10 -23 13 -51.5t3 -94.5v-696q0 -70 -25 -109q-10 -16 -40.5 -18t-116.5 -4q0 78 1 167t1 183v363q0 72 -1 121t-3 90zM276 1270 q0 106 103 106q57 0 73.5 -25.5t14.5 -76.5t-21.5 -83t-78.5 -32q-49 0 -70 27t-21 84z" />
<glyph unicode="&#xf0;" horiz-adv-x="921" d="M66 446q0 113 36.5 204t102.5 161q43 43 86 69.5t82 41t72.5 18.5t58.5 4q74 0 139 -24q-41 100 -88 159q-29 -16 -57.5 -31.5t-55.5 -31.5q-57 -33 -118 -66q-16 -10 -25.5 -8t-15.5 6t-11.5 16.5t-5.5 36.5q0 35 9.5 53.5t19.5 35.5q37 20 70 38q29 16 53 31t35 19 q-57 43 -126 71.5t-143 38.5l-16 45l37 51q20 27 51 27t74 -13.5t89 -35t90 -50t79 -59.5q23 12 44 25.5t44 28.5q23 14 44 29.5t44 25.5q33 12 43 2q14 -8 14 -43q0 -43 -7 -66.5t-36 -42.5l-45 -28q-16 -10 -33.5 -20.5t-21.5 -14.5q86 -111 141 -274.5t55 -350.5 q0 -125 -31.5 -227t-84.5 -176q-53 -72 -127 -110t-160 -38q-184 0 -295 140q-49 63 -79.5 149t-30.5 184zM256 459q0 -100 24.5 -166t60.5 -104.5t78 -54t77 -15.5q104 0 147 108.5t43 300.5q0 119 -22 213q-33 37 -74 51.5t-84 14.5q-59 0 -100 -22.5t-78 -69.5 q-35 -45 -53.5 -111.5t-18.5 -144.5z" />
<glyph unicode="&#xf1;" horiz-adv-x="925" d="M96 895q12 16 82 47q6 2 15 2q29 0 43 -17.5t20 -43.5q37 31 71.5 50t69.5 30q33 10 62.5 16t64.5 6q92 0 148.5 -23.5t88.5 -69.5t43 -113.5t11 -153.5v-314q0 -86 1 -158.5t3 -134.5q-8 -6 -18 -11t-28.5 -8t-48.5 -4t-73 -1q-16 31 -16 84v543q0 119 -35 167t-127 48 q-55 0 -99 -26t-77 -60v-639q0 -33 -4 -54.5t-19 -42.5q-10 -8 -20 -12t-26.5 -5t-43 -2t-67.5 -1q2 84 3 182t1 217v348q0 49 -7.5 86t-17.5 68zM182 1217q31 92 78 142t123 50q43 0 69.5 -24.5t55.5 -53.5q14 -14 26.5 -23.5t26.5 -9.5q33 0 50.5 21.5t27.5 58.5 q8 20 25 21q10 0 21 -8.5t21.5 -18.5t17.5 -20.5t9 -14.5q-4 -31 -19.5 -63.5t-39 -59t-56 -44t-71.5 -17.5q-51 0 -76 27.5t-53 56.5q-16 16 -26.5 22.5t-26.5 6.5q-47 -10 -76 -78q-12 -23 -23 -23q-12 0 -26.5 7.5t-26.5 16.5t-20 17z" />
<glyph unicode="&#xf2;" horiz-adv-x="919" d="M61 475q0 -266 102.5 -385t293.5 -119q86 0 157.5 33t125 97.5t83 160.5t29.5 225q0 500 -389 500q-88 0 -162 -30.5t-127 -93t-83 -160t-30 -228.5zM240 1397q0 14 10 31.5t25.5 32t34 23.5t34.5 9q10 0 37 -27.5t59.5 -68.5t66.5 -87t58 -81q2 -6 2 -17 q0 -25 -20.5 -48t-42.5 -27q-23 20 -52.5 48.5t-62.5 61.5t-66.5 64.5t-60.5 60.5q-18 19 -22 25zM252 483q0 100 16.5 170t45 114t65.5 63.5t78 19.5h4q92 0 147.5 -84t55.5 -285q0 -106 -16.5 -178t-44.5 -116t-64.5 -63.5t-77.5 -19.5q-45 0 -84 19.5t-66.5 63.5t-43 117 t-15.5 179z" />
<glyph unicode="&#xf3;" horiz-adv-x="919" d="M61 475q0 131 30 228.5t83 160t127 93t162 30.5q389 0 389 -500q0 -129 -29.5 -225t-83 -160.5t-125 -97.5t-157.5 -33q-190 0 -293 119t-103 385zM252 483q0 -106 15.5 -179t43 -117t66.5 -63.5t84 -19.5q41 0 77.5 19.5t64.5 63.5t44.5 116t16.5 178q0 201 -55.5 285 t-147.5 84h-4q-41 0 -78 -19.5t-65.5 -63.5t-45 -114t-16.5 -170zM346 1212q0 10 2 17q25 35 58.5 81t66.5 87t59.5 68.5t36.5 27.5q16 0 35 -9t34 -23.5t25.5 -32t10.5 -31.5q-4 -6 -23 -25q-29 -29 -61.5 -60.5t-65 -64.5t-63.5 -61.5t-51 -48.5q-23 4 -43.5 27t-20.5 48z " />
<glyph unicode="&#xf4;" horiz-adv-x="919" d="M61 475q0 131 30 228.5t83 160t127 93t162 30.5q389 0 389 -500q0 -129 -29.5 -225t-83 -160.5t-125 -97.5t-157.5 -33q-190 0 -293 119t-103 385zM236 1198q23 49 69.5 115.5t91.5 130.5q23 27 41 37q27 12 49 12q18 -20 49 -55t63 -75t61.5 -80t48.5 -69 q-14 -23 -39 -46t-47 -23q-18 0 -39 24q-16 18 -35 42t-35 46.5t-30.5 43t-22.5 34.5q-27 -45 -52.5 -81.5t-54.5 -73.5q-10 -14 -22.5 -23.5t-16.5 -9.5q-25 10 -47 22.5t-32 28.5zM252 483q0 -106 15.5 -179t43 -117t66.5 -63.5t84 -19.5q41 0 77.5 19.5t64.5 63.5 t44.5 116t16.5 178q0 201 -55.5 285t-147.5 84h-4q-41 0 -78 -19.5t-65.5 -63.5t-45 -114t-16.5 -170z" />
<glyph unicode="&#xf5;" horiz-adv-x="919" d="M61 475q0 131 30 228.5t83 160t127 93t162 30.5q389 0 389 -500q0 -129 -29.5 -225t-83 -160.5t-125 -97.5t-157.5 -33q-190 0 -293 119t-103 385zM178 1217q31 92 78 142t123 50q43 0 69.5 -24.5t55.5 -53.5q14 -14 26.5 -23.5t26.5 -9.5q33 0 50.5 21.5t27.5 58.5 q8 20 24 21q10 0 21.5 -8.5t22 -18.5t17.5 -20.5t9 -14.5q-4 -31 -19.5 -63.5t-39 -59t-56 -44t-71.5 -17.5q-51 0 -76 27.5t-53 56.5q-16 16 -26.5 22.5t-27.5 6.5q-47 -10 -75 -78q-12 -23 -23 -23q-12 0 -26.5 7.5t-26.5 16.5t-21 17zM252 483q0 -106 15.5 -179t43 -117 t66.5 -63.5t84 -19.5q41 0 77.5 19.5t64.5 63.5t44.5 116t16.5 178q0 201 -55.5 285t-147.5 84h-4q-41 0 -78 -19.5t-65.5 -63.5t-45 -114t-16.5 -170z" />
<glyph unicode="&#xf6;" horiz-adv-x="919" d="M61 475q0 131 30 228.5t83 160t127 93t162 30.5q389 0 389 -500q0 -129 -29.5 -225t-83 -160.5t-125 -97.5t-157.5 -33q-190 0 -293 119t-103 385zM199 1270q0 106 102 106q57 0 73.5 -25.5t14.5 -76.5t-21.5 -83t-78.5 -32q-49 0 -69.5 27t-20.5 84zM252 483 q0 -106 15.5 -179t43 -117t66.5 -63.5t84 -19.5q41 0 77.5 19.5t64.5 63.5t44.5 116t16.5 178q0 201 -55.5 285t-147.5 84h-4q-41 0 -78 -19.5t-65.5 -63.5t-45 -114t-16.5 -170zM520 1270q0 106 103 106q57 0 73.5 -25.5t14.5 -76.5t-21.5 -83t-79.5 -32q-49 0 -69.5 27 t-20.5 84z" />
<glyph unicode="&#xf7;" horiz-adv-x="1021" d="M98 473q2 72 11.5 105.5t37.5 33.5h777q0 -72 -9.5 -105.5t-42.5 -33.5h-774zM408 227q0 106 106 107q61 0 78.5 -25.5t15.5 -77.5q-2 -49 -21.5 -80.5t-84.5 -31.5q-53 0 -73.5 26.5t-20.5 81.5zM408 856q0 106 106 107q61 0 78.5 -26t15.5 -77q-2 -49 -21.5 -80.5 t-84.5 -31.5q-53 0 -73.5 26.5t-20.5 81.5z" />
<glyph unicode="&#xf8;" horiz-adv-x="950" d="M76 -10q6 14 32.5 57t59.5 92q-43 59 -64.5 144.5t-21.5 191.5q0 256 127 389q109 121 274 121q143 0 228 -72q14 18 27.5 39t25.5 38.5t22.5 27.5t14.5 10q27 -4 48 -23.5t25 -48.5q-10 -20 -35.5 -65t-52.5 -86q43 -59 64.5 -141t21.5 -181q0 -135 -34.5 -228 t-81.5 -153q-47 -66 -118 -99.5t-157 -33.5q-78 0 -137 16.5t-104 55.5q-12 -16 -27 -38l-27 -40q-12 -18 -22 -29.5t-17 -11.5q-23 4 -45 22.5t-26 45.5zM266 477q0 -109 33 -174q78 119 154.5 240t154.5 241q-25 37 -57.5 51.5t-73.5 14.5q-88 0 -149.5 -87t-61.5 -286z M342 180q27 -47 61.5 -62.5t77.5 -15.5q41 0 79 19.5t66.5 63.5t45 116t16.5 176q0 113 -33 191q-37 -59 -77.5 -124t-81.5 -128.5t-81 -124t-73 -111.5z" />
<glyph unicode="&#xf9;" horiz-adv-x="931" d="M115 324q2 -82 13 -144.5t43 -106.5t87 -68.5t145 -29.5q35 0 65 6.5t62 16.5q35 10 70 29.5t72 50.5q6 -27 20.5 -44.5t42.5 -17.5q8 0 15 2q70 31 81 48q-10 31 -17 67.5t-7 85.5v348q0 119 1 217.5t3 182.5q-41 0 -67.5 -1t-44 -2t-27.5 -5.5t-19 -12.5 q-14 -20 -18 -41.5t-4 -54.5v-651q-27 -33 -77 -54.5t-103 -17.5q-37 0 -66 9t-49.5 34t-30.5 68t-10 112l20 416q0 78 -3 122t-13 79q-78 0 -115 -6.5t-53 -22.5q2 -57 3 -121.5t1 -152.5zM301 1397q0 14 10.5 31.5t25.5 32t33.5 23.5t35.5 9q10 0 36.5 -27.5t59.5 -68.5 t66.5 -87t58.5 -81q2 -6 2 -17q0 -25 -20.5 -48t-43.5 -27q-23 20 -52.5 48.5t-62 61.5t-66.5 64.5t-60 60.5q-19 19 -23 25z" />
<glyph unicode="&#xfa;" horiz-adv-x="931" d="M115 324l20 340q0 88 -1 152.5t-3 121.5q16 16 53 22.5t115 6.5q10 -35 13 -79t3 -122l-20 -416q0 -70 10 -112.5t30.5 -67.5t49.5 -34t66 -9q53 -4 103 17.5t77 54.5v651q0 33 4 54.5t18 41.5q8 8 18.5 12.5t28 5.5t44 2t67.5 1q-2 -84 -3 -182.5t-1 -217.5v-348 q0 -49 7 -86t17 -67q-12 -16 -81 -48q-6 -2 -15 -2q-29 0 -43 17.5t-20 44.5q-37 -31 -72 -50.5t-70 -29.5q-33 -10 -62.5 -16.5t-64.5 -6.5q-90 4 -145 29t-87 69t-43 106.5t-13 144.5zM342 1212q0 10 2 17q25 35 58.5 81t66.5 87t59.5 68.5t36.5 27.5q16 0 34.5 -9 t34 -23.5t26 -32t10.5 -31.5q-4 -6 -23 -25q-29 -29 -61.5 -60.5t-65.5 -64.5t-63.5 -61.5t-50.5 -48.5q-23 4 -43.5 27t-20.5 48z" />
<glyph unicode="&#xfb;" horiz-adv-x="931" d="M115 324l20 340q0 88 -1 152.5t-3 121.5q16 16 53 22.5t115 6.5q10 -35 13 -79t3 -122l-20 -416q0 -70 10 -112.5t30.5 -67.5t49.5 -34t66 -9q53 -4 103 17.5t77 54.5v651q0 33 4 54.5t18 41.5q8 8 18.5 12.5t28 5.5t44 2t67.5 1q-2 -84 -3 -182.5t-1 -217.5v-348 q0 -49 7 -86t17 -67q-12 -16 -81 -48q-6 -2 -15 -2q-29 0 -43 17.5t-20 44.5q-37 -31 -72 -50.5t-70 -29.5q-33 -10 -62.5 -16.5t-64.5 -6.5q-90 4 -145 29t-87 69t-43 106.5t-13 144.5zM231 1198q23 49 70 115.5t92 130.5q23 27 41 37q27 12 49 12q18 -20 49 -55t63 -75 t61.5 -80t48.5 -69q-14 -23 -39 -46t-48 -23q-18 0 -38 24q-16 18 -35 42t-35 46.5t-30.5 43t-22.5 34.5q-27 -45 -52.5 -81.5t-54.5 -73.5q-10 -14 -22.5 -23.5t-16.5 -9.5q-25 10 -47.5 22.5t-32.5 28.5z" />
<glyph unicode="&#xfc;" horiz-adv-x="931" d="M115 324l20 340q0 88 -1 152.5t-3 121.5q16 16 53 22.5t115 6.5q10 -35 13 -79t3 -122l-20 -416q0 -70 10 -112.5t30.5 -67.5t49.5 -34t66 -9q53 -4 103 17.5t77 54.5v651q0 33 4 54.5t18 41.5q8 8 18.5 12.5t28 5.5t44 2t67.5 1q-2 -84 -3 -182.5t-1 -217.5v-348 q0 -49 7 -86t17 -67q-12 -16 -81 -48q-6 -2 -15 -2q-29 0 -43 17.5t-20 44.5q-37 -31 -72 -50.5t-70 -29.5q-33 -10 -62.5 -16.5t-64.5 -6.5q-90 4 -145 29t-87 69t-43 106.5t-13 144.5zM205 1270q0 106 102 106q57 0 73.5 -25.5t14.5 -76.5t-21.5 -83t-78.5 -32 q-49 0 -69.5 27t-20.5 84zM526 1270q0 106 103 106q57 0 73.5 -25.5t14.5 -76.5t-21.5 -83t-79.5 -32q-49 0 -69.5 27t-20.5 84z" />
<glyph unicode="&#xfd;" horiz-adv-x="800" d="M20 -340q0 16 7 35q2 10 6 20q16 6 34.5 5t39 -1t42 2.5t46.5 12.5q20 10 41.5 44t42 79t37 96t26.5 96q-4 4 -6 5t-4 5q-14 20 -22.5 41t-18.5 54q-4 14 -18.5 61t-35 113.5t-45 145.5t-51 160t-52.5 156.5t-46 135.5q10 27 44 37t114 10q10 0 22.5 -29t18.5 -53 q8 -25 21 -70t29.5 -100t34 -114.5t31.5 -112.5q12 -47 23.5 -91.5t20 -82t14.5 -64.5t10 -35q4 12 11 40l16.5 66t20.5 84t22 93q27 117 54.5 232.5t49.5 211.5q12 10 24.5 14.5t37.5 4.5q16 0 37.5 -1t52.5 -3q10 -20 10 -43q0 -20 -10 -56q-20 -86 -49 -192.5t-64 -224 t-75 -240.5t-81 -238q-43 -109 -83 -181.5t-78.5 -115.5t-75.5 -61.5t-70 -18.5q-72 0 -110 20.5t-46 47.5zM326 1165q0 6 4 19q25 35 57.5 81t65 87t60.5 68.5t38 27.5q27 0 50.5 -19.5t39.5 -42.5q12 -16 12 -34q-2 -8 -22 -25q-29 -29 -61.5 -60.5t-65.5 -64.5 t-63.5 -61.5t-51.5 -48.5q-16 4 -28.5 15t-22.5 26q-12 14 -12 32z" />
<glyph unicode="&#xff;" horiz-adv-x="800" d="M20 -340q0 16 7 35q2 10 6 20q16 6 34.5 5t39 -1t42 2.5t46.5 12.5q20 10 41.5 44t42 79t37 96t26.5 96q-4 4 -6 5t-4 5q-14 20 -22.5 41t-18.5 54q-4 14 -18.5 61t-35 113.5t-45 145.5t-51 160t-52.5 156.5t-46 135.5q10 27 44 37t114 10q10 0 22.5 -29t18.5 -53 q8 -25 21 -70t29.5 -100t34 -114.5t31.5 -112.5q12 -47 23.5 -93.5t21 -83t15.5 -63.5t8 -33q4 10 11 39t16.5 67t20.5 84t22 93q27 117 54.5 232.5t49.5 211.5q12 10 24.5 14.5t37.5 4.5q16 0 37.5 -1t52.5 -3q10 -20 10 -43q0 -20 -10 -56q-20 -86 -49 -192.5t-64 -224 t-75 -240.5t-81 -238q-43 -109 -83 -181.5t-78.5 -115.5t-75.5 -61.5t-70 -18.5q-72 0 -110 20.5t-46 47.5zM164 1270q0 106 102 106q57 0 73.5 -25.5t14.5 -76.5t-21.5 -83t-78.5 -32q-49 0 -69.5 27t-20.5 84zM485 1270q0 106 103 106q57 0 73.5 -25.5t14.5 -76.5 t-21.5 -83t-79.5 -32q-49 0 -69.5 27t-20.5 84z" />
<glyph unicode="&#x131;" horiz-adv-x="413" d="M113 918q16 33 60 41t108 8q10 -23 13 -51.5t3 -94.5v-696q0 -70 -25 -109q-10 -16 -40.5 -18t-116.5 -4q0 78 1 167t1 183v363q0 72 -1 121t-3 90z" />
<glyph unicode="&#x141;" horiz-adv-x="772" d="M-6 603q-8 34 16 48l111 64v395q0 72 -1 126t-3 91q16 20 51 26.5t119 6.5q10 -23 13 -55.5t3 -92.5v-393l148 86q35 -59 45 -94t-19 -51l-174 -101v-509q39 -4 91 -6.5t106 -2.5q57 0 121.5 1t117.5 5q2 -16 2 -31v-32q-4 -27 -19 -52.5t-46 -33.5q-31 -2 -79 -3 t-124 -1q-104 0 -190 3t-146 7l-8 53l-8 54v442l-84 -47q-35 63 -43 97z" />
<glyph unicode="&#x142;" horiz-adv-x="460" d="M-6 603q-8 34 16 48l107 62v450q0 76 -1 130.5t-3 101.5q16 35 59 44t107 9q10 -31 12 -72t2 -119v-444l158 92q35 -59 45 -94t-19 -51l-184 -107v-379q0 -68 1 -135t3 -121q-14 -16 -54 -20t-112 -4q-14 55 -14 131v426l-80 -45q-35 63 -43 97z" />
<glyph unicode="&#x150;" horiz-adv-x="1171" d="M68 674q0 354 135 533t391 179q131 0 228.5 -47t161 -136t94 -219t30.5 -294q0 -342 -130 -531.5t-396 -189.5q-139 0 -236.5 49.5t-159 140.5t-90 221t-28.5 294zM266 664q0 -274 91.5 -408.5t234.5 -134.5q150 0 235.5 136t85.5 427q0 145 -24.5 249.5t-68.5 171 t-103.5 98.5t-128.5 32h-2q-143 0 -231.5 -137t-88.5 -434zM358 1495q12 27 30 65.5t36 79.5t35.5 78t29.5 62q23 10 61 19t68 9q20 0 27 -6q14 -4 9 -24.5t-21 -48.5l-8 -17q-47 -86 -93.5 -145.5t-74.5 -87.5q-6 -4 -19.5 -3t-29 4t-30 7t-20.5 8zM639 1495 q12 27 29.5 65.5t35 79.5t35 78t29.5 62q23 10 60.5 19t68.5 9q20 0 27 -6q14 -4 9 -24.5t-20 -48.5l-10 -17q-47 -86 -93 -145.5t-75 -87.5q-6 -4 -19.5 -3t-28.5 4t-28.5 7t-19.5 8z" />
<glyph unicode="&#x151;" horiz-adv-x="919" d="M61 475q0 131 30 228.5t83 160t127 93t162 30.5q389 0 389 -500q0 -129 -29.5 -225t-83 -160.5t-125 -97.5t-157.5 -33q-190 0 -293 119t-103 385zM223 1169q12 27 29.5 66t36 80t36 78t29.5 61q23 10 61 19.5t68 9.5q20 0 27 -6q14 -4 9 -24.5t-21 -49.5l-9 -17 q-47 -86 -93 -145t-74 -88q-6 -4 -19.5 -3t-29 4t-30 7t-20.5 8zM252 483q0 -106 15.5 -179t43 -117t66.5 -63.5t84 -19.5q41 0 77.5 19.5t64.5 63.5t44.5 116t16.5 178q0 201 -55.5 285t-147.5 84h-4q-41 0 -78 -19.5t-65.5 -63.5t-45 -114t-16.5 -170zM504 1169 q12 27 29.5 66t35 80t35 78t29.5 61q23 10 60.5 19.5t68.5 9.5q20 0 26 -6q14 -4 9.5 -24.5t-19.5 -49.5l-10 -17q-47 -86 -93 -145t-75 -88q-6 -4 -19.5 -3t-28.5 4t-28.5 7t-19.5 8z" />
<glyph unicode="&#x152;" horiz-adv-x="1581" d="M66 670q0 223 54 371.5t156 234.5q66 53 142 78.5t172 25.5q113 0 200 -36.5t144 -112.5v96q12 4 37.5 15.5t60.5 13.5h484q-4 -72 -13.5 -99.5t-32.5 -37.5q-23 -6 -54.5 -7.5t-80.5 -1.5h-239v-417h383q-4 -49 -11.5 -78t-16.5 -44.5t-22.5 -20.5t-31.5 -5h-301v-498 q31 -4 77 -6t93 -2h139q74 0 133 4l2 -2q-4 -78 -19.5 -106.5t-45.5 -36.5q-25 -2 -66 -3t-113 -1q-111 0 -198.5 3t-149.5 7q-4 10 -7 20.5t-7 20.5v96q-59 -86 -152.5 -126t-208.5 -40q-139 0 -235 47.5t-156.5 136.5t-88 218t-27.5 293zM262 659q0 -143 24.5 -245.5 t68.5 -167t103.5 -95t129.5 -30.5t129 30.5t102 98t67.5 175t24.5 259.5q0 158 -24.5 263.5t-68.5 170t-102.5 91t-125.5 26.5q-68 0 -128.5 -33t-104.5 -103.5t-69.5 -179t-25.5 -257.5v-3z" />
<glyph unicode="&#x153;" horiz-adv-x="1417" d="M57 475q0 274 142 410q51 47 117.5 73.5t142.5 26.5h2q100 0 177 -39t124 -119q49 82 126 120t171 38q76 0 132 -25.5t93 -70.5t55.5 -106.5t20.5 -133.5q0 -45 -3 -89t-11 -79q-16 -14 -58.5 -28.5t-83.5 -18.5q-25 -2 -53 -2h-59q-63 0 -130 2t-120 6 q0 -90 17.5 -150.5t49 -97t76.5 -52t102 -15.5q72 0 130.5 14.5t95.5 34.5q4 -16 7 -39.5t5 -44.5q-2 -29 -30.5 -55.5t-57.5 -36.5q-29 -8 -79 -16.5t-109 -8.5q-90 0 -170 40t-136 112q-47 -76 -123.5 -116t-170.5 -40t-167 28t-123 89t-76 157.5t-26 231.5zM248 481 q0 -109 16.5 -180.5t44 -116.5t65.5 -63.5t81 -18.5q39 0 76.5 19.5t66.5 63.5t46.5 117t17.5 181q0 100 -15.5 170t-42 113t-65.5 62.5t-84 19.5q-43 0 -80 -19.5t-65.5 -63.5t-45 -114t-16.5 -170zM846 569q55 -6 116.5 -10t114.5 -4t84 6q18 12 23 51q0 119 -32 178.5 t-114 59.5h-2q-35 0 -65.5 -14.5t-57 -48t-44 -87t-23.5 -131.5z" />
<glyph unicode="&#x160;" horiz-adv-x="798" d="M57 86q0 27 11.5 60.5t27.5 58.5q43 -37 107.5 -59.5t138.5 -22.5q92 0 149.5 53t57.5 152q0 66 -28.5 119t-102.5 122q-23 27 -49.5 52.5t-55.5 54.5q-45 43 -84 81t-67 74q-51 66 -70.5 122.5t-19.5 113.5q0 59 20.5 116.5t64.5 102.5t113.5 72.5t167.5 27.5 q123 0 188.5 -29.5t80.5 -51.5q0 -49 -31 -99q-10 -6 -23 -6q-12 0 -37 10q-29 14 -70.5 24.5t-88.5 10.5q-90 0 -142.5 -42t-52.5 -124v-28q6 -37 25.5 -71t50.5 -69q35 -39 74 -76.5t84 -78.5q35 -33 65.5 -61.5t59.5 -59.5q63 -66 91.5 -133.5t28.5 -159.5 q0 -168 -100 -270.5t-293 -102.5q-102 0 -169.5 22.5t-96.5 49.5q-25 22 -25 45zM156 1718q10 27 33.5 53.5t46.5 26.5t45 -18q33 -27 73.5 -70t63.5 -63q39 47 75.5 81.5t63.5 55.5q6 6 16 10q2 0 4.5 1t4.5 1h2q29 -8 50 -26.5t28 -34.5q-14 -16 -39 -44t-54.5 -58.5 t-58.5 -60.5t-53 -54q-8 -12 -28.5 -17.5t-31.5 -5.5q-20 14 -53 43t-67.5 62.5t-67.5 65.5t-53 52z" />
<glyph unicode="&#x161;" horiz-adv-x="708" d="M57 61q0 25 8.5 53.5t24.5 49.5h8q23 0 56 -17q33 -14 72.5 -23t82.5 -9q10 0 19.5 1t19.5 3q55 6 87 38.5t32 84.5q0 35 -19.5 66.5t-68.5 66.5q-41 29 -86 62.5t-80 62.5l-49 43q-90 88 -90 192q0 119 86 185.5t225 66.5q16 0 31.5 -1t27.5 -3q92 -6 134.5 -34.5 t48.5 -47.5q0 -20 -9.5 -48t-21.5 -44q-23 4 -45.5 7t-48.5 13q-47 18 -101 19q-63 0 -101 -30t-38 -77q0 -27 14.5 -51t51.5 -53q39 -31 99 -73t108 -81q66 -53 93 -105t27 -118q0 -72 -26.5 -125t-73.5 -89t-109.5 -54.5t-132.5 -18.5q-96 0 -168 24.5t-88 63.5zM119 1382 q12 23 36.5 46.5t47.5 23.5q18 0 41 -25q33 -39 68.5 -88t52.5 -77q27 45 53 81l53 74q14 14 24.5 23.5t14.5 9.5q25 -10 47.5 -22.5t32.5 -28.5q-23 -49 -70 -115.5t-92 -130.5q-20 -27 -41 -37q-14 -4 -26.5 -8t-22.5 -4q-18 20 -48 55t-62.5 75t-61.5 79.5t-47 68.5z" />
<glyph unicode="&#x170;" horiz-adv-x="1130" d="M113 1333q12 16 51 21.5t117 5.5q14 -25 17 -58.5t3 -95.5v-567q0 -66 3 -121t11 -106q23 -135 80.5 -215t177.5 -80q100 0 148.5 14t73.5 31q23 104 32 231t9 256l2 561q0 41 5 71t15 56q12 8 22.5 12.5t27 6.5t41 3t65.5 1q-2 -80 -3 -175t-1 -210v-326 q0 -166 -13.5 -301t-42.5 -252q-59 -72 -165.5 -99.5t-227.5 -27.5q-117 0 -195.5 33t-128 91.5t-75 138t-35.5 174.5q-4 51 -7 104t-3 113v389q0 100 -1 179t-3 142zM356 1495q12 27 29.5 65.5t36 79.5t36 78t29.5 62q23 10 61 19t68 9q20 0 27 -6q14 -4 9 -24.5t-21 -48.5 l-8 -17q-47 -86 -93.5 -145.5t-74.5 -87.5q-6 -4 -19.5 -3t-29 4t-30 7t-20.5 8zM637 1495q12 27 29.5 65.5t35 79.5t35 78t29.5 62q23 10 60.5 19t68.5 9q20 0 27 -6q14 -4 9 -24.5t-20 -48.5l-10 -17q-47 -86 -93 -145.5t-75 -87.5q-6 -4 -19.5 -3t-28.5 4t-28.5 7 t-19.5 8z" />
<glyph unicode="&#x171;" horiz-adv-x="931" d="M106 932q18 20 97 57q8 2 16 2q35 0 51.5 -22.5t22.5 -46.5q10 -35 16 -77t6 -120l-20 -375q0 -70 10 -112.5t30.5 -67.5t49.5 -34t66 -9q53 -4 103 17.5t77 54.5v651q0 33 4 54.5t18 41.5q8 8 18.5 12.5t28 5.5t44 2t67.5 1q-2 -84 -3 -182.5t-1 -217.5v-348 q0 -49 7 -86t17 -67q-12 -16 -81 -48q-6 -2 -15 -2q-29 0 -43 17.5t-20 44.5q-37 -31 -72 -50.5t-70 -29.5q-33 -10 -62.5 -16.5t-64.5 -6.5q-90 4 -145 29t-87 69t-43 106.5t-13 144.5l20 428q0 57 -8.5 100t-20.5 80zM238 1169q12 27 29.5 66t36 80t35.5 78t30 61 q23 10 60.5 19.5t68.5 9.5q20 0 26 -6q14 -4 9 -24.5t-21 -49.5l-8 -17q-47 -86 -93 -145t-75 -88q-6 -4 -19.5 -3t-29 4t-29.5 7t-20 8zM518 1169q12 27 29.5 66t35 80t35 78t29.5 61q23 10 60.5 19.5t68.5 9.5q20 0 27 -6q14 -4 9 -24.5t-19 -49.5l-11 -17 q-47 -86 -93 -145t-75 -88q-6 -4 -19 -3t-28.5 4t-29 7t-19.5 8z" />
<glyph unicode="&#x178;" horiz-adv-x="946" d="M23 1331q0 8 17 11.5t79 3.5h102q12 -29 35 -77t48.5 -105.5t53 -118t52 -114.5t44 -98.5t29.5 -64.5l269 578q16 6 30.5 9t32.5 3q16 0 39 -1t57 -5q4 -16 4 -25q0 -18 -6 -34.5t-16 -39.5q-23 -53 -65 -132t-88 -161.5t-87 -157.5t-59 -118q-10 -25 -17.5 -51.5 t-11.5 -50.5v-299q0 -86 1 -150.5t1 -112.5q-6 -8 -16 -14t-28.5 -9t-48.5 -4t-75 -1q-16 39 -16 92v481v27q0 10 -4 20q-16 45 -43 103.5t-66 132.5q-57 117 -124.5 244t-120.5 235zM211 1612q0 106 102 106q57 0 73.5 -25.5t14.5 -76.5t-21.5 -83t-78.5 -32 q-49 0 -69.5 27t-20.5 84zM553 1612q0 106 102 106q57 0 73.5 -25.5t14.5 -76.5t-21.5 -83t-78.5 -32q-49 0 -69.5 27t-20.5 84z" />
<glyph unicode="&#x17d;" horiz-adv-x="956" d="M49 72q0 6 1 12t1 12q82 137 168 288t168 297t154.5 282.5t128.5 248.5h-473q-59 0 -82 6.5t-23 18.5v4q4 25 8 46.5t9 41.5q4 6 10 18.5t22 16.5q25 -4 54.5 -6t70.5 -2h611v-6q0 -8 1 -17.5t1 -21.5q0 -47 -25 -99q-41 -90 -104.5 -214t-140.5 -266t-160.5 -293.5 t-165.5 -295.5q90 -4 217 -5t245 -1q63 0 106.5 4t59.5 6q6 -27 2 -65q-10 -29 -29.5 -53.5t-41.5 -28.5q-16 -2 -38 -3t-51.5 -2t-70.5 -1h-98q-188 0 -310 2t-200 6q-4 4 -11.5 15.5t-11.5 27.5q0 8 -1 14.5t-1 12.5zM225 1708q10 27 34 53.5t46 26.5q23 0 45 -19 q33 -27 74 -69.5t63 -63.5q39 47 76 82t64 56q6 6 16 10q2 0 4 1t4 1h2q29 -8 50.5 -26.5t27.5 -35.5q-14 -16 -38.5 -43.5t-54.5 -58.5t-58.5 -60.5t-53.5 -54.5q-8 -12 -28.5 -17t-30.5 -5q-20 14 -53 42.5t-68 62.5t-68 66t-53 52z" />
<glyph unicode="&#x17e;" horiz-adv-x="774" d="M53 68q2 20 19 49q43 72 96 160t108.5 182t109.5 188t99 178h-219q-25 0 -46 -1t-44 -1q-106 0 -106 21v4q12 115 45 123q37 -8 79 -9t99 -1h397v-7q0 -10 2 -19t2 -26q2 -25 -22 -75q-31 -59 -74 -139.5t-94 -170.5t-107.5 -188t-111.5 -195q45 -2 104.5 -3t118.5 -1 q86 0 146.5 5t72.5 10q0 -16 -1 -35t-5 -35q-8 -63 -41 -74q-35 -6 -83 -8t-140 -2q-98 0 -198.5 1t-176.5 5l-14 22q-11 15 -15 42zM145 1382q12 23 37 46.5t47 23.5q18 0 41 -25q33 -39 69 -88t52 -77q27 45 53 81l54 74q14 14 24 23.5t15 9.5q25 -10 47 -22.5t32 -28.5 q-23 -49 -69.5 -115.5t-91.5 -130.5q-20 -27 -41 -37q-14 -4 -26.5 -8t-22.5 -4q-18 20 -48 55t-63 75t-62 79.5t-47 68.5z" />
<glyph unicode="&#x192;" horiz-adv-x="548" d="M-90 -166q0 12 1 23.5t3 21.5q6 -6 24.5 -13t41 -13.5t43 -10.5t32.5 -4q61 0 79 54.5t24 140.5q4 37 4 77v80v105q0 127 -1 258t-1 270q-98 2 -127 25q6 57 14 72.5t33 21.5q18 4 37.5 9t42.5 10q0 41 2 79.5t6 73.5q8 102 45 168t87 103.5t109.5 52t112.5 14.5 q63 0 101.5 -11t52.5 -28q6 -8 6 -16v-17q-2 -12 -4 -23t-6 -22q-12 -29 -25 -41q-4 -2 -16.5 1t-24.5 8q-16 4 -38.5 6t-43.5 2q-35 0 -66.5 -9.5t-57 -34t-42 -66.5t-18.5 -107q-2 -33 -2 -66v-67h111h65q31 0 51 2q-4 -72 -13 -95.5t-32 -31.5l-9 -4.5t-13 -4.5 q-33 -4 -74 -4h-88v-188q0 -102 -1 -206.5t-1 -205.5v-182q0 -61 -8.5 -122.5t-33 -111t-68.5 -80t-115 -30.5q-47 0 -92.5 10t-73.5 29q-25 18 -31 41q-2 14 -2 28v29z" />
<glyph unicode="&#x2c6;" horiz-adv-x="815" d="M176 1157q23 49 70 115.5t92 130.5q23 27 41 37q27 12 49 12q18 -20 49 -55t62.5 -75t61.5 -80t48 -68q-14 -23 -38.5 -46.5t-47.5 -23.5q-18 0 -39 24q-16 18 -34.5 42t-35 46.5t-30.5 43t-23 34.5q-27 -45 -52 -81.5t-54 -73.5q-10 -14 -22.5 -23.5t-16.5 -9.5 q-25 10 -47.5 22.5t-32.5 28.5z" />
<glyph unicode="&#x2c7;" horiz-adv-x="731" d="M133 1395q12 23 37 46t47 23q18 0 41 -24q33 -39 68.5 -88t52.5 -78q27 45 53 82l53 74q14 14 24.5 23t14.5 9q25 -10 47.5 -22.5t32.5 -28.5q-23 -49 -70 -115.5t-92 -130.5q-20 -27 -41 -37q-14 -4 -26.5 -8t-22.5 -4q-18 20 -48 55t-62.5 75t-61.5 80t-47 69z" />
<glyph unicode="&#x2d8;" horiz-adv-x="903" d="M158 1376q2 2 9 12.5t17.5 21.5t21.5 19.5t21 8.5q16 0 25 -21q35 -82 79 -123t115 -41q72 0 115 41t78 123q8 20 25 21q10 0 21 -8.5t21.5 -19.5t17.5 -21.5t9 -12.5q-39 -143 -113.5 -198.5t-173.5 -55.5q-98 2 -173.5 56.5t-114.5 197.5z" />
<glyph unicode="&#x2d9;" horiz-adv-x="612" d="M213 1290q0 111 102 111q59 0 76 -26.5t15 -80.5q-2 -53 -23 -85.5t-82 -32.5q-49 0 -68.5 27.5t-19.5 86.5z" />
<glyph unicode="&#x2da;" horiz-adv-x="804" d="M209 1364q0 84 56.5 144.5t148.5 60.5q45 0 80.5 -17.5t62.5 -45t41 -63.5t14 -75q0 -86 -58 -143.5t-148 -57.5q-80 0 -138.5 54.5t-58.5 142.5zM309 1366q0 -47 30 -78t73 -31q47 0 74.5 33t27.5 76t-27.5 77t-76.5 34q-45 0 -73 -34t-28 -77z" />
<glyph unicode="&#x2db;" horiz-adv-x="563" d="M119 -225q0 43 16.5 81t55 72.5t103 69.5t159.5 72q16 8 34.5 -3.5t34.5 -23.5q-86 -41 -139 -72.5t-82 -62.5t-39 -62.5t-10 -70.5q0 -41 37 -65.5t123 -53.5q27 -6 26 -27q0 -14 -12 -36.5t-35 -26.5q-39 6 -86 19.5t-89 38t-69.5 61.5t-27.5 90z" />
<glyph unicode="&#x2dc;" horiz-adv-x="901" d="M164 1217q31 92 78 142t123 50q43 0 69.5 -24.5t54.5 -53.5q14 -14 26.5 -23.5t27.5 -9.5q33 0 50 21.5t28 58.5q8 20 24 21q10 0 21.5 -8.5t21.5 -18.5t17.5 -20.5t9.5 -14.5q-4 -31 -19.5 -63.5t-39 -59t-56.5 -44t-72 -17.5q-51 0 -75.5 27.5t-53.5 56.5 q-16 16 -26.5 22.5t-26.5 6.5q-47 -10 -76 -78q-12 -23 -22 -23q-12 0 -26.5 7.5t-27 16.5t-20.5 17z" />
<glyph unicode="&#x2dd;" horiz-adv-x="901" d="M154 1169q12 27 29.5 66t36 80t35.5 78t30 61q23 10 60.5 19.5t68.5 9.5q20 0 26 -6q14 -4 9 -24.5t-21 -49.5l-8 -17q-47 -86 -93 -145t-75 -88q-6 -4 -19.5 -3t-29 4t-29.5 7t-20 8zM434 1169q12 27 29.5 66t35 80t35 78t29.5 61q23 10 61 19.5t68 9.5q20 0 27 -6 q14 -4 9 -24.5t-19 -49.5l-11 -17q-47 -86 -93 -145t-75 -88q-6 -4 -19 -3t-28.5 4t-29 7t-19.5 8z" />
<glyph unicode="&#x3c0;" horiz-adv-x="1318" d="M72 930q0 23 5 47t11 41q4 12 11 20.5t14 14.5q10 0 21 -1t28 -1h56q48 0 122 -1t167 -1h189h191h172h131h67q0 -29 -4 -55.5t-10 -51.5q-6 -23 -21.5 -31t-21.5 -10h-196v-649q0 -68 24.5 -93.5t77.5 -25.5q72 0 133 33l15 -19q5 -6 1 -34q-2 -23 -18 -46.5t-41 -42 t-55.5 -29.5t-61.5 -11q-70 0 -114.5 18t-71.5 54t-37 86.5t-10 113.5v645h-424v-616q0 -88 1 -150.5t3 -111.5q-10 -8 -17.5 -12.5t-21.5 -7.5t-38.5 -4t-65.5 -1q-18 33 -19 88v815h-104q-47 0 -86 6q-2 9 -2 23z" />
<glyph unicode="&#x401;" horiz-adv-x="788" d="M119 1325q16 4 42.5 16.5t61.5 14.5h496q-4 -74 -13.5 -100.5t-31.5 -36.5q-37 -6 -83 -7.5t-106 -1.5h-182v-417h381q-6 -49 -12 -78t-15.5 -44.5t-21.5 -20.5t-31 -5h-301v-500q31 -4 77 -5t95 -1h135q72 0 133 4l2 -2q-8 -78 -22 -106.5t-45 -36.5q-41 -2 -98.5 -3 t-143.5 -1q-96 0 -173 3t-126 7q-4 23 -7 42.5t-7 41.5v981v131q0 64 -4 125zM154 1612q0 106 102 106q57 0 73.5 -25.5t14.5 -76.5t-21.5 -83t-78.5 -32q-49 0 -69.5 27t-20.5 84zM496 1612q0 106 102 106q57 0 73.5 -25.5t14.5 -76.5t-21.5 -83t-78.5 -32q-49 0 -69.5 27 t-20.5 84z" />
<glyph unicode="&#x402;" horiz-adv-x="1103" d="M27 1237q0 23 5 47.5t11 40.5q4 12 11 20.5t14 14.5q10 0 21 -1t28 -1q16 0 25.5 -1t20.5 -1h26h47h565q0 -29 -4 -55.5t-11 -51.5q-6 -23 -21 -31t-22 -10q-39 0 -82 1t-79 1h-62q-25 0 -24 -2v-88v-241q31 29 59.5 50t58.5 34q29 10 62 17t72 7q74 0 122 -21.5 t75.5 -68.5t37.5 -119.5t10 -175.5l-4 -409q0 -115 -22.5 -194t-55 -130t-70.5 -76.5t-71 -34.5q-35 -8 -70 -8q-72 0 -96 41q-2 6 -2 14v19q0 10 2 22q31 18 72 21.5t82 32.5q18 14 28.5 52t16.5 87t8 101.5t2 99.5v344q0 29 -2 46t-2 42q-4 96 -35 130t-88 34 q-31 0 -63.5 -14.5t-60 -32t-46 -32t-20.5 -14.5v-346v-116q0 -88 1 -150.5t3 -112.5q-18 -16 -51 -20t-115 -4q-18 33 -19 88v1126h-200q-47 0 -86 6q-2 9 -2 23z" />
<glyph unicode="&#x406;" horiz-adv-x="423" d="M117 1313q12 31 52 39t116 8q12 0 15 -32t3 -103q0 -123 -1 -264.5t-1 -276.5q0 -133 1 -254t1 -219q0 -86 1 -131t1 -62q-12 -16 -51 -20t-115 -4q-18 0 -18 39q0 117 1 288t1 359q0 117 -1 230.5t-1 205.5q0 84 -1 133.5t-3 63.5z" />
<glyph unicode="&#x407;" horiz-adv-x="423" d="M-57 1608q0 45 26.5 75.5t73.5 30.5h2q49 0 72.5 -30.5t23.5 -71.5q0 -47 -26.5 -77t-73.5 -30t-72.5 26t-25.5 77zM117 1313q12 31 52 39t116 8q12 0 15 -32t3 -103q0 -123 -1 -264.5t-1 -276.5q0 -133 1 -254t1 -219q0 -86 1 -131t1 -62q-12 -16 -51 -20t-115 -4 q-18 0 -18 39q0 117 1 288t1 359q0 117 -1 230.5t-1 205.5q0 84 -1 133.5t-3 63.5zM285 1608q0 45 26.5 75.5t75.5 30.5q51 0 73.5 -30.5t22.5 -71.5q0 -47 -26.5 -77t-73.5 -30t-72.5 26t-25.5 77z" />
<glyph unicode="&#x410;" horiz-adv-x="1073" d="M25 6q2 20 6 37.5t10 34.5q43 129 102.5 296t121 338t116.5 328.5t90 268.5q10 43 21 43q10 2 21 5t22 3q16 4 30 4h25q29 -6 39 -21q35 -104 74.5 -225t80.5 -243.5t80 -240.5t72 -216q43 -123 73.5 -218.5t57.5 -172.5v-4q0 -2 2 -3q0 -6 -8 -14q-18 -6 -53 -10t-62 -4 q-18 0 -36.5 6t-43.5 29q-29 84 -51 163.5t-57 184.5h-426q-35 -102 -67 -193.5t-54 -161.5q-4 -14 -16.5 -21t-47.5 -7q-23 0 -58 4t-64 10zM377 520h338q-23 72 -41.5 138.5t-38.5 127.5q-33 102 -52.5 175t-33.5 126q-27 -96 -55.5 -195t-71.5 -228z" />
<glyph unicode="&#x411;" horiz-adv-x="927" d="M115 1298q16 35 60 46.5t112 9.5h563q0 -29 -4 -55.5t-10 -51.5q-6 -23 -21.5 -31t-21.5 -10h-498v-295q43 29 103.5 51.5t133.5 22.5q70 0 131.5 -23.5t106.5 -74.5t70.5 -132t25.5 -194q0 -106 -16 -189t-44 -145.5t-63.5 -106.5t-74.5 -73q-63 -43 -135 -58.5 t-134 -15.5q-84 0 -151.5 14.5t-110.5 41.5q-10 23 -14 51.5t-4 64.5v1072v43q0 10 -1 13t-2 5t-1 20zM295 133q20 -10 53 -17t70 -7q43 0 89 19t83 67.5t60.5 130.5t23.5 206q0 172 -57.5 241t-157.5 69q-41 0 -85 -14.5t-79 -43.5v-651z" />
<glyph unicode="&#x412;" d="M121 6v1061v215v18v21q0 10 2 20q12 4 55 9q43 4 103.5 8t121.5 4q100 0 172 -23.5t117 -64.5t66.5 -97.5t21.5 -119.5q0 -109 -31.5 -169.5t-68.5 -90.5q-14 -10 -30.5 -20.5t-41.5 -20.5q49 -12 86 -33q25 -14 52.5 -35.5t51 -55.5t40 -82t16.5 -114q0 -117 -35 -200.5 t-95 -138t-143 -81t-178 -26.5q-78 2 -141 5t-141 11zM301 135q12 -4 49 -7t60 -3q100 0 170.5 73.5t70.5 233.5v23q0 10 -2 20q-14 113 -79.5 153t-166.5 40h-55q-33 0 -47 -4v-529zM301 799q14 4 53 4t68 2q33 0 70 6q39 18 70.5 71.5t31.5 143.5v18q0 8 -2 17 q-10 86 -63.5 125t-133.5 39q-18 0 -51 -2t-43 -4v-420z" />
<glyph unicode="&#x413;" horiz-adv-x="927" d="M115 80v1155q0 23 5 47.5t11 40.5q4 12 11.5 20.5t13.5 14.5q10 0 21 -1t28 -1q16 0 20 -1t7 -1h14h41h563q0 -29 -4 -55.5t-10 -51.5q-6 -23 -21.5 -31t-21.5 -10h-498v-927q0 -88 1 -150.5t3 -112.5q-18 -16 -51 -20t-115 -4q-18 33 -18 88z" />
<glyph unicode="&#x414;" horiz-adv-x="1234" d="M125 145h63q111 55 144 156q86 264 86 735v289l418 47q53 4 93 -32.5t40 -90.5v-1104h143v-387l-115 -26q-10 -4 -19 4t-9 20v244h-697v-233q0 -16 -12 -26.5t-29 -6.5l-106 24v387zM438 145h357v1010q0 29 -19.5 46.5t-48.5 15.5l-137 -25v-242q0 -215 -25.5 -391 t-72.5 -319q-8 -29 -23 -53t-31 -42z" />
<glyph unicode="&#x415;" d="M121 6v1061v215v18v21q0 10 2 20q12 4 55 9q43 4 103.5 8t121.5 4q100 0 172 -23.5t117 -64.5t66.5 -97.5t21.5 -119.5q0 -109 -31.5 -169.5t-68.5 -90.5q-14 -10 -30.5 -20.5t-41.5 -20.5q49 -12 86 -33q25 -14 52.5 -35.5t51 -55.5t40 -82t16.5 -114q0 -117 -35 -200.5 t-95 -138t-143 -81t-178 -26.5q-78 2 -141 5t-141 11zM301 135q12 -4 49 -7t60 -3q100 0 170.5 73.5t70.5 233.5v23q0 10 -2 20q-14 113 -79.5 153t-166.5 40h-55q-33 0 -47 -4v-529zM301 799q14 4 53 4t68 2q33 0 70 6q39 18 70.5 71.5t31.5 143.5v18q0 8 -2 17 q-10 86 -63.5 125t-133.5 39q-18 0 -51 -2t-43 -4v-420z" />
<glyph unicode="&#x416;" horiz-adv-x="1478" d="M20 25q18 18 46 65t63 111.5t75 139.5t84 149.5t92 141t97 116.5q-43 57 -90 119.5t-94 127t-92 126t-84 114.5q-10 10 -19.5 25.5t-17.5 27.5q-14 27 -14 41q0 27 51 29q16 0 35.5 1t40.5 1h22q10 0 21 -2q109 -147 219 -306t215 -304v315q0 86 -1 152.5t-3 119.5 q12 10 52 16.5t118 6.5q10 -20 13 -47t3 -80v-483q104 145 215 303.5t219 306.5q10 2 21 2h22q20 0 40 -1t36 -1q51 -2 51 -29q0 -14 -14 -41q-8 -12 -17.5 -27.5t-19.5 -25.5q-39 -53 -84 -114.5t-92 -126t-94.5 -127t-90.5 -119.5q49 -47 97.5 -115t92.5 -142.5t84 -149.5 t74.5 -139.5t62.5 -111.5t46 -65q0 -10 -3 -14.5t-19 -10.5q-10 -4 -33 -8t-49 -4h-29q-55 6 -86 54t-51 97q-20 45 -48 98.5t-62 108.5t-71.5 108.5t-78.5 100.5q-39 43 -71 77t-48 44v-402q0 -86 1 -147t1 -111q-10 -16 -49 -19t-117 -3q-10 16 -14 36.5t-4 49.5v596 q-16 -10 -48 -44t-71 -77q-41 -47 -79 -100.5t-71.5 -108.5t-61.5 -108.5t-48 -98.5q-10 -25 -22.5 -50.5t-29 -47t-38 -36.5t-47.5 -17h-29q-27 0 -49.5 4t-32.5 8q-16 6 -19.5 10.5t-3.5 14.5z" />
<glyph unicode="&#x417;" d="M90 102q0 18 2 34t6 30q0 6 2 4q37 -23 92.5 -37t120.5 -14q76 0 136.5 24.5t100.5 65.5t60.5 97t18.5 122q-2 10 -2 19.5t-2 19.5q-12 94 -92 136t-197 42q-16 0 -35.5 -1t-36.5 -3q-2 10 -4 17.5t-4 17.5q6 23 12 42t17 36q51 20 101 47.5t88 62.5t61.5 76t23.5 90 q0 29 -8 56.5t-26.5 48t-49.5 33t-76 12.5q-72 0 -133 -20.5t-106 -51.5q-4 -4 -10.5 -7t-10.5 -3q-6 0 -12 8q-10 20 -15.5 44t-5.5 46v10q12 25 42 48.5t74 41t100.5 28.5t121.5 11q92 0 151.5 -25.5t94.5 -63.5t48.5 -84t13.5 -87q0 -90 -45 -164q-51 -88 -164 -161 q131 -25 203.5 -105t72.5 -213q0 -113 -39 -199t-105.5 -144t-156.5 -88t-194 -30q-82 0 -131.5 15.5t-71.5 33.5q-20 16 -25.5 37.5t-5.5 44.5z" />
<glyph unicode="&#x418;" horiz-adv-x="1140" d="M119 1360h65q25 0 40.5 -2t26.5 -7t23 -14q10 -23 14.5 -47t4.5 -63v-502q0 -43 -1 -91t-2 -97.5t-3 -94.5t-4 -80q-2 -10 -2 -21v-22v-16q35 80 83 182.5t101 202.5l70 125q29 51 55 99.5t55 95.5q57 98 105.5 183t83.5 150q31 18 61 19q12 0 32.5 -1t42 -3t39 -5 t25.5 -8q0 -4 1 -6t1 -6v-6q0 -4 -9 -15.5t-15 -19.5v-874q0 -123 1 -227.5t3 -194.5q-41 0 -67.5 1t-44 3t-28 7t-18.5 15q-10 23 -14 46.5t-4 64.5v483q2 88 5 208t9 237q-14 -31 -23.5 -51.5t-25.5 -55.5q-33 -70 -66.5 -144.5t-66.5 -139.5l-84 -154q-78 -139 -153 -268 t-140 -248q-16 -6 -43 -8t-41 -2q-29 0 -56.5 14t-31.5 18v916q0 123 -1 227.5t-3 196.5z" />
<glyph unicode="&#x419;" horiz-adv-x="1140" d="M119 1360h65q25 0 40.5 -2t26.5 -7t23 -14q10 -23 14.5 -47t4.5 -63v-502q0 -43 -1 -91t-2 -97.5t-3 -94.5t-4 -80q-2 -10 -2 -21v-22v-16q35 80 83 182.5t101 202.5l70 125q29 51 55 99.5t55 95.5q57 98 105.5 183t83.5 150q31 18 61 19q12 0 32.5 -1t42 -3t39 -5 t25.5 -8q0 -4 1 -6t1 -6v-6q0 -4 -9 -15.5t-15 -19.5v-874q0 -123 1 -227.5t3 -194.5q-41 0 -67.5 1t-44 3t-28 7t-18.5 15q-10 23 -14 46.5t-4 64.5v483q2 88 5 208t9 237q-14 -31 -23.5 -51.5t-25.5 -55.5q-33 -70 -66.5 -144.5t-66.5 -139.5l-84 -154q-78 -139 -153 -268 t-140 -248q-16 -6 -43 -8t-41 -2q-29 0 -56.5 14t-31.5 18v916q0 123 -1 227.5t-3 196.5zM305 1712q2 2 9.5 12.5t17.5 21.5t21.5 19.5t21.5 8.5q16 0 24 -21q35 -82 79 -123t116 -41t115 41t77 123q8 20 25 21q10 0 21.5 -8.5t21.5 -19.5t17.5 -21.5t9.5 -12.5 q-39 -143 -114 -198.5t-173 -55.5q-98 2 -174 56.5t-115 197.5z" />
<glyph unicode="&#x41a;" horiz-adv-x="929" d="M117 1335q12 10 52 16.5t118 6.5q10 -20 13 -47t3 -80v-483q104 145 215 303.5t219 306.5q10 2 21 2h22q20 0 40 -1t36 -1q51 -2 51 -29q0 -14 -14 -41q-8 -12 -17.5 -27.5t-19.5 -25.5q-39 -53 -84 -114.5t-92 -126t-94 -127t-90 -119.5q49 -47 97 -115t92 -142.5 t84 -149.5t75 -139.5t62.5 -111.5t45.5 -65q0 -10 -3 -14.5t-19 -10.5q-10 -4 -33 -8t-49 -4h-29q-55 6 -86 54t-51 97q-20 45 -48 98.5t-61.5 108.5t-71.5 108.5t-79 100.5q-39 43 -71 77t-48 44v-402q0 -86 1 -147t1 -111q-10 -16 -49 -19t-117 -3q-10 16 -14 36.5 t-4 49.5v983q0 86 -1 152.5t-3 119.5z" />
<glyph unicode="&#x41b;" horiz-adv-x="1341" d="M29 51q0 16 6 35q2 10 6 20q20 6 44 5.5t52 -0.5q20 0 42 2t42 12q51 20 81 106t45 212t19.5 278.5t4.5 308.5q0 96 -1 171t-3 134q16 16 52 20.5t111 4.5h693q-2 -74 -3 -163t-1 -198v-680q0 -98 1 -169.5t3 -131.5q-14 -16 -53.5 -20t-114.5 -4q-16 45 -17 104v1110 h-487l-8 -309q0 -203 -15.5 -371t-54.5 -288.5t-106.5 -188t-171.5 -67.5q-72 0 -115 20t-51 47z" />
<glyph unicode="&#x41c;" horiz-adv-x="1359" d="M74 8q8 125 20 278.5t27.5 322.5t32 346.5t32.5 353.5q0 10 2 22t13 17q6 4 16 4t21 2q51 6 114 6q16 -35 40 -94.5t50.5 -132t55 -153.5t55.5 -159q4 -16 10 -31.5t10 -31.5q12 -37 25.5 -79t26.5 -79q12 -39 22 -69.5t21 -59.5q10 29 22 62.5t27 68.5q16 43 31.5 91 t31.5 87q51 141 99.5 277.5t91.5 253.5l8 20q4 10 12 17q29 4 72 8t80 4q6 -20 10 -40t8 -54q14 -193 29.5 -380.5t32.5 -377.5q16 -141 25 -264t16 -221q-10 -18 -50 -23.5t-120 -5.5q-23 33 -23 84q-2 31 -5 56.5t-3 55.5q-4 53 -9 117t-12 135q-2 31 -4 60l-4 57 q-4 57 -5 132t-3 145q-4 61 -4 105t-2 85q0 -2 -1 -2t-1 -2q-16 -51 -34.5 -109.5t-38 -116t-38 -110.5t-33.5 -92q-35 -94 -70.5 -192.5t-70.5 -196.5q-10 -35 -45 -41q-20 -4 -45 -6t-47 -2q-27 86 -70 212t-88 259q-4 14 -20.5 65t-36.5 117q-23 76 -42.5 135.5 t-29.5 85.5v-172q0 -33 -1 -71.5t-2 -76.5t-2 -74t-3 -63q-14 -131 -25.5 -253.5t-17.5 -219.5q-4 -29 -7 -48t-13 -38q-10 -8 -24.5 -12t-41.5 -4q-18 0 -40.5 1t-51.5 5q-6 0 -6 4z" />
<glyph unicode="&#x41d;" horiz-adv-x="1093" d="M119 -6q2 74 3 163t1 199v674q0 96 -1 171t-3 134q16 16 52 20.5t112 4.5q12 -18 16 -46t4 -81v-440h488v428q0 72 20 118q16 14 49 17.5t115 3.5q-2 -74 -3 -163t-1 -198v-680q0 -98 1 -169.5t3 -131.5q-14 -16 -53 -20t-115 -4q-16 45 -16 104v551q-35 -2 -85.5 -3 t-136.5 -1h-266v-520q0 -37 -5 -62.5t-22 -48.5q-12 -16 -43.5 -18t-113.5 -2z" />
<glyph unicode="&#x41e;" horiz-adv-x="1171" d="M68 674q0 354 135 533t391 179q131 0 228.5 -47t161 -136t94 -219t30.5 -294q0 -342 -130 -531.5t-396 -189.5q-139 0 -236.5 49.5t-159 140.5t-90 221t-28.5 294zM266 664q0 -274 91.5 -408.5t234.5 -134.5q150 0 235.5 136t85.5 427q0 145 -24.5 249.5t-68.5 171 t-103.5 98.5t-128.5 32h-2q-143 0 -231.5 -137t-88.5 -434z" />
<glyph unicode="&#x41f;" horiz-adv-x="1140" d="M98 1325v6q0 8 2 12q8 4 25.5 7.5t39 5.5t43 3t34.5 1h774q0 -92 -2 -196.5t-2 -227.5v-916q-4 -4 -32 -18t-56 -14q-14 0 -41 2t-43 8q4 92 4 198v222v307v483h-549v-594v-483q0 -41 -4 -64.5t-15 -46.5q-8 -10 -18 -15t-27.5 -7t-44 -3t-67.5 -1q2 90 3 194.5t1 227.5 v874q-6 8 -15.5 19.5t-9.5 15.5z" />
<glyph unicode="&#x420;" horiz-adv-x="866" d="M115 1358q18 12 53 14h6q47 4 101.5 5t109.5 1q102 0 184 -23.5t138.5 -73.5t87 -131t30.5 -194q0 -111 -32.5 -185.5t-83 -122.5t-109.5 -70.5t-111 -28.5q-16 0 -35.5 2t-36 10t-26.5 25.5t-10 48.5q0 8 9 14t22 6q37 0 75.5 15.5t69.5 51.5t51.5 95.5t20.5 147.5 q0 74 -18.5 125t-49.5 82.5t-73 45t-87 13.5h-60q-26 0 -42 -4v-520v-385l2 -228q0 -51 -20 -80q-12 -14 -35 -17t-64 -3h-65q2 90 3 193.5t1 226.5l-4 884q0 12 -1 28t-1 32z" />
<glyph unicode="&#x421;" horiz-adv-x="952" d="M70 643q0 397 176 588q84 90 182 122.5t203 32.5q63 0 112.5 -11t84 -26.5t56 -33t27.5 -31.5q0 -35 -8 -60.5t-20 -41.5h-9q-10 -2 -24 4t-33 14q-43 20 -96 29q-16 2 -31.5 3t-34.5 1h-21q-11 0 -22 -2q-72 -6 -135 -41t-110.5 -104.5t-76 -176t-28.5 -254.5 q0 -270 98.5 -396t278.5 -126q74 0 142.5 18.5t103.5 41.5q12 -23 16 -64q-6 -59 -47 -94q-29 -25 -94.5 -45.5t-149.5 -20.5q-125 0 -224 33t-170 112t-108.5 207.5t-37.5 321.5z" />
<glyph unicode="&#x422;" horiz-adv-x="937" d="M27 1237q0 23 5 47.5t11 40.5q4 12 11 20.5t14 14.5q10 0 21 -1t28 -1q35 -2 78 -2h102h627q0 -29 -4.5 -55.5t-10.5 -51.5q-6 -23 -21.5 -31t-21.5 -10h-309v-927q0 -88 1 -150.5t3 -112.5q-18 -16 -51 -20t-115 -4q-18 33 -18 88v1126h-262q-47 0 -86 6q-2 9 -2 23z " />
<glyph unicode="&#x423;" horiz-adv-x="800" d="M20 39q0 16 7 35q2 10 6 20q16 6 34.5 5t39 -1t42 2t46.5 13q20 10 41.5 43.5t42 79t37 96.5t26.5 96q-4 4 -6 5t-4 5q-14 20 -22.5 41t-18.5 53q-4 16 -18.5 62.5t-35 113t-45 145.5t-51 160t-52.5 156.5t-46 135.5q10 27 44 37t114 10q10 0 22.5 -29t18.5 -53 q8 -25 21 -70t29.5 -100.5t34 -114.5t31.5 -113q12 -47 23.5 -93t21 -83t15.5 -63.5t8 -32.5q4 10 11 39t16.5 66.5t20.5 84t22 93.5q27 117 54.5 232.5t49.5 211.5q12 10 24.5 14.5t37.5 4.5q16 0 37.5 -1.5t52.5 -3.5q10 -20 10 -43q0 -20 -10 -55q-20 -86 -49 -192.5 t-64 -224t-75 -240.5t-81 -238q-43 -109 -83 -181.5t-78.5 -115.5t-75.5 -61.5t-70 -18.5q-72 0 -110 20.5t-46 47.5z" />
<glyph unicode="&#x424;" horiz-adv-x="1550" d="M66 684q0 129 42 222t121.5 154.5t193.5 94.5t257 41q-2 47 -2 77t-2 40q12 31 52 39t116 8q12 0 15 -32t3 -103v-29q307 -18 464 -151.5t157 -372.5q0 -250 -163 -375t-458 -137q0 -59 1 -93t1 -49q-12 -16 -51 -20t-115 -4q-18 0 -18 39v127q-295 20 -454.5 149 t-159.5 375zM217 674q0 -139 111.5 -221t351.5 -99q2 78 2 159v167q0 82 -1 163t-1 154q-236 -14 -349.5 -102t-113.5 -221zM860 513q0 -83 2 -159q246 14 357.5 104.5t111.5 219.5v2q0 129 -112.5 214t-358.5 101v-311v-171z" />
<glyph unicode="&#x425;" horiz-adv-x="1017" d="M23 12q78 145 178 322.5t202 357.5q-39 78 -85 163t-91 168t-86 160t-71 138q0 6 3 12t13 10q33 6 75 11.5t93 5.5q12 -10 22.5 -27.5t26.5 -46.5q25 -43 46.5 -84t41.5 -80q35 -76 69 -145.5t66 -128.5q35 59 71 135t77 154q27 47 51.5 95t46.5 93l8 18q10 14 41 15 q23 0 57.5 -4t77.5 -11q-6 -29 -14 -55q-53 -109 -139 -260t-185 -315q135 -236 223.5 -401t149.5 -289q2 -4 2 -11q0 -2 -2 -2q-16 -14 -58 -16t-83 -2q-20 0 -39.5 4t-40.5 14q-29 59 -59.5 118.5t-65.5 125.5q-35 72 -72.5 147.5t-74.5 143.5q-33 -59 -73 -136t-81 -155 q-37 -66 -70.5 -126t-58.5 -110q-10 -14 -20.5 -18t-24.5 -4t-43 1t-57 7q-16 2 -27 4z" />
<glyph unicode="&#x426;" horiz-adv-x="1189" d="M119 0q2 92 3 196.5t1 227.5v915q4 4 31.5 18.5t56.5 14.5q14 0 41 -2t43 -8q-4 -76 -4 -163v-181v-191q0 -96 2 -192v-481h547v1075q0 41 4 64.5t14 45.5q8 8 18.5 14.5t28 8.5t44 3t67.5 1q-2 -90 -3 -194.5t-1 -227.5v-782q139 -25 137 -64q2 -86 5 -185t7 -171 q-2 -10 -7 -22.5t-9 -20.5q-57 8 -96 28.5t-41 55.5q-4 47 -7.5 106.5t-3.5 118.5q-27 -4 -56.5 -6t-45.5 -2h-776z" />
<glyph unicode="&#x427;" horiz-adv-x="925" d="M117 860v203v283q8 8 17 12t27.5 7t47.5 4t76 1q14 -35 14 -94v-578q4 -31 26.5 -51t53.5 -20q23 0 46.5 -1t49.5 -1q49 0 94 7t68 30v581q0 33 4 58.5t16 48.5q10 8 21.5 12t28 6t43.5 2h67q-2 -90 -3 -194.5t-1 -231.5v-704q0 -66 1 -112t3 -81q-18 -35 -58 -44 t-106 -9q-10 16 -13 42.5t-3 92.5v389q-16 -18 -54 -26.5t-84 -11.5t-95.5 -4t-86.5 -1q-74 0 -114.5 21.5t-60 68.5t-22.5 120t-3 175z" />
<glyph unicode="&#x428;" horiz-adv-x="1572" d="M119 0q0 92 2 196.5t2 227.5v915q4 4 31.5 18.5t56.5 14.5q14 0 41 -2t43 -8q-4 -92 -4 -198v-222v-307v-483h405q2 63 2 131v141v915q4 4 32 18.5t56 14.5q14 0 41 -2t43 -8q-4 -92 -4 -198v-222v-307v-483h406v1077q0 41 4 64.5t14 45.5q8 8 18.5 14.5t28 8.5t44 3 t67.5 1q-2 -90 -3 -194.5t-1 -227.5v-874q6 -8 15 -19.5t9 -15.5v-6q0 -4 -1 -7.5t-1 -5.5q-8 -4 -25.5 -7t-39 -5t-43 -3t-33.5 -1h-1206z" />
<glyph unicode="&#x429;" horiz-adv-x="1622" d="M119 0q0 92 2 196.5t2 227.5v915q4 4 31.5 18.5t56.5 14.5q14 0 41 -2t43 -8q-4 -92 -4 -198v-222v-307v-483h405q2 63 2 131v141v915q4 4 32 18.5t56 14.5q14 0 41 -2t43 -8q-4 -92 -4 -198v-222v-307v-483h406v1077q0 41 4 64.5t14 45.5q8 8 18.5 14.5t28 8.5t44 3 t67.5 1q-2 -90 -3 -194.5t-1 -227.5v-782q141 -25 139 -64q2 -86 5 -185t7 -171q-2 -10 -7 -22.5t-9 -20.5q-57 8 -96 28.5t-41 55.5q-4 47 -7 105.5t-3 117.5q-27 -4 -58 -5t-49 -1h-1206z" />
<glyph unicode="&#x42a;" horiz-adv-x="1087" d="M27 1237q0 23 5 47.5t11 40.5q4 12 12 21l15 14q8 0 19 -1t30 -1q33 -2 77 -2h103h111h34h15h53q0 -29 -4 -55.5t-10 -51.5q-6 -23 -21.5 -31t-21.5 -10v-295q43 29 103 51.5t134 22.5q70 0 131.5 -23.5t106.5 -74.5t70.5 -132t25.5 -194q0 -106 -16.5 -189t-44 -145.5 t-63.5 -106.5t-75 -73q-63 -43 -134.5 -58.5t-133.5 -15.5q-84 0 -151.5 14.5t-110.5 41.5q-10 23 -14 51.5t-4 64.5v1061h-164q-47 0 -86 6q-2 9 -2 23zM455 135q20 -10 53 -17t70 -7q43 0 89 19.5t82.5 67.5t60.5 130t24 207q0 172 -57.5 240.5t-158.5 68.5 q-41 0 -85 -14.5t-78 -43.5v-651z" />
<glyph unicode="&#x42b;" horiz-adv-x="1282" d="M115 1303q16 37 58 46t106 9q10 -23 13 -54.5t3 -101.5v-291q43 31 103.5 53.5t133.5 22.5q70 0 131.5 -23.5t106.5 -75.5t70.5 -133t25.5 -194q0 -106 -16 -188t-44 -144.5t-63.5 -106.5t-74.5 -73q-63 -43 -135 -59.5t-134 -16.5q-84 0 -151.5 14.5t-110.5 41.5 q-10 25 -14 53.5t-4 62.5v961q0 66 -1 113t-3 84zM295 135q20 -10 53 -18t70 -8q43 0 89 19t83 67.5t60.5 130.5t23.5 206q0 172 -57.5 241t-157.5 69q-41 0 -85 -14.5t-79 -43.5v-649zM975 1311q14 31 54 39t116 8q10 0 13 -32t3 -103q0 -123 -1 -264.5t-1 -276.5 q0 -133 1 -254t1 -219q0 -86 2 -131t2 -62q-14 -16 -53 -20t-115 -4q-16 0 -16 39v647v436q0 168 -6 197z" />
<glyph unicode="&#x42c;" horiz-adv-x="927" d="M115 1393q16 35 58 45t106 10q10 -23 13 -54.5t3 -101.5v-381q43 31 103.5 53.5t133.5 22.5q70 0 131.5 -23.5t106.5 -75.5t70.5 -133t25.5 -194q0 -106 -16 -188t-44 -144.5t-63.5 -106.5t-74.5 -73q-63 -43 -135 -59.5t-134 -16.5q-84 0 -151.5 14.5t-110.5 41.5 q-10 25 -14 53.5t-4 62.5v1049q0 68 -1 115t-3 84zM295 135q20 -10 53 -18t70 -8q43 0 89 19t83 67.5t60.5 130.5t23.5 206q0 172 -57.5 241t-157.5 69q-41 0 -85 -14.5t-79 -43.5v-649z" />
<glyph unicode="&#x42d;" horiz-adv-x="1243" d="M117 178q0 31 16 60q72 -55 157 -86t183 -31q106 0 196.5 38t157 103.5t108.5 155.5t52 192h-608q-37 0 -56.5 39t-15.5 94h680q-10 104 -51 194.5t-108.5 156t-157.5 103.5t-197 38q-127 0 -235 -51q-23 -10 -46.5 -19.5t-37.5 -7.5q-16 23 -26.5 56.5t-10.5 76.5 q78 47 168 71.5t188 24.5q147 0 276.5 -55t225.5 -151.5t151.5 -225.5t55.5 -276t-55.5 -276.5t-151.5 -225.5t-225 -151.5t-277 -55.5q-68 0 -132.5 13.5t-123.5 35.5q-47 18 -73.5 62.5t-26.5 97.5z" />
<glyph unicode="&#x42e;" horiz-adv-x="1513" d="M117 1313q12 31 52 39t116 8q12 0 15 -32t3 -103q0 -109 -1 -234t-1 -248l109 -2q14 322 148 483.5t378 161.5q131 0 228.5 -47t161 -136t94 -219t30.5 -294q0 -342 -130 -531.5t-396 -189.5q-131 0 -226.5 44t-157 127t-93 202t-37.5 266l-109 2q0 -111 1 -212t1 -187 t1 -131t1 -62q-12 -16 -51 -20t-115 -4q-18 0 -18 39q0 117 1 288t1 359q0 117 -1 230.5t-1 205.5q0 84 -1 133.5t-3 63.5zM608 664q0 -274 91.5 -408.5t234.5 -134.5q150 0 235.5 136t85.5 427q0 145 -24.5 249.5t-68.5 171t-103.5 98.5t-128.5 32h-2q-143 0 -231.5 -137 t-88.5 -434z" />
<glyph unicode="&#x42f;" horiz-adv-x="927" d="M-23 29q23 20 58 82.5t79 145.5t96 176t107 175q-14 8 -45.5 40t-65.5 82t-59.5 113.5t-25.5 133.5q0 195 90 285t270 100l54 2q25 2 49 1t51 -1q23 0 44 -1t44 -3q14 -2 23.5 -3t19.5 -3q35 -6 43 -13q2 -10 2 -20v-18q-2 -43 -2 -91v-102v-692q0 -123 1 -225.5 t3 -194.5q-76 0 -111.5 2t-52.5 20q-20 29 -20 78v463h-90q-10 0 -18.5 -1t-16.5 -3q-80 -92 -147.5 -206.5t-108.5 -207.5q-10 -25 -23.5 -50t-30 -46.5t-38 -37t-47.5 -17.5h-27q-37 0 -62 6q-23 4 -38 11.5t-5 19.5zM313 981q0 -123 39 -188.5t88 -83.5q14 -6 38 -7.5 t48 -1.5h60q31 0 43 2v523q-16 2 -44 4t-65 2q-92 0 -149.5 -62.5t-57.5 -187.5z" />
<glyph unicode="&#x430;" horiz-adv-x="808" d="M49 248q0 94 37 155.5t90 98.5t112.5 53t106.5 20q16 2 30 3h28q39 0 67 -7v117q0 70 -16.5 106.5t-81.5 36.5q-53 0 -111.5 -17t-103.5 -36q-37 -16 -60 -16q-14 16 -20 39.5t-10 42.5q-2 6 -2 22q0 10 4 23q33 31 116.5 62.5t186.5 35.5h35q10 0 37 -2 q115 -8 157.5 -81t42.5 -204v-92q0 -106 -2 -219t-2 -194q-2 -29 4 -52q4 -18 16.5 -32.5t37.5 -10.5q-2 -23 -3 -44v-31q-12 -16 -39.5 -30.5t-68.5 -17.5q-37 0 -72 26t-51 48q-10 -10 -26.5 -23.5t-32.5 -23.5q-35 -16 -72 -21.5t-78 -5.5q-49 0 -95 15.5t-82 49.5 t-57.5 84t-21.5 122zM229 264q0 -78 31 -109.5t78 -35.5h14q47 0 91 18.5t67 44.5q2 4 3 11.5t3 17.5q4 18 4 42v56v146q-10 2 -20 2h-21q-18 0 -34.5 -1t-32.5 -3q-37 -6 -70 -18.5t-58.5 -34t-40 -54.5t-14.5 -82z" />
<glyph unicode="&#x431;" horiz-adv-x="886" d="M55 582q2 172 34 311t106 246q37 53 96 76.5t123 33.5q68 10 131 24.5t86 29.5q12 -23 16 -64q-6 -59 -47 -94q-23 -20 -71 -36.5t-107 -25.5q-31 -4 -58.5 -17t-44.5 -42q-68 -115 -90 -266q-12 -96 -12 -197q0 -96 11.5 -174t37 -132t67.5 -83t101 -29q111 0 170.5 83 t59.5 220q0 111 -42 170.5t-108 75.5q-12 2 -24.5 3t-24.5 1q-25 0 -49.5 -4t-42.5 -8q-2 10 -2 23v24q0 29 7 56.5t34 37.5q18 8 44.5 14.5t61.5 6.5q8 0 16.5 -1t18.5 -1q68 -8 119 -41t86 -83t52 -114.5t17 -138.5q0 -102 -25.5 -187t-75.5 -145.5t-125 -94.5t-173 -34 q-104 0 -175 33t-114 102.5t-62.5 179t-21.5 261.5z" />
<glyph unicode="&#x432;" horiz-adv-x="743" d="M121 2v940v15q0 7 2 18l2 12l12 6q14 6 45 6q16 2 61.5 6.5t100.5 4.5q145 0 221 -70q70 -63 70 -172q0 -139 -80 -203q-2 0 -3 -2t-5 -2q8 -6 16 -8q20 -12 42 -30.5t40.5 -45t30.5 -63.5t12 -86q0 -164 -100 -258q-92 -82 -244 -82q-57 2 -102 4t-101 8zM272 115 q8 -2 34 -5.5t42 -3.5q72 0 122 52.5t50 167.5q0 20 -2 30q-10 80 -56 109t-118 29h-39q-23 0 -33 -5v-374zM272 586q10 2 37 2t49 2q10 0 22.5 1t27.5 3q27 14 49 52t22 102q0 16 -2 24q-6 61 -44 89t-95 28q-12 0 -35.5 -2t-30.5 -2v-299z" />
<glyph unicode="&#x433;" horiz-adv-x="757" d="M111 78v819q0 18 4 38.5t10 33.5q4 12 10 19t12 13l7 7q27 -2 51 -3t51 -1h424v-23q0 -18 -3 -38.5t-7 -43.5h-2q-4 -20 -18.5 -30.5t-28.5 -14.5h-3h-333v-637q0 -59 1 -104t3 -80v-13l-8 -6q-18 -16 -45 -19t-89 -3h-14l-6 12q-16 29 -16 74z" />
<glyph unicode="&#x434;" horiz-adv-x="995" d="M125 152h61q68 35 86 94q61 184 62 514v227l315 35h2q49 4 84 -29q35 -31 35 -82v-759h102v-318l-100 -22h2q-16 -6 -35 6q-6 6 -11 15t-5 20v147h-447v-141q0 -23 -18 -37q-16 -14 -39 -10l-94 22v318zM371 127h254v717q0 20 -14.5 32.5t-35.5 12.5l-96 -19v-172 q0 -152 -18.5 -276.5t-52.5 -226.5q-4 -20 -14.5 -37t-22.5 -31z" />
<glyph unicode="&#x435;" horiz-adv-x="815" d="M66 444q0 147 29.5 251t81.5 168.5t125 94t157 29.5q139 0 210.5 -78t86.5 -211q2 -23 3 -47t1 -51q0 -33 -3 -64.5t-9 -56.5q-16 -12 -59.5 -26.5t-84.5 -20.5q-47 -6 -120.5 -9t-145.5 -3h-46q-22 0 -46 2q0 -84 18.5 -141.5t50 -92t75.5 -49t97 -14.5q66 0 122.5 11 t105.5 38q4 -14 7 -38.5t5 -43.5q-2 -31 -39 -59.5t-80 -38.5q-23 -6 -65.5 -13.5t-89.5 -7.5q-72 0 -146 19.5t-133 79.5q-108 112 -108 372zM250 549h78q59 0 116.5 1t85.5 5q14 2 25.5 4t22.5 8q10 27 10 68q0 12 -1 23.5t-1 21.5q-8 86 -43 130t-105 44q-12 0 -18 -2 q-61 -10 -111.5 -81.5t-58.5 -221.5z" />
<glyph unicode="&#x436;" horiz-adv-x="1085" d="M20 33v6l7 6q14 14 36.5 56t51.5 96q25 43 50 91t54 94t58.5 89t60.5 76q-61 82 -128 173t-118 161q-16 18 -26 39q-4 10 -9.5 19t-5.5 19q0 12 12.5 24.5t42.5 14.5h23h31h35l6 -2l4 -6q51 -68 102 -141.5t103 -145.5l24 -32q10 -16 22.5 -34t24.5 -34v168 q0 59 -1 106.5t-3 86.5v8l8 6q8 8 34 14t97 6h13l4 -10q10 -16 12 -38.5t2 -59.5v-287q10 16 23.5 33.5t23.5 34.5q12 16 23 32q53 72 104 146t101 141l6 6l6 2h33h32h23q29 -2 41 -14t12 -25q0 -18 -12 -38t-27 -39q-20 -29 -49 -69t-62.5 -84t-68.5 -91t-68 -90 q31 -33 62 -76t58.5 -89t54 -94t49.5 -91q29 -53 52 -95.5t38 -56.5l6 -6v-6q0 -16 -7 -23.5t-20 -11.5q-25 -10 -65 -10h-23q-47 4 -72.5 44t-39.5 74q-29 63 -77 144.5t-104 146.5q-10 10 -24 26.5t-29 29.5v-244v-117l2 -72l-4 -4q-12 -16 -43 -20t-90 -4h-10l-4 8 q-10 16 -13.5 34.5t-3.5 37.5v381q-14 -12 -28.5 -28.5t-24.5 -27.5q-55 -66 -103.5 -146.5t-76.5 -144.5q-8 -18 -17.5 -37.5t-22.5 -37t-30.5 -29.5t-42.5 -14h-22q-41 0 -66 10q-12 4 -19.5 11.5t-7.5 23.5z" />
<glyph unicode="&#x437;" horiz-adv-x="745" d="M91 84q1 29 5 53q2 14 13.5 22.5t25.5 -1.5q16 -10 33.5 -16.5t34.5 -10.5q33 -6 67 -6q49 0 90 14q63 25 91 83.5t20 123.5q-6 41 -35.5 64.5t-68.5 33.5q-35 6 -68 7q-20 0 -39.5 -1t-40.5 -1q-4 12 -5 24t-5 25q4 18 11 37.5t18 35.5l6 2q31 12 65.5 30t62 43.5t43 57 t7.5 70.5q-6 23 -20.5 35t-34 17t-41 4t-39.5 -3q-57 -10 -103 -36q-16 -10 -32.5 -16.5t-30.5 13.5q-12 20 -15.5 44t-3.5 47l2 4q10 20 26.5 34.5t33.5 24.5q51 29 111.5 39t119.5 6q47 -4 91 -20.5t75 -53.5q27 -31 37 -67.5t10 -75.5q-4 -66 -36.5 -118t-82.5 -93 q68 -23 112 -76t52 -125q6 -57 -5 -115.5t-42 -107.5q-29 -47 -73 -82t-97 -53q-76 -29 -153 -29q-49 0 -95 13q-23 4 -46 15t-38 34q-14 22 -13 51z" />
<glyph unicode="&#x438;" horiz-adv-x="927" d="M119 983v23h22q57 0 79 -2.5t44 -16.5l6 -4l2 -6q8 -18 12.5 -38.5t4.5 -49.5v-357q0 -43 -1 -91t-3 -93q18 41 39.5 84t44.5 86l49 88l37 66l41 73q88 150 133 236l4 6l4 4q33 14 55 15h16q13 0 31.5 -2.5t36 -4.5t27.5 -8l8 -4l2 -8q2 -4 2 -10v-11q0 -8 -16 -30v-615 v-159q0 -74 2 -140v-22h-23q-59 0 -84.5 4t-44.5 22q-10 14 -14 39t-4 54v344q2 111 6 202q-4 -6 -7 -13t-5 -11q-4 -6 -4 -10q-16 -35 -33 -71t-33 -69l-61 -110l-78 -137q-35 -59 -68 -118t-61 -112l-4 -6l-9 -4q-16 -6 -39.5 -7t-27.5 -1q-23 0 -43.5 10t-30.5 16l-10 6 v664q0 84 -1 157.5t-3 141.5z" />
<glyph unicode="&#x439;" horiz-adv-x="927" d="M119 983v23h22q57 0 79 -2.5t44 -16.5l6 -4l2 -6q8 -18 12.5 -38.5t4.5 -49.5v-357q0 -43 -1 -91t-3 -93q18 41 39.5 84t44.5 86l49 88l37 66l41 73q88 150 133 236l4 6l4 4q33 14 55 15h16q13 0 31.5 -2.5t36 -4.5t27.5 -8l8 -4l2 -8q2 -4 2 -10v-11q0 -8 -16 -30v-615 v-159q0 -74 2 -140v-22h-23q-59 0 -84.5 4t-44.5 22q-10 14 -14 39t-4 54v344q2 111 6 202q-4 -6 -7 -13t-5 -11q-4 -6 -4 -10q-16 -35 -33 -71t-33 -69l-61 -110l-78 -137q-35 -59 -68 -118t-61 -112l-4 -6l-9 -4q-16 -6 -39.5 -7t-27.5 -1q-23 0 -43.5 10t-30.5 16l-10 6 v664q0 84 -1 157.5t-3 141.5zM178 1411q2 2 9.5 12.5t17.5 21.5t21.5 19.5t21.5 8.5q16 0 24 -21q35 -82 79 -123t116 -41t115 41t77 123q8 20 25 21q10 0 21.5 -8.5t21.5 -19.5t17.5 -21.5t9.5 -12.5q-39 -143 -114 -198.5t-173 -55.5q-98 2 -174 56.5t-115 197.5z" />
<glyph unicode="&#x43a;" horiz-adv-x="733" d="M117 977l8 8q10 8 36.5 14.5t98.5 6.5h14l7 -11q10 -18 12 -40.5t2 -59.5v-274q10 16 21.5 32.5t21.5 28.5l20 29q51 72 102.5 145.5t102.5 140.5l6 7l9 2q8 2 16 2h18h31l25 -2q31 -2 44 -14.5t13 -28.5q0 -14 -14 -39q-6 -10 -13.5 -20.5t-13.5 -20.5 q-51 -70 -117.5 -160t-128.5 -170q31 -33 61.5 -75t58.5 -88t53.5 -94t47.5 -93q29 -51 52.5 -93t38.5 -57l6 -6v-10q0 -16 -8.5 -24.5t-20.5 -12.5t-30.5 -8t-37.5 -4q-14 0 -22 2q-25 2 -43.5 14t-31.5 29.5t-22.5 37t-17.5 38.5q-29 66 -78 146.5t-104 143.5 q-10 10 -21.5 23.5t-23.5 26.5v-234v-117l2 -73l-4 -7q-14 -18 -46 -21t-91 -3h-13l-6 10q-10 16 -13 34.5t-3 37.5v698q0 59 -1 106.5t-1 86.5z" />
<glyph unicode="&#x43b;" horiz-adv-x="1040" d="M29 47v2v4q0 12 4 27.5t6 19.5l4 11l10 4q14 4 28 4h28l20 -2q10 0 24.5 2t24.5 6q18 8 40 51t36 158q12 92 15 201.5t3 212.5q0 72 -1 127t-3 90v10l6 6q16 16 47 20.5t87 4.5h491h23v-25q-2 -51 -3 -113.5t-1 -140.5v-483q0 -70 1 -121t3 -92v-8l-7 -9 q-14 -16 -44.5 -20t-90.5 -4h-16l-6 14q-12 37 -13 82v766h-301q-2 -14 -2 -45t-2 -66q-2 -39 -2 -86q0 -125 -9 -245.5t-36.5 -215t-82 -152.5t-142.5 -58q-53 0 -91 17t-48 46z" />
<glyph unicode="&#x43c;" horiz-adv-x="1056" d="M76 29q10 145 27.5 339.5t35.5 395.5l17 190v-2q0 23 7 33t15 14q6 4 12.5 4.5t12.5 2.5q18 4 44.5 5t49.5 1h14l6 -15q18 -41 54.5 -134t89.5 -251l6 -18l4 -12q2 -6 4 -15l19 -55l8 -29q2 -8 6 -20q2 -6 4 -8q2 -8 4 -15q4 -14 6 -16q4 10 6 17.5t7 17.5l14 41 q16 51 31 84l59 166q20 57 38.5 110t37.5 101q0 2 1 3t1 5q4 6 7 14t13 14l4 4h4q20 4 52 7.5t61 3.5h16l5 -17q4 -16 8 -30.5t6 -40.5q10 -133 21.5 -267.5t21.5 -271.5q12 -104 19.5 -194.5t11.5 -149.5v-8l-4 -6q-12 -20 -45 -25.5t-95 -5.5h-12l-6 10q-10 16 -14.5 32.5 t-6.5 39.5l-6 80l-6 71l-8 107l-2 45l-4 37q-2 31 -3 68.5t-1 76.5l-2 51v11q-16 -53 -33 -103.5t-31 -85.5q-20 -53 -39.5 -109.5t-40.5 -111.5l-20 -55v2q-10 -37 -49 -45q-35 -6 -70 -6h-16l-4 16l-74 221l-39 113q-4 10 -14.5 47t-26.5 82l-6 24q-2 -6 -2 -13v-13v-13 v-79q0 -39 -4 -68q-20 -209 -31 -336q0 -4 -1 -7t-1 -7q-4 -16 -6 -28.5t-8 -26.5l-3 -5l-4 -2q-23 -18 -61 -18q-14 0 -30.5 1t-37.5 5q-24 5 -24 25z" />
<glyph unicode="&#x43d;" horiz-adv-x="890" d="M119 -6v22q0 53 1 116t1 140v480q0 70 -1 123t-1 92v10l6 6q16 16 47 20.5t84 4.5h12l8 -11q10 -16 14.5 -38.5t4.5 -63.5v-291h301v283q0 59 16 92q12 20 45 24.5t93 4.5h22l-2 -23q0 -53 -1 -115.5t-1 -140.5v-481q0 -72 1 -123t1 -92v-8l-4 -7q-16 -16 -47 -20t-90 -4 h-15l-6 14q-12 37 -12 82v369q-23 -2 -54.5 -3t-80.5 -1h-166v-346q0 -27 -4 -48.5t-21 -42.5q-14 -16 -39.5 -20t-89.5 -4h-22z" />
<glyph unicode="&#x43e;" horiz-adv-x="907" d="M57 475q0 131 30 228.5t83 160t127 93t162 30.5q389 0 389 -500q0 -129 -30 -225t-83 -160.5t-124.5 -97.5t-157.5 -33q-190 0 -293 119t-103 385zM248 483q0 -106 15.5 -179t43 -117t66.5 -63.5t84 -19.5q41 0 77.5 19.5t64.5 63.5t44 116t16 178q0 201 -55 285t-147 84 h-4q-41 0 -78 -19.5t-65.5 -63.5t-45 -114t-16.5 -170z" />
<glyph unicode="&#x43f;" horiz-adv-x="925" d="M104 963v8q0 6 2 10l3 8l8 4q8 6 26.5 9.5t37 4.5t32.5 2t16 1h549h23v-23v-62q0 -32 -2 -67q0 -41 -1 -83t-1 -89v-651v-12l-9 -7q-12 -8 -32.5 -17t-42.5 -9q-4 0 -27.5 1t-40.5 7l-14 6v16q2 66 2 141v156v539h-344v-741q0 -29 -3 -50.5t-16 -37.5q-16 -25 -43.5 -29 t-85.5 -4h-22v22q2 66 3 139.5t1 159.5v615q-19 21 -19 33z" />
<glyph unicode="&#x440;" horiz-adv-x="937" d="M98 899q6 10 27 21l53 26q4 0 6 1t4 1h5q29 0 44 -17.5t21 -43.5q37 31 72 50t69 30q33 10 60.5 16t62.5 6q74 0 137.5 -24.5t111.5 -77.5t75.5 -137t27.5 -203q0 -195 -50 -315.5t-128 -184.5q-55 -45 -111.5 -60.5t-103.5 -15.5q-59 0 -107 16.5t-75 37.5v-340v-46 q0 -22 -4 -42q-10 -8 -40 -13.5t-65 -5.5q-37 0 -63 6q-4 27 -5 77t-1 128v956q0 49 -6.5 86t-16.5 68zM299 174q23 -29 63.5 -47t88.5 -18q35 0 75.5 18t75.5 65.5t57.5 130.5t22.5 209q0 166 -52 237t-151 71q-53 0 -100 -26t-80 -54v-586z" />
<glyph unicode="&#x441;" horiz-adv-x="753" d="M66 463q0 164 45 266t104 158q59 57 133 78.5t148 21.5q45 0 83.5 -9t67.5 -21.5t46.5 -27t21.5 -24.5q0 -20 -7.5 -49t-19.5 -51h-10q-10 0 -24.5 4t-30.5 8q-59 27 -123 27q-18 0 -29 -2q-96 -8 -158.5 -96.5t-62.5 -272.5q0 -111 22.5 -180.5t59.5 -108.5t84 -53 t96 -14q51 0 97 11t79 28q4 -16 8 -31.5t4 -26.5q-2 -23 -14 -45t-31 -37q-29 -20 -77 -32.5t-103 -12.5q-84 0 -157.5 19.5t-130 73t-89 149.5t-32.5 250z" />
<glyph unicode="&#x442;" horiz-adv-x="745" d="M27 901q0 18 4 39t8 31q4 12 11 20t11 13l7 6h45q27 0 56.5 -1t70.5 -1h467v-23q0 -18 -2.5 -37.5t-8.5 -42.5q-10 -41 -49 -47h-201v-637q0 -59 1.5 -104t3.5 -80v-12l-9 -7q-18 -16 -44.5 -19t-88.5 -3h-12l-6 12q-16 25 -17 74v776h-163q-16 0 -33 1t-31 3l-16 2 l-2 15q-2 10 -2 22z" />
<glyph unicode="&#x443;" horiz-adv-x="800" d="M20 -340q0 16 7 35q2 10 6 20q16 6 34.5 5t39 -1t42 2.5t46.5 12.5q20 10 41.5 44t42 79t37 96t26.5 96q-4 4 -6 5t-4 5q-14 20 -22.5 41t-18.5 54q-4 14 -18.5 61t-35 113.5t-45 145.5t-51 160t-52.5 156.5t-46 135.5q10 27 44 37t114 10q10 0 22.5 -29t18.5 -53 q8 -25 21 -70t29.5 -100t34 -114.5t31.5 -112.5q12 -47 23.5 -93.5t21 -83t15.5 -63.5t8 -33q4 10 11 39t16.5 67t20.5 84t22 93q27 117 54.5 232.5t49.5 211.5q12 10 24.5 14.5t37.5 4.5q16 0 37.5 -1t52.5 -3q10 -20 10 -43q0 -20 -10 -56q-20 -86 -49 -192.5t-64 -224 t-75 -240.5t-81 -238q-43 -109 -83 -181.5t-78.5 -115.5t-75.5 -61.5t-70 -18.5q-72 0 -110 20.5t-46 47.5z" />
<glyph unicode="&#x444;" horiz-adv-x="1456" d="M68 543q0 119 27.5 201.5t74.5 136.5q47 53 112.5 78.5t137.5 11.5q70 -14 127 -54t94 -100v114q0 60 -1 112.5t-2 90t-1 46.5q12 37 51 48t115 11q12 2 15 -33t3 -112v-64q0 -43 -1 -88t-1 -82v-43q37 59 94.5 99t126.5 55q72 14 137.5 -11.5t112.5 -78.5t75 -136 t28 -202q0 -195 -50.5 -316t-128.5 -184q-55 -45 -111 -57.5t-104 -3.5q-59 10 -106 41.5t-74 60.5v-182q0 -55 2 -117q0 -78 -1 -128t-5 -77q-29 -6 -63 -6q-35 0 -65 5t-40 13q-4 20 -4 42v47v178v109q0 56 -2 116q-27 -29 -74 -60.5t-106 -41.5q-47 -8 -103.5 4 t-111.5 57q-78 63 -128 184t-50 316zM260 528q0 -127 22.5 -207.5t57.5 -124.5t76 -56.5t76 -0.5q43 14 80.5 38t68.5 50l2 437q-35 41 -83 76.5t-97 54.5q-31 12 -60 12q-68 0 -105.5 -71t-37.5 -208zM817 664l2 -437q31 -27 70 -50t82 -38q35 -12 74.5 0.5t74.5 56.5 t57.5 124.5t22.5 207.5q0 137 -38 208t-105 71q-29 0 -60 -12q-47 -18 -95 -54t-85 -77z" />
<glyph unicode="&#x445;" horiz-adv-x="862" d="M31 0l18 49q63 102 135 215t148 234q-29 49 -64 106.5t-70.5 115.5t-69.5 112.5t-58 95.5l-7 18q10 6 44 16.5t63 10.5h68q18 -16 37.5 -48t46.5 -75q29 -51 63.5 -112.5t63.5 -108.5q23 39 50 90t56 98q18 31 36.5 59.5t37.5 59.5q14 20 25.5 27.5t43.5 7.5 q23 0 55.5 -4t63.5 -11q-6 -12 -11 -25t-11 -26q-59 -88 -126 -191.5t-130 -201.5q70 -117 144.5 -239.5t145.5 -239.5l11 -25q-16 -6 -48 -9t-67 -5q-39 0 -96 14q-16 27 -35 56.5t-39 64.5q-33 55 -69.5 121.5t-65.5 120.5l-86 -158q-49 -90 -115 -188q-10 -23 -28.5 -27 t-65.5 -4q-23 0 -47 1t-47 5z" />
<glyph unicode="&#x446;" horiz-adv-x="931" d="M119 0v23q2 68 3 142.5t1 158.5v663l8 6q10 6 31.5 16.5t44.5 10.5q4 0 27.5 -1t39.5 -7l15 -6v-17q-2 -53 -2 -115v-129v-272v-317h344v739q0 25 2 51.5t16 42.5q18 18 44 22.5t85 4.5h23v-23q-2 -66 -3 -139.5t-1 -159.5v-536q39 -8 68.5 -21.5t29.5 -44.5 q2 -45 5 -109.5t3 -146.5q0 -10 -5 -21.5t-9 -17.5l-8 -12l-15 2q-74 10 -94 35.5t-22 44.5q-2 35 -3.5 68.5t-3.5 68.5q-16 -2 -29.5 -3t-21.5 -1h-573z" />
<glyph unicode="&#x447;" horiz-adv-x="768" d="M117 631v354l6 6q16 16 43 20.5t92 4.5h14l7 -15q12 -29 12 -75v-408q2 -12 11 -21.5t24 -9.5h30h37q70 0 92 15v401q0 25 6.5 54.5t16.5 39.5q20 14 43.5 16.5t85.5 2.5h22l-2 -23q0 -66 -1 -139.5t-1 -163.5v-500q0 -47 1 -78.5t1 -56.5q0 -8 -2 -12q-18 -35 -55 -42 t-80 -7h-14l-6 12q-8 16 -11.5 38t-3.5 69v237q-29 -10 -73.5 -12t-98.5 -2h-32q-113 0 -146 78q-14 37 -16 91t-2 126z" />
<glyph unicode="&#x448;" horiz-adv-x="1232" d="M119 0v23v129q2 41 2 82v90v663l10 6q10 6 30.5 16.5t45.5 10.5q4 0 27.5 -1t39.5 -7l15 -6v-17q-4 -66 -4 -140v-157v-538h243q2 41 2 83v87v663l11 6q8 6 29.5 16.5t43.5 10.5q4 0 28 -1t40 -7l14 -6v-17q-2 -66 -2 -140v-157v-538h242v741q0 29 4 55.5t14 38.5 q16 20 45 23.5t84 3.5h25l-2 -23q0 -66 -1 -139.5t-1 -159.5v-614q10 -12 13 -18.5t3 -14.5v-8q0 -6 -2 -10l-2 -9l-8 -4q-8 -6 -25.5 -9t-36 -5t-32.5 -2h-17h-878z" />
<glyph unicode="&#x449;" horiz-adv-x="1236" d="M119 0v23v129q2 41 2 82v90v661l10 6q10 6 30.5 16.5t45.5 10.5q4 0 27.5 -1t39.5 -7l15 -6v-15q-4 -66 -4 -140v-159v-538h243q2 41 2 82v90v661l11 6q10 6 30.5 16.5t42.5 10.5q4 0 28 -1t40 -7l14 -6v-15q-2 -66 -2 -140v-159v-538h242v743q0 25 4 52.5t14 39.5 q16 20 45 23.5t86 3.5h23l-2 -23q0 -66 -1 -138.5t-1 -160.5v-536q39 -8 68.5 -20.5t29.5 -41.5q0 -47 2 -109.5t6 -144.5q0 -20 -20 -55l-16 2q-37 4 -59.5 14.5t-35 21.5t-17.5 22.5t-5 21.5q0 35 -2 67.5t-4 67.5q-16 -2 -30 -2h-24h-878z" />
<glyph unicode="&#x44a;" horiz-adv-x="858" d="M43 891q0 18 4 38.5t10 33.5q4 10 10.5 18t10.5 12q4 2 5 4t3 4q39 -2 83 -3t89 1h174v-22q0 -37 -9 -74t-32 -47v-156q29 16 66 26.5t82 10.5q119 0 184 -78q74 -86 74 -245q0 -84 -13.5 -147.5t-35 -109.5t-48 -77t-53.5 -49q-43 -31 -96 -44.5t-107 -13.5 q-63 0 -113 11.5t-85 31.5l-6 4l-2 7q-8 16 -12.5 37.5t-4.5 54.5v731h-92h-34q-15 0 -32 4l-14 2l-4 14q-2 9 -2 21zM391 109q33 -16 88 -17q31 0 59.5 13.5t51 48t36 92t13.5 147.5q0 123 -29.5 171t-101.5 48q-29 0 -60.5 -10t-56.5 -31v-462z" />
<glyph unicode="&#x44b;" horiz-adv-x="1021" d="M115 940v4l2 4q16 39 58 46t79 7h14l6 -14q8 -16 11.5 -41.5t3.5 -77.5v-166q35 16 70.5 26.5t74.5 10.5q59 0 105.5 -20.5t81.5 -56.5q74 -86 73 -248q0 -84 -14 -146.5t-35.5 -108.5t-48.5 -77t-51 -49q-45 -29 -98.5 -44.5t-106.5 -15.5q-61 0 -112.5 11.5t-86.5 31.5 l-4 4l-4 7q-14 35 -14 92v682q0 47 -1 78.5t-3 60.5zM289 111q14 -8 36.5 -13.5t49.5 -5.5q31 0 60.5 14.5t51 48t35 92t13.5 146.5q0 123 -29 171t-100 48q-31 0 -63 -9t-54 -32v-460zM725 948l4 6q14 35 51 41t90 6q20 0 24.5 -17t6.5 -26q2 -12 2 -30v-45v-183l-2 -200 l2 -193v-143q0 -41 1 -69.5t1 -45.5v-22l2 -9l-6 -6q-16 -16 -47 -20t-90 -4q-10 0 -21.5 8t-11.5 41v770q0 80 -2 105.5t-2 29.5z" />
<glyph unicode="&#x44c;" horiz-adv-x="755" d="M115 940v4l2 4q16 39 58 46t79 7h14l6 -14q8 -16 11.5 -41.5t3.5 -77.5v-166q35 16 70.5 26.5t74.5 10.5q59 0 105.5 -20.5t81.5 -56.5q74 -86 73 -248q0 -84 -14 -146.5t-35.5 -108.5t-48.5 -77t-51 -49q-45 -29 -98.5 -44.5t-106.5 -15.5q-61 0 -112.5 11.5t-86.5 31.5 l-4 4l-4 7q-14 35 -14 92v682q0 47 -1 78.5t-3 60.5zM289 111q14 -8 36.5 -13.5t49.5 -5.5q31 0 60.5 14.5t51 48t35 92t13.5 146.5q0 123 -29 171t-100 48q-31 0 -63 -9t-54 -32v-460z" />
<glyph unicode="&#x44d;" horiz-adv-x="978" d="M117 139q0 31 14 54l12 22l21 -16q100 -78 227 -78q66 0 122 21.5t101 61.5t75 96t42 124h-405q-25 0 -50 20q-27 31 -26 82q0 10 2 17l2 20h477q-23 135 -115 219t-225 84q-86 0 -158 -32q-49 -23 -71 -21h-10l-5 8q-31 39 -30 109v12l10 6q121 72 264 72 q106 0 201.5 -40t171.5 -114q74 -74 114 -170t40 -202q0 -109 -41 -204t-113 -167t-168 -113t-205 -41q-94 0 -188 35q-41 16 -63.5 52t-22.5 83z" />
<glyph unicode="&#x44e;" horiz-adv-x="1173" d="M117 950l2 4q14 35 51 41t90 6q27 0 33 -40q2 -14 2 -33v-43v-160q-2 -35 -2 -68v-94h35q12 219 108 334q102 125 285 125q68 0 136.5 -20.5t124.5 -78t92 -158.5t36 -261q0 -254 -98 -389q-102 -145 -299 -146q-193 0 -289 131q-88 115 -96 324h-18q-7 0 -17 2v-82 q0 -27 2 -57v-123v-70q0 -29 2 -45v-29l-6 -6q-14 -16 -44 -21t-91 -5q-10 0 -22.5 8t-12.5 41v176l2 285l-2 172v137q0 59 -1 93t-1 44zM489 485q0 -197 64.5 -291t167.5 -94q106 0 166.5 96.5t60.5 303.5q0 205 -66.5 298t-164.5 93q-102 0 -165 -97.5t-63 -308.5z" />
<glyph unicode="&#x44f;" horiz-adv-x="811" d="M111 45q16 16 38.5 60.5t50 102.5t62.5 123.5t76 125.5q-10 6 -32.5 29.5t-46 60.5t-42 84t-18.5 98q0 70 24.5 122t65.5 86t97 51.5t122 21.5l39 2h74q16 0 38.5 -1t38.5 -3q10 -2 30 -2t28 -2q12 -4 19 -4.5t11 -4.5q2 -8 2 -16v-12q-2 -31 -2 -65v-75v-503 q0 -88 1 -174.5t4 -151.5q-55 0 -102.5 2t-57.5 14q-14 23 -15 58v348h-71q-18 0 -25 -2q-29 -33 -55.5 -74t-49 -83t-42 -83t-33.5 -74q-16 -35 -38.5 -70.5t-63.5 -39.5h-19q-37 8 -61 16q-23 8 -39 16.5t-8 18.5zM387 723q0 -90 28.5 -132t63.5 -56q10 -4 27.5 -5.5 t34.5 -1.5h43q23 0 32 2v357q-12 2 -31.5 3t-47.5 1q-66 0 -108 -39t-42 -129z" />
<glyph unicode="&#x450;" horiz-adv-x="811" d="M66 444q0 -260 108 -372q59 -59 133 -79t146 -20q47 0 90 7.5t65 13.5q43 10 80 38.5t39 59.5q-2 18 -5 43t-7 39q-49 -27 -105.5 -38t-122.5 -11q-53 0 -97 14.5t-75.5 49t-50 92t-18.5 141.5q25 -2 46 -2h46q72 0 145.5 3t120.5 9q41 6 84 20.5t60 26.5q6 25 9 56.5 t3 64.5q0 27 -1 51.5t-3 46.5q-14 133 -86 211t-211 78q-84 0 -157 -29.5t-125 -94t-81.5 -168.5t-29.5 -251zM250 549q8 150 58 221.5t112 81.5q6 2 18 2q70 0 105 -44t43 -130q0 -10 1 -21.5t1 -23.5q0 -41 -10 -68q-10 -6 -21.5 -8t-26.5 -4q-29 -4 -86 -5t-116 -1h-78z M252 1397q0 14 10 31.5t25.5 32t34 23.5t34.5 9q10 0 37 -27.5t59.5 -68.5t66.5 -87t59 -81q2 -6 2 -17q0 -25 -20.5 -48t-43.5 -27q-23 20 -52.5 48.5t-62 61.5t-66.5 64.5t-61 60.5q-18 19 -22 25z" />
<glyph unicode="&#x451;" horiz-adv-x="811" d="M66 444q0 147 29.5 251t81.5 168.5t125 94t157 29.5q139 0 210.5 -78t86.5 -211q2 -23 3 -47t1 -51q0 -33 -3 -64.5t-9 -56.5q-16 -12 -59.5 -26.5t-84.5 -20.5q-47 -6 -120.5 -9t-145.5 -3h-46q-22 0 -46 2q0 -84 18.5 -141.5t50 -92t75.5 -49t97 -14.5q66 0 122.5 11 t105.5 38q4 -14 7 -38.5t5 -43.5q-2 -31 -39 -59.5t-80 -38.5q-23 -6 -65.5 -13.5t-89.5 -7.5q-72 0 -146 19.5t-133 79.5q-108 112 -108 372zM176 1270q0 106 103 106q57 0 73.5 -25.5t14.5 -76.5t-21.5 -83t-79.5 -32q-49 0 -69.5 27t-20.5 84zM250 549h78q59 0 116.5 1 t85.5 5q14 2 25.5 4t22.5 8q10 27 10 68q0 12 -1 23.5t-1 21.5q-8 86 -43 130t-105 44q-12 0 -18 -2q-61 -10 -111.5 -81.5t-58.5 -221.5zM498 1270q0 106 102 106q57 0 73.5 -25.5t14.5 -76.5t-21.5 -83t-78.5 -32q-49 0 -69.5 27t-20.5 84z" />
<glyph unicode="&#x453;" horiz-adv-x="757" d="M111 78v819q0 18 4 38.5t10 33.5q4 12 10 19t12 13l7 7q27 -2 51 -3t51 -1h424v-23q0 -18 -3 -38.5t-7 -43.5h-2q-4 -20 -18.5 -30.5t-28.5 -14.5h-3h-333v-637q0 -59 1 -104t3 -80v-13l-8 -6q-18 -16 -45 -19t-89 -3h-14l-6 12q-16 29 -16 74zM311 1169q12 27 29.5 66 t35 80t35 78t29.5 61q23 10 61 19.5t68 9.5q20 0 27 -6q14 -4 9 -24.5t-19 -49.5l-11 -17q-47 -86 -93 -145t-74 -88q-6 -4 -19.5 -3t-29 4t-29 7t-19.5 8z" />
<glyph unicode="&#x454;" horiz-adv-x="755" d="M68 463q0 164 44 266t105 158q59 57 133 78.5t148 21.5q45 0 84 -9t67.5 -21.5t45 -27t20.5 -24.5q0 -20 -6.5 -49t-18.5 -51h-12q-10 0 -24.5 4t-30.5 8q-59 27 -123 27h-13q-6 0 -16 -2q-86 -8 -143.5 -76t-73.5 -209h350q4 -55 -3 -94t-44 -39l-305 -2 q6 -94 29.5 -153.5t59.5 -93.5t81 -46t92 -12q49 0 96 11t80 28q4 -16 7 -31.5t3 -26.5q0 -23 -13 -45t-30 -37q-29 -20 -78 -32.5t-102 -12.5q-84 0 -157.5 19.5t-130 73t-89 149.5t-32.5 250z" />
<glyph unicode="&#x455;" horiz-adv-x="643" d="M57 78q0 23 9.5 50.5t21.5 45.5l14 23l19 -19q29 -25 70.5 -38t89.5 -13q59 0 92 31.5t33 91.5q0 41 -18.5 74.5t-68.5 78.5v3h-2q-18 25 -53 55l-18 20l-19 17q-29 27 -51 49t-41 47q-68 86 -67 180q0 106 65 172q74 78 217 78q86 0 139.5 -22.5t69.5 -47.5l2 -6v-6 q0 -43 -24 -82l-2 -2l-5 -4q-16 -8 -28 -8q-18 0 -35 10q-10 4 -38 13.5t-67 9.5q-16 0 -36.5 -3.5t-38 -13.5t-29.5 -29.5t-12 -50.5v-18q4 -20 15 -41t34 -45q23 -25 49.5 -50.5t54.5 -54.5l7 -4l6 -6q23 -23 43 -41t39 -39q49 -51 70.5 -103t21.5 -120q0 -131 -78 -209 q-80 -80 -223 -80q-78 0 -129.5 18.5t-73.5 39.5q-25 22 -25 49z" />
<glyph unicode="&#x456;" horiz-adv-x="413" d="M106 1315q0 115 109 115q61 0 78.5 -28t15.5 -83q-2 -53 -22.5 -88t-83.5 -35q-53 0 -75 29t-22 90zM113 918q16 33 60 41t108 8q10 -23 13 -51.5t3 -94.5v-696q0 -70 -25 -109q-10 -16 -40.5 -18t-116.5 -4q0 78 1 167t1 183v363q0 72 -1 121t-3 90z" />
<glyph unicode="&#x457;" horiz-adv-x="413" d="M-45 1270q0 106 102 106q57 0 73.5 -25.5t14.5 -76.5t-21.5 -83t-78.5 -32q-49 0 -69.5 27t-20.5 84zM113 918q16 33 60 41t108 8q10 -23 13 -51.5t3 -94.5v-696q0 -70 -25 -109q-10 -16 -40.5 -18t-116.5 -4q0 78 1 167t1 183v363q0 72 -1 121t-3 90zM276 1270 q0 106 103 106q57 0 73.5 -25.5t14.5 -76.5t-21.5 -83t-78.5 -32q-49 0 -70 27t-21 84z" />
<glyph unicode="&#x2000;" horiz-adv-x="935" />
<glyph unicode="&#x2001;" horiz-adv-x="1873" />
<glyph unicode="&#x2002;" horiz-adv-x="935" />
<glyph unicode="&#x2003;" horiz-adv-x="1873" />
<glyph unicode="&#x2004;" horiz-adv-x="624" />
<glyph unicode="&#x2005;" horiz-adv-x="466" />
<glyph unicode="&#x2006;" horiz-adv-x="311" />
<glyph unicode="&#x2007;" horiz-adv-x="311" />
<glyph unicode="&#x2008;" horiz-adv-x="233" />
<glyph unicode="&#x2009;" horiz-adv-x="374" />
<glyph unicode="&#x200a;" horiz-adv-x="102" />
<glyph unicode="&#x2010;" horiz-adv-x="598" d="M72 444q14 141 53 142q86 8 184.5 19t169.5 22q23 -4 45 -15q-4 -57 -21.5 -98t-51.5 -45q-35 -6 -78 -11t-87 -10.5t-87 -8.5t-80 -3q-12 0 -23.5 2t-23.5 6z" />
<glyph unicode="&#x2011;" horiz-adv-x="598" d="M72 444q14 141 53 142q86 8 184.5 19t169.5 22q23 -4 45 -15q-4 -57 -21.5 -98t-51.5 -45q-35 -6 -78 -11t-87 -10.5t-87 -8.5t-80 -3q-12 0 -23.5 2t-23.5 6z" />
<glyph unicode="&#x2012;" horiz-adv-x="598" d="M72 444q14 141 53 142q86 8 184.5 19t169.5 22q23 -4 45 -15q-4 -57 -21.5 -98t-51.5 -45q-35 -6 -78 -11t-87 -10.5t-87 -8.5t-80 -3q-12 0 -23.5 2t-23.5 6z" />
<glyph unicode="&#x2013;" horiz-adv-x="999" d="M33 487v29q2 76 28.5 106.5t67.5 30.5h782q2 -27 1 -47t-1 -22q-6 -84 -28.5 -115t-63.5 -31h-784q-2 24 -2 49z" />
<glyph unicode="&#x2014;" horiz-adv-x="1673" d="M55 463q0 49 3 74.5t18 35.5q31 20 68.5 27.5t76.5 7.5h1397q-2 -47 -5 -72.5t-18 -35.5q-31 -25 -65.5 -31t-71.5 -6h-1403z" />
<glyph unicode="&#x2018;" horiz-adv-x="382" d="M68 1153q0 16 2 27q2 39 14 81t28.5 78.5t37 68.5t38.5 54q37 37 72 37q33 0 53 -22q-35 -61 -53 -130t-20 -139q12 -4 14 -12q6 -18 8 -37.5t6 -40.5q-10 -31 -38.5 -52.5t-67.5 -21.5q-20 0 -31 3q-33 4 -48 33.5t-15 72.5z" />
<glyph unicode="&#x2019;" horiz-adv-x="382" d="M68 1057q35 63 53 133t20 137q-12 4 -14 12q-6 16 -8 37t-6 41q12 31 43.5 53.5t68.5 22.5q12 0 25 -4q35 -4 49 -34t14 -75q0 -16 -2 -24q-4 -41 -15 -82t-27.5 -79t-37 -69.5t-38.5 -52.5q-31 -33 -64 -39q-16 0 -33.5 5.5t-27.5 17.5z" />
<glyph unicode="&#x201a;" horiz-adv-x="360" d="M31 -201q41 66 62.5 136.5t23.5 136.5q-12 4 -15 12q-10 41 -14 84q12 29 44 52.5t71 23.5q10 0 26 -4q35 -6 49.5 -39t14.5 -76q0 -47 -14.5 -97.5t-37 -95.5t-49 -81.5t-51.5 -55.5q-8 -4 -14 -8t-14 -6q-6 -2 -21 -2q-34 0 -61 20z" />
<glyph unicode="&#x201c;" horiz-adv-x="700" d="M68 1153q0 16 2 27q2 39 14 81t28.5 78.5t37 68.5t38.5 54q37 37 72 37q33 0 53 -22q-35 -61 -53 -130t-20 -139q12 -4 14 -12q6 -18 8 -37.5t6 -40.5q-10 -31 -38.5 -52.5t-67.5 -21.5q-20 0 -31 3q-33 4 -48 33.5t-15 72.5zM387 1155q0 16 2 25q2 39 13.5 81t27.5 78.5 t36.5 68.5t39.5 54q33 37 74 37q33 0 53 -22q-35 -61 -53.5 -130t-20.5 -137q6 -4 14 -12q10 -35 15 -80q-10 -31 -39 -52.5t-68 -21.5q-20 0 -30 3q-33 4 -48.5 33.5t-15.5 74.5z" />
<glyph unicode="&#x201d;" horiz-adv-x="700" d="M68 1057q35 63 53 133t20 137q-12 4 -14 12q-6 16 -8 37t-6 41q12 31 43.5 53.5t68.5 22.5q12 0 25 -4q35 -4 49 -34t14 -75q0 -16 -2 -24q-4 -41 -15 -82t-27.5 -78t-37 -69.5t-38.5 -53.5q-31 -33 -64 -39q-16 0 -33.5 5.5t-27.5 17.5zM387 1057q35 63 52.5 133 t19.5 137q-8 2 -15 12q-4 16 -6 37t-6 41q8 29 32.5 48.5t59.5 23.5q8 2 25 2q14 0 20 -2q33 -4 48.5 -34t15.5 -75q0 -16 -2 -24q-4 -41 -15.5 -82t-28 -79t-37 -69.5t-38.5 -52.5q-31 -33 -63 -39q-16 0 -34 5.5t-28 17.5z" />
<glyph unicode="&#x201e;" horiz-adv-x="679" d="M35 -199q41 66 60.5 135.5t21.5 135.5q-6 4 -15 12q-4 23 -8 43t-6 41q12 29 44 52.5t71 23.5q8 0 24 -4q35 -6 50.5 -39t15.5 -74q0 -47 -14.5 -97t-37 -95.5t-48 -82t-50.5 -55.5q-8 -4 -14 -8t-14 -6q-6 -2 -21 -2q-32 0 -59 20zM354 -199q78 135 82 271 q-25 14 -24 51q0 37 13 63.5t34 34.5q4 2 9 4t11 6q25 8 56 9q41 0 59 -35t18 -78q0 -47 -14 -97t-36.5 -95.5t-49.5 -82t-51 -55.5q-23 -16 -47 -16q-33 0 -60 20z" />
<glyph unicode="&#x2020;" horiz-adv-x="1024" d="M82 688q4 78 29 135q8 12 18 13h285v358q0 14 16 18l21 5q29 4 62.5 10t59.5 6q12 0 19 -10q8 -14 9 -31.5t1 -40.5q-2 -43 -2 -85v-83q0 -37 -1 -74t-1 -73h330q8 0 16 -9q4 -8 4 -12v-6l-4 -23q-10 -35 -16 -58t-15 -44q-4 -14 -18 -14q-25 0 -61.5 -1t-78.5 -1h-83 h-74v-181v-202q0 -104 -1 -209t-3 -201q0 -6 -2 -10q-23 -45 -59.5 -82t-73.5 -37q-16 0 -19 12q-12 33 -18 94.5t-8 116.5q-2 137 -2 251v206v84q0 41 2 78v80h-312q-8 0 -14 6t-6 14z" />
<glyph unicode="&#x2021;" horiz-adv-x="1024" d="M84 258q0 41 9 74t20 61q4 4 7 8.5t13 4.5h281v264l-310 2q-12 0 -14 6q-6 2 -6 14q0 39 9 73t20 62l7 8q3 3 13 3h281v336q0 10 20 16q6 2 12.5 3t16.5 3q29 4 57.5 9t50.5 5q12 0 21 -8q6 -16 10 -33.5t4 -44.5q0 -72 -3 -143.5t-3 -142.5h330q14 0 14 -9q6 -2 6 -12 v-4l-6 -25q-6 -35 -12 -57t-17 -45q0 -14 -16 -14h-64q-38 0 -79 -1t-82 -1h-74v-264h330q14 0 14 -7q6 -6 6 -14v-6l-6 -23q-12 -66 -29 -100q0 -14 -16 -14q-27 0 -64.5 -1t-78.5 -1h-82h-74q0 -92 -1 -189.5t-5 -195.5q0 -8 -2 -9q-23 -57 -56.5 -88.5t-72.5 -31.5 q-10 0 -21 14q-6 23 -14 75t-8 117q-4 76 -5 157t-1 151h-310q-10 0 -14 4q-6 4 -6 14z" />
<glyph unicode="&#x2022;" horiz-adv-x="505" d="M98 537q0 82 40 123.5t128 41.5q96 0 124 -40.5t26 -118.5q-2 -39 -9.5 -71t-26 -55.5t-51 -36.5t-81.5 -13q-84 0 -117 41t-33 129z" />
<glyph unicode="&#x2026;" horiz-adv-x="1325" d="M115 102q0 119 121 119q70 0 89 -28.5t17 -86.5q-2 -55 -25.5 -90.5t-95.5 -35.5q-59 0 -82.5 29.5t-23.5 92.5zM549 102q0 119 121 119q70 0 89 -28.5t17 -86.5q-2 -55 -25.5 -90.5t-95.5 -35.5q-59 0 -82.5 29.5t-23.5 92.5zM993 102q0 119 121 119q70 0 89.5 -28.5 t17.5 -86.5q-2 -55 -26 -90.5t-95 -35.5q-59 0 -83 29.5t-24 92.5z" />
<glyph unicode="&#x202f;" horiz-adv-x="374" />
<glyph unicode="&#x2030;" horiz-adv-x="2025" d="M90 987q0 76 17.5 142.5t53.5 113.5t89 75t125 28h2q61 0 110.5 -17.5t85 -58.5t55 -109.5t19.5 -169.5q0 -164 -69.5 -263t-210.5 -99q-63 0 -114.5 17.5t-87.5 58t-55.5 110.5t-19.5 172zM240 985q0 -125 32.5 -182.5t96.5 -57.5q59 0 96 59.5t37 186.5 q0 131 -34 185.5t-93 54.5h-2q-59 0 -96 -60.5t-37 -185.5zM244 4q25 47 81 142.5t127.5 216t154.5 258t164 270.5t151.5 249.5t119.5 198.5q20 35 29 35q8 0 35 -16q18 -12 30.5 -24.5t16.5 -28.5q-23 -39 -72 -123t-115.5 -196t-144.5 -244t-158.5 -265t-157.5 -259 t-140 -228q-29 -49 -43 -49q-2 0 -14.5 6t-27 15t-25.5 20.5t-11 21.5zM778 332q0 78 18.5 144.5t54.5 114.5t89 75.5t125 27.5h2q61 0 110.5 -18.5t85 -60.5t54 -110.5t18.5 -168.5q0 -164 -69.5 -261.5t-208.5 -97.5q-61 0 -112.5 16.5t-88.5 56.5t-57.5 109t-20.5 173z M926 330q0 -125 32.5 -182.5t98.5 -57.5q59 0 96 58.5t37 185.5q0 133 -33 187t-96 54t-99 -61t-36 -184zM1397 330q0 78 18.5 144.5t54 114.5t90 75.5t126.5 27.5q61 0 110 -18.5t85 -60.5t54.5 -110.5t18.5 -168.5q0 -164 -69.5 -261.5t-207.5 -97.5q-61 0 -113.5 16.5 t-89 56.5t-57 109t-20.5 173zM1546 330q0 -125 33 -182.5t98 -57.5q59 0 95 58.5t36 185.5q0 133 -32.5 187t-96.5 54q-61 0 -97 -61t-36 -184z" />
<glyph unicode="&#x2039;" horiz-adv-x="567" d="M68 494q25 35 70.5 100t97 137t95.5 135.5t64 91.5q16 -2 31.5 -13t28 -25.5t19.5 -27.5t7 -22q0 -16 -16 -50t-41 -74.5t-54.5 -84t-56 -80t-47 -63t-24.5 -33.5q4 -6 23.5 -32.5t46 -63.5t55 -81t53 -84t40 -72.5t15.5 -49.5q0 -8 -7 -22t-18.5 -28.5t-26.5 -27 t-34 -14.5q-18 29 -55 81t-80 112.5t-87 122t-79 110.5q-20 38 -20 58z" />
<glyph unicode="&#x203a;" horiz-adv-x="567" d="M82 104q0 16 16.5 49t42 74t55 83t56.5 79t46 63.5t24 32.5q-4 6 -23.5 33t-44.5 65t-53.5 82t-53 85t-40 74.5t-15.5 49.5t11.5 31t26.5 26t29.5 18t20.5 9q18 -29 54 -81t79 -112t87 -121.5t79 -111.5q18 -35 19 -57q-23 -35 -69 -100.5t-97 -136t-97.5 -134 t-66.5 -92.5q-4 2 -18.5 8.5t-30 18.5t-26.5 28.5t-11 36.5z" />
<glyph unicode="&#x2044;" horiz-adv-x="1030" d="M70 -18q25 47 79 142t125.5 216t152.5 257t159 269t147.5 251t118.5 200q20 37 29 37q8 0 34 -17q18 -10 32 -24.5t18 -34.5q-20 -39 -69.5 -122t-114 -194.5t-142.5 -242.5t-157 -264t-153.5 -260t-135.5 -230q-31 -51 -41 -51q-4 0 -7 2q-4 4 -16 11t-24.5 15.5 t-22.5 19t-12 20.5z" />
<glyph unicode="&#x205f;" horiz-adv-x="466" />
<glyph unicode="&#x20ac;" horiz-adv-x="952" d="M-6 509q2 38 12 48q16 10 47 14l19 2q-2 16 -2 34v36v51q0 25 4 49l-78 -8q-4 39 -2 77t12 48q16 10 47 14l35 5q37 223 158 352q84 90 182 122.5t203 32.5q63 0 112.5 -11t84 -26.5t56 -33t27.5 -31.5q0 -35 -8 -60.5t-20 -41.5h-9q-10 -2 -24 4t-33 14q-74 33 -162 33 h-21q-11 0 -22 -2q-109 -10 -196.5 -88t-126.5 -244l479 49q4 -55 -3 -94t-44 -43l-455 -47q-2 -27 -3 -53.5t-1 -55.5v-31q0 -15 2 -30l369 37q4 -55 -3 -94t-44 -43l-307 -33q33 -168 125 -248t235 -80q74 0 142.5 18.5t103.5 41.5q12 -23 16 -64q-6 -59 -47 -94 q-29 -25 -94.5 -45.5t-149.5 -20.5q-106 0 -194 23.5t-155.5 79t-114 145.5t-64.5 223l-86 -8q-4 39 -2 77z" />
<glyph unicode="&#x2122;" horiz-adv-x="978" d="M59 1286v23q2 10 3 17t4 15q2 8 6 11.5t8 3.5h8h346q0 -25 -6 -49q-4 -12 -11 -16.5t-11 -6.5h-117v-309q0 -31 1 -56.5t1 -48.5q-10 -8 -23.5 -9t-54.5 -1q-6 14 -6 37v387h-113h-18q-9 0 -17 2zM455 862q6 98 16 213t21 228v18q0 8 -3 16v11q2 4 23 8q16 0 32.5 1 t26.5 1q8 -14 15.5 -31.5t19.5 -48.5q10 -31 22.5 -61.5t22.5 -61.5q8 -23 17.5 -51.5t13.5 -36.5q4 6 12 34.5t19 51.5q18 47 37.5 95t35.5 93q0 10 11 13q6 0 12 2q16 0 32.5 1t28.5 1q4 -10 4 -37q4 -70 7.5 -137.5t7.5 -136.5q8 -98 12 -177q-6 -8 -22.5 -10t-57.5 -2 q-8 16 -8 37q-2 33 -2 64.5t-2 66.5q-2 20 -1 46t1 52v52q0 25 -2 43q-10 -31 -22.5 -67t-20.5 -56q-14 -37 -28.5 -77t-30.5 -81q-16 -6 -21 -6h-35q-10 31 -27.5 77t-33.5 89q-6 16 -17.5 51t-21.5 63q0 -8 1 -39.5t1 -66.5q0 -57 -5 -107.5t-9 -99.5q0 -18 -7 -33 q-12 -6 -28 -6q-8 0 -19.5 1t-27.5 1z" />
<glyph unicode="&#x2126;" horiz-adv-x="1370" d="M106 2q10 76 22.5 112t35.5 36h213v10q-43 41 -81 94t-67.5 117.5t-47 143.5t-17.5 173q0 354 135 533.5t391 179.5q131 0 228.5 -47t161 -136.5t94 -219.5t30.5 -293q0 -96 -17.5 -178.5t-48 -150t-70.5 -120.5t-83 -96v-10h234q23 -4 45 -15q-4 -53 -21.5 -91 t-52.5 -42h-418l-10 141q117 29 182.5 164t65.5 391q0 145 -24.5 250t-69 171.5t-103.5 98t-129 31.5h-2q-143 0 -231.5 -138t-88.5 -435q0 -231 66 -362.5t174 -166.5l-8 -145h-488z" />
<glyph unicode="&#x2206;" horiz-adv-x="1173" d="M72 110.5q-6 30.5 4 63.5q84 274 177 552t196 558q16 43 52 69.5t83 26.5l114 -10q117 -330 228.5 -671t212.5 -670q4 -10 -3.5 -19.5t-17.5 -9.5h-911q-35 0 -63.5 15.5t-47 40t-24.5 55zM281 225q-10 -33 9 -59.5t54 -26.5h545q14 0 10 15l-295 948q-2 6 -6 22.5t-8 36 t-7 38t-3 30.5q0 -12 -3 -32l-7 -39q-3 -19 -7 -34.5t-6 -21.5z" />
<glyph unicode="&#x2211;" horiz-adv-x="784" d="M78 1325q16 4 42.5 16.5t61.5 14.5h537q-4 -74 -13.5 -100.5t-31.5 -36.5q-37 -6 -83 -7.5t-106 -1.5h-223l389 -483l-389 -582q14 -2 41 -3t56.5 -2t60.5 -1h55h135q72 0 133 4l2 -2q-8 -78 -22 -106.5t-45 -36.5q-41 -2 -119 -3t-164 -1q-96 0 -173 3t-126 7 q-4 23 -7 42.5t-7 41.5v57l389 582l-391 485v57q0 27 -2 56z" />
<glyph unicode="&#x2212;" horiz-adv-x="1021" d="M98 473q2 72 11.5 105.5t37.5 33.5h777q-2 -70 -10.5 -104.5t-41.5 -34.5h-774z" />
<glyph unicode="&#x221a;" horiz-adv-x="1095" d="M39 1085q12 4 28.5 5.5t34.5 5.5q49 6 92.5 -20.5t63.5 -74.5l309 -692q10 -23 17.5 -58.5t17.5 -51.5q0 29 1 62.5t5 60.5l123 1058h371q2 -20 2 -24v-6q-4 -63 -20.5 -87t-49.5 -24h-170l-162 -1237l-110 -12q-35 -4 -61.5 20.5t-41.5 52.5q-117 242 -231.5 499 t-218.5 523z" />
<glyph unicode="&#x221e;" horiz-adv-x="1564" d="M102 502q0 90 34 151.5t86 99.5t116.5 54t124.5 16q106 0 195.5 -63.5t129.5 -167.5q29 37 69 82t69 67q37 27 86 40.5t96 13.5q74 0 137.5 -21.5t110.5 -59.5t74.5 -92.5t27.5 -117.5q0 -14 -1 -25.5t-1 -21.5q-6 -63 -34.5 -109.5t-72.5 -77t-100.5 -45t-113.5 -14.5 q-96 0 -176 57.5t-115 151.5q-23 -25 -51.5 -63t-49.5 -58q-53 -55 -120.5 -86t-155.5 -31q-72 0 -137.5 21.5t-116.5 61.5t-81 99.5t-30 137.5zM260 502q0 -33 14.5 -64.5t40 -56.5t64.5 -39t88 -14q61 0 97 16t73 51q23 20 52.5 59.5t55.5 80.5q-47 68 -114.5 108.5 t-149.5 40.5q-100 0 -160.5 -52t-60.5 -130zM881 471q94 -127 237 -127q86 0 132 45t46 109q0 59 -46 107t-132 48q-45 0 -76.5 -14t-62.5 -45q-23 -18 -48 -53z" />
<glyph unicode="&#x222b;" horiz-adv-x="657" d="M-90 -299q0 12 1 23.5t3 21.5q6 -6 24.5 -13t41 -13.5t43 -10.5t32.5 -4q61 0 79 54.5t24 140.5q4 37 4 76v81v105v160q0 96 -1 200.5t-1 203.5v169v62q0 42 1 86t3 84t4 59q8 102 45 167.5t87 103.5t109.5 52.5t112.5 14.5q63 0 101.5 -11.5t52.5 -27.5q6 -6 6 -16v-17 q-2 -12 -4 -23.5t-6 -21.5l-12 -23q-5 -10 -13 -18q-4 -2 -16 2l-25 8q-16 4 -38.5 5t-43.5 1q-35 0 -66.5 -9t-57 -33.5t-42 -66.5t-18.5 -108q0 -16 -1 -54t-2 -80t-1 -81v-55v-138v-172q0 -91 -1 -187.5t-1 -187.5v-169v-133q0 -61 -8.5 -122.5t-33 -111t-68.5 -80 t-115 -30.5q-47 0 -92.5 10t-73.5 29q-25 18 -31 41q-2 14 -2 28v29z" />
<glyph unicode="&#x2260;" horiz-adv-x="1021" d="M98 279q2 72 11.5 104.5t40.5 32.5h231l4 6l168 250h-455q2 72 11.5 104.5t40.5 32.5h493l121 186q20 27 47 27h72l-142 -213h183q-2 -70 -10.5 -103.5t-41.5 -33.5h-221l-168 -250l-4 -6h445q-2 -70 -10.5 -103.5t-41.5 -33.5h-485l-113 -170q-39 -59 -110 -60h-25 l152 230h-193z" />
<glyph unicode="&#x2264;" horiz-adv-x="598" d="M72 176q14 141 53 141q86 8 184.5 19.5t169.5 21.5q23 -4 45 -14q-4 -57 -21.5 -98t-51.5 -45q-35 -6 -78 -11.5t-87 -10.5t-87 -8t-80 -3q-12 0 -23.5 2t-23.5 6zM82 657q0 45 18 68q66 51 121 92q47 35 90 68t54 43q25 18 43 16q25 -2 38 -35q10 -18 16.5 -44.5 t6.5 -43.5q-51 -39 -92 -69q-35 -27 -68 -51.5t-41 -28.5q8 -6 41 -28.5t68 -49.5q41 -31 92 -66q0 -16 -6 -50t-17 -50q-16 -25 -34 -29q-23 -4 -45 15l-252 188q-12 10 -22.5 23.5t-10.5 31.5z" />
<glyph unicode="&#x2265;" horiz-adv-x="598" d="M72 176q10 72 21 106.5t34 34.5q84 8 183.5 19.5t168.5 21.5q10 -2 23.5 -6t21.5 -8q-4 -57 -20.5 -98t-52.5 -45q-35 -6 -77 -11.5t-87 -10.5t-88 -8t-78 -3q-12 0 -23.5 2t-25.5 6zM127 528q51 35 92 66q35 27 67.5 49.5t41.5 28.5q-8 4 -41 28.5t-68 51.5 q-41 31 -92 69q0 16 6 43t17 45q14 33 38 35q18 2 43 -16q10 -10 53.5 -43t90.5 -68q53 -41 121 -92q18 -23 18 -68q0 -18 -10 -31.5t-23 -23.5l-252 -188q-23 -18 -45 -15q-18 4 -34 29q-10 16 -16.5 50t-6.5 50z" />
<glyph unicode="&#x25ca;" horiz-adv-x="942" d="M90 545q0 57 29 108q53 88 109.5 175t117.5 173q45 61 127 62l82 -8q72 -92 136.5 -187.5t123.5 -199.5q37 -66 37 -140q0 -43 -18 -73q-55 -92 -113.5 -182.5t-124.5 -180.5q-23 -29 -55.5 -45t-71.5 -16l-86 14q-72 98 -136.5 193.5t-125.5 197.5q-31 50 -31 109z M252 518l223 -385l217 381q20 33 0 66l-221 381l-219 -377q-20 -33 0 -66z" />
<glyph unicode="&#xe000;" horiz-adv-x="975" d="M0 975h975v-975h-975v975z" />
<glyph unicode="&#xf8ff;" horiz-adv-x="1024" d="M-137 -326q0 14 3 32t9 28q4 0 9 -1t12 -1q61 0 133 32q51 23 69.5 72t22.5 144q2 37 3 77.5t1 85.5v523q0 82 -1 141t-3 111q16 33 59 41t107 8q10 -16 13 -44t3 -87v-652q0 -141 -12 -260q-6 -61 -19.5 -113.5t-40.5 -93.5q-63 -100 -180 -116q-12 -2 -24 -2h-23 q-45 0 -70 8q-61 10 -71 67zM113 1315q0 115 108 115q61 0 78.5 -28t15.5 -83q-2 -53 -22.5 -88t-83.5 -35q-53 0 -74.5 29t-21.5 90z" />
<glyph unicode="&#xfb01;" horiz-adv-x="952" d="M33 848q6 57 14 73.5t33 20.5q18 4 37.5 9t42.5 10q0 41 2 79.5t6 73.5q8 102 45 168t87 103.5t109.5 52t112.5 14.5q59 4 108.5 -9t86.5 -26q33 -12 47 -18t24 -19q6 -8 7 -16v-16q-2 -12 -4.5 -23.5t-6.5 -21.5q-12 -29 -24 -41q-10 0 -32.5 7t-45.5 13 q-29 10 -74 19.5t-84 9.5q-35 0 -66.5 -9.5t-57 -34t-42 -66.5t-18.5 -107q-2 -33 -2 -66v-67l342 4h65q31 0 52 2q10 -23 13 -51.5t3 -94.5v-696q0 -70 -25 -109q-10 -16 -40.5 -18t-116.5 -4q0 78 1 167t1 183v483q-41 0 -86 -1t-87 -2t-75 -1h-49v-188q0 -102 1 -206.5 t2 -205t1 -182.5q0 -8 -2 -21.5t-14 -17.5q-25 -4 -62 -6t-55 -2q-12 0 -23.5 1t-21.5 3q-2 10 -2 21v26q0 61 1 123.5t1 126.5q0 127 -1 258t-1 270q-98 2 -127 25z" />
<glyph unicode="&#xfb02;" horiz-adv-x="935" d="M33 848q6 57 14 73.5t33 20.5q18 4 37.5 9t42.5 10q0 41 2 79.5t6 73.5q8 102 45 168t87 103.5t109.5 52t112.5 14.5q59 4 108.5 -9t84.5 -26q47 -16 61.5 -25.5t18.5 -21.5q10 -31 12 -72t2 -118v-987q-2 -29 4 -52q4 -18 16.5 -32.5t36.5 -10.5q-2 -23 -2 -45v-30 q-12 -18 -39.5 -32t-68.5 -16q-18 0 -38 8.5t-36 18.5q-25 16 -37 44t-12 58v981q0 68 -1 118t-3 93q-25 6 -52.5 10.5t-52.5 4.5q-35 0 -66.5 -9.5t-57 -34t-42 -66.5t-18.5 -107q-2 -33 -2 -66v-67h111h65q31 0 51 2q-4 -72 -13 -95.5t-32 -31.5l-9 -4.5t-13 -4.5 q-33 -4 -74 -4h-88v-188q0 -102 1 -206.5t2 -205t1 -182.5q0 -8 -2 -21.5t-14 -17.5q-25 -4 -62 -6t-55 -2q-12 0 -23.5 1t-21.5 3q-2 10 -2 21v26q0 61 1 123.5t1 126.5q0 127 -1 258t-1 270q-98 2 -127 25z" />
<glyph horiz-adv-x="1089" d="M279 1612q0 106 102 106q57 0 73.5 -25.5t14.5 -76.5t-21.5 -83t-78.5 -32q-49 0 -69.5 27t-20.5 84zM621 1612q0 106 102 106q57 0 73.5 -25.5t14.5 -76.5t-21.5 -83t-78.5 -32q-49 0 -69.5 27t-20.5 84z" />
<glyph horiz-adv-x="811" d="M176 1270q0 106 103 106q57 0 73.5 -25.5t14.5 -76.5t-21.5 -83t-79.5 -32q-49 0 -69.5 27t-20.5 84zM498 1270q0 106 102 106q57 0 73.5 -25.5t14.5 -76.5t-21.5 -83t-78.5 -32q-49 0 -69.5 27t-20.5 84z" />
<glyph horiz-adv-x="1089" d="M424 1548l16 21q8 10 21 20q33 29 75 60.5t81.5 57.5t72.5 43t45 17q14 -2 27.5 -14t24 -29.5t17.5 -37t11 -33.5q0 -18 -29 -33q-37 -16 -79.5 -38.5t-85.5 -44t-81 -40t-65 -31.5q-10 2 -19.5 14.5t-16.5 26t-11 25.5t-4 16z" />
<glyph horiz-adv-x="1140" d="M293 1548q31 92 78 142.5t123 50.5q43 0 69.5 -24.5t54.5 -53.5q14 -14 26.5 -23.5t27.5 -9.5q33 0 50 21.5t28 58.5q8 20 24 21q10 0 21.5 -8.5t21.5 -18.5t17.5 -20.5t9.5 -14.5q-4 -31 -19.5 -63.5t-39 -59t-56.5 -44t-72 -17.5q-51 0 -75.5 27.5t-53.5 56.5 q-16 16 -26 22t-27 6q-47 -10 -76 -77q-12 -23 -22 -23q-12 0 -26.5 7t-27 16.5t-20.5 17.5z" />
<glyph horiz-adv-x="808" d="M238 1395q0 14 10 31.5t25.5 32t34 23.5t34.5 9q10 0 37 -27.5t59.5 -68.5t66.5 -87t58 -81q2 -6 2 -17q0 -25 -20.5 -48t-42.5 -27q-23 20 -52.5 48.5t-62.5 61.5t-66.5 64.5t-60.5 60.5q-18 19 -22 25z" />
<glyph horiz-adv-x="808" d="M190 1321q0 86 57.5 146.5t147.5 60.5h2q45 0 83 -17.5t64.5 -46t41 -65.5t14.5 -76q0 -88 -59.5 -146.5t-147.5 -58.5q-84 0 -143.5 55.5t-59.5 147.5zM293 1323q0 -47 29.5 -79t74.5 -32q47 0 75 33t28 76t-28 78t-77 35q-47 0 -74.5 -34t-27.5 -77z" />
<glyph horiz-adv-x="757" d="M311 1169q12 27 29.5 66t35 80t35 78t29.5 61q23 10 61 19.5t68 9.5q20 0 27 -6q14 -4 9 -24.5t-19 -49.5l-11 -17q-47 -86 -93 -145t-74 -88q-6 -4 -19.5 -3t-29 4t-29 7t-19.5 8z" />
</font>
</defs>
</svg>
