<?xml version="1.0" encoding="UTF-8" standalone="no"?>
<!DOCTYPE svg PUBLIC "-//W3C//DTD SVG 1.1//EN"
 "http://www.w3.org/Graphics/SVG/1.1/DTD/svg11.dtd">
<!-- Generated by graphviz version 2.26.3 (20100126.1600)
 -->
<!-- Title: controllers_diagram Pages: 1 -->
<svg width="1876pt" height="400pt"
 viewBox="0.00 0.00 1876.00 400.00" xmlns="http://www.w3.org/2000/svg" xmlns:xlink="http://www.w3.org/1999/xlink">
<g id="graph1" class="graph" transform="scale(1 1) rotate(0) translate(4 396)">
<title>controllers_diagram</title>
<polygon fill="white" stroke="white" points="-4,5 -4,-396 1873,-396 1873,5 -4,5"/>
<!-- ApplicationController -->
<g id="node1" class="node"><title>ApplicationController</title>
<polyline fill="none" stroke="black" points="12,-108 226,-108 "/>
<path fill="none" stroke="black" d="M226,-108C232,-108 238,-114 238,-120"/>
<polyline fill="none" stroke="black" points="238,-120 238,-272 "/>
<path fill="none" stroke="black" d="M238,-272C238,-278 232,-284 226,-284"/>
<polyline fill="none" stroke="black" points="226,-284 12,-284 "/>
<path fill="none" stroke="black" d="M12,-284C6,-284 0,-278 0,-272"/>
<polyline fill="none" stroke="black" points="0,-272 0,-120 "/>
<path fill="none" stroke="black" d="M0,-120C0,-114 6,-108 12,-108"/>
<text text-anchor="middle" x="119" y="-267.4" font-family="Times Roman,serif" font-size="14.00">ApplicationController</text>
<polyline fill="none" stroke="black" points="0,-258 238,-258 "/>
<text text-anchor="start" x="8" y="-241.4" font-family="Times Roman,serif" font-size="14.00">_one_time_conditions_valid_10?</text>
<text text-anchor="start" x="8" y="-223.4" font-family="Times Roman,serif" font-size="14.00">_one_time_conditions_valid_12?</text>
<text text-anchor="start" x="8" y="-205.4" font-family="Times Roman,serif" font-size="14.00">current_user</text>
<text text-anchor="start" x="8" y="-187.4" font-family="Times Roman,serif" font-size="14.00">logged_in?</text>
<polyline fill="none" stroke="black" points="0,-178 238,-178 "/>
<text text-anchor="start" x="8" y="-161.4" font-family="Times Roman,serif" font-size="14.00">set_locale</text>
<polyline fill="none" stroke="black" points="0,-152 238,-152 "/>
<text text-anchor="start" x="8" y="-135.4" font-family="Times Roman,serif" font-size="14.00">_layout</text>
<text text-anchor="start" x="8" y="-117.4" font-family="Times Roman,serif" font-size="14.00">_run_process_action_callbacks</text>
</g>
<!-- RatingsController -->
<g id="node2" class="node"><title>RatingsController</title>
<polyline fill="none" stroke="black" points="267.5,-145 380.5,-145 "/>
<path fill="none" stroke="black" d="M380.5,-145C386.5,-145 392.5,-151 392.5,-157"/>
<polyline fill="none" stroke="black" points="392.5,-157 392.5,-235 "/>
<path fill="none" stroke="black" d="M392.5,-235C392.5,-241 386.5,-247 380.5,-247"/>
<polyline fill="none" stroke="black" points="380.5,-247 267.5,-247 "/>
<path fill="none" stroke="black" d="M267.5,-247C261.5,-247 255.5,-241 255.5,-235"/>
<polyline fill="none" stroke="black" points="255.5,-235 255.5,-157 "/>
<path fill="none" stroke="black" d="M255.5,-157C255.5,-151 261.5,-145 267.5,-145"/>
<text text-anchor="middle" x="324" y="-230.4" font-family="Times Roman,serif" font-size="14.00">RatingsController</text>
<polyline fill="none" stroke="black" points="255.5,-221 392.5,-221 "/>
<text text-anchor="start" x="263.5" y="-204.4" font-family="Times Roman,serif" font-size="14.00">create</text>
<polyline fill="none" stroke="black" points="255.5,-195 392.5,-195 "/>
<polyline fill="none" stroke="black" points="255.5,-171 392.5,-171 "/>
<text text-anchor="start" x="263.5" y="-154.4" font-family="Times Roman,serif" font-size="14.00">_layout</text>
</g>
<!-- CategoriesController -->
<g id="node3" class="node"><title>CategoriesController</title>
<polyline fill="none" stroke="black" points="422,-64 636,-64 "/>
<path fill="none" stroke="black" d="M636,-64C642,-64 648,-70 648,-76"/>
<polyline fill="none" stroke="black" points="648,-76 648,-316 "/>
<path fill="none" stroke="black" d="M648,-316C648,-322 642,-328 636,-328"/>
<polyline fill="none" stroke="black" points="636,-328 422,-328 "/>
<path fill="none" stroke="black" d="M422,-328C416,-328 410,-322 410,-316"/>
<polyline fill="none" stroke="black" points="410,-316 410,-76 "/>
<path fill="none" stroke="black" d="M410,-76C410,-70 416,-64 422,-64"/>
<text text-anchor="middle" x="529" y="-311.4" font-family="Times Roman,serif" font-size="14.00">CategoriesController</text>
<polyline fill="none" stroke="black" points="410,-302 648,-302 "/>
<text text-anchor="start" x="418" y="-285.4" font-family="Times Roman,serif" font-size="14.00">_callback_before_13</text>
<text text-anchor="start" x="418" y="-267.4" font-family="Times Roman,serif" font-size="14.00">_one_time_conditions_valid_14?</text>
<text text-anchor="start" x="418" y="-249.4" font-family="Times Roman,serif" font-size="14.00">create</text>
<text text-anchor="start" x="418" y="-231.4" font-family="Times Roman,serif" font-size="14.00">destroy</text>
<text text-anchor="start" x="418" y="-213.4" font-family="Times Roman,serif" font-size="14.00">edit</text>
<text text-anchor="start" x="418" y="-195.4" font-family="Times Roman,serif" font-size="14.00">index</text>
<text text-anchor="start" x="418" y="-177.4" font-family="Times Roman,serif" font-size="14.00">new</text>
<text text-anchor="start" x="418" y="-159.4" font-family="Times Roman,serif" font-size="14.00">show</text>
<text text-anchor="start" x="418" y="-141.4" font-family="Times Roman,serif" font-size="14.00">update</text>
<polyline fill="none" stroke="black" points="410,-132 648,-132 "/>
<polyline fill="none" stroke="black" points="410,-108 648,-108 "/>
<text text-anchor="start" x="418" y="-91.4" font-family="Times Roman,serif" font-size="14.00">_layout</text>
<text text-anchor="start" x="418" y="-73.4" font-family="Times Roman,serif" font-size="14.00">_run_process_action_callbacks</text>
</g>
<!-- CommentsController -->
<g id="node4" class="node"><title>CommentsController</title>
<polyline fill="none" stroke="black" points="678,-100 892,-100 "/>
<path fill="none" stroke="black" d="M892,-100C898,-100 904,-106 904,-112"/>
<polyline fill="none" stroke="black" points="904,-112 904,-280 "/>
<path fill="none" stroke="black" d="M904,-280C904,-286 898,-292 892,-292"/>
<polyline fill="none" stroke="black" points="892,-292 678,-292 "/>
<path fill="none" stroke="black" d="M678,-292C672,-292 666,-286 666,-280"/>
<polyline fill="none" stroke="black" points="666,-280 666,-112 "/>
<path fill="none" stroke="black" d="M666,-112C666,-106 672,-100 678,-100"/>
<text text-anchor="middle" x="785" y="-275.4" font-family="Times Roman,serif" font-size="14.00">CommentsController</text>
<polyline fill="none" stroke="black" points="666,-266 904,-266 "/>
<text text-anchor="start" x="674" y="-249.4" font-family="Times Roman,serif" font-size="14.00">_callback_before_15</text>
<text text-anchor="start" x="674" y="-231.4" font-family="Times Roman,serif" font-size="14.00">_one_time_conditions_valid_16?</text>
<text text-anchor="start" x="674" y="-213.4" font-family="Times Roman,serif" font-size="14.00">create</text>
<text text-anchor="start" x="674" y="-195.4" font-family="Times Roman,serif" font-size="14.00">destroy</text>
<text text-anchor="start" x="674" y="-177.4" font-family="Times Roman,serif" font-size="14.00">update</text>
<polyline fill="none" stroke="black" points="666,-168 904,-168 "/>
<polyline fill="none" stroke="black" points="666,-144 904,-144 "/>
<text text-anchor="start" x="674" y="-127.4" font-family="Times Roman,serif" font-size="14.00">_layout</text>
<text text-anchor="start" x="674" y="-109.4" font-family="Times Roman,serif" font-size="14.00">_run_process_action_callbacks</text>
</g>
<!-- UsersController -->
<g id="node5" class="node"><title>UsersController</title>
<polyline fill="none" stroke="black" points="934,-64 1148,-64 "/>
<path fill="none" stroke="black" d="M1148,-64C1154,-64 1160,-70 1160,-76"/>
<polyline fill="none" stroke="black" points="1160,-76 1160,-316 "/>
<path fill="none" stroke="black" d="M1160,-316C1160,-322 1154,-328 1148,-328"/>
<polyline fill="none" stroke="black" points="1148,-328 934,-328 "/>
<path fill="none" stroke="black" d="M934,-328C928,-328 922,-322 922,-316"/>
<polyline fill="none" stroke="black" points="922,-316 922,-76 "/>
<path fill="none" stroke="black" d="M922,-76C922,-70 928,-64 934,-64"/>
<text text-anchor="middle" x="1041" y="-311.4" font-family="Times Roman,serif" font-size="14.00">UsersController</text>
<polyline fill="none" stroke="black" points="922,-302 1160,-302 "/>
<text text-anchor="start" x="930" y="-285.4" font-family="Times Roman,serif" font-size="14.00">_callback_before_29</text>
<text text-anchor="start" x="930" y="-267.4" font-family="Times Roman,serif" font-size="14.00">_one_time_conditions_valid_30?</text>
<text text-anchor="start" x="930" y="-249.4" font-family="Times Roman,serif" font-size="14.00">create</text>
<text text-anchor="start" x="930" y="-231.4" font-family="Times Roman,serif" font-size="14.00">destroy</text>
<text text-anchor="start" x="930" y="-213.4" font-family="Times Roman,serif" font-size="14.00">edit</text>
<text text-anchor="start" x="930" y="-195.4" font-family="Times Roman,serif" font-size="14.00">index</text>
<text text-anchor="start" x="930" y="-177.4" font-family="Times Roman,serif" font-size="14.00">new</text>
<text text-anchor="start" x="930" y="-159.4" font-family="Times Roman,serif" font-size="14.00">show</text>
<text text-anchor="start" x="930" y="-141.4" font-family="Times Roman,serif" font-size="14.00">update</text>
<polyline fill="none" stroke="black" points="922,-132 1160,-132 "/>
<polyline fill="none" stroke="black" points="922,-108 1160,-108 "/>
<text text-anchor="start" x="930" y="-91.4" font-family="Times Roman,serif" font-size="14.00">_layout</text>
<text text-anchor="start" x="930" y="-73.4" font-family="Times Roman,serif" font-size="14.00">_run_process_action_callbacks</text>
</g>
<!-- SessionsController -->
<g id="node6" class="node"><title>SessionsController</title>
<polyline fill="none" stroke="black" points="1189.5,-118 1344.5,-118 "/>
<path fill="none" stroke="black" d="M1344.5,-118C1350.5,-118 1356.5,-124 1356.5,-130"/>
<polyline fill="none" stroke="black" points="1356.5,-130 1356.5,-262 "/>
<path fill="none" stroke="black" d="M1356.5,-262C1356.5,-268 1350.5,-274 1344.5,-274"/>
<polyline fill="none" stroke="black" points="1344.5,-274 1189.5,-274 "/>
<path fill="none" stroke="black" d="M1189.5,-274C1183.5,-274 1177.5,-268 1177.5,-262"/>
<polyline fill="none" stroke="black" points="1177.5,-262 1177.5,-130 "/>
<path fill="none" stroke="black" d="M1177.5,-130C1177.5,-124 1183.5,-118 1189.5,-118"/>
<text text-anchor="middle" x="1267" y="-257.4" font-family="Times Roman,serif" font-size="14.00">SessionsController</text>
<polyline fill="none" stroke="black" points="1177.5,-248 1356.5,-248 "/>
<text text-anchor="start" x="1185.5" y="-231.4" font-family="Times Roman,serif" font-size="14.00">create</text>
<text text-anchor="start" x="1185.5" y="-213.4" font-family="Times Roman,serif" font-size="14.00">destroy</text>
<text text-anchor="start" x="1185.5" y="-195.4" font-family="Times Roman,serif" font-size="14.00">index</text>
<text text-anchor="start" x="1185.5" y="-177.4" font-family="Times Roman,serif" font-size="14.00">request_new_password</text>
<polyline fill="none" stroke="black" points="1177.5,-168 1356.5,-168 "/>
<polyline fill="none" stroke="black" points="1177.5,-144 1356.5,-144 "/>
<text text-anchor="start" x="1185.5" y="-127.4" font-family="Times Roman,serif" font-size="14.00">_layout</text>
</g>
<!-- PlatformsController -->
<g id="node7" class="node"><title>PlatformsController</title>
<polyline fill="none" stroke="black" points="1386,-55 1600,-55 "/>
<path fill="none" stroke="black" d="M1600,-55C1606,-55 1612,-61 1612,-67"/>
<polyline fill="none" stroke="black" points="1612,-67 1612,-325 "/>
<path fill="none" stroke="black" d="M1612,-325C1612,-331 1606,-337 1600,-337"/>
<polyline fill="none" stroke="black" points="1600,-337 1386,-337 "/>
<path fill="none" stroke="black" d="M1386,-337C1380,-337 1374,-331 1374,-325"/>
<polyline fill="none" stroke="black" points="1374,-325 1374,-67 "/>
<path fill="none" stroke="black" d="M1374,-67C1374,-61 1380,-55 1386,-55"/>
<text text-anchor="middle" x="1493" y="-320.4" font-family="Times Roman,serif" font-size="14.00">PlatformsController</text>
<polyline fill="none" stroke="black" points="1374,-311 1612,-311 "/>
<text text-anchor="start" x="1382" y="-294.4" font-family="Times Roman,serif" font-size="14.00">_callback_before_17</text>
<text text-anchor="start" x="1382" y="-276.4" font-family="Times Roman,serif" font-size="14.00">_one_time_conditions_valid_18?</text>
<text text-anchor="start" x="1382" y="-258.4" font-family="Times Roman,serif" font-size="14.00">add_product</text>
<text text-anchor="start" x="1382" y="-240.4" font-family="Times Roman,serif" font-size="14.00">create</text>
<text text-anchor="start" x="1382" y="-222.4" font-family="Times Roman,serif" font-size="14.00">destroy</text>
<text text-anchor="start" x="1382" y="-204.4" font-family="Times Roman,serif" font-size="14.00">edit</text>
<text text-anchor="start" x="1382" y="-186.4" font-family="Times Roman,serif" font-size="14.00">index</text>
<text text-anchor="start" x="1382" y="-168.4" font-family="Times Roman,serif" font-size="14.00">new</text>
<text text-anchor="start" x="1382" y="-150.4" font-family="Times Roman,serif" font-size="14.00">show</text>
<text text-anchor="start" x="1382" y="-132.4" font-family="Times Roman,serif" font-size="14.00">update</text>
<polyline fill="none" stroke="black" points="1374,-123 1612,-123 "/>
<polyline fill="none" stroke="black" points="1374,-99 1612,-99 "/>
<text text-anchor="start" x="1382" y="-82.4" font-family="Times Roman,serif" font-size="14.00">_layout</text>
<text text-anchor="start" x="1382" y="-64.4" font-family="Times Roman,serif" font-size="14.00">_run_process_action_callbacks</text>
</g>
<!-- ProductsController -->
<g id="node8" class="node"><title>ProductsController</title>
<polyline fill="none" stroke="black" points="1642,-1 1856,-1 "/>
<path fill="none" stroke="black" d="M1856,-1C1862,-1 1868,-7 1868,-13"/>
<polyline fill="none" stroke="black" points="1868,-13 1868,-379 "/>
<path fill="none" stroke="black" d="M1868,-379C1868,-385 1862,-391 1856,-391"/>
<polyline fill="none" stroke="black" points="1856,-391 1642,-391 "/>
<path fill="none" stroke="black" d="M1642,-391C1636,-391 1630,-385 1630,-379"/>
<polyline fill="none" stroke="black" points="1630,-379 1630,-13 "/>
<path fill="none" stroke="black" d="M1630,-13C1630,-7 1636,-1 1642,-1"/>
<text text-anchor="middle" x="1749" y="-374.4" font-family="Times Roman,serif" font-size="14.00">ProductsController</text>
<polyline fill="none" stroke="black" points="1630,-365 1868,-365 "/>
<text text-anchor="start" x="1638" y="-348.4" font-family="Times Roman,serif" font-size="14.00">_callback_before_21</text>
<text text-anchor="start" x="1638" y="-330.4" font-family="Times Roman,serif" font-size="14.00">_one_time_conditions_valid_22?</text>
<text text-anchor="start" x="1638" y="-312.4" font-family="Times Roman,serif" font-size="14.00">_one_time_conditions_valid_26?</text>
<text text-anchor="start" x="1638" y="-294.4" font-family="Times Roman,serif" font-size="14.00">approve</text>
<text text-anchor="start" x="1638" y="-276.4" font-family="Times Roman,serif" font-size="14.00">block</text>
<text text-anchor="start" x="1638" y="-258.4" font-family="Times Roman,serif" font-size="14.00">create</text>
<text text-anchor="start" x="1638" y="-240.4" font-family="Times Roman,serif" font-size="14.00">destroy</text>
<text text-anchor="start" x="1638" y="-222.4" font-family="Times Roman,serif" font-size="14.00">edit</text>
<text text-anchor="start" x="1638" y="-204.4" font-family="Times Roman,serif" font-size="14.00">index</text>
<text text-anchor="start" x="1638" y="-186.4" font-family="Times Roman,serif" font-size="14.00">new</text>
<text text-anchor="start" x="1638" y="-168.4" font-family="Times Roman,serif" font-size="14.00">request_approval</text>
<text text-anchor="start" x="1638" y="-150.4" font-family="Times Roman,serif" font-size="14.00">show</text>
<text text-anchor="start" x="1638" y="-132.4" font-family="Times Roman,serif" font-size="14.00">update</text>
<polyline fill="none" stroke="black" points="1630,-123 1868,-123 "/>
<polyline fill="none" stroke="black" points="1630,-99 1868,-99 "/>
<text text-anchor="start" x="1638" y="-82.4" font-family="Times Roman,serif" font-size="14.00">_layout</text>
<text text-anchor="start" x="1638" y="-64.4" font-family="Times Roman,serif" font-size="14.00">_run_process_action_callbacks</text>
<text text-anchor="start" x="1638" y="-46.4" font-family="Times Roman,serif" font-size="14.00">add_popularity</text>
<text text-anchor="start" x="1638" y="-28.4" font-family="Times Roman,serif" font-size="14.00">order_parameter</text>
<text text-anchor="start" x="1638" y="-10.4" font-family="Times Roman,serif" font-size="14.00">require_admin</text>
</g>
</g>
</svg>
