<?xml version="1.0" encoding="UTF-8" standalone="no"?>
<!DOCTYPE svg PUBLIC "-//W3C//DTD SVG 1.1//EN"
 "http://www.w3.org/Graphics/SVG/1.1/DTD/svg11.dtd">
<!-- Generated by graphviz version 2.26.3 (20100126.1600)
 -->
<!-- Title: controllers_diagram Pages: 1 -->
<svg width="729pt" height="674pt"
 viewBox="0.00 0.00 729.00 674.00" xmlns="http://www.w3.org/2000/svg" xmlns:xlink="http://www.w3.org/1999/xlink">
<g id="graph1" class="graph" transform="scale(1 1) rotate(0) translate(4 670)">
<title>controllers_diagram</title>
<polygon fill="white" stroke="white" points="-4,5 -4,-670 726,-670 726,5 -4,5"/>
<!-- _diagram_info -->
<g id="node1" class="node"><title>_diagram_info</title>
<text text-anchor="start" x="29" y="-103.3" font-family="Times,serif" font-size="13.00">Controllers diagram</text>
<text text-anchor="start" x="29" y="-89.3" font-family="Times,serif" font-size="13.00">Date: Dec 03 2010 &#45; 16:33</text>
<text text-anchor="start" x="29" y="-75.3" font-family="Times,serif" font-size="13.00">Migration version: 20101203112915</text>
<text text-anchor="start" x="29" y="-61.3" font-family="Times,serif" font-size="13.00">Generated by RailRoady 0.11.2</text>
<text text-anchor="start" x="29" y="-47.3" font-family="Times,serif" font-size="13.00">http://railroady.prestonlee.com</text>
</g>
<!-- ApplicationController -->
<g id="node2" class="node"><title>ApplicationController</title>
<polyline fill="none" stroke="black" points="433,-441.5 616,-441.5 "/>
<path fill="none" stroke="black" d="M616,-441.5C622,-441.5 628,-447.5 628,-453.5"/>
<polyline fill="none" stroke="black" points="628,-453.5 628,-611.5 "/>
<path fill="none" stroke="black" d="M628,-611.5C628,-617.5 622,-623.5 616,-623.5"/>
<polyline fill="none" stroke="black" points="616,-623.5 433,-623.5 "/>
<path fill="none" stroke="black" d="M433,-623.5C427,-623.5 421,-617.5 421,-611.5"/>
<polyline fill="none" stroke="black" points="421,-611.5 421,-453.5 "/>
<path fill="none" stroke="black" d="M421,-453.5C421,-447.5 427,-441.5 433,-441.5"/>
<text text-anchor="middle" x="524.5" y="-606.9" font-family="Times,serif" font-size="14.00">ApplicationController</text>
<polyline fill="none" stroke="black" points="421,-600.5 628,-600.5 "/>
<text text-anchor="start" x="429" y="-583.9" font-family="Times,serif" font-size="14.00">_one_time_conditions_valid_16?</text>
<text text-anchor="start" x="429" y="-568.9" font-family="Times,serif" font-size="14.00">_one_time_conditions_valid_18?</text>
<text text-anchor="start" x="429" y="-553.9" font-family="Times,serif" font-size="14.00">current_user</text>
<text text-anchor="start" x="429" y="-538.9" font-family="Times,serif" font-size="14.00">logged_in?</text>
<text text-anchor="start" x="429" y="-523.9" font-family="Times,serif" font-size="14.00">login_required</text>
<text text-anchor="start" x="429" y="-508.9" font-family="Times,serif" font-size="14.00">products_by_platform_path</text>
<polyline fill="none" stroke="black" points="421,-502.5 628,-502.5 "/>
<text text-anchor="start" x="429" y="-485.9" font-family="Times,serif" font-size="14.00">set_locale</text>
<polyline fill="none" stroke="black" points="421,-479.5 628,-479.5 "/>
<text text-anchor="start" x="429" y="-462.9" font-family="Times,serif" font-size="14.00">_layout</text>
<text text-anchor="start" x="429" y="-447.9" font-family="Times,serif" font-size="14.00">_run_process_action_callbacks</text>
</g>
<!-- CategoriesController -->
<g id="node3" class="node"><title>CategoriesController</title>
<polyline fill="none" stroke="black" points="253,-461.5 368,-461.5 "/>
<path fill="none" stroke="black" d="M368,-461.5C374,-461.5 380,-467.5 380,-473.5"/>
<polyline fill="none" stroke="black" points="380,-473.5 380,-632.5 "/>
<path fill="none" stroke="black" d="M380,-632.5C380,-638.5 374,-644.5 368,-644.5"/>
<polyline fill="none" stroke="black" points="368,-644.5 253,-644.5 "/>
<path fill="none" stroke="black" d="M253,-644.5C247,-644.5 241,-638.5 241,-632.5"/>
<polyline fill="none" stroke="black" points="241,-632.5 241,-473.5 "/>
<path fill="none" stroke="black" d="M241,-473.5C241,-467.5 247,-461.5 253,-461.5"/>
<text text-anchor="middle" x="310.5" y="-627.9" font-family="Times,serif" font-size="14.00">CategoriesController</text>
<polyline fill="none" stroke="black" points="241,-621.5 380,-621.5 "/>
<text text-anchor="start" x="249" y="-604.9" font-family="Times,serif" font-size="14.00">create</text>
<text text-anchor="start" x="249" y="-589.9" font-family="Times,serif" font-size="14.00">destroy</text>
<text text-anchor="start" x="249" y="-574.9" font-family="Times,serif" font-size="14.00">edit</text>
<text text-anchor="start" x="249" y="-559.9" font-family="Times,serif" font-size="14.00">index</text>
<text text-anchor="start" x="249" y="-544.9" font-family="Times,serif" font-size="14.00">new</text>
<text text-anchor="start" x="249" y="-529.9" font-family="Times,serif" font-size="14.00">show</text>
<text text-anchor="start" x="249" y="-514.9" font-family="Times,serif" font-size="14.00">update</text>
<polyline fill="none" stroke="black" points="241,-508.5 380,-508.5 "/>
<polyline fill="none" stroke="black" points="241,-484.5 380,-484.5 "/>
<text text-anchor="start" x="249" y="-467.9" font-family="Times,serif" font-size="14.00">_layout</text>
</g>
<!-- CommentsController -->
<g id="node4" class="node"><title>CommentsController</title>
<polyline fill="none" stroke="black" points="593,-1.5 708,-1.5 "/>
<path fill="none" stroke="black" d="M708,-1.5C714,-1.5 720,-7.5 720,-13.5"/>
<polyline fill="none" stroke="black" points="720,-13.5 720,-82.5 "/>
<path fill="none" stroke="black" d="M720,-82.5C720,-88.5 714,-94.5 708,-94.5"/>
<polyline fill="none" stroke="black" points="708,-94.5 593,-94.5 "/>
<path fill="none" stroke="black" d="M593,-94.5C587,-94.5 581,-88.5 581,-82.5"/>
<polyline fill="none" stroke="black" points="581,-82.5 581,-13.5 "/>
<path fill="none" stroke="black" d="M581,-13.5C581,-7.5 587,-1.5 593,-1.5"/>
<text text-anchor="middle" x="650.5" y="-77.9" font-family="Times,serif" font-size="14.00">CommentsController</text>
<polyline fill="none" stroke="black" points="581,-71.5 720,-71.5 "/>
<text text-anchor="start" x="589" y="-54.9" font-family="Times,serif" font-size="14.00">create</text>
<polyline fill="none" stroke="black" points="581,-48.5 720,-48.5 "/>
<polyline fill="none" stroke="black" points="581,-24.5 720,-24.5 "/>
<text text-anchor="start" x="589" y="-7.9" font-family="Times,serif" font-size="14.00">_layout</text>
</g>
<!-- PlatformsController -->
<g id="node5" class="node"><title>PlatformsController</title>
<polyline fill="none" stroke="black" points="413,-181.5 596,-181.5 "/>
<path fill="none" stroke="black" d="M596,-181.5C602,-181.5 608,-187.5 608,-193.5"/>
<polyline fill="none" stroke="black" points="608,-193.5 608,-397.5 "/>
<path fill="none" stroke="black" d="M608,-397.5C608,-403.5 602,-409.5 596,-409.5"/>
<polyline fill="none" stroke="black" points="596,-409.5 413,-409.5 "/>
<path fill="none" stroke="black" d="M413,-409.5C407,-409.5 401,-403.5 401,-397.5"/>
<polyline fill="none" stroke="black" points="401,-397.5 401,-193.5 "/>
<path fill="none" stroke="black" d="M401,-193.5C401,-187.5 407,-181.5 413,-181.5"/>
<text text-anchor="middle" x="504.5" y="-392.9" font-family="Times,serif" font-size="14.00">PlatformsController</text>
<polyline fill="none" stroke="black" points="401,-386.5 608,-386.5 "/>
<text text-anchor="start" x="409" y="-369.9" font-family="Times,serif" font-size="14.00">_one_time_conditions_valid_20?</text>
<text text-anchor="start" x="409" y="-354.9" font-family="Times,serif" font-size="14.00">add_product</text>
<text text-anchor="start" x="409" y="-339.9" font-family="Times,serif" font-size="14.00">create</text>
<text text-anchor="start" x="409" y="-324.9" font-family="Times,serif" font-size="14.00">destroy</text>
<text text-anchor="start" x="409" y="-309.9" font-family="Times,serif" font-size="14.00">edit</text>
<text text-anchor="start" x="409" y="-294.9" font-family="Times,serif" font-size="14.00">index</text>
<text text-anchor="start" x="409" y="-279.9" font-family="Times,serif" font-size="14.00">new</text>
<text text-anchor="start" x="409" y="-264.9" font-family="Times,serif" font-size="14.00">show</text>
<text text-anchor="start" x="409" y="-249.9" font-family="Times,serif" font-size="14.00">update</text>
<polyline fill="none" stroke="black" points="401,-243.5 608,-243.5 "/>
<polyline fill="none" stroke="black" points="401,-219.5 608,-219.5 "/>
<text text-anchor="start" x="409" y="-202.9" font-family="Times,serif" font-size="14.00">_layout</text>
<text text-anchor="start" x="409" y="-187.9" font-family="Times,serif" font-size="14.00">_run_process_action_callbacks</text>
</g>
<!-- ProductsController -->
<g id="node6" class="node"><title>ProductsController</title>
<polyline fill="none" stroke="black" points="173,-161.5 356,-161.5 "/>
<path fill="none" stroke="black" d="M356,-161.5C362,-161.5 368,-167.5 368,-173.5"/>
<polyline fill="none" stroke="black" points="368,-173.5 368,-407.5 "/>
<path fill="none" stroke="black" d="M368,-407.5C368,-413.5 362,-419.5 356,-419.5"/>
<polyline fill="none" stroke="black" points="356,-419.5 173,-419.5 "/>
<path fill="none" stroke="black" d="M173,-419.5C167,-419.5 161,-413.5 161,-407.5"/>
<polyline fill="none" stroke="black" points="161,-407.5 161,-173.5 "/>
<path fill="none" stroke="black" d="M161,-173.5C161,-167.5 167,-161.5 173,-161.5"/>
<text text-anchor="middle" x="264.5" y="-402.9" font-family="Times,serif" font-size="14.00">ProductsController</text>
<polyline fill="none" stroke="black" points="161,-396.5 368,-396.5 "/>
<text text-anchor="start" x="169" y="-379.9" font-family="Times,serif" font-size="14.00">_one_time_conditions_valid_22?</text>
<text text-anchor="start" x="169" y="-364.9" font-family="Times,serif" font-size="14.00">_one_time_conditions_valid_26?</text>
<text text-anchor="start" x="169" y="-349.9" font-family="Times,serif" font-size="14.00">create</text>
<text text-anchor="start" x="169" y="-334.9" font-family="Times,serif" font-size="14.00">destroy</text>
<text text-anchor="start" x="169" y="-319.9" font-family="Times,serif" font-size="14.00">edit</text>
<text text-anchor="start" x="169" y="-304.9" font-family="Times,serif" font-size="14.00">index</text>
<text text-anchor="start" x="169" y="-289.9" font-family="Times,serif" font-size="14.00">new</text>
<text text-anchor="start" x="169" y="-274.9" font-family="Times,serif" font-size="14.00">show</text>
<text text-anchor="start" x="169" y="-259.9" font-family="Times,serif" font-size="14.00">update</text>
<polyline fill="none" stroke="black" points="161,-253.5 368,-253.5 "/>
<polyline fill="none" stroke="black" points="161,-229.5 368,-229.5 "/>
<text text-anchor="start" x="169" y="-212.9" font-family="Times,serif" font-size="14.00">_layout</text>
<text text-anchor="start" x="169" y="-197.9" font-family="Times,serif" font-size="14.00">_run_process_action_callbacks</text>
<text text-anchor="start" x="169" y="-182.9" font-family="Times,serif" font-size="14.00">add_popularity</text>
<text text-anchor="start" x="169" y="-167.9" font-family="Times,serif" font-size="14.00">order_parameter</text>
</g>
<!-- RatingsController -->
<g id="node7" class="node"><title>RatingsController</title>
<polyline fill="none" stroke="black" points="13,-281.5 108,-281.5 "/>
<path fill="none" stroke="black" d="M108,-281.5C114,-281.5 120,-287.5 120,-293.5"/>
<polyline fill="none" stroke="black" points="120,-293.5 120,-422.5 "/>
<path fill="none" stroke="black" d="M120,-422.5C120,-428.5 114,-434.5 108,-434.5"/>
<polyline fill="none" stroke="black" points="108,-434.5 13,-434.5 "/>
<path fill="none" stroke="black" d="M13,-434.5C7,-434.5 1,-428.5 1,-422.5"/>
<polyline fill="none" stroke="black" points="1,-422.5 1,-293.5 "/>
<path fill="none" stroke="black" d="M1,-293.5C1,-287.5 7,-281.5 13,-281.5"/>
<text text-anchor="middle" x="60.5" y="-417.9" font-family="Times,serif" font-size="14.00">RatingsController</text>
<polyline fill="none" stroke="black" points="1,-411.5 120,-411.5 "/>
<text text-anchor="start" x="9" y="-394.9" font-family="Times,serif" font-size="14.00">create</text>
<text text-anchor="start" x="9" y="-379.9" font-family="Times,serif" font-size="14.00">destroy</text>
<text text-anchor="start" x="9" y="-364.9" font-family="Times,serif" font-size="14.00">edit</text>
<text text-anchor="start" x="9" y="-349.9" font-family="Times,serif" font-size="14.00">new</text>
<text text-anchor="start" x="9" y="-334.9" font-family="Times,serif" font-size="14.00">update</text>
<polyline fill="none" stroke="black" points="1,-328.5 120,-328.5 "/>
<polyline fill="none" stroke="black" points="1,-304.5 120,-304.5 "/>
<text text-anchor="start" x="9" y="-287.9" font-family="Times,serif" font-size="14.00">_layout</text>
</g>
<!-- SessionsController -->
<g id="node8" class="node"><title>SessionsController</title>
<polyline fill="none" stroke="black" points="413,-1.5 538,-1.5 "/>
<path fill="none" stroke="black" d="M538,-1.5C544,-1.5 550,-7.5 550,-13.5"/>
<polyline fill="none" stroke="black" points="550,-13.5 550,-127.5 "/>
<path fill="none" stroke="black" d="M550,-127.5C550,-133.5 544,-139.5 538,-139.5"/>
<polyline fill="none" stroke="black" points="538,-139.5 413,-139.5 "/>
<path fill="none" stroke="black" d="M413,-139.5C407,-139.5 401,-133.5 401,-127.5"/>
<polyline fill="none" stroke="black" points="401,-127.5 401,-13.5 "/>
<path fill="none" stroke="black" d="M401,-13.5C401,-7.5 407,-1.5 413,-1.5"/>
<text text-anchor="middle" x="475.5" y="-122.9" font-family="Times,serif" font-size="14.00">SessionsController</text>
<polyline fill="none" stroke="black" points="401,-116.5 550,-116.5 "/>
<text text-anchor="start" x="409" y="-99.9" font-family="Times,serif" font-size="14.00">create</text>
<text text-anchor="start" x="409" y="-84.9" font-family="Times,serif" font-size="14.00">destroy</text>
<text text-anchor="start" x="409" y="-69.9" font-family="Times,serif" font-size="14.00">index</text>
<text text-anchor="start" x="409" y="-54.9" font-family="Times,serif" font-size="14.00">request_new_password</text>
<polyline fill="none" stroke="black" points="401,-48.5 550,-48.5 "/>
<polyline fill="none" stroke="black" points="401,-24.5 550,-24.5 "/>
<text text-anchor="start" x="409" y="-7.9" font-family="Times,serif" font-size="14.00">_layout</text>
</g>
<!-- UsersController -->
<g id="node9" class="node"><title>UsersController</title>
<polyline fill="none" stroke="black" points="113,-481.5 198,-481.5 "/>
<path fill="none" stroke="black" d="M198,-481.5C204,-481.5 210,-487.5 210,-493.5"/>
<polyline fill="none" stroke="black" points="210,-493.5 210,-652.5 "/>
<path fill="none" stroke="black" d="M210,-652.5C210,-658.5 204,-664.5 198,-664.5"/>
<polyline fill="none" stroke="black" points="198,-664.5 113,-664.5 "/>
<path fill="none" stroke="black" d="M113,-664.5C107,-664.5 101,-658.5 101,-652.5"/>
<polyline fill="none" stroke="black" points="101,-652.5 101,-493.5 "/>
<path fill="none" stroke="black" d="M101,-493.5C101,-487.5 107,-481.5 113,-481.5"/>
<text text-anchor="middle" x="155.5" y="-647.9" font-family="Times,serif" font-size="14.00">UsersController</text>
<polyline fill="none" stroke="black" points="101,-641.5 210,-641.5 "/>
<text text-anchor="start" x="109" y="-624.9" font-family="Times,serif" font-size="14.00">create</text>
<text text-anchor="start" x="109" y="-609.9" font-family="Times,serif" font-size="14.00">destroy</text>
<text text-anchor="start" x="109" y="-594.9" font-family="Times,serif" font-size="14.00">edit</text>
<text text-anchor="start" x="109" y="-579.9" font-family="Times,serif" font-size="14.00">index</text>
<text text-anchor="start" x="109" y="-564.9" font-family="Times,serif" font-size="14.00">new</text>
<text text-anchor="start" x="109" y="-549.9" font-family="Times,serif" font-size="14.00">show</text>
<text text-anchor="start" x="109" y="-534.9" font-family="Times,serif" font-size="14.00">update</text>
<polyline fill="none" stroke="black" points="101,-528.5 210,-528.5 "/>
<polyline fill="none" stroke="black" points="101,-504.5 210,-504.5 "/>
<text text-anchor="start" x="109" y="-487.9" font-family="Times,serif" font-size="14.00">_layout</text>
</g>
</g>
</svg>
