<?xml version="1.0" encoding="UTF-8" standalone="no"?>
<!DOCTYPE svg PUBLIC "-//W3C//DTD SVG 1.1//EN"
 "http://www.w3.org/Graphics/SVG/1.1/DTD/svg11.dtd">
<!-- Generated by graphviz version 2.26.3 (20100126.1600)
 -->
<!-- Title: controllers_diagram Pages: 1 -->
<svg width="582pt" height="554pt"
 viewBox="0.00 0.00 582.00 554.00" xmlns="http://www.w3.org/2000/svg" xmlns:xlink="http://www.w3.org/1999/xlink">
<g id="graph1" class="graph" transform="scale(1 1) rotate(0) translate(4 550)">
<title>controllers_diagram</title>
<polygon fill="white" stroke="white" points="-4,5 -4,-550 579,-550 579,5 -4,5"/>
<!-- CommentsController -->
<g id="node1" class="node"><title>CommentsController</title>
<polyline fill="none" stroke="black" points="13,-436.5 105,-436.5 "/>
<path fill="none" stroke="black" d="M105,-436.5C111,-436.5 117,-442.5 117,-448.5"/>
<polyline fill="none" stroke="black" points="117,-448.5 117,-532.5 "/>
<path fill="none" stroke="black" d="M117,-532.5C117,-538.5 111,-544.5 105,-544.5"/>
<polyline fill="none" stroke="black" points="105,-544.5 13,-544.5 "/>
<path fill="none" stroke="black" d="M13,-544.5C7,-544.5 1,-538.5 1,-532.5"/>
<polyline fill="none" stroke="black" points="1,-532.5 1,-448.5 "/>
<path fill="none" stroke="black" d="M1,-448.5C1,-442.5 7,-436.5 13,-436.5"/>
<text text-anchor="middle" x="59" y="-531.5" font-family="Times Roman,serif" font-size="10.00">CommentsController</text>
<polyline fill="none" stroke="black" points="1,-523.5 117,-523.5 "/>
<text text-anchor="start" x="9" y="-510.5" font-family="Times Roman,serif" font-size="10.00">create</text>
<text text-anchor="start" x="9" y="-497.5" font-family="Times Roman,serif" font-size="10.00">destroy</text>
<text text-anchor="start" x="9" y="-484.5" font-family="Times Roman,serif" font-size="10.00">update</text>
<polyline fill="none" stroke="black" points="1,-476.5 117,-476.5 "/>
<polyline fill="none" stroke="black" points="1,-457.5 117,-457.5 "/>
<text text-anchor="middle" x="59" y="-444.5" font-family="Times Roman,serif" font-size="10.00"> </text>
</g>
<!-- PlatformsController -->
<g id="node2" class="node"><title>PlatformsController</title>
<polyline fill="none" stroke="black" points="313,-136.5 398,-136.5 "/>
<path fill="none" stroke="black" d="M398,-136.5C404,-136.5 410,-142.5 410,-148.5"/>
<polyline fill="none" stroke="black" points="410,-148.5 410,-297.5 "/>
<path fill="none" stroke="black" d="M410,-297.5C410,-303.5 404,-309.5 398,-309.5"/>
<polyline fill="none" stroke="black" points="398,-309.5 313,-309.5 "/>
<path fill="none" stroke="black" d="M313,-309.5C307,-309.5 301,-303.5 301,-297.5"/>
<polyline fill="none" stroke="black" points="301,-297.5 301,-148.5 "/>
<path fill="none" stroke="black" d="M301,-148.5C301,-142.5 307,-136.5 313,-136.5"/>
<text text-anchor="middle" x="355.5" y="-296.5" font-family="Times Roman,serif" font-size="10.00">PlatformsController</text>
<polyline fill="none" stroke="black" points="301,-288.5 410,-288.5 "/>
<text text-anchor="start" x="309" y="-275.5" font-family="Times Roman,serif" font-size="10.00">add_product</text>
<text text-anchor="start" x="309" y="-262.5" font-family="Times Roman,serif" font-size="10.00">create</text>
<text text-anchor="start" x="309" y="-249.5" font-family="Times Roman,serif" font-size="10.00">destroy</text>
<text text-anchor="start" x="309" y="-236.5" font-family="Times Roman,serif" font-size="10.00">edit</text>
<text text-anchor="start" x="309" y="-223.5" font-family="Times Roman,serif" font-size="10.00">index</text>
<text text-anchor="start" x="309" y="-210.5" font-family="Times Roman,serif" font-size="10.00">new</text>
<text text-anchor="start" x="309" y="-197.5" font-family="Times Roman,serif" font-size="10.00">show</text>
<text text-anchor="start" x="309" y="-184.5" font-family="Times Roman,serif" font-size="10.00">update</text>
<polyline fill="none" stroke="black" points="301,-176.5 410,-176.5 "/>
<polyline fill="none" stroke="black" points="301,-157.5 410,-157.5 "/>
<text text-anchor="middle" x="355.5" y="-144.5" font-family="Times Roman,serif" font-size="10.00"> </text>
</g>
<!-- RatingsController -->
<g id="node3" class="node"><title>RatingsController</title>
<polyline fill="none" stroke="black" points="313,-16.5 387,-16.5 "/>
<path fill="none" stroke="black" d="M387,-16.5C393,-16.5 399,-22.5 399,-28.5"/>
<polyline fill="none" stroke="black" points="399,-28.5 399,-86.5 "/>
<path fill="none" stroke="black" d="M399,-86.5C399,-92.5 393,-98.5 387,-98.5"/>
<polyline fill="none" stroke="black" points="387,-98.5 313,-98.5 "/>
<path fill="none" stroke="black" d="M313,-98.5C307,-98.5 301,-92.5 301,-86.5"/>
<polyline fill="none" stroke="black" points="301,-86.5 301,-28.5 "/>
<path fill="none" stroke="black" d="M301,-28.5C301,-22.5 307,-16.5 313,-16.5"/>
<text text-anchor="middle" x="350" y="-85.5" font-family="Times Roman,serif" font-size="10.00">RatingsController</text>
<polyline fill="none" stroke="black" points="301,-77.5 399,-77.5 "/>
<text text-anchor="start" x="309" y="-64.5" font-family="Times Roman,serif" font-size="10.00">create</text>
<polyline fill="none" stroke="black" points="301,-56.5 399,-56.5 "/>
<polyline fill="none" stroke="black" points="301,-37.5 399,-37.5 "/>
<text text-anchor="middle" x="350" y="-24.5" font-family="Times Roman,serif" font-size="10.00"> </text>
</g>
<!-- CasProxyCallbackController -->
<g id="node4" class="node"><title>CasProxyCallbackController</title>
<polyline fill="none" stroke="black" points="163,-406.5 286,-406.5 "/>
<path fill="none" stroke="black" d="M286,-406.5C292,-406.5 298,-412.5 298,-418.5"/>
<polyline fill="none" stroke="black" points="298,-418.5 298,-502.5 "/>
<path fill="none" stroke="black" d="M298,-502.5C298,-508.5 292,-514.5 286,-514.5"/>
<polyline fill="none" stroke="black" points="286,-514.5 163,-514.5 "/>
<path fill="none" stroke="black" d="M163,-514.5C157,-514.5 151,-508.5 151,-502.5"/>
<polyline fill="none" stroke="black" points="151,-502.5 151,-418.5 "/>
<path fill="none" stroke="black" d="M151,-418.5C151,-412.5 157,-406.5 163,-406.5"/>
<text text-anchor="middle" x="224.5" y="-501.5" font-family="Times Roman,serif" font-size="10.00">CasProxyCallbackController</text>
<polyline fill="none" stroke="black" points="151,-493.5 298,-493.5 "/>
<text text-anchor="start" x="159" y="-480.5" font-family="Times Roman,serif" font-size="10.00">receive_pgt</text>
<text text-anchor="start" x="159" y="-467.5" font-family="Times Roman,serif" font-size="10.00">retrieve_pgt</text>
<polyline fill="none" stroke="black" points="151,-459.5 298,-459.5 "/>
<polyline fill="none" stroke="black" points="151,-440.5 298,-440.5 "/>
<text text-anchor="start" x="159" y="-427.5" font-family="Times Roman,serif" font-size="10.00">open_pstore</text>
<text text-anchor="start" x="159" y="-414.5" font-family="Times Roman,serif" font-size="10.00">render_error</text>
</g>
<!-- UsersController -->
<g id="node5" class="node"><title>UsersController</title>
<polyline fill="none" stroke="black" points="28,-31.5 95,-31.5 "/>
<path fill="none" stroke="black" d="M95,-31.5C101,-31.5 107,-37.5 107,-43.5"/>
<polyline fill="none" stroke="black" points="107,-43.5 107,-179.5 "/>
<path fill="none" stroke="black" d="M107,-179.5C107,-185.5 101,-191.5 95,-191.5"/>
<polyline fill="none" stroke="black" points="95,-191.5 28,-191.5 "/>
<path fill="none" stroke="black" d="M28,-191.5C22,-191.5 16,-185.5 16,-179.5"/>
<polyline fill="none" stroke="black" points="16,-179.5 16,-43.5 "/>
<path fill="none" stroke="black" d="M16,-43.5C16,-37.5 22,-31.5 28,-31.5"/>
<text text-anchor="middle" x="61.5" y="-178.5" font-family="Times Roman,serif" font-size="10.00">UsersController</text>
<polyline fill="none" stroke="black" points="16,-170.5 107,-170.5 "/>
<text text-anchor="start" x="24" y="-157.5" font-family="Times Roman,serif" font-size="10.00">create</text>
<text text-anchor="start" x="24" y="-144.5" font-family="Times Roman,serif" font-size="10.00">destroy</text>
<text text-anchor="start" x="24" y="-131.5" font-family="Times Roman,serif" font-size="10.00">edit</text>
<text text-anchor="start" x="24" y="-118.5" font-family="Times Roman,serif" font-size="10.00">index</text>
<text text-anchor="start" x="24" y="-105.5" font-family="Times Roman,serif" font-size="10.00">new</text>
<text text-anchor="start" x="24" y="-92.5" font-family="Times Roman,serif" font-size="10.00">show</text>
<text text-anchor="start" x="24" y="-79.5" font-family="Times Roman,serif" font-size="10.00">update</text>
<polyline fill="none" stroke="black" points="16,-71.5 107,-71.5 "/>
<polyline fill="none" stroke="black" points="16,-52.5 107,-52.5 "/>
<text text-anchor="middle" x="61.5" y="-39.5" font-family="Times Roman,serif" font-size="10.00"> </text>
</g>
<!-- DownloadsController -->
<g id="node6" class="node"><title>DownloadsController</title>
<polyline fill="none" stroke="black" points="448,-151.5 539,-151.5 "/>
<path fill="none" stroke="black" d="M539,-151.5C545,-151.5 551,-157.5 551,-163.5"/>
<polyline fill="none" stroke="black" points="551,-163.5 551,-221.5 "/>
<path fill="none" stroke="black" d="M551,-221.5C551,-227.5 545,-233.5 539,-233.5"/>
<polyline fill="none" stroke="black" points="539,-233.5 448,-233.5 "/>
<path fill="none" stroke="black" d="M448,-233.5C442,-233.5 436,-227.5 436,-221.5"/>
<polyline fill="none" stroke="black" points="436,-221.5 436,-163.5 "/>
<path fill="none" stroke="black" d="M436,-163.5C436,-157.5 442,-151.5 448,-151.5"/>
<text text-anchor="middle" x="493.5" y="-220.5" font-family="Times Roman,serif" font-size="10.00">DownloadsController</text>
<polyline fill="none" stroke="black" points="436,-212.5 551,-212.5 "/>
<text text-anchor="start" x="444" y="-199.5" font-family="Times Roman,serif" font-size="10.00">destroy</text>
<polyline fill="none" stroke="black" points="436,-191.5 551,-191.5 "/>
<polyline fill="none" stroke="black" points="436,-172.5 551,-172.5 "/>
<text text-anchor="middle" x="493.5" y="-159.5" font-family="Times Roman,serif" font-size="10.00"> </text>
</g>
<!-- PagesController -->
<g id="node7" class="node"><title>PagesController</title>
<polyline fill="none" stroke="black" points="493,-271.5 561,-271.5 "/>
<path fill="none" stroke="black" d="M561,-271.5C567,-271.5 573,-277.5 573,-283.5"/>
<polyline fill="none" stroke="black" points="573,-283.5 573,-341.5 "/>
<path fill="none" stroke="black" d="M573,-341.5C573,-347.5 567,-353.5 561,-353.5"/>
<polyline fill="none" stroke="black" points="561,-353.5 493,-353.5 "/>
<path fill="none" stroke="black" d="M493,-353.5C487,-353.5 481,-347.5 481,-341.5"/>
<polyline fill="none" stroke="black" points="481,-341.5 481,-283.5 "/>
<path fill="none" stroke="black" d="M481,-283.5C481,-277.5 487,-271.5 493,-271.5"/>
<text text-anchor="middle" x="527" y="-340.5" font-family="Times Roman,serif" font-size="10.00">PagesController</text>
<polyline fill="none" stroke="black" points="481,-332.5 573,-332.5 "/>
<text text-anchor="start" x="489" y="-319.5" font-family="Times Roman,serif" font-size="10.00">show</text>
<polyline fill="none" stroke="black" points="481,-311.5 573,-311.5 "/>
<polyline fill="none" stroke="black" points="481,-292.5 573,-292.5 "/>
<text text-anchor="middle" x="527" y="-279.5" font-family="Times Roman,serif" font-size="10.00"> </text>
</g>
<!-- CategoriesController -->
<g id="node8" class="node"><title>CategoriesController</title>
<polyline fill="none" stroke="black" points="13,-226.5 104,-226.5 "/>
<path fill="none" stroke="black" d="M104,-226.5C110,-226.5 116,-232.5 116,-238.5"/>
<polyline fill="none" stroke="black" points="116,-238.5 116,-374.5 "/>
<path fill="none" stroke="black" d="M116,-374.5C116,-380.5 110,-386.5 104,-386.5"/>
<polyline fill="none" stroke="black" points="104,-386.5 13,-386.5 "/>
<path fill="none" stroke="black" d="M13,-386.5C7,-386.5 1,-380.5 1,-374.5"/>
<polyline fill="none" stroke="black" points="1,-374.5 1,-238.5 "/>
<path fill="none" stroke="black" d="M1,-238.5C1,-232.5 7,-226.5 13,-226.5"/>
<text text-anchor="middle" x="58.5" y="-373.5" font-family="Times Roman,serif" font-size="10.00">CategoriesController</text>
<polyline fill="none" stroke="black" points="1,-365.5 116,-365.5 "/>
<text text-anchor="start" x="9" y="-352.5" font-family="Times Roman,serif" font-size="10.00">create</text>
<text text-anchor="start" x="9" y="-339.5" font-family="Times Roman,serif" font-size="10.00">destroy</text>
<text text-anchor="start" x="9" y="-326.5" font-family="Times Roman,serif" font-size="10.00">edit</text>
<text text-anchor="start" x="9" y="-313.5" font-family="Times Roman,serif" font-size="10.00">index</text>
<text text-anchor="start" x="9" y="-300.5" font-family="Times Roman,serif" font-size="10.00">new</text>
<text text-anchor="start" x="9" y="-287.5" font-family="Times Roman,serif" font-size="10.00">show</text>
<text text-anchor="start" x="9" y="-274.5" font-family="Times Roman,serif" font-size="10.00">update</text>
<polyline fill="none" stroke="black" points="1,-266.5 116,-266.5 "/>
<polyline fill="none" stroke="black" points="1,-247.5 116,-247.5 "/>
<text text-anchor="middle" x="58.5" y="-234.5" font-family="Times Roman,serif" font-size="10.00"> </text>
</g>
<!-- ProductsController -->
<g id="node9" class="node"><title>ProductsController</title>
<polyline fill="none" stroke="black" points="163,-76.5 255,-76.5 "/>
<path fill="none" stroke="black" d="M255,-76.5C261,-76.5 267,-82.5 267,-88.5"/>
<polyline fill="none" stroke="black" points="267,-88.5 267,-354.5 "/>
<path fill="none" stroke="black" d="M267,-354.5C267,-360.5 261,-366.5 255,-366.5"/>
<polyline fill="none" stroke="black" points="255,-366.5 163,-366.5 "/>
<path fill="none" stroke="black" d="M163,-366.5C157,-366.5 151,-360.5 151,-354.5"/>
<polyline fill="none" stroke="black" points="151,-354.5 151,-88.5 "/>
<path fill="none" stroke="black" d="M151,-88.5C151,-82.5 157,-76.5 163,-76.5"/>
<text text-anchor="middle" x="209" y="-353.5" font-family="Times Roman,serif" font-size="10.00">ProductsController</text>
<polyline fill="none" stroke="black" points="151,-345.5 267,-345.5 "/>
<text text-anchor="start" x="159" y="-332.5" font-family="Times Roman,serif" font-size="10.00">approve</text>
<text text-anchor="start" x="159" y="-319.5" font-family="Times Roman,serif" font-size="10.00">autocomplete_tags</text>
<text text-anchor="start" x="159" y="-306.5" font-family="Times Roman,serif" font-size="10.00">block</text>
<text text-anchor="start" x="159" y="-293.5" font-family="Times Roman,serif" font-size="10.00">create</text>
<text text-anchor="start" x="159" y="-280.5" font-family="Times Roman,serif" font-size="10.00">demote</text>
<text text-anchor="start" x="159" y="-267.5" font-family="Times Roman,serif" font-size="10.00">destroy</text>
<text text-anchor="start" x="159" y="-254.5" font-family="Times Roman,serif" font-size="10.00">edit</text>
<text text-anchor="start" x="159" y="-241.5" font-family="Times Roman,serif" font-size="10.00">index</text>
<text text-anchor="start" x="159" y="-228.5" font-family="Times Roman,serif" font-size="10.00">mainpage</text>
<text text-anchor="start" x="159" y="-215.5" font-family="Times Roman,serif" font-size="10.00">new</text>
<text text-anchor="start" x="159" y="-202.5" font-family="Times Roman,serif" font-size="10.00">promote</text>
<text text-anchor="start" x="159" y="-189.5" font-family="Times Roman,serif" font-size="10.00">request_approval</text>
<text text-anchor="start" x="159" y="-176.5" font-family="Times Roman,serif" font-size="10.00">show</text>
<text text-anchor="start" x="159" y="-163.5" font-family="Times Roman,serif" font-size="10.00">update</text>
<polyline fill="none" stroke="black" points="151,-155.5 267,-155.5 "/>
<polyline fill="none" stroke="black" points="151,-136.5 267,-136.5 "/>
<text text-anchor="start" x="159" y="-123.5" font-family="Times Roman,serif" font-size="10.00">add_popularity</text>
<text text-anchor="start" x="159" y="-110.5" font-family="Times Roman,serif" font-size="10.00">fetch_data_for_index</text>
<text text-anchor="start" x="159" y="-97.5" font-family="Times Roman,serif" font-size="10.00">order_parameter</text>
<text text-anchor="start" x="159" y="-84.5" font-family="Times Roman,serif" font-size="10.00">require_admin</text>
</g>
<!-- SessionsController -->
<g id="node10" class="node"><title>SessionsController</title>
<polyline fill="none" stroke="black" points="448,-1.5 552,-1.5 "/>
<path fill="none" stroke="black" d="M552,-1.5C558,-1.5 564,-7.5 564,-13.5"/>
<polyline fill="none" stroke="black" points="564,-13.5 564,-110.5 "/>
<path fill="none" stroke="black" d="M564,-110.5C564,-116.5 558,-122.5 552,-122.5"/>
<polyline fill="none" stroke="black" points="552,-122.5 448,-122.5 "/>
<path fill="none" stroke="black" d="M448,-122.5C442,-122.5 436,-116.5 436,-110.5"/>
<polyline fill="none" stroke="black" points="436,-110.5 436,-13.5 "/>
<path fill="none" stroke="black" d="M436,-13.5C436,-7.5 442,-1.5 448,-1.5"/>
<text text-anchor="middle" x="500" y="-109.5" font-family="Times Roman,serif" font-size="10.00">SessionsController</text>
<polyline fill="none" stroke="black" points="436,-101.5 564,-101.5 "/>
<text text-anchor="start" x="444" y="-88.5" font-family="Times Roman,serif" font-size="10.00">create</text>
<text text-anchor="start" x="444" y="-75.5" font-family="Times Roman,serif" font-size="10.00">destroy</text>
<text text-anchor="start" x="444" y="-62.5" font-family="Times Roman,serif" font-size="10.00">index</text>
<text text-anchor="start" x="444" y="-49.5" font-family="Times Roman,serif" font-size="10.00">request_new_password</text>
<polyline fill="none" stroke="black" points="436,-41.5 564,-41.5 "/>
<polyline fill="none" stroke="black" points="436,-22.5 564,-22.5 "/>
<text text-anchor="middle" x="500" y="-9.5" font-family="Times Roman,serif" font-size="10.00"> </text>
</g>
<!-- ApplicationController -->
<g id="node11" class="node"><title>ApplicationController</title>
<polyline fill="none" stroke="black" points="343,-346.5 435,-346.5 "/>
<path fill="none" stroke="black" d="M435,-346.5C441,-346.5 447,-352.5 447,-358.5"/>
<polyline fill="none" stroke="black" points="447,-358.5 447,-509.5 "/>
<path fill="none" stroke="black" d="M447,-509.5C447,-515.5 441,-521.5 435,-521.5"/>
<polyline fill="none" stroke="black" points="435,-521.5 343,-521.5 "/>
<path fill="none" stroke="black" d="M343,-521.5C337,-521.5 331,-515.5 331,-509.5"/>
<polyline fill="none" stroke="black" points="331,-509.5 331,-358.5 "/>
<path fill="none" stroke="black" d="M331,-358.5C331,-352.5 337,-346.5 343,-346.5"/>
<text text-anchor="middle" x="389" y="-508.5" font-family="Times Roman,serif" font-size="10.00">ApplicationController</text>
<polyline fill="none" stroke="black" points="331,-500.5 447,-500.5 "/>
<text text-anchor="start" x="339" y="-487.5" font-family="Times Roman,serif" font-size="10.00">render_404</text>
<polyline fill="none" stroke="black" points="331,-479.5 447,-479.5 "/>
<text text-anchor="start" x="339" y="-466.5" font-family="Times Roman,serif" font-size="10.00">current_user</text>
<text text-anchor="start" x="339" y="-453.5" font-family="Times Roman,serif" font-size="10.00">logged_in?</text>
<text text-anchor="start" x="339" y="-440.5" font-family="Times Roman,serif" font-size="10.00">mobile_device?</text>
<text text-anchor="start" x="339" y="-427.5" font-family="Times Roman,serif" font-size="10.00">reset_session</text>
<polyline fill="none" stroke="black" points="331,-419.5 447,-419.5 "/>
<text text-anchor="start" x="339" y="-406.5" font-family="Times Roman,serif" font-size="10.00">parse_boolean</text>
<text text-anchor="start" x="339" y="-393.5" font-family="Times Roman,serif" font-size="10.00">render_error_page</text>
<text text-anchor="start" x="339" y="-380.5" font-family="Times Roman,serif" font-size="10.00">select_layout</text>
<text text-anchor="start" x="339" y="-367.5" font-family="Times Roman,serif" font-size="10.00">set_locale</text>
<text text-anchor="start" x="339" y="-354.5" font-family="Times Roman,serif" font-size="10.00">set_mobile_device</text>
</g>
</g>
</svg>
