<?xml version="1.0" encoding="UTF-8" standalone="no"?>
<!DOCTYPE svg PUBLIC "-//W3C//DTD SVG 1.1//EN"
 "http://www.w3.org/Graphics/SVG/1.1/DTD/svg11.dtd">
<!-- Generated by graphviz version 2.26.3 (20100126.1600)
 -->
<!-- Title: models_diagram Pages: 1 -->
<svg width="842pt" height="422pt"
 viewBox="0.00 0.00 842.00 422.00" xmlns="http://www.w3.org/2000/svg" xmlns:xlink="http://www.w3.org/1999/xlink">
<g id="graph1" class="graph" transform="scale(1 1) rotate(0) translate(4 418)">
<title>models_diagram</title>
<polygon fill="white" stroke="white" points="-4,5 -4,-418 839,-418 839,5 -4,5"/>
<!-- _diagram_info -->
<g id="node1" class="node"><title>_diagram_info</title>
<text text-anchor="start" x="7.5" y="-398.3" font-family="Times,serif" font-size="13.00">Models diagram</text>
<text text-anchor="start" x="7.5" y="-384.3" font-family="Times,serif" font-size="13.00">Date: Dec 03 2010 &#45; 16:32</text>
<text text-anchor="start" x="7.5" y="-370.3" font-family="Times,serif" font-size="13.00">Migration version: 20101203112915</text>
<text text-anchor="start" x="7.5" y="-356.3" font-family="Times,serif" font-size="13.00">Generated by RailRoady 0.11.2</text>
<text text-anchor="start" x="7.5" y="-342.3" font-family="Times,serif" font-size="13.00">http://railroady.prestonlee.com</text>
</g>
<!-- Category -->
<g id="node2" class="node"><title>Category</title>
<polyline fill="none" stroke="black" points="242,-344.5 332,-344.5 "/>
<path fill="none" stroke="black" d="M332,-344.5C338,-344.5 344,-350.5 344,-356.5"/>
<polyline fill="none" stroke="black" points="344,-356.5 344,-393.5 "/>
<path fill="none" stroke="black" d="M344,-393.5C344,-399.5 338,-405.5 332,-405.5"/>
<polyline fill="none" stroke="black" points="332,-405.5 242,-405.5 "/>
<path fill="none" stroke="black" d="M242,-405.5C236,-405.5 230,-399.5 230,-393.5"/>
<polyline fill="none" stroke="black" points="230,-393.5 230,-356.5 "/>
<path fill="none" stroke="black" d="M230,-356.5C230,-350.5 236,-344.5 242,-344.5"/>
<text text-anchor="middle" x="287" y="-388.9" font-family="Times,serif" font-size="14.00">Category</text>
<polyline fill="none" stroke="black" points="230,-382.5 344,-382.5 "/>
<text text-anchor="start" x="238" y="-365.9" font-family="Times,serif" font-size="14.00">name :string</text>
<text text-anchor="start" x="238" y="-350.9" font-family="Times,serif" font-size="14.00">image_url :string</text>
</g>
<!-- Product -->
<g id="node5" class="node"><title>Product</title>
<polyline fill="none" stroke="black" points="363.5,-117 474.5,-117 "/>
<path fill="none" stroke="black" d="M474.5,-117C480.5,-117 486.5,-123 486.5,-129"/>
<polyline fill="none" stroke="black" points="486.5,-129 486.5,-271 "/>
<path fill="none" stroke="black" d="M486.5,-271C486.5,-277 480.5,-283 474.5,-283"/>
<polyline fill="none" stroke="black" points="474.5,-283 363.5,-283 "/>
<path fill="none" stroke="black" d="M363.5,-283C357.5,-283 351.5,-277 351.5,-271"/>
<polyline fill="none" stroke="black" points="351.5,-271 351.5,-129 "/>
<path fill="none" stroke="black" d="M351.5,-129C351.5,-123 357.5,-117 363.5,-117"/>
<text text-anchor="middle" x="419" y="-266.4" font-family="Times,serif" font-size="14.00">Product</text>
<polyline fill="none" stroke="black" points="351.5,-260 486.5,-260 "/>
<text text-anchor="start" x="359.5" y="-243.4" font-family="Times,serif" font-size="14.00">name :string</text>
<text text-anchor="start" x="359.5" y="-228.4" font-family="Times,serif" font-size="14.00">description :text</text>
<text text-anchor="start" x="359.5" y="-213.4" font-family="Times,serif" font-size="14.00">url :string</text>
<text text-anchor="start" x="359.5" y="-198.4" font-family="Times,serif" font-size="14.00">created_at :datetime</text>
<text text-anchor="start" x="359.5" y="-183.4" font-family="Times,serif" font-size="14.00">updated_at :datetime</text>
<text text-anchor="start" x="359.5" y="-168.4" font-family="Times,serif" font-size="14.00">donate :string</text>
<text text-anchor="start" x="359.5" y="-153.4" font-family="Times,serif" font-size="14.00">popularity :integer</text>
<text text-anchor="start" x="359.5" y="-138.4" font-family="Times,serif" font-size="14.00">featured :boolean</text>
<text text-anchor="start" x="359.5" y="-123.4" font-family="Times,serif" font-size="14.00">avg_rating :float</text>
</g>
<!-- Category&#45;&gt;Product -->
<g id="edge2" class="edge"><title>Category&#45;&gt;Product</title>
<path fill="none" stroke="black" d="M315.295,-337.488C325.645,-323.766 337.858,-307.575 350.201,-291.211"/>
<ellipse fill="none" stroke="black" cx="312.704" cy="-340.923" rx="4.00002" ry="4.00002"/>
<polygon fill="black" stroke="black" points="350.241,-291.157 359.856,-285.884 353.252,-287.165 356.263,-283.174 356.263,-283.174 356.263,-283.174 353.252,-287.165 352.671,-280.464 350.241,-291.157 350.241,-291.157"/>
</g>
<!-- Comment -->
<g id="node3" class="node"><title>Comment</title>
<polyline fill="none" stroke="black" points="512.5,-1 623.5,-1 "/>
<path fill="none" stroke="black" d="M623.5,-1C629.5,-1 635.5,-7 635.5,-13"/>
<polyline fill="none" stroke="black" points="635.5,-13 635.5,-65 "/>
<path fill="none" stroke="black" d="M635.5,-65C635.5,-71 629.5,-77 623.5,-77"/>
<polyline fill="none" stroke="black" points="623.5,-77 512.5,-77 "/>
<path fill="none" stroke="black" d="M512.5,-77C506.5,-77 500.5,-71 500.5,-65"/>
<polyline fill="none" stroke="black" points="500.5,-65 500.5,-13 "/>
<path fill="none" stroke="black" d="M500.5,-13C500.5,-7 506.5,-1 512.5,-1"/>
<text text-anchor="middle" x="568" y="-60.4" font-family="Times,serif" font-size="14.00">Comment</text>
<polyline fill="none" stroke="black" points="500.5,-54 635.5,-54 "/>
<text text-anchor="start" x="508.5" y="-37.4" font-family="Times,serif" font-size="14.00">body :text</text>
<text text-anchor="start" x="508.5" y="-22.4" font-family="Times,serif" font-size="14.00">created_at :datetime</text>
<text text-anchor="start" x="508.5" y="-7.4" font-family="Times,serif" font-size="14.00">updated_at :datetime</text>
</g>
<!-- Platform -->
<g id="node4" class="node"><title>Platform</title>
<polyline fill="none" stroke="black" points="374,-344.5 464,-344.5 "/>
<path fill="none" stroke="black" d="M464,-344.5C470,-344.5 476,-350.5 476,-356.5"/>
<polyline fill="none" stroke="black" points="476,-356.5 476,-393.5 "/>
<path fill="none" stroke="black" d="M476,-393.5C476,-399.5 470,-405.5 464,-405.5"/>
<polyline fill="none" stroke="black" points="464,-405.5 374,-405.5 "/>
<path fill="none" stroke="black" d="M374,-405.5C368,-405.5 362,-399.5 362,-393.5"/>
<polyline fill="none" stroke="black" points="362,-393.5 362,-356.5 "/>
<path fill="none" stroke="black" d="M362,-356.5C362,-350.5 368,-344.5 374,-344.5"/>
<text text-anchor="middle" x="419" y="-388.9" font-family="Times,serif" font-size="14.00">Platform</text>
<polyline fill="none" stroke="black" points="362,-382.5 476,-382.5 "/>
<text text-anchor="start" x="370" y="-365.9" font-family="Times,serif" font-size="14.00">name :string</text>
<text text-anchor="start" x="370" y="-350.9" font-family="Times,serif" font-size="14.00">image_url :string</text>
</g>
<!-- Platform&#45;&gt;Product -->
<g id="edge4" class="edge"><title>Platform&#45;&gt;Product</title>
<path fill="none" stroke="black" d="M419,-334.017C419,-321.742 419,-307.746 419,-293.537"/>
<polygon fill="black" stroke="black" points="419,-334.116 414.5,-344.116 419,-339.116 419,-344.116 419,-344.116 419,-344.116 419,-339.116 423.5,-344.116 419,-334.116 419,-334.116"/>
<polygon fill="black" stroke="black" points="419,-293.174 423.5,-283.174 419,-288.174 419,-283.174 419,-283.174 419,-283.174 419,-288.174 414.5,-283.174 419,-293.174 419,-293.174"/>
</g>
<!-- Product&#45;&gt;Comment -->
<g id="edge8" class="edge"><title>Product&#45;&gt;Comment</title>
<path fill="none" stroke="black" d="M492.114,-120.998C503.534,-108.658 514.998,-96.2706 525.431,-84.9971"/>
<ellipse fill="none" stroke="black" cx="489.242" cy="-124.101" rx="4.00002" ry="4.00002"/>
<polygon fill="black" stroke="black" points="525.684,-84.7238 535.779,-80.441 529.08,-81.0542 532.476,-77.3845 532.476,-77.3845 532.476,-77.3845 529.08,-81.0542 529.174,-74.328 525.684,-84.7238 525.684,-84.7238"/>
</g>
<!-- Rating -->
<g id="node6" class="node"><title>Rating</title>
<polyline fill="none" stroke="black" points="360.5,-1 471.5,-1 "/>
<path fill="none" stroke="black" d="M471.5,-1C477.5,-1 483.5,-7 483.5,-13"/>
<polyline fill="none" stroke="black" points="483.5,-13 483.5,-65 "/>
<path fill="none" stroke="black" d="M483.5,-65C483.5,-71 477.5,-77 471.5,-77"/>
<polyline fill="none" stroke="black" points="471.5,-77 360.5,-77 "/>
<path fill="none" stroke="black" d="M360.5,-77C354.5,-77 348.5,-71 348.5,-65"/>
<polyline fill="none" stroke="black" points="348.5,-65 348.5,-13 "/>
<path fill="none" stroke="black" d="M348.5,-13C348.5,-7 354.5,-1 360.5,-1"/>
<text text-anchor="middle" x="416" y="-60.4" font-family="Times,serif" font-size="14.00">Rating</text>
<polyline fill="none" stroke="black" points="348.5,-54 483.5,-54 "/>
<text text-anchor="start" x="356.5" y="-37.4" font-family="Times,serif" font-size="14.00">rating :float</text>
<text text-anchor="start" x="356.5" y="-22.4" font-family="Times,serif" font-size="14.00">created_at :datetime</text>
<text text-anchor="start" x="356.5" y="-7.4" font-family="Times,serif" font-size="14.00">updated_at :datetime</text>
</g>
<!-- Product&#45;&gt;Rating -->
<g id="edge6" class="edge"><title>Product&#45;&gt;Rating</title>
<path fill="none" stroke="black" d="M417.297,-108.603C417.162,-101.365 417.029,-94.2474 416.904,-87.4891"/>
<ellipse fill="none" stroke="black" cx="417.373" cy="-112.671" rx="4" ry="4"/>
<polygon fill="black" stroke="black" points="416.898,-87.1977 421.211,-77.1155 416.805,-82.1985 416.712,-77.1994 416.712,-77.1994 416.712,-77.1994 416.805,-82.1985 412.213,-77.2833 416.898,-87.1977 416.898,-87.1977"/>
</g>
<!-- Session -->
<g id="node7" class="node"><title>Session</title>
<polygon fill="none" stroke="black" points="646,-352 646,-398 706,-398 706,-352 646,-352"/>
<text text-anchor="middle" x="676" y="-381.4" font-family="Times,serif" font-size="14.00">Session</text>
<polyline fill="none" stroke="black" points="646,-375 706,-375 "/>
<text text-anchor="middle" x="676" y="-358.4" font-family="Times,serif" font-size="14.00"> </text>
</g>
<!-- User -->
<g id="node8" class="node"><title>User</title>
<polyline fill="none" stroke="black" points="505.5,-344.5 616.5,-344.5 "/>
<path fill="none" stroke="black" d="M616.5,-344.5C622.5,-344.5 628.5,-350.5 628.5,-356.5"/>
<polyline fill="none" stroke="black" points="628.5,-356.5 628.5,-393.5 "/>
<path fill="none" stroke="black" d="M628.5,-393.5C628.5,-399.5 622.5,-405.5 616.5,-405.5"/>
<polyline fill="none" stroke="black" points="616.5,-405.5 505.5,-405.5 "/>
<path fill="none" stroke="black" d="M505.5,-405.5C499.5,-405.5 493.5,-399.5 493.5,-393.5"/>
<polyline fill="none" stroke="black" points="493.5,-393.5 493.5,-356.5 "/>
<path fill="none" stroke="black" d="M493.5,-356.5C493.5,-350.5 499.5,-344.5 505.5,-344.5"/>
<text text-anchor="middle" x="561" y="-388.9" font-family="Times,serif" font-size="14.00">User</text>
<polyline fill="none" stroke="black" points="493.5,-382.5 628.5,-382.5 "/>
<text text-anchor="start" x="501.5" y="-365.9" font-family="Times,serif" font-size="14.00">created_at :datetime</text>
<text text-anchor="start" x="501.5" y="-350.9" font-family="Times,serif" font-size="14.00">updated_at :datetime</text>
</g>
<!-- User&#45;&gt;Comment -->
<g id="edge14" class="edge"><title>User&#45;&gt;Comment</title>
<path fill="none" stroke="black" d="M561.814,-335.942C563.099,-274.272 565.594,-154.476 566.991,-87.4282"/>
<ellipse fill="none" stroke="black" cx="561.723" cy="-340.292" rx="4" ry="4"/>
<polygon fill="black" stroke="black" points="566.997,-87.1351 571.704,-77.2311 567.101,-82.1362 567.205,-77.1373 567.205,-77.1373 567.205,-77.1373 567.101,-82.1362 562.706,-77.0435 566.997,-87.1351 566.997,-87.1351"/>
</g>
<!-- User&#45;&gt;Product -->
<g id="edge12" class="edge"><title>User&#45;&gt;Product</title>
<path fill="none" stroke="black" d="M495.32,-340.566C475.133,-329.751 457.702,-320.068 456,-318 449.707,-310.354 444.48,-301.633 440.14,-292.471"/>
<ellipse fill="none" stroke="black" cx="499.025" cy="-342.544" rx="4.00002" ry="4.00002"/>
<polygon fill="black" stroke="black" points="440.088,-292.353 440.213,-281.388 438.089,-287.77 436.089,-283.187 436.089,-283.187 436.089,-283.187 438.089,-287.77 431.965,-284.987 440.088,-292.353 440.088,-292.353"/>
<text text-anchor="middle" x="484" y="-304.9" font-family="Times,serif" font-size="14.00">published</text>
</g>
<!-- User&#45;&gt;Rating -->
<g id="edge10" class="edge"><title>User&#45;&gt;Rating</title>
<path fill="none" stroke="black" d="M557.717,-336.147C551.828,-283.22 535.982,-186.938 495,-116 488.511,-104.767 479.925,-94.0877 470.806,-84.4555"/>
<ellipse fill="none" stroke="black" cx="558.156" cy="-340.281" rx="4" ry="4"/>
<polygon fill="black" stroke="black" points="470.775,-84.424 466.96,-74.1431 467.265,-80.863 463.755,-77.302 463.755,-77.302 463.755,-77.302 467.265,-80.863 460.55,-80.461 470.775,-84.424 470.775,-84.424"/>
</g>
<!-- UserConnection -->
<g id="node9" class="node"><title>UserConnection</title>
<polygon fill="none" stroke="black" points="724,-352 724,-398 834,-398 834,-352 724,-352"/>
<text text-anchor="middle" x="779" y="-381.4" font-family="Times,serif" font-size="14.00">UserConnection</text>
<polyline fill="none" stroke="black" points="724,-375 834,-375 "/>
<text text-anchor="middle" x="779" y="-358.4" font-family="Times,serif" font-size="14.00"> </text>
</g>
</g>
</svg>
