<?xml version="1.0" encoding="UTF-8" standalone="no"?>
<!DOCTYPE svg PUBLIC "-//W3C//DTD SVG 1.1//EN"
 "http://www.w3.org/Graphics/SVG/1.1/DTD/svg11.dtd">
<!-- Generated by graphviz version 2.26.3 (20100126.1600)
 -->
<!-- Title: models_diagram Pages: 1 -->
<svg width="727pt" height="248pt"
 viewBox="0.00 0.00 727.00 248.00" xmlns="http://www.w3.org/2000/svg" xmlns:xlink="http://www.w3.org/1999/xlink">
<g id="graph1" class="graph" transform="scale(1 1) rotate(0) translate(4 244)">
<title>models_diagram</title>
<polygon fill="white" stroke="white" points="-4,5 -4,-244 724,-244 724,5 -4,5"/>
<!-- _diagram_info -->
<g id="node1" class="node"><title>_diagram_info</title>
<text text-anchor="start" x="7.5" y="-224.3" font-family="Times,serif" font-size="13.00">Models diagram</text>
<text text-anchor="start" x="7.5" y="-210.3" font-family="Times,serif" font-size="13.00">Date: Dec 03 2010 &#45; 16:33</text>
<text text-anchor="start" x="7.5" y="-196.3" font-family="Times,serif" font-size="13.00">Migration version: 20101203112915</text>
<text text-anchor="start" x="7.5" y="-182.3" font-family="Times,serif" font-size="13.00">Generated by RailRoady 0.11.2</text>
<text text-anchor="start" x="7.5" y="-168.3" font-family="Times,serif" font-size="13.00">http://railroady.prestonlee.com</text>
</g>
<!-- Category -->
<g id="node2" class="node"><title>Category</title>
<ellipse fill="none" stroke="black" cx="275" cy="-201" rx="44.996" ry="18"/>
<text text-anchor="middle" x="275" y="-195.9" font-family="Times,serif" font-size="14.00">Category</text>
</g>
<!-- Product -->
<g id="node5" class="node"><title>Product</title>
<ellipse fill="none" stroke="black" cx="414" cy="-92" rx="39.7989" ry="18"/>
<text text-anchor="middle" x="414" y="-86.9" font-family="Times,serif" font-size="14.00">Product</text>
</g>
<!-- Category&#45;&gt;Product -->
<g id="edge2" class="edge"><title>Category&#45;&gt;Product</title>
<path fill="none" stroke="black" d="M302.039,-179.797C326.119,-160.914 361.226,-133.384 385.686,-114.203"/>
<ellipse fill="none" stroke="black" cx="298.658" cy="-182.448" rx="4.00002" ry="4.00002"/>
<polygon fill="black" stroke="black" points="385.989,-113.966 396.635,-111.336 389.923,-110.88 393.858,-107.795 393.858,-107.795 393.858,-107.795 389.923,-110.88 391.081,-104.254 385.989,-113.966 385.989,-113.966"/>
</g>
<!-- Comment -->
<g id="node3" class="node"><title>Comment</title>
<ellipse fill="none" stroke="black" cx="519" cy="-18" rx="48.0957" ry="18"/>
<text text-anchor="middle" x="519" y="-12.9" font-family="Times,serif" font-size="14.00">Comment</text>
</g>
<!-- Platform -->
<g id="node4" class="node"><title>Platform</title>
<ellipse fill="none" stroke="black" cx="381" cy="-201" rx="43.0456" ry="18"/>
<text text-anchor="middle" x="381" y="-195.9" font-family="Times,serif" font-size="14.00">Platform</text>
</g>
<!-- Platform&#45;&gt;Product -->
<g id="edge4" class="edge"><title>Platform&#45;&gt;Product</title>
<path fill="none" stroke="black" d="M384.446,-172.607C386.613,-158.879 389.975,-142.316 395,-128 396.1,-124.866 397.437,-121.669 398.886,-118.538"/>
<polygon fill="black" stroke="black" points="384.387,-173.013 378.502,-182.266 383.671,-177.962 382.955,-182.91 382.955,-182.91 382.955,-182.91 383.671,-177.962 387.409,-183.555 384.387,-173.013 384.387,-173.013"/>
<polygon fill="black" stroke="black" points="398.952,-118.406 407.467,-111.495 401.2,-113.939 403.447,-109.473 403.447,-109.473 403.447,-109.473 401.2,-113.939 399.427,-107.45 398.952,-118.406 398.952,-118.406"/>
</g>
<!-- Product&#45;&gt;Comment -->
<g id="edge8" class="edge"><title>Product&#45;&gt;Comment</title>
<path fill="none" stroke="black" d="M442.687,-71.7824C456.623,-61.961 473.399,-50.1378 487.669,-40.081"/>
<ellipse fill="none" stroke="black" cx="439.026" cy="-74.3628" rx="4.00002" ry="4.00002"/>
<polygon fill="black" stroke="black" points="488.008,-39.8419 498.775,-37.7594 492.095,-36.9615 496.182,-34.0811 496.182,-34.0811 496.182,-34.0811 492.095,-36.9615 493.59,-30.4028 488.008,-39.8419 488.008,-39.8419"/>
</g>
<!-- Rating -->
<g id="node6" class="node"><title>Rating</title>
<ellipse fill="none" stroke="black" cx="417" cy="-18" rx="35.0969" ry="18"/>
<text text-anchor="middle" x="417" y="-12.9" font-family="Times,serif" font-size="14.00">Rating</text>
</g>
<!-- Product&#45;&gt;Rating -->
<g id="edge6" class="edge"><title>Product&#45;&gt;Rating</title>
<path fill="none" stroke="black" d="M415.075,-65.4865C415.328,-59.2389 415.599,-52.5565 415.855,-46.2361"/>
<ellipse fill="none" stroke="black" cx="414.904" cy="-69.7111" rx="4" ry="4"/>
<polygon fill="black" stroke="black" points="415.862,-46.0735 420.763,-36.264 416.064,-41.0776 416.267,-36.0817 416.267,-36.0817 416.267,-36.0817 416.064,-41.0776 411.771,-35.8994 415.862,-46.0735 415.862,-46.0735"/>
</g>
<!-- Session -->
<g id="node7" class="node"><title>Session</title>
<polygon fill="none" stroke="black" points="591,-219 531,-219 531,-183 591,-183 591,-219"/>
<text text-anchor="middle" x="561" y="-195.9" font-family="Times,serif" font-size="14.00">Session</text>
</g>
<!-- User -->
<g id="node8" class="node"><title>User</title>
<ellipse fill="none" stroke="black" cx="485" cy="-201" rx="28.0958" ry="18"/>
<text text-anchor="middle" x="485" y="-195.9" font-family="Times,serif" font-size="14.00">User</text>
</g>
<!-- User&#45;&gt;Comment -->
<g id="edge14" class="edge"><title>User&#45;&gt;Comment</title>
<path fill="none" stroke="black" d="M491.791,-175.317C494.245,-165.552 496.921,-154.301 499,-144 505.747,-110.565 511.614,-71.7598 515.218,-46.1449"/>
<ellipse fill="none" stroke="black" cx="490.789" cy="-179.24" rx="4.00001" ry="4.00001"/>
<polygon fill="black" stroke="black" points="515.248,-45.9341 521.078,-36.6466 515.934,-40.9815 516.621,-36.0288 516.621,-36.0288 516.621,-36.0288 515.934,-40.9815 512.163,-35.411 515.248,-45.9341 515.248,-45.9341"/>
</g>
<!-- User&#45;&gt;Product -->
<g id="edge12" class="edge"><title>User&#45;&gt;Product</title>
<path fill="none" stroke="black" d="M459.774,-182.124C440.767,-167.631 417.552,-149.239 415,-144 411.481,-136.775 410.287,-128.289 410.228,-120.292"/>
<ellipse fill="none" stroke="black" cx="463.353" cy="-184.838" rx="4.00002" ry="4.00002"/>
<polygon fill="black" stroke="black" points="410.233,-120.196 415.199,-110.419 410.468,-115.202 410.704,-110.207 410.704,-110.207 410.704,-110.207 410.468,-115.202 406.209,-109.995 410.233,-120.196 410.233,-120.196"/>
<text text-anchor="middle" x="443" y="-130.9" font-family="Times,serif" font-size="14.00">published</text>
</g>
<!-- User&#45;&gt;Rating -->
<g id="edge10" class="edge"><title>User&#45;&gt;Rating</title>
<path fill="none" stroke="black" d="M484.348,-174.855C482.815,-148.342 477.97,-106.675 463,-74 457.596,-62.2041 449.081,-50.8244 440.839,-41.4398"/>
<ellipse fill="none" stroke="black" cx="484.544" cy="-178.904" rx="4" ry="4"/>
<polygon fill="black" stroke="black" points="440.822,-41.4217 437.366,-31.0147 437.438,-37.7411 434.053,-34.0606 434.053,-34.0606 434.053,-34.0606 437.438,-37.7411 430.741,-37.1064 440.822,-41.4217 440.822,-41.4217"/>
</g>
<!-- UserConnection -->
<g id="node9" class="node"><title>UserConnection</title>
<polygon fill="none" stroke="black" points="719,-219 609,-219 609,-183 719,-183 719,-219"/>
<text text-anchor="middle" x="664" y="-195.9" font-family="Times,serif" font-size="14.00">UserConnection</text>
</g>
</g>
</svg>
