<?xml version="1.0" encoding="UTF-8" standalone="no"?>
<!DOCTYPE svg PUBLIC "-//W3C//DTD SVG 1.1//EN"
 "http://www.w3.org/Graphics/SVG/1.1/DTD/svg11.dtd">
<!-- Generated by graphviz version 2.26.3 (20100126.1600)
 -->
<!-- Title: models_diagram Pages: 1 -->
<svg width="486pt" height="568pt"
 viewBox="0.00 0.00 486.00 568.00" xmlns="http://www.w3.org/2000/svg" xmlns:xlink="http://www.w3.org/1999/xlink">
<g id="graph1" class="graph" transform="scale(1 1) rotate(0) translate(4 564)">
<title>models_diagram</title>
<polygon fill="white" stroke="white" points="-4,5 -4,-564 483,-564 483,5 -4,5"/>
<!-- Category -->
<g id="node1" class="node"><title>Category</title>
<polyline fill="none" stroke="black" points="11.5,-480 120.5,-480 "/>
<path fill="none" stroke="black" d="M120.5,-480C126.5,-480 132.5,-486 132.5,-492"/>
<polyline fill="none" stroke="black" points="132.5,-492 132.5,-538 "/>
<path fill="none" stroke="black" d="M132.5,-538C132.5,-544 126.5,-550 120.5,-550"/>
<polyline fill="none" stroke="black" points="120.5,-550 11.5,-550 "/>
<path fill="none" stroke="black" d="M11.5,-550C5.5,-550 -0.5,-544 -0.5,-538"/>
<polyline fill="none" stroke="black" points="-0.5,-538 -0.5,-492 "/>
<path fill="none" stroke="black" d="M-0.5,-492C-0.5,-486 5.5,-480 11.5,-480"/>
<text text-anchor="middle" x="66" y="-533.4" font-family="Times Roman,serif" font-size="14.00">Category</text>
<polyline fill="none" stroke="black" points="-0.5,-524 132.5,-524 "/>
<text text-anchor="start" x="7.5" y="-507.4" font-family="Times Roman,serif" font-size="14.00">name :string</text>
<text text-anchor="start" x="7.5" y="-489.4" font-family="Times Roman,serif" font-size="14.00">image_url :string</text>
</g>
<!-- Product -->
<g id="node6" class="node"><title>Product</title>
<polyline fill="none" stroke="black" points="122,-129 310,-129 "/>
<path fill="none" stroke="black" d="M310,-129C316,-129 322,-135 322,-141"/>
<polyline fill="none" stroke="black" points="322,-141 322,-403 "/>
<path fill="none" stroke="black" d="M322,-403C322,-409 316,-415 310,-415"/>
<polyline fill="none" stroke="black" points="310,-415 122,-415 "/>
<path fill="none" stroke="black" d="M122,-415C116,-415 110,-409 110,-403"/>
<polyline fill="none" stroke="black" points="110,-403 110,-141 "/>
<path fill="none" stroke="black" d="M110,-141C110,-135 116,-129 122,-129"/>
<text text-anchor="middle" x="216" y="-398.4" font-family="Times Roman,serif" font-size="14.00">Product</text>
<polyline fill="none" stroke="black" points="110,-389 322,-389 "/>
<text text-anchor="start" x="118" y="-372.4" font-family="Times Roman,serif" font-size="14.00">name :string</text>
<text text-anchor="start" x="118" y="-354.4" font-family="Times Roman,serif" font-size="14.00">description :text</text>
<text text-anchor="start" x="118" y="-336.4" font-family="Times Roman,serif" font-size="14.00">url :string</text>
<text text-anchor="start" x="118" y="-318.4" font-family="Times Roman,serif" font-size="14.00">created_at :datetime</text>
<text text-anchor="start" x="118" y="-300.4" font-family="Times Roman,serif" font-size="14.00">updated_at :datetime</text>
<text text-anchor="start" x="118" y="-282.4" font-family="Times Roman,serif" font-size="14.00">popularity :integer</text>
<text text-anchor="start" x="118" y="-264.4" font-family="Times Roman,serif" font-size="14.00">featured :boolean</text>
<text text-anchor="start" x="118" y="-246.4" font-family="Times Roman,serif" font-size="14.00">avg_rating :float</text>
<text text-anchor="start" x="118" y="-228.4" font-family="Times Roman,serif" font-size="14.00">photo_file_name :string</text>
<text text-anchor="start" x="118" y="-210.4" font-family="Times Roman,serif" font-size="14.00">photo_content_type :string</text>
<text text-anchor="start" x="118" y="-192.4" font-family="Times Roman,serif" font-size="14.00">photo_file_size :integer</text>
<text text-anchor="start" x="118" y="-174.4" font-family="Times Roman,serif" font-size="14.00">photo_updated_at :datetime</text>
<text text-anchor="start" x="118" y="-156.4" font-family="Times Roman,serif" font-size="14.00">approval_date :datetime</text>
<text text-anchor="start" x="118" y="-138.4" font-family="Times Roman,serif" font-size="14.00">approval_state :string</text>
</g>
<!-- Category&#45;&gt;Product -->
<g id="edge2" class="edge"><title>Category&#45;&gt;Product</title>
<path fill="none" stroke="black" d="M91.9175,-473.014C100.751,-458.703 111.205,-441.768 122.237,-423.896"/>
<ellipse fill="none" stroke="black" cx="89.7522" cy="-476.521" rx="4.00002" ry="4.00002"/>
<polygon fill="black" stroke="black" points="122.442,-423.563 131.524,-417.418 125.069,-419.309 127.695,-415.054 127.695,-415.054 127.695,-415.054 125.069,-419.309 123.866,-412.69 122.442,-423.563 122.442,-423.563"/>
</g>
<!-- Platform -->
<g id="node2" class="node"><title>Platform</title>
<polyline fill="none" stroke="black" points="161.5,-480 270.5,-480 "/>
<path fill="none" stroke="black" d="M270.5,-480C276.5,-480 282.5,-486 282.5,-492"/>
<polyline fill="none" stroke="black" points="282.5,-492 282.5,-538 "/>
<path fill="none" stroke="black" d="M282.5,-538C282.5,-544 276.5,-550 270.5,-550"/>
<polyline fill="none" stroke="black" points="270.5,-550 161.5,-550 "/>
<path fill="none" stroke="black" d="M161.5,-550C155.5,-550 149.5,-544 149.5,-538"/>
<polyline fill="none" stroke="black" points="149.5,-538 149.5,-492 "/>
<path fill="none" stroke="black" d="M149.5,-492C149.5,-486 155.5,-480 161.5,-480"/>
<text text-anchor="middle" x="216" y="-533.4" font-family="Times Roman,serif" font-size="14.00">Platform</text>
<polyline fill="none" stroke="black" points="149.5,-524 282.5,-524 "/>
<text text-anchor="start" x="157.5" y="-507.4" font-family="Times Roman,serif" font-size="14.00">name :string</text>
<text text-anchor="start" x="157.5" y="-489.4" font-family="Times Roman,serif" font-size="14.00">image_url :string</text>
</g>
<!-- Platform&#45;&gt;Product -->
<g id="edge4" class="edge"><title>Platform&#45;&gt;Product</title>
<path fill="none" stroke="black" d="M216,-469.85C216,-456.585 216,-441.279 216,-425.174"/>
<polygon fill="black" stroke="black" points="216,-469.925 211.5,-479.925 216,-474.925 216,-479.925 216,-479.925 216,-479.925 216,-474.925 220.5,-479.925 216,-469.925 216,-469.925"/>
<polygon fill="black" stroke="black" points="216,-425.054 220.5,-415.054 216,-420.054 216,-415.054 216,-415.054 216,-415.054 216,-420.054 211.5,-415.054 216,-425.054 216,-425.054"/>
</g>
<!-- Rating -->
<g id="node3" class="node"><title>Rating</title>
<polyline fill="none" stroke="black" points="325.5,-1 466.5,-1 "/>
<path fill="none" stroke="black" d="M466.5,-1C472.5,-1 478.5,-7 478.5,-13"/>
<polyline fill="none" stroke="black" points="478.5,-13 478.5,-77 "/>
<path fill="none" stroke="black" d="M478.5,-77C478.5,-83 472.5,-89 466.5,-89"/>
<polyline fill="none" stroke="black" points="466.5,-89 325.5,-89 "/>
<path fill="none" stroke="black" d="M325.5,-89C319.5,-89 313.5,-83 313.5,-77"/>
<polyline fill="none" stroke="black" points="313.5,-77 313.5,-13 "/>
<path fill="none" stroke="black" d="M313.5,-13C313.5,-7 319.5,-1 325.5,-1"/>
<text text-anchor="middle" x="396" y="-72.4" font-family="Times Roman,serif" font-size="14.00">Rating</text>
<polyline fill="none" stroke="black" points="313.5,-63 478.5,-63 "/>
<text text-anchor="start" x="321.5" y="-46.4" font-family="Times Roman,serif" font-size="14.00">rating :float</text>
<text text-anchor="start" x="321.5" y="-28.4" font-family="Times Roman,serif" font-size="14.00">created_at :datetime</text>
<text text-anchor="start" x="321.5" y="-10.4" font-family="Times Roman,serif" font-size="14.00">updated_at :datetime</text>
</g>
<!-- User -->
<g id="node4" class="node"><title>User</title>
<polyline fill="none" stroke="black" points="311.5,-471 452.5,-471 "/>
<path fill="none" stroke="black" d="M452.5,-471C458.5,-471 464.5,-477 464.5,-483"/>
<polyline fill="none" stroke="black" points="464.5,-483 464.5,-547 "/>
<path fill="none" stroke="black" d="M464.5,-547C464.5,-553 458.5,-559 452.5,-559"/>
<polyline fill="none" stroke="black" points="452.5,-559 311.5,-559 "/>
<path fill="none" stroke="black" d="M311.5,-559C305.5,-559 299.5,-553 299.5,-547"/>
<polyline fill="none" stroke="black" points="299.5,-547 299.5,-483 "/>
<path fill="none" stroke="black" d="M299.5,-483C299.5,-477 305.5,-471 311.5,-471"/>
<text text-anchor="middle" x="382" y="-542.4" font-family="Times Roman,serif" font-size="14.00">User</text>
<polyline fill="none" stroke="black" points="299.5,-533 464.5,-533 "/>
<text text-anchor="start" x="307.5" y="-516.4" font-family="Times Roman,serif" font-size="14.00">created_at :datetime</text>
<text text-anchor="start" x="307.5" y="-498.4" font-family="Times Roman,serif" font-size="14.00">updated_at :datetime</text>
<text text-anchor="start" x="307.5" y="-480.4" font-family="Times Roman,serif" font-size="14.00">is_admin :boolean</text>
</g>
<!-- User&#45;&gt;Rating -->
<g id="edge6" class="edge"><title>User&#45;&gt;Rating</title>
<path fill="none" stroke="black" d="M383.56,-462.616C386.236,-372.79 391.673,-190.273 394.385,-99.2091"/>
<ellipse fill="none" stroke="black" cx="383.436" cy="-466.785" rx="4" ry="4"/>
<polygon fill="black" stroke="black" points="394.389,-99.094 399.184,-89.2324 394.538,-94.0962 394.686,-89.0984 394.686,-89.0984 394.686,-89.0984 394.538,-94.0962 390.188,-88.9644 394.389,-99.094 394.389,-99.094"/>
</g>
<!-- Comment -->
<g id="node5" class="node"><title>Comment</title>
<polyline fill="none" stroke="black" points="143.5,-1 284.5,-1 "/>
<path fill="none" stroke="black" d="M284.5,-1C290.5,-1 296.5,-7 296.5,-13"/>
<polyline fill="none" stroke="black" points="296.5,-13 296.5,-77 "/>
<path fill="none" stroke="black" d="M296.5,-77C296.5,-83 290.5,-89 284.5,-89"/>
<polyline fill="none" stroke="black" points="284.5,-89 143.5,-89 "/>
<path fill="none" stroke="black" d="M143.5,-89C137.5,-89 131.5,-83 131.5,-77"/>
<polyline fill="none" stroke="black" points="131.5,-77 131.5,-13 "/>
<path fill="none" stroke="black" d="M131.5,-13C131.5,-7 137.5,-1 143.5,-1"/>
<text text-anchor="middle" x="214" y="-72.4" font-family="Times Roman,serif" font-size="14.00">Comment</text>
<polyline fill="none" stroke="black" points="131.5,-63 296.5,-63 "/>
<text text-anchor="start" x="139.5" y="-46.4" font-family="Times Roman,serif" font-size="14.00">body :text</text>
<text text-anchor="start" x="139.5" y="-28.4" font-family="Times Roman,serif" font-size="14.00">created_at :datetime</text>
<text text-anchor="start" x="139.5" y="-10.4" font-family="Times Roman,serif" font-size="14.00">updated_at :datetime</text>
</g>
<!-- User&#45;&gt;Comment -->
<g id="edge10" class="edge"><title>User&#45;&gt;Comment</title>
<path fill="none" stroke="black" d="M377.466,-462.919C368.516,-363.978 347.97,-156.157 331,-128 323.759,-115.985 314.039,-105.239 303.283,-95.7857"/>
<ellipse fill="none" stroke="black" cx="377.835" cy="-467.015" rx="4" ry="4"/>
<polygon fill="black" stroke="black" points="302.974,-95.5284 298.168,-85.6721 299.132,-92.3295 295.289,-89.1306 295.289,-89.1306 295.289,-89.1306 299.132,-92.3295 292.41,-92.5892 302.974,-95.5284 302.974,-95.5284"/>
</g>
<!-- User&#45;&gt;Product -->
<g id="edge8" class="edge"><title>User&#45;&gt;Product</title>
<path fill="none" stroke="black" d="M292.674,-469.741C286.184,-464.334 280.17,-458.423 275,-452 268.133,-443.468 262.054,-434.109 256.674,-424.283"/>
<ellipse fill="none" stroke="black" cx="296.17" cy="-472.502" rx="4.00002" ry="4.00002"/>
<polygon fill="black" stroke="black" points="256.534,-424.014 255.922,-413.066 254.231,-419.577 251.927,-415.139 251.927,-415.139 251.927,-415.139 254.231,-419.577 247.933,-417.212 256.534,-424.014 256.534,-424.014"/>
<text text-anchor="middle" x="308" y="-439.4" font-family="Times Roman,serif" font-size="14.00">published</text>
</g>
<!-- Product&#45;&gt;Rating -->
<g id="edge12" class="edge"><title>Product&#45;&gt;Rating</title>
<path fill="none" stroke="black" d="M327.246,-131.706C336.928,-119.496 346.263,-107.724 354.766,-97.0012"/>
<ellipse fill="none" stroke="black" cx="324.493" cy="-135.178" rx="4.00002" ry="4.00002"/>
<polygon fill="black" stroke="black" points="354.884,-96.8516 364.623,-91.812 357.991,-92.9338 361.097,-89.016 361.097,-89.016 361.097,-89.016 357.991,-92.9338 357.571,-86.22 354.884,-96.8516 354.884,-96.8516"/>
</g>
<!-- Product&#45;&gt;Comment -->
<g id="edge14" class="edge"><title>Product&#45;&gt;Comment</title>
<path fill="none" stroke="black" d="M214.667,-120.664C214.602,-113.34 214.54,-106.253 214.481,-99.5463"/>
<ellipse fill="none" stroke="black" cx="214.704" cy="-124.882" rx="4" ry="4"/>
<polygon fill="black" stroke="black" points="214.479,-99.3401 218.89,-89.3008 214.435,-94.3403 214.391,-89.3405 214.391,-89.3405 214.391,-89.3405 214.435,-94.3403 209.891,-89.3802 214.479,-99.3401 214.479,-99.3401"/>
</g>
</g>
</svg>
