<?xml version="1.0" encoding="UTF-8" standalone="no"?>
<!DOCTYPE svg PUBLIC "-//W3C//DTD SVG 1.1//EN"
 "http://www.w3.org/Graphics/SVG/1.1/DTD/svg11.dtd">
<!-- Generated by graphviz version 2.26.3 (20100126.1600)
 -->
<!-- Title: models_diagram Pages: 1 -->
<svg width="671pt" height="495pt"
 viewBox="0.00 0.00 670.80 495.00" xmlns="http://www.w3.org/2000/svg" xmlns:xlink="http://www.w3.org/1999/xlink">
<g id="graph1" class="graph" transform="scale(1 1) rotate(0) translate(4 491)">
<title>models_diagram</title>
<polygon fill="white" stroke="white" points="-4,5 -4,-491 667.795,-491 667.795,5 -4,5"/>
<!-- Product -->
<g id="node1" class="node"><title>Product</title>
<polyline fill="none" stroke="black" points="231.873,-90.0371 361.873,-90.0371 "/>
<path fill="none" stroke="black" d="M361.873,-90.0371C367.873,-90.0371 373.873,-96.0371 373.873,-102.037"/>
<polyline fill="none" stroke="black" points="373.873,-102.037 373.873,-289.037 "/>
<path fill="none" stroke="black" d="M373.873,-289.037C373.873,-295.037 367.873,-301.037 361.873,-301.037"/>
<polyline fill="none" stroke="black" points="361.873,-301.037 231.873,-301.037 "/>
<path fill="none" stroke="black" d="M231.873,-301.037C225.873,-301.037 219.873,-295.037 219.873,-289.037"/>
<polyline fill="none" stroke="black" points="219.873,-289.037 219.873,-102.037 "/>
<path fill="none" stroke="black" d="M219.873,-102.037C219.873,-96.0371 225.873,-90.0371 231.873,-90.0371"/>
<text text-anchor="middle" x="296.873" y="-288.037" font-family="Times Roman,serif" font-size="10.00">Product</text>
<polyline fill="none" stroke="black" points="219.873,-280.037 373.873,-280.037 "/>
<text text-anchor="start" x="227.873" y="-267.037" font-family="Times Roman,serif" font-size="10.00">name :string</text>
<text text-anchor="start" x="227.873" y="-254.037" font-family="Times Roman,serif" font-size="10.00">description :text</text>
<text text-anchor="start" x="227.873" y="-241.037" font-family="Times Roman,serif" font-size="10.00">url :string</text>
<text text-anchor="start" x="227.873" y="-228.037" font-family="Times Roman,serif" font-size="10.00">created_at :datetime</text>
<text text-anchor="start" x="227.873" y="-215.037" font-family="Times Roman,serif" font-size="10.00">updated_at :datetime</text>
<text text-anchor="start" x="227.873" y="-202.037" font-family="Times Roman,serif" font-size="10.00">popularity :integer</text>
<text text-anchor="start" x="227.873" y="-189.037" font-family="Times Roman,serif" font-size="10.00">featured :boolean</text>
<text text-anchor="start" x="227.873" y="-176.037" font-family="Times Roman,serif" font-size="10.00">avg_rating :float</text>
<text text-anchor="start" x="227.873" y="-163.037" font-family="Times Roman,serif" font-size="10.00">photo_file_name :string</text>
<text text-anchor="start" x="227.873" y="-150.037" font-family="Times Roman,serif" font-size="10.00">photo_content_type :string</text>
<text text-anchor="start" x="227.873" y="-137.037" font-family="Times Roman,serif" font-size="10.00">photo_file_size :integer</text>
<text text-anchor="start" x="227.873" y="-124.037" font-family="Times Roman,serif" font-size="10.00">photo_updated_at :datetime</text>
<text text-anchor="start" x="227.873" y="-111.037" font-family="Times Roman,serif" font-size="10.00">approval_date :datetime</text>
<text text-anchor="start" x="227.873" y="-98.0371" font-family="Times Roman,serif" font-size="10.00">approval_state :string</text>
</g>
<!-- Platform -->
<g id="node2" class="node"><title>Platform</title>
<polyline fill="none" stroke="black" points="37.6962,-338.082 110.696,-338.082 "/>
<path fill="none" stroke="black" d="M110.696,-338.082C116.696,-338.082 122.696,-344.082 122.696,-350.082"/>
<polyline fill="none" stroke="black" points="122.696,-350.082 122.696,-381.082 "/>
<path fill="none" stroke="black" d="M122.696,-381.082C122.696,-387.082 116.696,-393.082 110.696,-393.082"/>
<polyline fill="none" stroke="black" points="110.696,-393.082 37.6962,-393.082 "/>
<path fill="none" stroke="black" d="M37.6962,-393.082C31.6962,-393.082 25.6962,-387.082 25.6962,-381.082"/>
<polyline fill="none" stroke="black" points="25.6962,-381.082 25.6962,-350.082 "/>
<path fill="none" stroke="black" d="M25.6962,-350.082C25.6962,-344.082 31.6962,-338.082 37.6962,-338.082"/>
<text text-anchor="middle" x="74.1962" y="-380.082" font-family="Times Roman,serif" font-size="10.00">Platform</text>
<polyline fill="none" stroke="black" points="25.6962,-372.082 122.696,-372.082 "/>
<text text-anchor="start" x="33.6962" y="-359.082" font-family="Times Roman,serif" font-size="10.00">name :string</text>
<text text-anchor="start" x="33.6962" y="-346.082" font-family="Times Roman,serif" font-size="10.00">image_url :string</text>
</g>
<!-- Product&#45;&gt;Platform -->
<g id="edge2" class="edge"><title>Product&#45;&gt;Platform</title>
<path fill="none" stroke="black" d="M211.281,-260.899C179.584,-285.104 144.941,-311.559 118.411,-331.818"/>
<polygon fill="black" stroke="black" points="211.668,-260.603 222.347,-258.11 215.642,-257.568 219.616,-254.533 219.616,-254.533 219.616,-254.533 215.642,-257.568 216.885,-250.957 211.668,-260.603 211.668,-260.603"/>
<polygon fill="black" stroke="black" points="118.398,-331.828 107.719,-334.321 114.424,-334.863 110.45,-337.897 110.45,-337.897 110.45,-337.897 114.424,-334.863 113.181,-341.474 118.398,-331.828 118.398,-331.828"/>
</g>
<!-- Download -->
<g id="node5" class="node"><title>Download</title>
<polyline fill="none" stroke="black" points="13,-108.468 129,-108.468 "/>
<path fill="none" stroke="black" d="M129,-108.468C135,-108.468 141,-114.468 141,-120.468"/>
<polyline fill="none" stroke="black" points="141,-120.468 141,-229.468 "/>
<path fill="none" stroke="black" d="M141,-229.468C141,-235.468 135,-241.468 129,-241.468"/>
<polyline fill="none" stroke="black" points="129,-241.468 13,-241.468 "/>
<path fill="none" stroke="black" d="M13,-241.468C7,-241.468 1,-235.468 1,-229.468"/>
<polyline fill="none" stroke="black" points="1,-229.468 1,-120.468 "/>
<path fill="none" stroke="black" d="M1,-120.468C1,-114.468 7,-108.468 13,-108.468"/>
<text text-anchor="middle" x="71" y="-228.468" font-family="Times Roman,serif" font-size="10.00">Download</text>
<polyline fill="none" stroke="black" points="1,-220.468 141,-220.468 "/>
<text text-anchor="start" x="9" y="-207.468" font-family="Times Roman,serif" font-size="10.00">title :string</text>
<text text-anchor="start" x="9" y="-194.468" font-family="Times Roman,serif" font-size="10.00">file_file_name :string</text>
<text text-anchor="start" x="9" y="-181.468" font-family="Times Roman,serif" font-size="10.00">file_content_type :string</text>
<text text-anchor="start" x="9" y="-168.468" font-family="Times Roman,serif" font-size="10.00">file_file_size :integer</text>
<text text-anchor="start" x="9" y="-155.468" font-family="Times Roman,serif" font-size="10.00">file_updated_at :datetime</text>
<text text-anchor="start" x="9" y="-142.468" font-family="Times Roman,serif" font-size="10.00">created_at :datetime</text>
<text text-anchor="start" x="9" y="-129.468" font-family="Times Roman,serif" font-size="10.00">updated_at :datetime</text>
<text text-anchor="start" x="9" y="-116.468" font-family="Times Roman,serif" font-size="10.00">weight :integer</text>
</g>
<!-- Product&#45;&gt;Download -->
<g id="edge8" class="edge"><title>Product&#45;&gt;Download</title>
<path fill="none" stroke="black" d="M211.642,-187.775C191.884,-185.976 170.922,-184.067 151.381,-182.288"/>
<ellipse fill="none" stroke="black" cx="215.788" cy="-188.153" rx="4" ry="4"/>
<polygon fill="black" stroke="black" points="151.264,-182.277 141.714,-176.889 146.285,-181.824 141.305,-181.37 141.305,-181.37 141.305,-181.37 146.285,-181.824 140.897,-185.852 151.264,-182.277 151.264,-182.277"/>
</g>
<!-- Rating -->
<g id="node8" class="node"><title>Rating</title>
<polyline fill="none" stroke="black" points="434.236,-38.1622 531.236,-38.1622 "/>
<path fill="none" stroke="black" d="M531.236,-38.1622C537.236,-38.1622 543.236,-44.1622 543.236,-50.1622"/>
<polyline fill="none" stroke="black" points="543.236,-50.1622 543.236,-94.1622 "/>
<path fill="none" stroke="black" d="M543.236,-94.1622C543.236,-100.162 537.236,-106.162 531.236,-106.162"/>
<polyline fill="none" stroke="black" points="531.236,-106.162 434.236,-106.162 "/>
<path fill="none" stroke="black" d="M434.236,-106.162C428.236,-106.162 422.236,-100.162 422.236,-94.1622"/>
<polyline fill="none" stroke="black" points="422.236,-94.1622 422.236,-50.1622 "/>
<path fill="none" stroke="black" d="M422.236,-50.1622C422.236,-44.1622 428.236,-38.1622 434.236,-38.1622"/>
<text text-anchor="middle" x="482.736" y="-93.1622" font-family="Times Roman,serif" font-size="10.00">Rating</text>
<polyline fill="none" stroke="black" points="422.236,-85.1622 543.236,-85.1622 "/>
<text text-anchor="start" x="430.236" y="-72.1622" font-family="Times Roman,serif" font-size="10.00">rating :float</text>
<text text-anchor="start" x="430.236" y="-59.1622" font-family="Times Roman,serif" font-size="10.00">created_at :datetime</text>
<text text-anchor="start" x="430.236" y="-46.1622" font-family="Times Roman,serif" font-size="10.00">updated_at :datetime</text>
</g>
<!-- Product&#45;&gt;Rating -->
<g id="edge4" class="edge"><title>Product&#45;&gt;Rating</title>
<path fill="none" stroke="black" d="M380.916,-139.75C395.052,-130.366 409.466,-120.798 422.831,-111.926"/>
<ellipse fill="none" stroke="black" cx="377.413" cy="-142.075" rx="4.00002" ry="4.00002"/>
<polygon fill="black" stroke="black" points="423.118,-111.736 433.939,-109.955 427.284,-108.971 431.45,-106.205 431.45,-106.205 431.45,-106.205 427.284,-108.971 428.961,-102.456 423.118,-111.736 423.118,-111.736"/>
</g>
<!-- Comment -->
<g id="node9" class="node"><title>Comment</title>
<polyline fill="none" stroke="black" points="388.819,-336.674 507.819,-336.674 "/>
<path fill="none" stroke="black" d="M507.819,-336.674C513.819,-336.674 519.819,-342.674 519.819,-348.674"/>
<polyline fill="none" stroke="black" points="519.819,-348.674 519.819,-405.674 "/>
<path fill="none" stroke="black" d="M519.819,-405.674C519.819,-411.674 513.819,-417.674 507.819,-417.674"/>
<polyline fill="none" stroke="black" points="507.819,-417.674 388.819,-417.674 "/>
<path fill="none" stroke="black" d="M388.819,-417.674C382.819,-417.674 376.819,-411.674 376.819,-405.674"/>
<polyline fill="none" stroke="black" points="376.819,-405.674 376.819,-348.674 "/>
<path fill="none" stroke="black" d="M376.819,-348.674C376.819,-342.674 382.819,-336.674 388.819,-336.674"/>
<text text-anchor="middle" x="448.319" y="-404.674" font-family="Times Roman,serif" font-size="10.00">Comment</text>
<polyline fill="none" stroke="black" points="376.819,-396.674 519.819,-396.674 "/>
<text text-anchor="start" x="384.819" y="-383.674" font-family="Times Roman,serif" font-size="10.00">body :text</text>
<text text-anchor="start" x="384.819" y="-370.674" font-family="Times Roman,serif" font-size="10.00">created_at :datetime</text>
<text text-anchor="start" x="384.819" y="-357.674" font-family="Times Roman,serif" font-size="10.00">updated_at :datetime</text>
<text text-anchor="start" x="384.819" y="-344.674" font-family="Times Roman,serif" font-size="10.00">admin_comment :boolean</text>
</g>
<!-- Product&#45;&gt;Comment -->
<g id="edge6" class="edge"><title>Product&#45;&gt;Comment</title>
<path fill="none" stroke="black" d="M379.236,-294.319C389.088,-306.135 398.789,-317.77 407.665,-328.415"/>
<ellipse fill="none" stroke="black" cx="376.488" cy="-291.024" rx="4.00002" ry="4.00002"/>
<polygon fill="black" stroke="black" points="407.876,-328.669 410.824,-339.231 411.078,-332.509 414.28,-336.349 414.28,-336.349 414.28,-336.349 411.078,-332.509 417.736,-333.468 407.876,-328.669 407.876,-328.669"/>
</g>
<!-- ActsAsTaggableOn::Tag -->
<g id="node17" class="node"><title>ActsAsTaggableOn::Tag</title>
<ellipse fill="none" stroke="black" cx="236.649" cy="-350.188" rx="78.1796" ry="18"/>
<text text-anchor="middle" x="236.649" y="-347.688" font-family="Times Roman,serif" font-size="10.00">ActsAsTaggableOn::Tag</text>
</g>
<!-- Product&#45;&gt;ActsAsTaggableOn::Tag -->
<g id="edge10" class="edge"><title>Product&#45;&gt;ActsAsTaggableOn::Tag</title>
<path fill="none" stroke="black" d="M252.071,-310.586C250.461,-314.72 248.925,-318.664 247.49,-322.349"/>
<polygon fill="black" stroke="black" points="252.075,-310.574 259.897,-302.888 253.89,-305.915 255.704,-301.256 255.704,-301.256 255.704,-301.256 253.89,-305.915 251.511,-299.623 252.075,-310.574 252.075,-310.574"/>
<polygon fill="black" stroke="black" points="247.363,-322.674 239.541,-330.36 245.549,-327.334 243.735,-331.993 243.735,-331.993 243.735,-331.993 245.549,-327.334 247.928,-333.626 247.363,-322.674 247.363,-322.674"/>
<text text-anchor="middle" x="262.572" y="-318.503" font-family="Times Roman,serif" font-size="10.00">tags</text>
</g>
<!-- Category -->
<g id="node3" class="node"><title>Category</title>
<polyline fill="none" stroke="black" points="139.454,-1.5 212.454,-1.5 "/>
<path fill="none" stroke="black" d="M212.454,-1.5C218.454,-1.5 224.454,-7.5 224.454,-13.5"/>
<polyline fill="none" stroke="black" points="224.454,-13.5 224.454,-44.5 "/>
<path fill="none" stroke="black" d="M224.454,-44.5C224.454,-50.5 218.454,-56.5 212.454,-56.5"/>
<polyline fill="none" stroke="black" points="212.454,-56.5 139.454,-56.5 "/>
<path fill="none" stroke="black" d="M139.454,-56.5C133.454,-56.5 127.454,-50.5 127.454,-44.5"/>
<polyline fill="none" stroke="black" points="127.454,-44.5 127.454,-13.5 "/>
<path fill="none" stroke="black" d="M127.454,-13.5C127.454,-7.5 133.454,-1.5 139.454,-1.5"/>
<text text-anchor="middle" x="175.954" y="-43.5" font-family="Times Roman,serif" font-size="10.00">Category</text>
<polyline fill="none" stroke="black" points="127.454,-35.5 224.454,-35.5 "/>
<text text-anchor="start" x="135.454" y="-22.5" font-family="Times Roman,serif" font-size="10.00">name :string</text>
<text text-anchor="start" x="135.454" y="-9.5" font-family="Times Roman,serif" font-size="10.00">image_url :string</text>
</g>
<!-- Category&#45;&gt;Product -->
<g id="edge12" class="edge"><title>Category&#45;&gt;Product</title>
<path fill="none" stroke="black" d="M200.729,-63.1221C204.902,-68.869 209.428,-75.1022 214.165,-81.6272"/>
<ellipse fill="none" stroke="black" cx="198.271" cy="-59.737" rx="4.00002" ry="4.00002"/>
<polygon fill="black" stroke="black" points="214.393,-81.9415 216.628,-92.6774 217.331,-85.9874 220.269,-90.0334 220.269,-90.0334 220.269,-90.0334 217.331,-85.9874 223.91,-87.3895 214.393,-81.9415 214.393,-81.9415"/>
</g>
<!-- UserConnection -->
<g id="node4" class="node"><title>UserConnection</title>
<polygon fill="none" stroke="black" points="261,-417.5 261,-459.5 354,-459.5 354,-417.5 261,-417.5"/>
<text text-anchor="middle" x="307.5" y="-446.5" font-family="Times Roman,serif" font-size="10.00">UserConnection</text>
<polyline fill="none" stroke="black" points="261,-438.5 354,-438.5 "/>
<text text-anchor="middle" x="307.5" y="-425.5" font-family="Times Roman,serif" font-size="10.00"> </text>
</g>
<!-- Session -->
<g id="node6" class="node"><title>Session</title>
<polygon fill="none" stroke="black" points="573,-339.5 573,-381.5 627,-381.5 627,-339.5 573,-339.5"/>
<text text-anchor="middle" x="600" y="-368.5" font-family="Times Roman,serif" font-size="10.00">Session</text>
<polyline fill="none" stroke="black" points="573,-360.5 627,-360.5 "/>
<text text-anchor="middle" x="600" y="-347.5" font-family="Times Roman,serif" font-size="10.00"> </text>
</g>
<!-- User -->
<g id="node7" class="node"><title>User</title>
<polyline fill="none" stroke="black" points="511.795,-208.182 649.795,-208.182 "/>
<path fill="none" stroke="black" d="M649.795,-208.182C655.795,-208.182 661.795,-214.182 661.795,-220.182"/>
<polyline fill="none" stroke="black" points="661.795,-220.182 661.795,-290.182 "/>
<path fill="none" stroke="black" d="M661.795,-290.182C661.795,-296.182 655.795,-302.182 649.795,-302.182"/>
<polyline fill="none" stroke="black" points="649.795,-302.182 511.795,-302.182 "/>
<path fill="none" stroke="black" d="M511.795,-302.182C505.795,-302.182 499.795,-296.182 499.795,-290.182"/>
<polyline fill="none" stroke="black" points="499.795,-290.182 499.795,-220.182 "/>
<path fill="none" stroke="black" d="M499.795,-220.182C499.795,-214.182 505.795,-208.182 511.795,-208.182"/>
<text text-anchor="middle" x="580.795" y="-289.182" font-family="Times Roman,serif" font-size="10.00">User</text>
<polyline fill="none" stroke="black" points="499.795,-281.182 661.795,-281.182 "/>
<text text-anchor="start" x="507.795" y="-268.182" font-family="Times Roman,serif" font-size="10.00">created_at :datetime</text>
<text text-anchor="start" x="507.795" y="-255.182" font-family="Times Roman,serif" font-size="10.00">updated_at :datetime</text>
<text text-anchor="start" x="507.795" y="-242.182" font-family="Times Roman,serif" font-size="10.00">is_admin :boolean</text>
<text text-anchor="start" x="507.795" y="-229.182" font-family="Times Roman,serif" font-size="10.00">receive_admin_email :boolean</text>
<text text-anchor="start" x="507.795" y="-216.182" font-family="Times Roman,serif" font-size="10.00">language :string</text>
</g>
<!-- User&#45;&gt;Product -->
<g id="edge16" class="edge"><title>User&#45;&gt;Product</title>
<path fill="none" stroke="black" d="M491.503,-236.424C457.283,-229.236 418.305,-221.047 384.265,-213.896"/>
<ellipse fill="none" stroke="black" cx="495.52" cy="-237.268" rx="4.00001" ry="4.00001"/>
<polygon fill="black" stroke="black" points="384.125,-213.867 375.264,-207.407 379.232,-212.839 374.338,-211.811 374.338,-211.811 374.338,-211.811 379.232,-212.839 373.413,-216.215 384.125,-213.867 384.125,-213.867"/>
<text text-anchor="middle" x="434.96" y="-232.466" font-family="Times Roman,serif" font-size="10.00">published</text>
</g>
<!-- User&#45;&gt;Rating -->
<g id="edge14" class="edge"><title>User&#45;&gt;Rating</title>
<path fill="none" stroke="black" d="M551.673,-200.829C537.072,-173.577 519.634,-141.03 505.949,-115.489"/>
<ellipse fill="none" stroke="black" cx="553.653" cy="-204.524" rx="4.00002" ry="4.00002"/>
<polygon fill="black" stroke="black" points="505.813,-115.234 505.056,-104.294 503.451,-110.826 501.09,-106.419 501.09,-106.419 501.09,-106.419 503.451,-110.826 497.123,-108.544 505.813,-115.234 505.813,-115.234"/>
</g>
<!-- User&#45;&gt;Comment -->
<g id="edge18" class="edge"><title>User&#45;&gt;Comment</title>
<path fill="none" stroke="black" d="M523.506,-307.938C515.718,-315.109 507.763,-322.434 500.081,-329.509"/>
<ellipse fill="none" stroke="black" cx="526.634" cy="-305.057" rx="4.00002" ry="4.00002"/>
<polygon fill="black" stroke="black" points="499.863,-329.71 489.458,-333.173 496.185,-333.097 492.506,-336.484 492.506,-336.484 492.506,-336.484 496.185,-333.097 495.555,-339.794 499.863,-329.71 499.863,-329.71"/>
</g>
<!-- MarkdownHelper -->
<g id="node10" class="node"><title>MarkdownHelper</title>
<polygon fill="none" stroke="black" stroke-dasharray="1,5" points="357,-63 261,-63 261,-27 357,-27 357,-63"/>
<text text-anchor="middle" x="309" y="-42.5" font-family="Times Roman,serif" font-size="10.00">MarkdownHelper</text>
</g>
<!-- Ability -->
<g id="node11" class="node"><title>Ability</title>
<polygon fill="none" stroke="black" points="573,-443.5 573,-485.5 627,-485.5 627,-443.5 573,-443.5"/>
<text text-anchor="middle" x="600" y="-472.5" font-family="Times Roman,serif" font-size="10.00">Ability</text>
<polyline fill="none" stroke="black" points="573,-464.5 627,-464.5 "/>
<text text-anchor="middle" x="600" y="-451.5" font-family="Times Roman,serif" font-size="10.00"> </text>
</g>
</g>
</svg>
